<svg width="219" height="267" viewBox="0 0 219 267" fill="none" xmlns="http://www.w3.org/2000/svg">
<path d="M4.06045 211C3.80378 211 3.60545 210.93 3.46545 210.79C3.32545 210.627 3.25545 210.428 3.25545 210.195V187.305C3.25545 187.072 3.32545 186.885 3.46545 186.745C3.60545 186.582 3.80378 186.5 4.06045 186.5H5.91545C6.14878 186.5 6.33545 186.582 6.47545 186.745C6.63878 186.885 6.72045 187.072 6.72045 187.305V210.195C6.72045 210.428 6.63878 210.627 6.47545 210.79C6.33545 210.93 6.14878 211 5.91545 211H4.06045ZM13.6308 211C13.3741 211 13.1758 210.93 13.0358 210.79C12.8958 210.627 12.8258 210.428 12.8258 210.195V187.34C12.8258 187.083 12.8958 186.885 13.0358 186.745C13.1758 186.582 13.3741 186.5 13.6308 186.5H15.2408C15.5208 186.5 15.7308 186.57 15.8708 186.71C16.0108 186.827 16.0924 186.92 16.1158 186.99L27.7358 204.84V187.34C27.7358 187.083 27.8058 186.885 27.9458 186.745C28.0858 186.582 28.2841 186.5 28.5408 186.5H30.2208C30.4774 186.5 30.6758 186.582 30.8158 186.745C30.9791 186.885 31.0608 187.083 31.0608 187.34V210.16C31.0608 210.393 30.9791 210.592 30.8158 210.755C30.6758 210.918 30.4891 211 30.2558 211H28.5758C28.3191 211 28.1208 210.93 27.9808 210.79C27.8641 210.65 27.7824 210.557 27.7358 210.51L16.1508 192.835V210.195C16.1508 210.428 16.0691 210.627 15.9058 210.79C15.7658 210.93 15.5674 211 15.3108 211H13.6308ZM43.2875 211C43.0542 211 42.8559 210.93 42.6925 210.79C42.5525 210.627 42.4825 210.428 42.4825 210.195V189.615H35.7625C35.5292 189.615 35.3309 189.545 35.1675 189.405C35.0275 189.242 34.9575 189.043 34.9575 188.81V187.34C34.9575 187.083 35.0275 186.885 35.1675 186.745C35.3309 186.582 35.5292 186.5 35.7625 186.5H52.6325C52.8892 186.5 53.0875 186.582 53.2275 186.745C53.3909 186.885 53.4725 187.083 53.4725 187.34V188.81C53.4725 189.043 53.3909 189.242 53.2275 189.405C53.0875 189.545 52.8892 189.615 52.6325 189.615H45.9475V210.195C45.9475 210.428 45.8659 210.627 45.7025 210.79C45.5625 210.93 45.3642 211 45.1075 211H43.2875ZM58.2011 211C57.9444 211 57.7461 210.93 57.6061 210.79C57.4661 210.627 57.3961 210.428 57.3961 210.195V187.34C57.3961 187.083 57.4661 186.885 57.6061 186.745C57.7461 186.582 57.9444 186.5 58.2011 186.5H72.6561C72.9127 186.5 73.1111 186.582 73.2511 186.745C73.3911 186.885 73.4611 187.083 73.4611 187.34V188.67C73.4611 188.927 73.3911 189.125 73.2511 189.265C73.1111 189.405 72.9127 189.475 72.6561 189.475H60.7561V197.14H71.8861C72.1427 197.14 72.3411 197.222 72.4811 197.385C72.6211 197.525 72.6911 197.723 72.6911 197.98V199.275C72.6911 199.508 72.6211 199.707 72.4811 199.87C72.3411 200.01 72.1427 200.08 71.8861 200.08H60.7561V208.025H72.9361C73.1927 208.025 73.3911 208.095 73.5311 208.235C73.6711 208.375 73.7411 208.573 73.7411 208.83V210.195C73.7411 210.428 73.6711 210.627 73.5311 210.79C73.3911 210.93 73.1927 211 72.9361 211H58.2011ZM79.4267 211C79.17 211 78.9717 210.93 78.8317 210.79C78.6917 210.627 78.6217 210.428 78.6217 210.195V187.34C78.6217 187.083 78.6917 186.885 78.8317 186.745C78.9717 186.582 79.17 186.5 79.4267 186.5H87.9667C90.6033 186.5 92.6917 187.118 94.2317 188.355C95.7717 189.592 96.5417 191.423 96.5417 193.85C96.5417 195.647 96.0867 197.117 95.1767 198.26C94.29 199.38 93.0767 200.162 91.5367 200.605L96.9267 209.915C96.9967 210.055 97.0317 210.183 97.0317 210.3C97.0317 210.487 96.95 210.65 96.7867 210.79C96.6467 210.93 96.4833 211 96.2967 211H94.6167C94.22 211 93.9283 210.895 93.7417 210.685C93.555 210.475 93.3917 210.265 93.2517 210.055L88.1767 201.165H82.0517V210.195C82.0517 210.428 81.97 210.627 81.8067 210.79C81.6667 210.93 81.4683 211 81.2117 211H79.4267ZM82.0517 198.19H87.8267C89.5767 198.19 90.8833 197.828 91.7467 197.105C92.61 196.358 93.0417 195.262 93.0417 193.815C93.0417 192.392 92.61 191.307 91.7467 190.56C90.9067 189.813 89.6 189.44 87.8267 189.44H82.0517V198.19ZM99.9112 211C99.7246 211 99.5612 210.93 99.4212 210.79C99.2812 210.65 99.2112 210.487 99.2112 210.3C99.2112 210.183 99.2229 210.055 99.2462 209.915L107.926 187.27C108.02 187.037 108.148 186.85 108.311 186.71C108.475 186.57 108.72 186.5 109.046 186.5H111.426C111.73 186.5 111.963 186.57 112.126 186.71C112.313 186.85 112.453 187.037 112.546 187.27L121.191 209.915C121.238 210.055 121.261 210.183 121.261 210.3C121.261 210.487 121.191 210.65 121.051 210.79C120.911 210.93 120.748 211 120.561 211H118.776C118.496 211 118.286 210.93 118.146 210.79C118.03 210.65 117.948 210.522 117.901 210.405L115.976 205.435H104.496L102.571 210.405C102.548 210.522 102.466 210.65 102.326 210.79C102.186 210.93 101.976 211 101.696 211H99.9112ZM105.511 202.425H114.961L110.236 190L105.511 202.425ZM133.379 211.35C131.232 211.35 129.447 210.953 128.024 210.16C126.624 209.367 125.562 208.258 124.839 206.835C124.116 205.412 123.719 203.755 123.649 201.865C123.626 200.908 123.614 199.882 123.614 198.785C123.614 197.688 123.626 196.638 123.649 195.635C123.719 193.745 124.116 192.088 124.839 190.665C125.562 189.242 126.624 188.133 128.024 187.34C129.447 186.547 131.232 186.15 133.379 186.15C134.989 186.15 136.401 186.372 137.614 186.815C138.827 187.258 139.831 187.853 140.624 188.6C141.441 189.347 142.059 190.187 142.479 191.12C142.899 192.03 143.132 192.975 143.179 193.955C143.202 194.165 143.132 194.34 142.969 194.48C142.829 194.62 142.654 194.69 142.444 194.69H140.519C140.309 194.69 140.122 194.632 139.959 194.515C139.819 194.398 139.714 194.188 139.644 193.885C139.247 192.065 138.501 190.817 137.404 190.14C136.331 189.463 134.977 189.125 133.344 189.125C131.477 189.125 129.996 189.662 128.899 190.735C127.802 191.785 127.207 193.477 127.114 195.81C127.044 197.723 127.044 199.683 127.114 201.69C127.207 204.023 127.802 205.727 128.899 206.8C129.996 207.85 131.477 208.375 133.344 208.375C134.977 208.375 136.331 208.037 137.404 207.36C138.501 206.683 139.247 205.435 139.644 203.615C139.714 203.312 139.819 203.102 139.959 202.985C140.122 202.868 140.309 202.81 140.519 202.81H142.444C142.654 202.81 142.829 202.88 142.969 203.02C143.132 203.16 143.202 203.335 143.179 203.545C143.132 204.525 142.899 205.482 142.479 206.415C142.059 207.325 141.441 208.153 140.624 208.9C139.831 209.647 138.827 210.242 137.614 210.685C136.401 211.128 134.989 211.35 133.379 211.35ZM154.03 211C153.796 211 153.598 210.93 153.435 210.79C153.295 210.627 153.225 210.428 153.225 210.195V189.615H146.505C146.271 189.615 146.073 189.545 145.91 189.405C145.77 189.242 145.7 189.043 145.7 188.81V187.34C145.7 187.083 145.77 186.885 145.91 186.745C146.073 186.582 146.271 186.5 146.505 186.5H163.375C163.631 186.5 163.83 186.582 163.97 186.745C164.133 186.885 164.215 187.083 164.215 187.34V188.81C164.215 189.043 164.133 189.242 163.97 189.405C163.83 189.545 163.631 189.615 163.375 189.615H156.69V210.195C156.69 210.428 156.608 210.627 156.445 210.79C156.305 210.93 156.106 211 155.85 211H154.03ZM168.943 211C168.687 211 168.488 210.93 168.348 210.79C168.208 210.627 168.138 210.428 168.138 210.195V187.305C168.138 187.072 168.208 186.885 168.348 186.745C168.488 186.582 168.687 186.5 168.943 186.5H170.798C171.032 186.5 171.218 186.582 171.358 186.745C171.522 186.885 171.603 187.072 171.603 187.305V210.195C171.603 210.428 171.522 210.627 171.358 210.79C171.218 210.93 171.032 211 170.798 211H168.943ZM184.989 211C184.639 211 184.359 210.918 184.149 210.755C183.962 210.592 183.81 210.37 183.694 210.09L175.889 187.585C175.842 187.445 175.819 187.317 175.819 187.2C175.819 187.013 175.889 186.85 176.029 186.71C176.169 186.57 176.332 186.5 176.519 186.5H178.339C178.619 186.5 178.829 186.582 178.969 186.745C179.132 186.885 179.225 187.013 179.249 187.13L186.109 206.975L192.969 187.13C193.015 187.013 193.109 186.885 193.249 186.745C193.389 186.582 193.599 186.5 193.879 186.5H195.699C195.885 186.5 196.049 186.57 196.189 186.71C196.352 186.85 196.434 187.013 196.434 187.2C196.434 187.317 196.41 187.445 196.364 187.585L188.524 210.09C188.43 210.37 188.279 210.592 188.069 210.755C187.882 210.918 187.614 211 187.264 211H184.989ZM201.414 211C201.157 211 200.959 210.93 200.819 210.79C200.679 210.627 200.609 210.428 200.609 210.195V187.34C200.609 187.083 200.679 186.885 200.819 186.745C200.959 186.582 201.157 186.5 201.414 186.5H215.869C216.126 186.5 216.324 186.582 216.464 186.745C216.604 186.885 216.674 187.083 216.674 187.34V188.67C216.674 188.927 216.604 189.125 216.464 189.265C216.324 189.405 216.126 189.475 215.869 189.475H203.969V197.14H215.099C215.356 197.14 215.554 197.222 215.694 197.385C215.834 197.525 215.904 197.723 215.904 197.98V199.275C215.904 199.508 215.834 199.707 215.694 199.87C215.554 200.01 215.356 200.08 215.099 200.08H203.969V208.025H216.149C216.406 208.025 216.604 208.095 216.744 208.235C216.884 208.375 216.954 208.573 216.954 208.83V210.195C216.954 210.428 216.884 210.627 216.744 210.79C216.604 210.93 216.406 211 216.149 211H201.414ZM20.17 256C19.9834 256 19.82 255.93 19.68 255.79C19.54 255.65 19.47 255.487 19.47 255.3C19.47 255.183 19.4817 255.055 19.505 254.915L28.185 232.27C28.2784 232.037 28.4067 231.85 28.57 231.71C28.7334 231.57 28.9784 231.5 29.305 231.5H31.685C31.9884 231.5 32.2217 231.57 32.385 231.71C32.5717 231.85 32.7117 232.037 32.805 232.27L41.45 254.915C41.4967 255.055 41.52 255.183 41.52 255.3C41.52 255.487 41.45 255.65 41.31 255.79C41.17 255.93 41.0067 256 40.82 256H39.035C38.755 256 38.545 255.93 38.405 255.79C38.2884 255.65 38.2067 255.522 38.16 255.405L36.235 250.435H24.755L22.83 255.405C22.8067 255.522 22.725 255.65 22.585 255.79C22.445 255.93 22.235 256 21.955 256H20.17ZM25.77 247.425H35.22L30.495 235L25.77 247.425ZM53.6379 256.35C51.4913 256.35 49.7063 255.953 48.2829 255.16C46.8829 254.367 45.8213 253.258 45.0979 251.835C44.3746 250.412 43.9779 248.755 43.9079 246.865C43.8846 245.908 43.8729 244.882 43.8729 243.785C43.8729 242.688 43.8846 241.638 43.9079 240.635C43.9779 238.745 44.3746 237.088 45.0979 235.665C45.8213 234.242 46.8829 233.133 48.2829 232.34C49.7063 231.547 51.4913 231.15 53.6379 231.15C55.2479 231.15 56.6596 231.372 57.8729 231.815C59.0863 232.258 60.0896 232.853 60.8829 233.6C61.6996 234.347 62.318 235.187 62.738 236.12C63.158 237.03 63.3913 237.975 63.4379 238.955C63.4613 239.165 63.3913 239.34 63.228 239.48C63.088 239.62 62.913 239.69 62.703 239.69H60.778C60.568 239.69 60.3813 239.632 60.2179 239.515C60.0779 239.398 59.9729 239.188 59.9029 238.885C59.5063 237.065 58.7596 235.817 57.663 235.14C56.5896 234.463 55.2363 234.125 53.603 234.125C51.7363 234.125 50.2546 234.662 49.1579 235.735C48.0613 236.785 47.4663 238.477 47.3729 240.81C47.3029 242.723 47.3029 244.683 47.3729 246.69C47.4663 249.023 48.0613 250.727 49.1579 251.8C50.2546 252.85 51.7363 253.375 53.603 253.375C55.2363 253.375 56.5896 253.037 57.663 252.36C58.7596 251.683 59.5063 250.435 59.9029 248.615C59.9729 248.312 60.0779 248.102 60.2179 247.985C60.3813 247.868 60.568 247.81 60.778 247.81H62.703C62.913 247.81 63.088 247.88 63.228 248.02C63.3913 248.16 63.4613 248.335 63.4379 248.545C63.3913 249.525 63.158 250.482 62.738 251.415C62.318 252.325 61.6996 253.153 60.8829 253.9C60.0896 254.647 59.0863 255.242 57.8729 255.685C56.6596 256.128 55.2479 256.35 53.6379 256.35ZM74.2885 256C74.0552 256 73.8568 255.93 73.6935 255.79C73.5535 255.627 73.4835 255.428 73.4835 255.195V234.615H66.7635C66.5302 234.615 66.3318 234.545 66.1685 234.405C66.0285 234.242 65.9585 234.043 65.9585 233.81V232.34C65.9585 232.083 66.0285 231.885 66.1685 231.745C66.3318 231.582 66.5302 231.5 66.7635 231.5H83.6335C83.8902 231.5 84.0885 231.582 84.2285 231.745C84.3918 231.885 84.4735 232.083 84.4735 232.34V233.81C84.4735 234.043 84.3918 234.242 84.2285 234.405C84.0885 234.545 83.8902 234.615 83.6335 234.615H76.9485V255.195C76.9485 255.428 76.8668 255.627 76.7035 255.79C76.5635 255.93 76.3652 256 76.1085 256H74.2885ZM89.2021 256C88.9454 256 88.7471 255.93 88.6071 255.79C88.4671 255.627 88.3971 255.428 88.3971 255.195V232.305C88.3971 232.072 88.4671 231.885 88.6071 231.745C88.7471 231.582 88.9454 231.5 89.2021 231.5H91.0571C91.2904 231.5 91.4771 231.582 91.6171 231.745C91.7804 231.885 91.8621 232.072 91.8621 232.305V255.195C91.8621 255.428 91.7804 255.627 91.6171 255.79C91.4771 255.93 91.2904 256 91.0571 256H89.2021ZM105.247 256C104.897 256 104.617 255.918 104.407 255.755C104.221 255.592 104.069 255.37 103.952 255.09L96.1474 232.585C96.1007 232.445 96.0774 232.317 96.0774 232.2C96.0774 232.013 96.1474 231.85 96.2874 231.71C96.4274 231.57 96.5907 231.5 96.7774 231.5H98.5974C98.8774 231.5 99.0874 231.582 99.2274 231.745C99.3907 231.885 99.484 232.013 99.5074 232.13L106.367 251.975L113.227 232.13C113.274 232.013 113.367 231.885 113.507 231.745C113.647 231.582 113.857 231.5 114.137 231.5H115.957C116.144 231.5 116.307 231.57 116.447 231.71C116.611 231.85 116.692 232.013 116.692 232.2C116.692 232.317 116.669 232.445 116.622 232.585L108.782 255.09C108.689 255.37 108.537 255.592 108.327 255.755C108.141 255.918 107.872 256 107.522 256H105.247ZM121.673 256C121.416 256 121.218 255.93 121.078 255.79C120.938 255.627 120.868 255.428 120.868 255.195V232.305C120.868 232.072 120.938 231.885 121.078 231.745C121.218 231.582 121.416 231.5 121.673 231.5H123.528C123.761 231.5 123.948 231.582 124.088 231.745C124.251 231.885 124.333 232.072 124.333 232.305V255.195C124.333 255.428 124.251 255.627 124.088 255.79C123.948 255.93 123.761 256 123.528 256H121.673ZM136.598 256C136.365 256 136.166 255.93 136.003 255.79C135.863 255.627 135.793 255.428 135.793 255.195V234.615H129.073C128.84 234.615 128.641 234.545 128.478 234.405C128.338 234.242 128.268 234.043 128.268 233.81V232.34C128.268 232.083 128.338 231.885 128.478 231.745C128.641 231.582 128.84 231.5 129.073 231.5H145.943C146.2 231.5 146.398 231.582 146.538 231.745C146.701 231.885 146.783 232.083 146.783 232.34V233.81C146.783 234.043 146.701 234.242 146.538 234.405C146.398 234.545 146.2 234.615 145.943 234.615H139.258V255.195C139.258 255.428 139.176 255.627 139.013 255.79C138.873 255.93 138.675 256 138.418 256H136.598ZM151.512 256C151.255 256 151.057 255.93 150.917 255.79C150.777 255.627 150.707 255.428 150.707 255.195V232.305C150.707 232.072 150.777 231.885 150.917 231.745C151.057 231.582 151.255 231.5 151.512 231.5H153.367C153.6 231.5 153.787 231.582 153.927 231.745C154.09 231.885 154.172 232.072 154.172 232.305V255.195C154.172 255.428 154.09 255.627 153.927 255.79C153.787 255.93 153.6 256 153.367 256H151.512ZM161.082 256C160.825 256 160.627 255.93 160.487 255.79C160.347 255.627 160.277 255.428 160.277 255.195V232.34C160.277 232.083 160.347 231.885 160.487 231.745C160.627 231.582 160.825 231.5 161.082 231.5H175.537C175.794 231.5 175.992 231.582 176.132 231.745C176.272 231.885 176.342 232.083 176.342 232.34V233.67C176.342 233.927 176.272 234.125 176.132 234.265C175.992 234.405 175.794 234.475 175.537 234.475H163.637V242.14H174.767C175.024 242.14 175.222 242.222 175.362 242.385C175.502 242.525 175.572 242.723 175.572 242.98V244.275C175.572 244.508 175.502 244.707 175.362 244.87C175.222 245.01 175.024 245.08 174.767 245.08H163.637V253.025H175.817C176.074 253.025 176.272 253.095 176.412 253.235C176.552 253.375 176.622 253.573 176.622 253.83V255.195C176.622 255.428 176.552 255.627 176.412 255.79C176.272 255.93 176.074 256 175.817 256H161.082ZM189.378 256.35C187.348 256.35 185.644 256.047 184.268 255.44C182.891 254.81 181.829 254.005 181.083 253.025C180.359 252.022 179.974 250.96 179.928 249.84C179.928 249.653 179.998 249.49 180.138 249.35C180.301 249.187 180.488 249.105 180.698 249.105H182.483C182.763 249.105 182.973 249.175 183.113 249.315C183.253 249.455 183.346 249.618 183.393 249.805C183.509 250.365 183.789 250.925 184.233 251.485C184.699 252.022 185.341 252.477 186.158 252.85C186.998 253.2 188.071 253.375 189.378 253.375C191.384 253.375 192.854 253.025 193.788 252.325C194.744 251.602 195.223 250.645 195.223 249.455C195.223 248.638 194.966 247.985 194.453 247.495C193.963 246.982 193.204 246.527 192.178 246.13C191.151 245.733 189.821 245.302 188.188 244.835C186.484 244.345 185.073 243.808 183.953 243.225C182.833 242.642 181.993 241.918 181.433 241.055C180.896 240.192 180.628 239.095 180.628 237.765C180.628 236.505 180.966 235.385 181.643 234.405C182.319 233.402 183.288 232.608 184.548 232.025C185.831 231.442 187.383 231.15 189.203 231.15C190.649 231.15 191.909 231.348 192.983 231.745C194.079 232.118 194.989 232.632 195.713 233.285C196.436 233.915 196.984 234.603 197.358 235.35C197.731 236.073 197.929 236.785 197.953 237.485C197.953 237.648 197.894 237.812 197.778 237.975C197.661 238.115 197.474 238.185 197.218 238.185H195.363C195.199 238.185 195.024 238.138 194.838 238.045C194.674 237.952 194.546 237.777 194.453 237.52C194.313 236.563 193.776 235.758 192.843 235.105C191.909 234.452 190.696 234.125 189.203 234.125C187.686 234.125 186.449 234.417 185.493 235C184.559 235.583 184.093 236.493 184.093 237.73C184.093 238.523 184.314 239.188 184.758 239.725C185.201 240.238 185.901 240.693 186.858 241.09C187.814 241.487 189.063 241.907 190.603 242.35C192.469 242.863 193.998 243.412 195.188 243.995C196.378 244.555 197.253 245.267 197.813 246.13C198.396 246.97 198.688 248.055 198.688 249.385C198.688 250.855 198.303 252.115 197.533 253.165C196.763 254.192 195.678 254.985 194.278 255.545C192.901 256.082 191.268 256.35 189.378 256.35Z" fill="black"/>
<path d="M110 0L128.41 56.6606H187.987L139.788 91.6788L158.198 148.339L110 113.321L61.8016 148.339L80.2118 91.6788L32.0134 56.6606H91.5899L110 0Z" fill="#F26522"/>
</svg>
