<svg width="457" height="529" viewBox="0 0 457 529" fill="none" xmlns="http://www.w3.org/2000/svg">
<path d="M378.881 191.398L155.641 112.469C152.944 111.497 151.529 108.58 152.502 105.885L188.758 3.44486C189.731 0.749078 192.649 -0.665104 195.346 0.307146L418.585 79.192C421.282 80.1642 422.697 83.081 421.724 85.7767L385.468 188.216C384.54 190.912 381.578 192.326 378.881 191.398Z" fill="#B2D464"/>
<path d="M225.688 507.877C340.487 496.413 429.558 447.17 424.636 397.889C419.713 348.608 322.659 317.95 207.861 329.414C93.0625 340.878 3.99077 390.121 8.91362 439.403C13.8365 488.684 110.89 519.341 225.688 507.877Z" fill="#F26522"/>
<path d="M238.979 329.088C290.235 323.97 327.699 278.906 322.657 228.435C317.616 177.964 271.977 141.199 220.721 146.317C169.465 151.436 132 196.5 137.042 246.971C142.084 297.441 187.722 334.207 238.979 329.088Z" fill="#274A9A"/>
<path d="M157.709 183.555C165.883 183.334 172.864 178.695 179.36 174.145C178.697 173.261 178.034 172.422 177.371 171.538C166.281 182.848 156.251 195.173 147.37 208.338C144.851 212.093 142.421 215.892 140.079 219.78C139.063 221.503 141.272 222.917 142.686 221.768C155.367 211.651 166.855 200.165 178.255 188.679C189.61 177.281 200.966 165.795 213.426 155.59C220.363 149.891 227.698 144.679 235.43 140.128C234.767 139.245 234.105 138.405 233.442 137.522C219.7 153.514 205.959 169.506 192.703 185.852C179.448 202.242 166.679 218.985 154.925 236.479C148.342 246.286 142.068 256.359 136.235 266.608C135.352 268.198 137.605 270.142 138.842 268.596C149.579 255.166 160.36 241.736 171.495 228.615C182.585 215.495 194.073 202.683 206.18 190.535C212.984 183.687 220.01 177.105 227.3 170.743C226.505 169.948 225.754 169.197 224.958 168.402C215.105 180.904 205.252 193.406 195.796 206.218C186.429 218.941 177.415 231.929 169.197 245.447C164.602 253.045 160.228 260.821 156.251 268.773C155.456 270.363 157.532 272.218 158.858 270.761C169.683 259.054 179.183 246.154 188.417 233.166C197.608 220.222 206.666 207.145 216.828 194.952C222.484 188.149 228.537 181.611 235.032 175.558C234.149 174.896 233.309 174.233 232.425 173.57C220.628 189.651 208.963 205.864 197.785 222.386C186.694 238.865 176.09 255.696 166.413 273.058C160.979 282.821 155.853 292.761 151.081 302.833C150.153 304.777 152.716 306.279 153.953 304.512C166.855 285.604 179.713 266.696 192.792 247.921C205.87 229.146 219.082 210.459 232.646 192.037C236.004 187.442 239.274 182.715 243.03 178.43C246.299 174.675 250.099 171.273 254.871 169.595C254.253 168.799 253.634 167.96 253.016 167.165C241.528 182.362 230.084 197.559 219.082 213.109C208.08 228.615 197.564 244.475 188.064 260.909C182.718 270.186 177.681 279.64 173.041 289.271C172.688 290.022 172.776 290.905 173.483 291.391C174.102 291.833 175.118 291.877 175.648 291.259C182.806 283.042 189.345 274.339 195.531 265.415C201.717 256.447 207.594 247.258 213.426 238.069C219.258 228.881 225.047 219.692 231.1 210.679C237.109 201.8 243.383 193.097 250.232 184.88C257.081 176.663 264.548 168.932 272.722 161.996C273.738 161.157 274.754 160.273 275.815 159.478C274.931 158.815 274.092 158.153 273.208 157.49C266.713 168.711 260.218 179.976 253.678 191.197C247.537 201.8 241.395 212.447 235.342 223.137C229.288 233.828 223.368 244.563 217.668 255.431C211.968 266.255 206.445 277.21 201.275 288.343C196.106 299.476 191.201 310.741 186.783 322.183C186.208 323.597 185.678 325.055 185.148 326.468C184.485 328.235 187.313 329.428 188.197 327.749C196.724 310.962 205.473 294.263 214.442 277.741C223.368 261.307 232.558 245.005 241.969 228.836C247.272 219.692 252.706 210.635 258.141 201.579C257.169 201.005 256.241 200.474 255.269 199.9C248.685 210.9 242.234 221.989 235.96 233.122C232.779 238.732 229.642 244.343 226.549 249.997C223.544 255.475 220.496 260.909 217.668 266.431C214.663 272.351 212.101 278.624 212.012 285.383C211.968 287.062 214.266 287.592 215.105 286.223C222.396 274.427 229.642 262.588 236.756 250.66C243.869 238.82 250.895 226.937 257.832 214.965C261.764 208.206 265.697 201.402 269.541 194.599C268.569 194.025 267.641 193.494 266.669 192.92C260.66 204.848 254.695 216.776 248.685 228.704C242.676 240.632 236.711 252.56 230.702 264.487C227.344 271.202 223.942 277.917 220.584 284.632C221.556 285.207 222.484 285.737 223.456 286.311C230.04 273.19 236.711 260.114 243.516 247.126C250.32 234.093 257.169 221.149 264.194 208.25C268.127 200.96 272.103 193.715 276.08 186.514C275.108 185.94 274.18 185.41 273.208 184.836C265.211 199.547 257.522 214.39 250.099 229.366C242.676 244.343 235.563 259.495 228.758 274.737C224.914 283.351 221.158 292.01 217.491 300.713C216.784 302.436 219.7 303.673 220.54 301.994C228.095 286.885 235.916 271.953 244.002 257.154C252.044 242.443 260.35 227.909 268.966 213.507C273.827 205.334 278.819 197.205 283.857 189.121C282.884 188.547 281.957 188.016 280.985 187.442C274.268 202.595 267.597 217.748 261.013 232.945C254.429 248.186 248.023 263.471 241.881 278.845C238.435 287.504 235.077 296.207 231.807 304.91C231.144 306.633 234.06 307.914 234.856 306.191C241.395 291.612 247.89 277.078 254.695 262.632C261.455 248.186 268.524 233.873 276.036 219.824C280.278 211.916 284.652 204.141 289.247 196.454C288.231 196.013 287.215 195.615 286.198 195.173C281.029 208.912 275.859 222.651 270.689 236.346C265.52 250.041 260.35 263.825 255.181 277.52C252.264 285.251 249.348 293.026 246.432 300.757C245.769 302.524 248.597 303.717 249.481 302.038C255.313 290.596 260.969 279.066 266.448 267.447C271.971 255.785 277.317 244.033 282.487 232.238C285.403 225.567 288.231 218.896 291.059 212.181C291.766 210.459 288.761 209.177 288.01 210.9C282.089 224.684 276.168 238.467 270.469 252.339C264.857 266.078 259.511 279.949 254.65 293.954C251.911 301.95 249.304 309.99 246.962 318.075C246.697 318.914 247.272 319.886 248.111 320.107C249.039 320.372 249.79 319.797 250.144 318.958C256.109 304.335 262.073 289.713 267.994 275.09C273.959 260.467 279.924 245.845 285.845 231.222C289.203 222.961 292.561 214.744 295.919 206.483C294.859 206.173 293.798 205.908 292.738 205.599C287.259 220.531 281.78 235.463 276.522 250.483C271.308 265.415 266.271 280.435 261.72 295.632C259.157 304.203 256.727 312.817 254.474 321.476C253.943 323.553 256.948 324.348 257.655 322.36C265.652 300.492 273.65 278.624 281.691 256.756C283.989 250.527 286.243 244.298 288.54 238.069C288.849 237.23 288.187 236.258 287.391 236.037C286.463 235.772 285.668 236.346 285.359 237.186C279.747 252.029 274.578 267.006 269.85 282.158C268.524 286.488 267.199 290.817 265.962 295.146C265.432 296.914 268.171 298.151 269.01 296.428C278.775 275.267 288.496 254.106 298.261 232.945C301 227.025 303.695 221.105 306.435 215.186C305.419 214.744 304.402 214.346 303.386 213.904C299.277 227.997 295.389 242.134 291.854 256.403C290.838 260.467 289.821 264.532 288.849 268.64C288.408 270.496 290.838 271.512 291.898 269.921C296.361 262.941 300.823 255.961 305.286 248.981C304.27 248.539 303.254 248.142 302.237 247.7C298.791 257.993 295.389 268.287 291.942 278.58C291.324 280.391 294.019 281.452 294.991 279.861C298.393 274.251 301.796 268.596 305.154 262.985C304.137 262.72 303.077 262.411 302.061 262.146C301.486 266.74 300.912 271.379 300.337 275.974C300.161 277.431 302.237 278.138 303.165 277.166C305.33 274.825 307.495 272.484 309.705 270.186C308.777 269.789 307.805 269.391 306.877 268.994C307.054 270.584 307.186 272.174 307.363 273.765C307.495 274.913 308.335 275.532 309.439 275.355C311.825 275.002 312.886 272.749 313.77 270.805C314.035 270.23 314.477 268.994 315.184 268.773C315.36 268.728 315.184 268.817 315.449 268.861C315.979 268.949 315.449 269.038 315.537 268.949C315.581 268.905 315.581 268.552 315.67 268.419C314.167 269.965 316.509 272.307 318.011 270.761C319.204 269.568 319.028 267.845 317.923 266.652C316.818 265.459 315.139 265.106 313.681 265.813C312.312 266.475 311.472 267.845 310.898 269.214C310.412 270.319 309.97 271.953 308.6 272.13C309.307 272.66 310.014 273.19 310.677 273.72C310.5 272.13 310.367 270.54 310.191 268.949C310.058 267.624 308.423 266.652 307.363 267.757C305.198 270.098 303.033 272.439 300.823 274.737C301.751 275.134 302.723 275.532 303.651 275.929C304.226 271.335 304.8 266.696 305.375 262.102C305.595 260.379 303.077 259.981 302.282 261.262C298.879 266.873 295.477 272.528 292.119 278.138C293.135 278.58 294.152 278.978 295.168 279.419C298.614 269.126 302.016 258.833 305.463 248.539C306.081 246.684 303.43 245.712 302.414 247.258C297.951 254.238 293.489 261.218 289.026 268.198C290.042 268.64 291.059 269.038 292.075 269.479C295.477 255.21 299.189 240.985 303.121 226.848C304.27 222.828 305.419 218.764 306.612 214.744C307.142 212.977 304.402 211.74 303.563 213.463C293.798 234.624 284.077 255.785 274.313 276.945C271.573 282.865 268.878 288.785 266.138 294.705C267.155 295.146 268.171 295.544 269.187 295.986C273.606 280.745 278.51 265.636 283.857 250.704C285.403 246.463 286.949 242.222 288.54 237.981C287.48 237.672 286.419 237.407 285.359 237.097C277.361 258.965 269.364 280.833 261.322 302.701C259.025 308.93 256.771 315.159 254.474 321.388C255.534 321.697 256.595 321.962 257.655 322.271C261.632 306.898 266.183 291.656 271.087 276.548C275.992 261.483 281.25 246.551 286.64 231.664C289.689 223.226 292.782 214.832 295.875 206.438C296.184 205.599 295.521 204.627 294.726 204.406C293.798 204.141 293.047 204.715 292.693 205.555C286.729 220.178 280.764 234.8 274.843 249.423C268.922 264.046 262.913 278.668 256.992 293.291C253.634 301.552 250.276 309.769 246.918 318.03C247.979 318.34 249.039 318.605 250.099 318.914C254.253 304.689 259.069 290.64 264.327 276.725C269.541 262.853 275.196 249.114 280.985 235.463C284.254 227.776 287.524 220.133 290.838 212.491C289.821 212.049 288.805 211.651 287.789 211.21C282.884 222.961 277.803 234.668 272.501 246.286C267.243 257.905 261.764 269.479 256.153 280.966C253.016 287.415 249.79 293.821 246.52 300.227C247.537 300.669 248.553 301.066 249.569 301.508C254.739 287.769 259.908 274.03 265.078 260.335C270.248 246.596 275.417 232.856 280.587 219.161C283.503 211.43 286.419 203.655 289.335 195.924C289.998 194.113 287.259 193.097 286.287 194.643C278.113 208.338 270.557 222.386 263.443 236.612C256.285 250.881 249.569 265.327 242.941 279.861C239.23 288.034 235.563 296.207 231.895 304.38C232.912 304.821 233.928 305.219 234.944 305.661C240.688 290.243 246.786 275.002 253.06 259.805C259.378 244.608 265.918 229.455 272.545 214.39C276.257 205.908 280.012 197.426 283.768 188.988C284.608 187.089 282.045 185.454 280.896 187.31C271.971 201.623 263.266 216.113 254.871 230.736C246.52 245.27 238.435 259.937 230.658 274.781C226.24 283.219 221.865 291.701 217.624 300.183C218.64 300.624 219.656 301.022 220.672 301.464C227.123 286.134 233.928 270.937 240.953 255.873C247.979 240.853 255.313 225.921 262.913 211.165C267.199 202.86 271.573 194.599 276.036 186.338C277.052 184.482 274.224 182.804 273.164 184.659C266.05 197.515 259.069 210.414 252.176 223.358C245.283 236.302 238.479 249.335 231.763 262.367C228.007 269.7 224.251 277.078 220.54 284.456C219.568 286.355 222.44 288.034 223.412 286.134C229.421 274.206 235.386 262.279 241.395 250.351C247.404 238.423 253.369 226.495 259.378 214.567C262.736 207.852 266.138 201.137 269.497 194.422C270.469 192.523 267.685 190.888 266.624 192.743C259.732 204.804 252.795 216.776 245.725 228.748C238.7 240.632 231.63 252.515 224.428 264.311C220.363 270.981 216.254 277.696 212.145 284.323C213.161 284.588 214.221 284.897 215.238 285.162C215.326 279.419 217.403 274.03 219.921 268.949C222.661 263.471 225.665 258.082 228.626 252.736C234.723 241.648 240.909 230.692 247.227 219.736C250.806 213.595 254.385 207.454 258.053 201.358C259.157 199.503 256.285 197.868 255.181 199.679C245.416 215.804 235.916 232.017 226.637 248.407C217.447 264.708 208.477 281.098 199.729 297.665C194.78 307.03 189.964 316.396 185.192 325.806C186.208 326.247 187.224 326.645 188.241 327.087C192.527 315.689 197.254 304.468 202.336 293.424C207.417 282.335 212.852 271.423 218.463 260.6C224.119 249.732 230.04 238.953 236.049 228.262C242.014 217.615 248.111 207.013 254.253 196.454C260.66 185.366 267.111 174.233 273.517 163.145C274.313 161.731 275.152 160.317 275.947 158.904C276.964 157.181 274.754 155.767 273.341 156.916C264.99 163.631 257.346 171.229 250.32 179.314C243.251 187.486 236.8 196.145 230.702 205.025C224.561 213.949 218.728 223.137 212.896 232.326C207.063 241.515 201.275 250.748 195.134 259.76C189.08 268.684 182.718 277.431 175.781 285.693C174.941 286.709 174.057 287.725 173.174 288.741C174.057 289.403 174.897 290.066 175.781 290.729C183.999 273.588 193.499 257.154 203.794 241.162C214.089 225.17 225.179 209.663 236.49 194.378C242.853 185.763 249.348 177.193 255.799 168.623C256.683 167.474 255.225 165.751 253.943 166.193C244.62 169.418 238.832 177.856 233.265 185.41C226.372 194.687 219.568 204.053 212.852 213.463C199.375 232.282 186.208 251.278 173.13 270.363C165.751 281.098 158.416 291.877 151.081 302.657C152.053 303.231 152.981 303.761 153.953 304.335C162.437 286.311 172.113 268.905 182.541 251.941C192.969 234.977 204.103 218.499 215.591 202.286C222.042 193.141 228.626 184.085 235.253 175.073C236.402 173.482 233.972 171.848 232.646 173.085C220.982 183.908 210.908 196.278 201.496 209.089C192.041 221.9 183.115 235.154 173.483 247.833C168.137 254.901 162.525 261.793 156.472 268.287C157.356 268.949 158.195 269.612 159.079 270.275C166.148 256.226 174.278 242.752 183.071 229.676C191.864 216.599 201.275 203.92 210.908 191.462C216.298 184.482 221.777 177.502 227.256 170.566C228.537 168.932 226.549 166.811 224.914 168.225C211.968 179.534 199.817 191.683 188.241 204.362C176.62 217.041 165.53 230.206 154.66 243.547C148.563 251.058 142.51 258.568 136.456 266.122C137.34 266.785 138.179 267.447 139.063 268.11C149.402 249.865 161.111 232.459 173.571 215.627C186.032 198.796 199.243 182.583 212.763 166.59C220.363 157.578 228.051 148.61 235.739 139.686C236.932 138.317 235.43 136.108 233.751 137.08C219.744 145.297 207.196 155.767 195.399 166.9C183.601 178.032 172.467 189.872 160.758 201.093C154.174 207.41 147.414 213.551 140.256 219.25C141.14 219.912 141.979 220.575 142.863 221.238C150.949 207.808 160.228 195.085 170.611 183.334C173.527 180.02 176.532 176.795 179.625 173.659C180.906 172.378 179.183 169.948 177.636 171.052C171.671 175.249 165.176 179.799 157.665 180.02C155.588 180.33 155.588 183.643 157.709 183.555Z" fill="#FCD525"/>
<path d="M351.329 336.906C352.559 337.029 353.583 337.689 354.362 338.842C355.222 340.12 355.55 341.727 355.345 343.664C355.263 344.488 355.017 345.394 354.526 346.342C353.009 349.35 351.862 350.833 351.124 350.751C349.977 350.627 349.485 349.721 349.69 348.073C349.731 347.825 349.772 347.578 349.813 347.331C350.592 347.331 351.288 346.795 351.903 345.641C352.436 344.653 352.722 343.705 352.722 342.757C352.763 341.974 352.518 341.562 352.026 341.521C351.944 341.521 351.821 341.521 351.657 341.521C351.493 341.562 351.37 341.562 351.288 341.521C351.206 341.521 350.919 341.974 350.51 342.963C350.059 344.034 349.772 344.653 349.731 344.776C347.641 347.578 345.305 348.814 342.805 348.567C341.289 348.402 339.937 347.825 338.748 346.795C337.437 345.683 336.863 344.364 337.027 342.922C337.15 341.85 337.683 340.656 338.707 339.378C339.691 338.101 340.674 337.359 341.699 337.153C342.396 337.029 342.969 336.988 343.42 337.029C343.871 337.071 344.281 337.194 344.568 337.359C344.936 337.565 345.305 337.771 345.674 337.977C345.961 338.513 346.084 339.048 346.002 339.543C345.961 339.79 345.756 340.243 345.346 340.82C344.936 341.397 344.649 341.686 344.404 341.644C344.281 341.644 343.994 341.438 343.42 341.068C343.092 340.862 342.805 340.738 342.601 340.697C341.043 340.532 340.183 341.068 340.06 342.304C339.978 343.045 340.388 343.664 341.289 344.158C341.986 344.529 342.764 344.776 343.584 344.859C344.649 344.982 345.633 344.323 346.657 342.922C347.395 341.603 348.174 340.326 348.952 339.007C349.854 337.483 350.632 336.823 351.329 336.906Z" fill="black"/>
<path d="M353.009 320.753C355.386 321.989 357.189 323.431 358.46 325.162C360.058 327.346 360.345 329.489 359.238 331.631C358.664 332.785 357.804 333.609 356.738 334.104C356.984 334.227 357.353 334.433 357.804 334.639C358.337 334.887 358.664 335.093 358.869 335.175C361.123 336.329 363.008 336.988 364.566 337.112C365.18 337.153 365.59 337.194 365.713 337.277C366.492 337.689 366.655 338.348 366.205 339.296C365.836 339.996 365.467 340.449 365.016 340.697C364.729 340.862 363.992 340.82 362.885 340.573C361.902 340.326 361.164 340.079 360.672 339.831L352.19 335.464C351.411 335.051 350.387 334.475 349.116 333.692C347.682 332.826 346.657 332.249 346.084 331.92C345.51 331.59 344.731 331.219 343.748 330.725C342.519 330.107 341.74 329.695 341.412 329.53C339.404 328.5 338.748 327.346 339.404 326.027C339.568 325.698 339.855 325.45 340.183 325.286C340.552 325.121 340.879 325.121 341.166 325.286C341.699 325.533 342.601 326.11 343.871 326.893C343.051 325.327 342.969 323.885 343.625 322.566C344.527 320.835 345.879 319.846 347.764 319.64C349.444 319.476 351.165 319.846 353.009 320.753ZM351.083 323.761C348.543 322.442 347.026 322.36 346.453 323.431C346.207 323.885 346.371 324.75 346.903 325.986C347.928 328.376 349.936 330.395 352.927 332.126C353.214 331.92 353.911 331.714 355.099 331.508C356.001 331.302 356.575 330.972 356.861 330.436C357.845 328.459 355.96 326.233 351.083 323.761Z" fill="black"/>
<path d="M366.983 310.534C369.278 313.047 370.835 314.902 371.614 316.055C372.065 316.756 371.942 317.415 371.204 318.075C370.139 319.064 369.155 318.981 368.254 317.786C367.721 319.146 366.901 320.3 365.877 321.289C364.852 322.236 363.664 322.854 362.312 323.184C360.672 323.596 359.443 323.308 358.583 322.36C357.763 321.453 357.599 320.011 358.091 318.075C358.542 316.303 359.279 314.984 360.263 314.078L362.721 311.811L362.107 311.111C360.263 309.05 358.746 308.597 357.517 309.71C356.001 311.111 355.878 312.553 357.189 313.954C357.64 314.448 357.558 314.943 357.025 315.437C356.697 315.726 356.206 315.891 355.591 315.932C354.976 315.973 354.485 315.808 354.198 315.479C353.214 314.407 352.763 313.13 352.927 311.729C353.05 310.328 353.665 309.092 354.771 308.103C358.378 304.765 362.476 305.589 366.983 310.534ZM365.016 314.325C364.647 313.954 364.197 313.995 363.623 314.531C361.205 316.756 360.509 318.445 361.574 319.599C362.148 320.217 362.967 320.052 364.033 319.064C364.688 318.445 365.139 317.704 365.385 316.797C365.672 315.726 365.549 314.902 365.016 314.325Z" fill="black"/>
<path d="M385.424 309.833C385.26 310.534 384.891 310.987 384.359 311.193C383.949 311.358 383.17 311.358 382.023 311.193L381.859 310.74C381.654 310.204 381.367 309.38 381.039 308.309C380.67 307.237 380.425 306.454 380.22 305.96C378.294 300.644 376.572 298.254 375.015 298.831C374.564 298.996 374.196 299.532 373.868 300.438C372.884 303.199 372.925 306.084 374.032 309.092C374.196 309.504 374.483 310.122 374.933 310.905C375.384 311.688 375.712 312.265 375.835 312.718C375.958 313.047 375.917 313.418 375.671 313.748C375.425 314.078 375.138 314.325 374.769 314.448C373.294 314.984 372.188 314.325 371.532 312.429L368.745 304.641C368.663 304.435 368.581 304.147 368.5 303.735C368.418 303.323 368.336 303.034 368.254 302.828C368.131 302.54 367.967 302.128 367.639 301.551C367.352 301.015 367.147 300.603 367.065 300.315C366.942 299.903 367.024 299.449 367.352 298.914C367.68 298.378 368.049 298.048 368.418 297.925C368.95 297.719 369.647 297.842 370.426 298.254L370.835 299.779C371.204 297.966 372.106 296.853 373.417 296.359C374.278 296.029 375.302 296.029 376.491 296.277C377.679 296.524 378.621 296.936 379.318 297.513C380.998 299.037 382.392 301.345 383.498 304.435L385.424 309.833Z" fill="black"/>
<path d="M390.669 289.313C390.71 289.89 390.546 290.384 390.178 290.755C389.809 291.167 389.317 291.373 388.743 291.414C388.047 291.455 387.391 291.249 386.776 290.796C386.162 290.343 385.834 289.807 385.793 289.107C385.752 288.53 385.916 288.035 386.326 287.664C386.694 287.252 387.186 287.046 387.801 287.005C388.497 286.964 389.153 287.17 389.727 287.582C390.342 288.035 390.628 288.571 390.669 289.313ZM390.669 294.876C390.71 295.37 390.628 296.029 390.465 296.895C390.301 297.76 390.26 298.46 390.26 298.914L390.751 307.073C390.792 307.567 390.997 308.35 391.366 309.421C390.997 310.039 390.587 310.369 390.096 310.41C388.416 310.493 387.473 309.751 387.186 308.061C386.735 304.971 386.49 302.663 386.367 301.098C386.203 298.502 386.203 296.277 386.285 294.505C386.285 294.381 386.285 294.257 386.244 294.093C386.203 293.598 386.571 293.351 387.309 293.31C387.965 293.269 388.62 293.351 389.276 293.598C390.178 293.928 390.628 294.299 390.669 294.876Z" fill="black"/>
<path d="M405.053 307.691C404.848 308.927 404.152 309.916 403.004 310.657C401.693 311.482 400.095 311.729 398.169 311.399C397.349 311.276 396.448 310.987 395.546 310.451C392.595 308.762 391.202 307.567 391.325 306.825C391.489 305.672 392.432 305.218 394.071 305.507C394.317 305.548 394.562 305.589 394.808 305.672C394.767 306.454 395.3 307.196 396.366 307.855C397.308 308.432 398.251 308.762 399.193 308.844C399.972 308.927 400.382 308.68 400.464 308.185C400.464 308.103 400.464 307.979 400.464 307.814C400.464 307.649 400.464 307.526 400.464 307.443C400.464 307.361 400.013 307.073 399.07 306.619C398.005 306.084 397.431 305.795 397.308 305.713C394.644 303.446 393.497 301.098 393.866 298.584C394.112 297.059 394.767 295.741 395.833 294.587C397.021 293.351 398.333 292.815 399.767 293.062C400.832 293.227 401.98 293.845 403.209 294.917C404.439 295.988 405.135 297.018 405.299 298.007C405.381 298.708 405.422 299.285 405.34 299.738C405.258 300.191 405.135 300.603 404.971 300.892C404.766 301.262 404.52 301.633 404.316 302.004C403.783 302.251 403.25 302.375 402.758 302.293C402.512 302.251 402.103 302.004 401.529 301.592C400.955 301.18 400.709 300.85 400.75 300.603C400.75 300.48 400.996 300.191 401.365 299.655C401.611 299.326 401.734 299.079 401.775 298.831C402.021 297.265 401.529 296.4 400.3 296.194C399.562 296.071 398.947 296.441 398.415 297.348C398.005 298.048 397.759 298.79 397.595 299.614C397.431 300.644 398.005 301.716 399.357 302.787C400.627 303.611 401.898 304.435 403.168 305.301C404.52 306.166 405.135 306.99 405.053 307.691Z" fill="black"/>
<path d="M415.339 318.445C414.642 318.651 413.946 318.528 413.249 318.157C412.757 317.869 412.429 317.292 412.266 316.426C413.372 314.407 414.274 312.8 414.847 311.729C417.675 306.578 418.372 303.611 416.896 302.787C415.38 301.922 413.495 303.57 411.2 307.732C411.077 307.979 410.872 308.309 410.626 308.721C410.381 309.174 410.217 309.504 410.053 309.71C409.848 310.039 409.643 310.616 409.356 311.399C409.069 312.182 408.864 312.718 408.659 313.089C408.495 313.377 408.168 313.542 407.676 313.624C407.184 313.666 406.774 313.624 406.487 313.459C405.914 313.13 405.545 312.635 405.422 311.935C405.299 311.234 405.381 310.616 405.709 309.998L416.937 289.972C416.978 289.89 417.019 289.807 417.101 289.684C417.183 289.56 417.224 289.478 417.224 289.436C417.675 288.612 418.372 288.447 419.273 288.942C419.724 289.189 420.093 289.684 420.461 290.384C420.83 291.126 420.871 291.703 420.625 292.115C420.339 292.609 419.806 293.31 419.068 294.175C418.29 295.04 417.757 295.741 417.511 296.235C417.142 296.895 416.609 297.925 415.872 299.367C416.527 299.367 417.06 299.449 417.388 299.614C418.29 300.109 419.15 300.892 419.97 301.922C420.994 303.24 421.445 304.724 421.24 306.29C421.076 307.485 420.543 308.927 419.601 310.657L415.339 318.445Z" fill="black"/>
<path d="M417.019 317.209C417.429 316.756 418.003 316.55 418.699 316.591C419.396 316.632 420.052 316.88 420.543 317.374C421.117 317.91 421.363 318.61 421.281 319.476C421.199 320.341 420.83 321.165 420.134 321.907C419.396 322.731 418.699 323.308 418.044 323.679C417.388 324.049 416.65 324.297 415.831 324.42C414.97 324.544 414.151 324.585 413.331 324.503C412.511 324.42 411.938 324.173 411.528 323.802C411.241 323.473 411.159 323.143 411.2 322.813C411.241 322.484 411.487 322.278 411.979 322.195C412.552 322.36 413.167 322.442 413.782 322.442C414.397 322.442 415.011 322.278 415.626 321.948C415.954 321.783 416.282 321.495 416.568 321.165C416.855 320.835 416.896 320.382 416.773 319.888C416.65 319.352 416.568 318.899 416.527 318.445C416.486 317.992 416.65 317.58 417.019 317.209Z" fill="black"/>
<path d="M437.796 335.464C435.337 336.535 433.042 336.988 430.952 336.823C428.248 336.659 426.445 335.505 425.502 333.28C425.01 332.085 424.887 330.931 425.215 329.777C424.969 329.901 424.6 330.066 424.109 330.23C423.576 330.478 423.207 330.601 423.002 330.684C420.666 331.673 418.945 332.703 417.839 333.815C417.429 334.269 417.101 334.557 416.978 334.598C416.159 334.969 415.544 334.639 415.134 333.65C414.806 332.909 414.724 332.332 414.847 331.837C414.888 331.508 415.38 330.972 416.323 330.272C417.142 329.653 417.798 329.241 418.29 329.035L427.059 325.286C427.838 324.956 428.985 324.544 430.379 324.049C431.977 323.473 433.083 323.102 433.698 322.854C434.313 322.607 435.091 322.278 436.075 321.824C437.345 321.289 438.124 320.959 438.492 320.794C440.541 319.929 441.853 320.135 442.427 321.495C442.549 321.824 442.59 322.195 442.467 322.566C442.345 322.937 442.14 323.225 441.853 323.349C441.32 323.596 440.337 323.926 438.861 324.42C440.582 324.791 441.73 325.656 442.304 327.016C443.082 328.829 442.918 330.519 441.894 332.126C441.074 333.568 439.681 334.639 437.796 335.464ZM436.771 332.085C439.394 330.972 440.459 329.86 439.968 328.706C439.763 328.211 439.025 327.799 437.755 327.387C435.296 326.645 432.428 326.893 429.19 328.088C429.149 328.417 428.862 329.118 428.289 330.189C427.879 331.013 427.756 331.673 428.002 332.208C428.821 334.269 431.731 334.227 436.771 332.085Z" fill="black"/>
<path d="M430.624 344.817C430.174 344.9 429.723 344.735 429.354 344.405C428.985 344.076 428.739 343.664 428.698 343.169C428.493 341.521 430.501 340.408 434.804 339.831C436.771 339.584 439.681 339.172 443.615 338.678C447.549 338.183 450.458 337.812 452.426 337.524C452.753 337.483 453.204 337.4 453.778 337.235C454.352 337.071 454.802 336.988 455.089 336.947C455.786 337.73 456.155 338.389 456.237 338.884C456.319 339.461 456.196 340.037 455.909 340.614C455.581 341.191 455.171 341.521 454.597 341.603C454.311 341.644 453.983 341.603 453.573 341.562C452.917 341.48 452.589 341.397 452.507 341.397C450.827 341.274 448.532 341.438 445.541 341.809C440.828 342.469 438.411 342.798 438.288 342.798C435.009 343.334 432.755 343.911 431.526 344.57C431.116 344.694 430.829 344.817 430.624 344.817Z" fill="black"/>
<path d="M435.173 360.187C431.813 359.775 429.436 359.363 428.084 358.992C427.305 358.745 426.936 358.168 427.059 357.179C427.223 355.696 428.043 355.16 429.477 355.49C429.026 354.089 428.862 352.688 429.026 351.287C429.19 349.927 429.682 348.649 430.542 347.537C431.526 346.177 432.673 345.559 433.903 345.724C435.132 345.889 436.157 346.878 437.017 348.691C437.796 350.339 438.083 351.822 437.919 353.182L437.509 356.52L438.452 356.643C441.156 357.014 442.631 356.355 442.836 354.707C443.082 352.646 442.263 351.493 440.337 351.245C439.681 351.163 439.394 350.751 439.517 350.009C439.558 349.556 439.845 349.103 440.296 348.691C440.746 348.237 441.197 348.073 441.648 348.114C443.123 348.279 444.23 348.979 445.049 350.133C445.869 351.287 446.156 352.605 445.992 354.089C445.459 358.992 441.812 361.011 435.173 360.187ZM434.272 356.025C434.804 356.108 435.091 355.737 435.214 354.954C435.624 351.658 435.05 349.927 433.534 349.762C432.714 349.638 432.182 350.339 432.018 351.781C431.895 352.688 432.059 353.553 432.469 354.377C432.837 355.366 433.452 355.943 434.272 356.025Z" fill="black"/>
<path d="M435.009 379.554C433.985 378.689 432.919 377.865 431.895 377.082C430.665 376.093 429.6 375.351 428.657 374.857L419.273 369.665C417.552 368.717 416.527 367.522 416.159 366.038C415.79 364.555 416.077 362.948 417.019 361.259C417.634 360.146 418.576 359.075 419.888 358.044C421.445 356.808 422.674 356.479 423.617 356.973C423.945 357.138 424.15 357.426 424.191 357.838C424.273 358.209 424.232 358.58 424.027 358.91C423.904 359.116 423.33 359.445 422.265 359.899C421.199 360.352 420.42 361.094 419.847 362.083C419.15 363.36 419.15 364.514 419.847 365.462C420.298 366.162 421.281 366.863 422.674 367.687C423.207 367.975 423.658 368.222 424.027 368.387C423.945 367.357 424.15 366.327 424.682 365.379C425.625 363.649 426.977 362.66 428.739 362.371C430.338 362.124 432.018 362.495 433.78 363.484C433.944 363.566 436.812 365.297 442.304 368.634C442.222 369.5 442.058 370.118 441.853 370.571C441.607 371.024 440.951 371.56 439.886 372.178C438.82 370.86 436.198 369.047 432.059 366.739C429.395 365.256 427.715 365.214 426.977 366.574C426.444 367.563 426.854 368.799 428.207 370.241C429.19 371.313 430.338 372.178 431.608 372.879L435.829 375.227C435.788 375.227 436.198 375.392 437.017 375.763C436.976 376.958 436.812 377.782 436.566 378.277C436.321 378.648 435.788 379.101 435.009 379.554Z" fill="black"/>
<path d="M422.306 373.538C422.756 373.95 422.961 374.527 422.92 375.269C422.879 375.969 422.633 376.587 422.142 377.123C421.609 377.659 420.912 377.906 420.052 377.823C419.191 377.741 418.372 377.37 417.634 376.628C416.855 375.846 416.241 375.145 415.913 374.486C415.544 373.826 415.298 373.085 415.216 372.261C415.093 371.395 415.093 370.571 415.175 369.747C415.298 368.923 415.503 368.346 415.872 367.934C416.2 367.687 416.527 367.563 416.855 367.604C417.183 367.646 417.388 367.893 417.47 368.387C417.306 368.964 417.224 369.582 417.224 370.2C417.224 370.818 417.347 371.436 417.675 372.055C417.839 372.425 418.126 372.714 418.453 373.002C418.781 373.291 419.232 373.373 419.724 373.25C420.257 373.126 420.707 373.044 421.158 373.044C421.527 373.002 421.937 373.167 422.306 373.538Z" fill="black"/>
<path d="M402.144 391.957C400.873 388.784 400.095 386.518 399.767 385.117C399.603 384.293 399.931 383.716 400.832 383.345C402.185 382.809 403.086 383.221 403.496 384.664C404.48 383.592 405.627 382.768 406.938 382.232C408.209 381.738 409.561 381.573 410.954 381.738C412.634 381.944 413.7 382.645 414.151 383.839C414.601 384.993 414.274 386.394 413.085 388.001C412.02 389.485 410.872 390.474 409.643 390.968L406.528 392.204L406.856 393.07C407.84 395.624 409.11 396.613 410.667 395.995C412.593 395.212 413.208 393.935 412.511 392.122C412.266 391.504 412.511 391.092 413.167 390.803C413.577 390.639 414.11 390.639 414.683 390.845C415.298 391.051 415.667 391.339 415.831 391.751C416.364 393.111 416.323 394.471 415.708 395.748C415.093 397.025 414.069 397.932 412.716 398.468C408.168 400.404 404.643 398.22 402.144 391.957ZM405.299 389.155C405.504 389.65 405.955 389.732 406.692 389.444C409.766 388.207 410.995 386.889 410.422 385.447C410.094 384.664 409.274 384.54 407.922 385.076C407.102 385.405 406.406 385.941 405.873 386.724C405.217 387.548 405.012 388.372 405.299 389.155Z" fill="black"/>
<path d="M385.096 390.268C385.096 389.444 385.752 388.496 386.981 387.383C388.088 386.353 389.112 385.735 389.973 385.488C390.874 385.241 391.694 385.117 392.473 385.117C394.563 385.117 396.161 385.817 397.308 387.136C398.456 388.455 399.029 390.185 399.029 392.287C399.029 394.306 398.456 396.572 397.349 399.086C396.038 402.094 394.522 403.577 392.8 403.577C391.858 403.577 390.71 403.206 389.399 402.423C388.006 401.599 387.186 400.775 386.94 399.951C386.735 399.251 386.653 398.426 386.653 397.52C386.653 396.696 386.858 395.789 387.186 394.759C387.637 393.441 388.17 392.781 388.784 392.781C389.235 392.781 389.645 392.905 390.055 393.193C390.506 393.482 390.751 393.853 390.751 394.265C390.751 394.306 390.628 394.594 390.383 395.171C390.26 395.418 390.178 396.16 390.178 397.355C390.178 398.344 390.219 398.962 390.26 399.251C390.424 400.075 390.792 400.487 391.366 400.487C392.636 400.487 393.661 399.374 394.399 397.149C394.931 395.501 395.218 393.811 395.218 392.122C395.259 389.32 394.358 387.878 392.595 387.878C391.899 387.878 391.079 388.249 390.137 388.949C389.276 389.608 388.702 390.309 388.334 391.051C387.924 391.875 387.391 392.328 386.776 392.287C386.367 392.287 385.998 392.04 385.629 391.586C385.26 391.092 385.096 390.68 385.096 390.268Z" fill="black"/>
<path d="M373.581 396.902C373.786 396.201 374.933 396.036 377.105 396.325C377.31 395.789 377.679 394.512 378.212 392.534L378.908 390.02C379.031 389.526 379.195 388.743 379.318 387.713C379.441 386.683 379.564 385.9 379.687 385.447C379.81 385.034 380.097 384.746 380.589 384.54C381.08 384.334 381.531 384.293 381.941 384.416C382.556 384.581 382.965 385.282 383.088 386.518C383.17 387.466 383.129 388.331 382.924 389.114L380.711 397.231C381.818 397.726 382.474 398.014 382.637 398.138C383.252 398.509 383.498 398.921 383.375 399.292C383.334 399.374 383.293 399.498 383.211 399.621C382.31 400.363 381.449 400.652 380.629 400.404C380.589 400.404 380.507 400.363 380.384 400.322C380.302 400.281 380.22 400.24 380.179 400.24C379.646 400.075 379.236 400.652 378.908 401.888L378.13 404.69C378.171 405.019 378.171 405.267 378.13 405.473C378.048 405.802 377.761 406.05 377.31 406.214C376.859 406.379 376.45 406.42 376.081 406.297C375.548 406.132 375.138 405.761 374.769 405.143C374.442 404.525 374.319 403.907 374.483 403.371C374.646 402.753 374.892 402.176 375.261 401.641C375.63 401.105 375.876 400.487 375.999 399.869L376.04 399.704C374.114 398.797 373.294 397.932 373.581 396.902Z" fill="black"/>
<path d="M363.008 399.003C363.295 398.468 363.664 398.138 364.197 398.014C364.729 397.85 365.221 397.932 365.754 398.179C366.369 398.509 366.819 399.003 367.106 399.704C367.393 400.404 367.393 401.064 367.106 401.682C366.86 402.217 366.451 402.506 365.918 402.671C365.385 402.794 364.852 402.753 364.32 402.465C363.705 402.135 363.254 401.641 362.967 400.981C362.68 400.281 362.68 399.621 363.008 399.003ZM365.877 394.223C366.082 393.811 366.492 393.234 367.065 392.575C367.639 391.916 368.049 391.339 368.254 390.927L371.983 383.675C372.229 383.221 372.434 382.438 372.638 381.326C373.253 380.955 373.786 380.914 374.237 381.12C375.712 381.903 376.163 383.057 375.548 384.622C374.36 387.507 373.417 389.608 372.72 391.009C371.532 393.317 370.426 395.212 369.442 396.696C369.401 396.819 369.319 396.943 369.278 397.067C369.073 397.479 368.622 397.52 367.967 397.19C367.393 396.902 366.86 396.49 366.41 395.913C365.795 395.295 365.631 394.718 365.877 394.223Z" fill="black"/>
<path d="M357.066 377.947C358.623 376.175 360.386 375.021 362.394 374.527C364.688 373.991 366.696 374.445 368.377 375.969C370.139 377.494 370.917 379.266 370.753 381.244C370.63 383.015 369.811 384.787 368.254 386.6C366.696 388.372 364.77 389.691 362.517 390.515C359.853 391.504 357.681 391.257 356.042 389.814C355.509 389.361 355.099 388.578 354.689 387.424C353.624 384.128 354.403 380.955 357.066 377.947ZM359.607 380.296C356.943 383.345 356.37 385.529 357.845 386.806C358.91 387.713 360.263 387.795 361.902 386.971C363.131 386.353 364.32 385.405 365.385 384.169C367.68 381.532 368.049 379.513 366.492 378.153C365.467 377.247 364.238 377.164 362.803 377.823C361.697 378.277 360.631 379.142 359.607 380.296Z" fill="black"/>
<path d="M355.14 359.322C355.878 359.404 356.37 359.693 356.616 360.228C356.82 360.64 356.902 361.423 356.902 362.577L356.493 362.783C355.96 363.03 355.222 363.442 354.198 363.937C353.173 364.431 352.436 364.802 351.985 365.05C346.985 367.604 344.854 369.665 345.592 371.148C345.797 371.56 346.371 371.89 347.313 372.096C350.182 372.714 353.009 372.302 355.837 370.86C356.247 370.654 356.779 370.283 357.476 369.706C358.173 369.129 358.746 368.758 359.115 368.552C359.443 368.387 359.771 368.387 360.14 368.593C360.509 368.799 360.795 369.047 360.959 369.417C361.697 370.818 361.164 372.013 359.361 372.92L352.026 376.711C351.821 376.793 351.534 376.917 351.165 377.082C350.796 377.205 350.51 377.329 350.305 377.453C350.018 377.617 349.649 377.865 349.157 378.194C348.666 378.565 348.297 378.812 348.01 378.936C347.641 379.142 347.149 379.101 346.617 378.854C346.043 378.606 345.674 378.277 345.51 377.947C345.264 377.411 345.264 376.752 345.592 375.887L347.067 375.269C345.223 375.104 343.994 374.403 343.379 373.126C342.969 372.302 342.805 371.272 342.887 370.077C342.969 368.882 343.256 367.893 343.748 367.069C345.018 365.173 347.149 363.484 350.018 362L355.14 359.322Z" fill="black"/>
<path d="M353.829 358.539C353.255 358.663 352.641 358.498 352.067 358.044C351.493 357.591 351.124 357.056 351.001 356.355C350.837 355.613 351.042 354.872 351.616 354.212C352.19 353.553 352.968 353.1 353.952 352.894C355.017 352.688 355.96 352.605 356.697 352.647C357.435 352.729 358.173 352.935 358.91 353.347C359.689 353.718 360.386 354.212 361 354.748C361.615 355.284 361.943 355.819 362.066 356.355C362.107 356.767 361.984 357.138 361.779 357.385C361.574 357.632 361.205 357.674 360.795 357.426C360.427 356.973 359.976 356.561 359.443 356.19C358.951 355.819 358.337 355.613 357.64 355.531C357.271 355.49 356.861 355.49 356.452 355.613C356.042 355.737 355.714 356.067 355.55 356.561C355.345 357.056 355.14 357.509 354.935 357.88C354.73 358.209 354.362 358.457 353.829 358.539Z" fill="black"/>
</svg>
