<svg width="216" height="245" viewBox="0 0 216 245" fill="none" xmlns="http://www.w3.org/2000/svg">
<path d="M181.458 152.773L2.75889 89.7722C0.599916 88.9962 -0.532662 86.6681 0.245984 84.5163L29.2683 2.74966C30.0469 0.597908 32.3828 -0.530881 34.5418 0.245161L213.241 63.2104C215.4 63.9865 216.533 66.3146 215.754 68.4664L186.732 150.233C185.988 152.385 183.617 153.514 181.458 152.773Z" fill="#B2D464"/>
<path d="M35.85 217C35.5933 217 35.395 216.93 35.255 216.79C35.115 216.627 35.045 216.428 35.045 216.195V193.305C35.045 193.072 35.115 192.885 35.255 192.745C35.395 192.582 35.5933 192.5 35.85 192.5H37.705C37.9383 192.5 38.125 192.582 38.265 192.745C38.4283 192.885 38.51 193.072 38.51 193.305V216.195C38.51 216.428 38.4283 216.627 38.265 216.79C38.125 216.93 37.9383 217 37.705 217H35.85ZM45.4203 217C45.187 217 44.9886 216.93 44.8253 216.79C44.6853 216.627 44.6153 216.428 44.6153 216.195V193.34C44.6153 193.083 44.6853 192.885 44.8253 192.745C44.9886 192.582 45.187 192.5 45.4203 192.5H47.1703C47.4503 192.5 47.6603 192.57 47.8003 192.71C47.9403 192.85 48.022 192.967 48.0453 193.06L55.4653 207.2L62.9203 193.06C62.967 192.967 63.0486 192.85 63.1653 192.71C63.3053 192.57 63.5153 192.5 63.7953 192.5H65.5103C65.767 192.5 65.9653 192.582 66.1053 192.745C66.2686 192.885 66.3503 193.083 66.3503 193.34V216.195C66.3503 216.428 66.2686 216.627 66.1053 216.79C65.9653 216.93 65.767 217 65.5103 217H63.7953C63.562 217 63.3636 216.93 63.2003 216.79C63.0603 216.627 62.9903 216.428 62.9903 216.195V198.975L57.1453 210.385C57.052 210.618 56.912 210.805 56.7253 210.945C56.5386 211.062 56.3053 211.12 56.0253 211.12H54.9403C54.637 211.12 54.392 211.062 54.2053 210.945C54.042 210.805 53.902 210.618 53.7853 210.385L47.9403 198.975V216.195C47.9403 216.428 47.8586 216.627 47.6953 216.79C47.5553 216.93 47.3686 217 47.1353 217H45.4203ZM70.7584 217C70.5717 217 70.4084 216.93 70.2684 216.79C70.1284 216.65 70.0584 216.487 70.0584 216.3C70.0584 216.183 70.0701 216.055 70.0934 215.915L78.7734 193.27C78.8667 193.037 78.9951 192.85 79.1584 192.71C79.3217 192.57 79.5667 192.5 79.8934 192.5H82.2734C82.5767 192.5 82.8101 192.57 82.9734 192.71C83.1601 192.85 83.3001 193.037 83.3934 193.27L92.0384 215.915C92.0851 216.055 92.1084 216.183 92.1084 216.3C92.1084 216.487 92.0384 216.65 91.8984 216.79C91.7584 216.93 91.5951 217 91.4084 217H89.6234C89.3434 217 89.1334 216.93 88.9934 216.79C88.8767 216.65 88.7951 216.522 88.7484 216.405L86.8234 211.435H75.3434L73.4184 216.405C73.3951 216.522 73.3134 216.65 73.1734 216.79C73.0334 216.93 72.8234 217 72.5434 217H70.7584ZM76.3584 208.425H85.8084L81.0834 196L76.3584 208.425ZM104.296 217.35C102.243 217.35 100.493 216.965 99.0463 216.195C97.623 215.425 96.5263 214.34 95.7563 212.94C95.0097 211.54 94.5897 209.895 94.4963 208.005C94.473 206.978 94.4613 205.893 94.4613 204.75C94.4613 203.583 94.473 202.475 94.4963 201.425C94.5897 199.535 95.0097 197.902 95.7563 196.525C96.5263 195.148 97.6347 194.075 99.0813 193.305C100.528 192.535 102.266 192.15 104.296 192.15C105.953 192.15 107.388 192.383 108.601 192.85C109.815 193.317 110.806 193.912 111.576 194.635C112.37 195.335 112.953 196.07 113.326 196.84C113.723 197.61 113.933 198.287 113.956 198.87C113.98 199.08 113.921 199.255 113.781 199.395C113.641 199.512 113.455 199.57 113.221 199.57H111.156C110.923 199.57 110.748 199.523 110.631 199.43C110.538 199.337 110.445 199.173 110.351 198.94C110.141 198.333 109.791 197.738 109.301 197.155C108.835 196.572 108.193 196.093 107.376 195.72C106.583 195.323 105.556 195.125 104.296 195.125C102.453 195.125 100.96 195.627 99.8163 196.63C98.6963 197.633 98.0897 199.29 97.9963 201.6C97.9263 203.677 97.9263 205.753 97.9963 207.83C98.0897 210.163 98.708 211.843 99.8513 212.87C100.995 213.873 102.488 214.375 104.331 214.375C105.568 214.375 106.665 214.153 107.621 213.71C108.601 213.243 109.371 212.532 109.931 211.575C110.491 210.618 110.771 209.405 110.771 207.935V206.465H105.521C105.288 206.465 105.09 206.395 104.926 206.255C104.786 206.092 104.716 205.882 104.716 205.625V204.505C104.716 204.248 104.786 204.05 104.926 203.91C105.09 203.747 105.288 203.665 105.521 203.665H113.431C113.688 203.665 113.886 203.747 114.026 203.91C114.166 204.05 114.236 204.248 114.236 204.505V207.865C114.236 209.778 113.84 211.447 113.046 212.87C112.276 214.293 111.145 215.402 109.651 216.195C108.158 216.965 106.373 217.35 104.296 217.35ZM120.035 217C119.778 217 119.58 216.93 119.44 216.79C119.3 216.627 119.23 216.428 119.23 216.195V193.34C119.23 193.083 119.3 192.885 119.44 192.745C119.58 192.582 119.778 192.5 120.035 192.5H134.49C134.746 192.5 134.945 192.582 135.085 192.745C135.225 192.885 135.295 193.083 135.295 193.34V194.67C135.295 194.927 135.225 195.125 135.085 195.265C134.945 195.405 134.746 195.475 134.49 195.475H122.59V203.14H133.72C133.976 203.14 134.175 203.222 134.315 203.385C134.455 203.525 134.525 203.723 134.525 203.98V205.275C134.525 205.508 134.455 205.707 134.315 205.87C134.175 206.01 133.976 206.08 133.72 206.08H122.59V214.025H134.77C135.026 214.025 135.225 214.095 135.365 214.235C135.505 214.375 135.575 214.573 135.575 214.83V216.195C135.575 216.428 135.505 216.627 135.365 216.79C135.225 216.93 135.026 217 134.77 217H120.035ZM148.33 217.35C146.3 217.35 144.597 217.047 143.22 216.44C141.843 215.81 140.782 215.005 140.035 214.025C139.312 213.022 138.927 211.96 138.88 210.84C138.88 210.653 138.95 210.49 139.09 210.35C139.253 210.187 139.44 210.105 139.65 210.105H141.435C141.715 210.105 141.925 210.175 142.065 210.315C142.205 210.455 142.298 210.618 142.345 210.805C142.462 211.365 142.742 211.925 143.185 212.485C143.652 213.022 144.293 213.477 145.11 213.85C145.95 214.2 147.023 214.375 148.33 214.375C150.337 214.375 151.807 214.025 152.74 213.325C153.697 212.602 154.175 211.645 154.175 210.455C154.175 209.638 153.918 208.985 153.405 208.495C152.915 207.982 152.157 207.527 151.13 207.13C150.103 206.733 148.773 206.302 147.14 205.835C145.437 205.345 144.025 204.808 142.905 204.225C141.785 203.642 140.945 202.918 140.385 202.055C139.848 201.192 139.58 200.095 139.58 198.765C139.58 197.505 139.918 196.385 140.595 195.405C141.272 194.402 142.24 193.608 143.5 193.025C144.783 192.442 146.335 192.15 148.155 192.15C149.602 192.15 150.862 192.348 151.935 192.745C153.032 193.118 153.942 193.632 154.665 194.285C155.388 194.915 155.937 195.603 156.31 196.35C156.683 197.073 156.882 197.785 156.905 198.485C156.905 198.648 156.847 198.812 156.73 198.975C156.613 199.115 156.427 199.185 156.17 199.185H154.315C154.152 199.185 153.977 199.138 153.79 199.045C153.627 198.952 153.498 198.777 153.405 198.52C153.265 197.563 152.728 196.758 151.795 196.105C150.862 195.452 149.648 195.125 148.155 195.125C146.638 195.125 145.402 195.417 144.445 196C143.512 196.583 143.045 197.493 143.045 198.73C143.045 199.523 143.267 200.188 143.71 200.725C144.153 201.238 144.853 201.693 145.81 202.09C146.767 202.487 148.015 202.907 149.555 203.35C151.422 203.863 152.95 204.412 154.14 204.995C155.33 205.555 156.205 206.267 156.765 207.13C157.348 207.97 157.64 209.055 157.64 210.385C157.64 211.855 157.255 213.115 156.485 214.165C155.715 215.192 154.63 215.985 153.23 216.545C151.853 217.082 150.22 217.35 148.33 217.35Z" fill="black"/>
</svg>
