<svg width="694" height="464" viewBox="0 0 694 464" fill="none" xmlns="http://www.w3.org/2000/svg">
<path d="M505.192 1.6289L611.818 111.464H693.301L585.511 0.465393L505.192 1.6289Z" fill="#047379"/>
<path d="M505.192 1.62891L504.727 86.5646L532.663 111.231L616.707 111.464L505.192 1.62891Z" fill="#79BC43"/>
<path d="M694 111.696H613.216V193.142H694V111.696Z" fill="#B2D464"/>
<path d="M636.03 172.199C633.469 170.104 632.305 166.846 632.305 162.425C632.305 160.796 632.537 159.167 632.77 157.538C633.469 153.582 634.4 150.092 635.098 146.601C636.495 140.551 639.056 136.13 642.548 133.105C646.04 130.08 650.464 128.683 655.818 128.683C660.242 128.683 663.734 129.847 666.295 131.941C668.855 134.268 670.019 137.526 670.019 141.715C670.019 143.344 669.787 144.973 669.554 146.369C668.855 150.325 668.157 153.815 667.226 157.306C665.829 163.356 663.268 167.777 659.776 170.802C656.284 173.827 651.86 175.224 646.739 175.224C642.083 175.689 638.591 174.526 636.03 172.199ZM656.982 168.243C659.776 165.916 661.871 162.192 663.035 157.306C663.966 154.048 664.665 150.557 665.363 147.067C665.596 145.438 665.829 143.809 665.829 142.18C665.829 138.922 664.898 136.363 663.268 134.966C661.638 133.337 659.078 132.639 655.818 132.639C651.628 132.639 648.136 133.803 645.342 136.13C642.548 138.457 640.453 142.18 639.289 147.067C638.358 150.325 637.659 153.815 636.961 157.306C636.728 158.935 636.495 160.563 636.495 162.192C636.495 165.45 637.426 168.01 639.056 169.406C640.686 171.035 643.247 171.733 646.739 171.733C650.696 171.733 654.189 170.57 656.982 168.243Z" fill="white"/>
<path d="M615.776 111.464L586.908 82.1433L506.124 81.6779L534.992 111.464H615.776Z" fill="#FFF200"/>
<path d="M159.705 57.2444V141.017L213.251 192.676L213.949 110.766L159.705 57.2444Z" fill="#C73292"/>
<path d="M292.872 111.231L212.786 110.766L160.404 57.4771L240.024 57.7098L292.872 111.231Z" fill="#82CFCD"/>
<path d="M292.871 110.766H212.785V192.676H292.871V110.766Z" fill="#92278F"/>
<path d="M214.649 110.766H132.701V192.676H214.649V110.766Z" fill="#E03F2F"/>
<path d="M372.958 110.766H292.872V192.443H372.958V110.766Z" fill="#F26522"/>
<path d="M454.673 110.998H373.19V192.443H454.673V110.998Z" fill="#CA2E92"/>
<path d="M535.457 110.998H454.673V192.443H535.457V110.998Z" fill="#43A6D3"/>
<path d="M266.565 1.1635L373.191 110.998H454.674L346.884 0L266.565 1.1635Z" fill="#FFF200"/>
<path d="M535.456 110.998L506.123 81.6779H426.27L454.672 110.998H535.456Z" fill="#92278F"/>
<path d="M266.565 1.16351L266.1 85.8666L292.872 110.766L373.191 110.998L266.565 1.16351Z" fill="#CCA1CB"/>
<path d="M153.42 170.802C153.187 170.57 153.188 170.337 153.188 170.104V169.871L162.267 127.287C162.267 126.822 162.5 126.589 162.965 126.124C163.198 125.891 163.664 125.658 164.129 125.658H179.262C183.22 125.658 186.246 126.356 188.574 127.985C190.67 129.614 191.834 131.941 191.834 135.199C191.834 136.363 191.601 137.526 191.368 138.69C190.67 142.18 189.273 144.973 186.945 147.067C184.617 149.161 182.056 150.557 178.796 151.255L185.548 169.173V169.406C185.548 169.639 185.548 169.639 185.548 169.871C185.548 170.104 185.315 170.57 185.082 170.802C184.849 171.035 184.384 171.268 184.151 171.268H183.452C182.754 171.268 182.288 171.035 182.056 170.802C181.823 170.57 181.59 170.104 181.357 169.406L174.606 151.954H161.103L157.378 169.871C157.378 170.337 157.145 170.57 156.68 170.802C156.214 171.035 155.981 171.268 155.516 171.268H154.352C153.886 171.268 153.42 171.035 153.42 170.802ZM174.14 147.998C181.59 147.998 186.013 144.973 187.41 138.69C187.643 137.759 187.643 136.828 187.643 136.13C187.643 131.709 184.384 129.382 178.098 129.382H165.992L162.034 147.998H174.14Z" fill="white"/>
<path d="M326.628 174.293C326.395 174.06 326.395 173.827 326.395 173.595V173.362L329.654 157.306L319.178 131.243C319.178 131.01 318.945 130.778 318.945 130.778C318.945 130.312 319.178 130.08 319.411 129.614C319.644 129.382 320.109 129.149 320.575 129.149H321.739C322.437 129.149 322.67 129.382 323.136 130.08L332.215 152.884L350.84 130.08C351.306 129.382 352.004 129.149 352.47 129.149H354.565C355.263 129.149 355.729 129.382 355.729 130.08C355.729 130.545 355.496 131.01 355.03 131.476L333.612 157.538L330.12 173.595C330.12 174.06 329.887 174.293 329.422 174.525C328.956 174.758 328.723 174.991 328.258 174.991H327.094C327.326 174.525 326.861 174.525 326.628 174.293Z" fill="white"/>
<path d="M393.211 174.06C392.978 173.827 392.979 173.595 392.979 173.362V173.129L402.058 130.545C402.058 130.08 402.291 129.847 402.756 129.382C402.989 129.149 403.455 128.916 403.92 128.916H429.296C429.762 128.916 429.995 129.149 430.228 129.382C430.461 129.614 430.461 129.847 430.461 130.08C430.461 130.312 430.461 130.312 430.461 130.545L430.228 131.476C430.228 131.941 429.995 132.174 429.529 132.407C429.296 132.639 428.831 132.872 428.365 132.872H405.55L402.058 149.394H423.476C423.942 149.394 424.175 149.627 424.408 149.859C424.64 150.092 424.64 150.325 424.64 150.557C424.64 150.79 424.64 150.79 424.64 151.023L424.408 151.954C424.408 152.419 424.175 152.652 423.709 152.884C423.476 153.117 423.011 153.35 422.545 153.35H401.127L397.402 170.57H420.683C421.148 170.57 421.381 170.802 421.614 171.035C421.847 171.268 421.847 171.5 421.847 171.733C421.847 171.966 421.847 171.966 421.847 172.198L421.614 173.129C421.614 173.595 421.381 173.827 420.915 174.06C420.683 174.293 420.217 174.526 419.751 174.526H393.91C393.677 174.293 393.444 174.293 393.211 174.06Z" fill="white"/>
<path d="M475.625 170.57C473.297 168.243 472.133 164.985 472.133 160.796C472.133 159.4 472.366 158.004 472.598 156.375C473.064 153.35 473.995 149.394 475.159 144.74C476.556 139.388 478.884 134.966 482.144 131.941C485.403 128.683 490.059 127.287 495.646 127.287C499.138 127.287 501.932 127.753 504.26 128.916C506.588 130.08 508.218 131.476 509.149 133.337C510.08 135.199 510.779 137.061 510.779 139.155C510.779 139.853 510.779 140.551 510.546 141.482C510.313 142.413 510.08 142.878 509.382 142.878H507.985C507.52 142.878 507.287 142.878 507.054 142.646C506.821 142.413 506.588 142.18 506.821 141.715C506.821 141.482 506.821 140.784 506.821 140.086C506.821 134.501 503.329 131.476 496.112 131.476C491.921 131.476 488.429 132.639 485.636 134.966C482.842 137.293 480.747 140.784 479.583 145.671C478.651 149.161 477.953 152.884 477.255 156.608C477.022 158.469 476.789 160.098 476.789 161.029C476.789 167.544 480.281 170.57 487.032 170.57C490.757 170.57 494.017 169.871 496.578 168.243C499.138 166.614 501.234 164.054 502.863 160.331C503.096 159.4 503.795 158.935 504.493 158.935H505.89C506.355 158.935 506.588 158.935 506.821 159.167C507.054 159.4 507.054 159.633 507.054 159.865C507.054 160.098 507.054 160.098 507.054 160.331C505.89 164.287 503.795 167.544 500.535 170.337C497.509 173.129 493.085 174.526 487.032 174.526C481.678 174.06 477.953 172.897 475.625 170.57Z" fill="white"/>
<path d="M0 57.0117V140.551L53.3129 192.211L54.2442 110.3L0 57.0117Z" fill="#F3B21C"/>
<path d="M133.166 110.766L53.0799 110.3L0.698242 57.0117L80.3184 57.4771L133.166 110.766Z" fill="#B2D464"/>
<path d="M133.166 110.533H53.0801V192.443H133.166V110.533Z" fill="#4BBFAA"/>
<path d="M75.1967 170.57C74.9639 170.337 74.9639 170.104 74.9639 169.871V169.639L84.0434 127.055C84.0434 126.589 84.2762 126.356 84.7418 125.891C84.9746 125.658 85.4402 125.426 85.9058 125.426H101.504C105.694 125.426 108.721 126.356 111.049 127.985C113.377 129.614 114.308 132.174 114.308 135.432C114.308 136.595 114.076 137.759 113.843 138.922C112.912 143.344 110.816 146.601 108.023 148.928C104.996 151.255 101.271 152.419 96.3822 152.419H82.8793L79.1544 169.406C79.1544 169.871 78.9216 170.104 78.456 170.337C77.9904 170.57 77.7576 170.802 77.2919 170.802H76.1279C75.6623 170.802 75.4295 170.802 75.1967 170.57ZM95.9165 148.23C99.4087 148.23 102.435 147.3 104.996 145.671C107.324 144.042 108.954 141.715 109.652 138.69C109.885 137.061 110.118 135.897 110.118 135.199C110.118 133.105 109.419 131.476 108.023 130.545C106.626 129.614 104.298 129.149 100.806 129.149H87.5355L83.3449 148.23H95.9165Z" fill="white"/>
<path d="M615.776 111.464H534.992V192.909H615.776V111.464Z" fill="#E03F2F"/>
<path d="M564.325 173.129C564.092 172.897 564.092 172.664 564.092 172.431V172.198L572.706 131.941H559.901C559.436 131.941 559.203 131.709 558.97 131.476C558.737 131.243 558.737 131.01 558.737 130.778V130.545L558.97 129.614C558.97 129.149 559.203 128.916 559.669 128.451C559.901 128.218 560.367 127.985 560.833 127.985H590.632C591.098 127.985 591.33 128.218 591.563 128.451C591.796 128.683 591.796 128.916 591.796 129.149C591.796 129.382 591.796 129.382 591.796 129.614L591.33 130.312C591.33 130.778 591.098 131.01 590.632 131.243C590.399 131.476 589.934 131.709 589.468 131.709H576.663L568.05 171.966C568.05 172.431 567.817 172.664 567.351 172.897C566.886 173.129 566.653 173.362 566.187 173.362H565.023C564.79 173.362 564.557 173.362 564.325 173.129Z" fill="white"/>
<path d="M235.835 171.5C233.274 169.406 232.11 166.148 232.11 161.727C232.11 160.098 232.343 158.469 232.576 156.84C233.274 152.884 234.206 149.394 234.904 145.903C236.301 139.853 238.862 135.432 242.354 132.407C245.846 129.382 250.269 127.985 255.624 127.985C260.047 127.985 263.539 129.149 266.1 131.243C268.661 133.57 269.825 136.828 269.825 141.017C269.825 142.646 269.592 144.274 269.36 145.671C268.661 149.627 267.963 153.117 267.032 156.608C265.635 162.658 263.074 167.079 259.582 170.104C256.09 173.129 251.666 174.526 246.544 174.526C241.888 174.758 238.396 173.595 235.835 171.5ZM256.788 167.312C259.582 164.985 261.677 161.262 262.841 156.375C263.772 153.117 264.471 149.627 265.169 146.136C265.402 144.507 265.635 142.878 265.635 141.249C265.635 137.992 264.703 135.432 263.074 134.036C261.444 132.407 258.883 131.709 255.624 131.709C251.433 131.709 247.941 132.872 245.148 135.199C242.354 137.526 240.259 141.249 239.095 146.136C238.163 149.394 237.465 152.884 236.767 156.375C236.534 158.004 236.301 159.633 236.301 161.262C236.301 164.519 237.232 167.079 238.862 168.475C240.491 170.104 243.052 170.802 246.544 170.802C250.502 170.802 253.994 169.639 256.788 167.312Z" fill="white"/>
<path d="M172.045 232.933C181.124 232.933 188.807 234.33 195.092 236.889C201.378 239.449 206.5 242.94 210.691 247.361C214.648 251.782 217.675 256.669 219.304 262.254C221.167 267.838 222.098 273.423 222.098 279.473C222.098 285.291 221.167 290.876 219.304 296.693C217.442 302.278 214.648 307.165 210.691 311.586C206.733 316.007 201.611 319.265 195.092 322.058C188.807 324.617 181.124 326.014 172.045 326.014H138.52V377.906H106.858V233.399H172.045V232.933ZM163.198 301.115C166.923 301.115 170.415 300.882 173.674 300.417C176.933 299.951 179.96 298.788 182.521 297.391C185.082 295.763 187.177 293.668 188.807 290.876C190.436 288.083 191.135 284.36 191.135 279.706C191.135 275.052 190.436 271.329 188.807 268.537C187.177 265.744 185.082 263.417 182.521 262.021C179.96 260.392 176.933 259.461 173.674 258.996C170.182 258.53 166.69 258.298 163.198 258.298H138.52V301.58H163.198V301.115Z" fill="#00A651"/>
<path d="M273.549 232.933V350.68H344.089V377.44H241.887V232.933H273.549Z" fill="#00A651"/>
<path d="M515.203 232.933H550.823L584.58 289.945L618.104 232.933H653.491L599.712 322.058V377.44H567.818V321.127L515.203 232.933Z" fill="#00A651"/>
<path d="M372.724 242.241C372.724 253.411 372.724 264.813 372.724 275.983C372.724 296.693 372.724 317.404 372.724 338.114C372.724 345.793 372.724 353.472 372.724 361.151C372.724 364.875 372.258 369.529 373.422 373.019C375.517 379.302 382.502 383.025 389.02 381.164C390.65 380.698 392.047 379.767 393.444 379.069C397.867 376.277 402.29 373.717 406.714 370.925C423.243 360.686 439.772 350.68 456.535 340.441C471.9 330.9 487.265 321.592 502.63 312.052C505.424 310.19 508.451 308.561 511.477 306.699C519.393 301.58 518.461 290.178 509.847 286.455C497.741 280.87 485.635 275.518 473.297 269.933C454.439 261.323 435.582 252.946 416.724 244.336C409.973 241.311 402.989 238.053 396.237 235.028C392.978 233.631 389.02 231.304 385.528 230.839C378.544 230.141 372.957 235.493 372.724 242.241C372.491 245.732 378.078 245.732 378.311 242.241C378.544 237.82 382.502 235.493 386.459 236.889C387.623 237.355 389.02 238.053 390.184 238.518C395.772 241.078 401.359 243.638 406.947 246.197C424.64 254.109 442.333 262.254 460.027 270.165C474.228 276.681 488.662 283.197 502.863 289.48C506.588 291.109 512.176 292.97 511.011 298.322C510.313 301.813 505.89 303.674 503.096 305.303C489.593 313.681 476.09 321.825 462.588 330.202C445.825 340.441 429.063 350.68 412.301 360.919C406.481 364.409 400.894 367.9 395.073 371.39C392.512 373.019 389.02 375.812 385.994 376.044C381.57 376.51 378.311 372.786 378.078 368.598C378.078 367.202 378.078 366.038 378.078 364.642C378.078 358.359 378.078 352.076 378.078 345.793C378.078 326.246 378.078 306.699 378.078 287.153C378.078 272.725 378.078 258.298 378.078 244.103C378.078 243.405 378.078 242.707 378.078 241.776C378.311 238.518 372.724 238.518 372.724 242.241Z" fill="#B2D464"/>
<path d="M374.354 245.965C376.682 245.965 378.778 246.197 381.106 245.965C381.571 245.965 385.529 244.568 385.529 244.568C386.228 245.267 383.899 247.361 383.434 247.826C382.27 249.222 381.804 250.386 381.571 252.248C381.339 254.342 384.132 255.505 385.762 254.575C387.624 253.644 389.72 252.713 391.815 251.782C393.212 251.317 394.609 250.851 396.006 250.386C396.238 250.386 397.402 250.153 397.635 250.153C398.101 249.688 397.635 250.619 397.17 249.688C397.17 248.757 397.17 247.826 397.17 246.895C395.307 250.619 390.418 252.713 387.159 255.04C384.598 256.902 380.873 259.694 380.175 262.952C379.942 264.581 380.873 266.442 382.735 266.442C387.159 266.21 390.418 263.65 394.376 261.788C396.005 261.09 397.635 260.392 399.265 259.461C400.429 258.763 402.291 257.367 403.688 257.832C402.99 257.134 402.291 256.436 401.826 255.971C402.059 256.436 398.799 259.461 398.334 259.927C396.471 262.021 394.609 264.115 392.281 265.744C388.556 268.769 383.667 272.492 382.037 277.146C381.339 279.474 384.132 281.568 385.995 280.172C392.746 275.75 399.498 271.329 406.715 267.606C410.44 265.744 413.932 263.65 417.657 261.788C419.519 260.857 421.382 259.694 423.244 258.763C425.106 257.832 426.736 256.436 428.831 255.971C427.9 254.342 426.969 252.946 426.038 251.317C422.546 254.575 418.122 257.134 414.397 260.159C409.974 263.417 405.551 266.675 401.127 269.933C392.513 276.216 384.598 283.429 376.45 290.643C374.354 292.505 376.682 295.995 379.243 295.297C381.106 294.832 382.503 293.668 384.132 292.737C386.228 291.574 388.556 290.643 390.651 289.712C395.54 287.618 400.429 285.756 405.085 283.197C409.741 280.87 414.164 278.543 418.821 276.216C423.477 274.121 427.9 271.329 432.556 269.467C431.392 268.304 430.228 267.14 429.064 265.977C429.297 265.279 428.366 266.442 428.133 266.675C427.435 267.14 426.969 267.606 426.27 268.071C425.339 268.769 424.408 269.467 423.477 270.165C418.821 273.423 414.863 277.612 410.672 281.335C406.249 285.291 402.059 289.48 397.635 293.668C394.841 296.461 390.418 299.253 389.953 303.209C389.72 305.536 392.513 306.467 394.143 305.536C399.498 302.976 404.387 299.253 409.276 295.763C414.63 292.039 419.985 288.316 425.572 284.593C435.35 277.845 446.059 273.191 455.604 265.977C454.44 264.581 453.276 263.184 452.345 261.556C442.8 269.7 432.556 277.147 422.778 284.826C413 292.505 403.455 300.882 394.143 309.259C395.074 309.026 396.005 308.794 396.937 308.561C394.609 308.096 392.513 310.655 390.884 312.052C389.021 313.681 386.46 315.775 386.228 318.567C386.228 320.894 388.556 321.825 390.418 320.894C402.058 315.542 413.233 309.725 424.408 303.674C429.995 300.649 435.583 297.624 440.937 294.599C443.731 293.203 446.525 291.574 449.318 290.178C452.112 288.782 454.44 286.92 457.467 285.989C456.535 284.36 455.604 282.964 454.673 281.335C444.895 289.014 434.652 296.228 424.175 303.209C413.699 310.423 403.455 318.102 393.212 325.316C390.418 327.41 392.746 331.831 396.006 330.202C409.974 322.29 423.942 314.146 437.678 305.769C450.482 298.09 463.52 290.643 474.927 280.87C477.023 279.008 474.694 275.285 472.134 276.216C464.451 278.775 457.932 283.895 451.181 287.851C443.498 292.272 435.816 296.926 428.366 301.347C413.233 310.423 398.101 319.731 383.201 329.039C380.64 330.668 382.27 335.089 385.296 334.158C388.788 333.227 392.281 330.435 395.54 328.573C404.154 323.687 413 319.033 421.847 314.379C430.461 309.725 439.308 305.071 447.922 300.417C451.181 298.555 454.673 296.926 457.7 295.064C458.631 294.599 459.562 293.901 460.493 293.436C460.959 293.203 461.657 292.97 462.123 292.737C463.054 292.272 463.287 292.97 461.89 292.272C461.657 290.876 461.424 289.48 461.424 287.851C454.673 294.134 446.758 299.02 439.075 304.605C431.392 310.19 423.477 315.542 416.26 321.825C414.63 323.221 415.561 325.781 417.424 326.479C419.519 327.177 421.847 327.177 423.942 326.479C426.736 325.548 428.366 323.454 430.927 322.058C436.514 318.567 442.334 315.775 447.922 312.517C459.562 306.001 470.97 299.253 482.61 292.737C481.679 291.109 480.747 289.48 479.816 287.851C466.081 296.461 452.811 305.536 439.308 314.844C432.556 319.498 426.038 323.919 419.286 328.573C416.027 330.9 412.535 333.227 409.276 335.787C406.482 337.881 403.455 339.743 401.127 342.303C399.265 344.397 401.127 347.422 403.921 346.957C409.741 346.026 415.329 342.07 420.217 339.278C425.805 336.02 431.392 332.529 436.98 329.039C447.922 322.29 459.096 315.542 470.737 309.725C469.805 308.096 468.874 306.467 467.943 304.838C454.906 312.982 442.101 321.36 428.831 329.271C422.313 333.227 415.794 336.718 409.508 340.674C406.482 342.535 403.688 344.397 400.894 346.491C398.334 348.353 395.54 350.215 393.445 352.774C391.582 355.101 393.91 358.592 396.704 357.196C405.085 352.774 412.302 346.724 419.519 340.674C427.202 334.158 435.117 327.643 442.567 320.894C450.25 314.146 457.932 307.63 465.615 300.882C469.573 297.624 473.298 294.134 477.721 291.341C479.351 290.178 483.308 286.222 485.404 286.92C484.938 285.524 484.24 284.128 483.774 282.964C478.652 290.41 470.97 295.763 463.985 301.347C456.535 307.165 449.318 313.215 441.636 318.8C434.419 324.152 426.969 329.504 419.286 334.158C415.561 336.485 411.371 338.579 407.413 340.441C402.99 342.303 398.566 343.699 394.376 345.793C392.281 346.724 392.746 350.447 395.074 350.913C399.498 351.611 402.291 350.215 405.551 347.422C409.276 344.164 414.397 342.07 418.588 339.51C427.9 334.158 437.212 328.573 446.758 323.454C456.07 318.335 465.615 313.448 475.16 308.096C479.816 305.536 484.24 302.976 488.663 300.184C492.621 297.857 496.811 296.461 500.303 293.436C503.097 291.109 499.139 287.153 496.346 289.48C493.086 292.272 488.43 293.668 484.705 295.995C480.515 298.555 476.324 300.882 472.134 303.442C463.52 308.328 454.44 312.75 445.826 317.636C436.98 322.523 428.366 327.41 419.752 332.529C415.561 334.856 411.604 337.416 407.413 339.743C405.318 340.906 403.223 342.07 401.593 343.699C400.196 345.095 398.566 346.026 396.471 345.793C396.704 347.422 396.937 349.051 397.17 350.913C401.593 348.586 406.482 347.189 411.138 345.328C415.329 343.466 419.286 341.372 423.011 339.045C430.927 334.158 438.609 328.573 446.292 322.989C453.975 317.171 461.424 311.353 468.874 305.303C476.091 299.718 483.541 294.134 488.663 286.455C489.827 284.826 488.663 282.964 487.033 282.499C483.774 281.335 480.515 283.662 477.954 285.524C474.462 288.083 471.202 290.41 467.71 292.97C459.329 299.718 451.414 307.165 443.265 314.146C435.117 321.36 426.736 328.341 418.588 335.322C410.905 341.837 403.223 348.353 394.143 353.24C395.307 354.636 396.471 356.032 397.402 357.661C399.265 355.334 401.826 353.938 403.921 352.076C406.947 349.749 409.974 347.888 413 345.793C419.519 341.837 426.038 338.347 432.323 334.391C445.128 326.712 457.7 318.335 470.504 310.423C473.53 308.561 470.97 304.14 467.71 305.536C456.535 311.121 445.594 317.869 434.884 324.385C429.53 327.643 424.408 330.9 419.053 333.925C413.932 336.951 408.111 341.139 402.058 342.303C402.99 343.932 403.921 345.328 404.852 346.957C407.413 344.164 410.44 342.303 413.466 340.208C416.493 338.114 419.752 335.787 422.778 333.693C429.297 329.039 436.048 324.385 442.8 319.963C455.837 310.888 468.874 302.045 482.377 293.668C485.404 291.807 482.61 287.153 479.583 288.782C469.107 294.832 458.398 300.882 447.922 306.932C442.8 309.957 437.678 312.75 432.323 315.775C429.763 317.171 427.202 318.335 425.106 320.196C423.011 322.058 421.382 322.989 418.588 322.058C419.053 323.687 419.286 325.083 419.752 326.712C433.953 314.379 450.948 305.769 464.917 292.97C466.081 291.807 465.848 289.48 464.451 288.549C460.493 286.455 454.207 291.807 450.715 293.668C441.636 298.555 432.323 303.442 423.011 308.328C413.932 313.215 404.852 318.102 395.773 322.989C393.445 324.385 390.884 325.781 388.556 326.944C387.392 327.643 386.228 328.341 385.064 328.806C384.598 329.039 382.503 329.97 383.434 329.737C384.132 331.366 384.831 332.995 385.529 334.856C400.196 325.781 414.863 316.473 429.763 307.863C436.98 303.442 444.429 299.253 451.647 294.832C455.139 292.737 458.864 290.876 462.356 288.549C465.848 286.222 469.34 284.128 473.298 282.499C472.366 280.87 471.435 279.474 470.504 277.845C459.096 287.385 446.059 294.832 433.488 302.511C419.985 310.655 406.482 318.8 392.746 326.479C393.677 328.108 394.609 329.737 395.54 331.366C406.249 323.919 416.725 316.008 427.435 308.561C437.911 301.347 448.154 294.366 458.165 286.455C460.493 284.593 457.932 281.102 455.371 281.801C452.578 282.731 450.25 283.895 447.922 285.524C445.361 287.153 442.334 288.549 439.541 289.945C433.72 293.203 427.9 296.228 421.847 299.486C410.207 305.769 398.799 311.819 386.693 317.171C388.09 317.869 389.487 318.8 390.884 319.498C390.884 320.662 390.651 319.963 390.884 319.731C391.117 319.498 391.349 319.033 391.582 318.8C392.281 318.102 392.979 317.404 393.677 316.706C394.376 316.24 394.841 315.542 395.54 315.077C395.773 314.844 397.17 313.681 396.471 314.379C395.773 314.379 395.074 314.611 394.376 314.611C396.937 315.077 398.566 312.517 400.429 310.888C402.99 308.794 405.318 306.467 407.879 304.372C413 299.951 418.122 295.53 423.477 291.341C433.953 282.964 444.895 275.052 455.139 266.442C457.467 264.348 454.207 260.159 451.879 262.021C442.334 269.002 431.625 273.889 421.847 280.637C416.725 284.36 411.371 287.851 406.016 291.341C400.894 294.832 396.005 298.788 390.418 301.347C391.815 302.045 393.212 302.976 394.609 303.674C394.609 302.976 398.101 300.649 398.799 299.951C400.894 297.857 402.99 295.763 405.085 293.668C409.276 289.712 413.466 285.756 417.889 281.801C420.916 279.008 423.942 276.216 427.435 273.889C429.763 272.26 432.556 270.398 433.72 267.606C434.419 265.744 432.091 263.417 430.228 264.115C425.805 265.744 421.847 268.304 417.657 270.165C413 272.492 408.111 274.819 403.455 277.146C398.799 279.706 393.91 281.801 388.788 283.895C386.693 284.826 384.598 285.524 382.503 286.687C380.64 287.618 378.778 289.48 376.915 289.945C377.846 291.574 378.778 292.97 379.709 294.599C387.857 287.385 396.005 279.939 404.852 273.656C409.276 270.631 413.466 267.373 417.657 264.115C421.382 261.09 425.572 258.763 429.064 255.505C431.159 253.411 428.831 250.386 426.27 250.851C422.546 251.549 419.053 254.342 415.794 255.971C411.836 258.065 407.879 260.392 403.688 262.486C396.238 266.442 389.021 270.864 382.037 275.518C383.434 276.448 384.831 277.612 385.995 278.543C386.926 275.983 389.953 273.656 391.815 272.027C394.143 269.933 396.704 268.071 398.799 265.744C401.36 262.952 406.715 258.763 405.551 254.342C405.318 253.411 404.619 252.713 403.688 252.48C399.963 251.549 396.937 253.876 393.91 255.505C392.048 256.436 390.185 257.134 388.323 258.065C385.995 259.229 383.9 261.09 381.339 261.09C382.27 262.254 383.201 263.417 383.899 264.581C384.365 262.719 387.624 260.625 389.021 259.461C391.349 257.832 393.91 256.436 396.006 254.575C398.566 252.48 403.455 247.361 398.334 245.267C395.54 244.103 392.048 245.499 389.487 246.663C386.693 247.594 384.132 248.757 381.571 250.153C382.968 250.851 384.365 251.782 385.762 252.48C385.762 251.549 387.392 250.386 387.857 249.688C388.556 248.99 389.021 248.059 389.254 247.128C389.952 245.034 389.72 242.707 388.323 241.078C386.926 239.449 384.598 238.751 382.503 239.449C380.873 239.914 379.942 240.612 378.079 240.845C376.217 240.845 374.587 240.845 372.725 240.845C370.862 240.38 370.862 245.732 374.354 245.965Z" fill="#B2D464"/>
<path d="M395.54 349.051C392.747 350.913 389.255 353.705 388.556 357.196C388.091 360.686 391.35 361.617 393.911 361.617C402.292 361.617 409.742 358.592 417.192 355.101C433.954 347.189 451.182 340.208 467.944 332.297C472.6 330.202 477.256 327.875 481.447 324.85C483.309 323.454 485.404 322.058 487.267 320.894C489.362 319.498 491.923 319.033 494.018 317.636C494.949 316.938 495.648 315.775 495.182 314.611C493.32 309.259 486.801 311.354 482.843 312.982C478.187 314.844 473.764 317.404 469.573 320.196C461.192 326.014 453.044 332.297 443.964 337.416C434.419 343.001 424.641 348.12 414.864 352.774C409.509 355.334 403.922 357.428 398.334 359.988C395.773 361.151 393.445 362.315 390.884 363.478C389.022 364.409 386.694 364.875 385.763 366.736C384.831 368.598 386.461 371.623 388.789 370.692C392.98 369.063 396.472 366.504 400.429 364.177C404.853 361.384 409.043 358.824 413.467 356.032C421.848 350.447 430.229 345.328 438.61 339.743C446.991 334.158 455.838 329.504 464.684 324.617C468.875 322.058 473.065 319.498 477.023 316.473C480.282 314.146 484.24 312.517 486.568 309.027C488.664 306.001 483.775 303.442 481.679 306.234C480.515 307.863 478.187 308.794 476.558 309.725C474.928 310.888 473.298 312.052 471.669 313.448C467.944 316.24 463.986 318.567 459.795 320.894C451.414 325.548 442.8 330.202 434.885 335.554C426.97 340.906 419.054 345.793 411.139 350.913C407.181 353.472 403.223 356.032 399.033 358.592C395.308 360.919 391.583 363.944 387.392 365.573C388.323 366.969 389.487 368.365 390.419 369.529C390.652 368.831 393.678 368.132 394.376 367.667C396.704 366.504 398.8 365.34 401.128 364.409C405.318 362.548 409.742 361.151 413.699 359.057C422.546 354.869 431.16 350.447 439.541 345.793C447.689 341.372 455.372 336.485 462.822 331.133C467.711 327.643 472.367 323.919 477.722 321.127C480.05 319.731 482.611 318.567 485.171 317.636C486.335 317.171 487.499 316.706 488.664 316.706C490.06 316.473 489.595 317.171 489.362 316.008C489.828 315.077 490.293 313.913 490.526 312.982C488.664 314.146 486.335 314.844 484.24 316.008C482.145 317.171 480.282 318.567 478.42 319.963C474.229 322.756 470.039 325.083 465.383 327.177C456.303 331.598 447.224 335.322 438.144 339.51C429.298 343.699 420.451 347.655 411.604 351.611C407.414 353.472 402.99 355.334 398.334 356.032C396.705 356.265 393.911 355.799 392.514 356.265C391.35 356.032 391.816 356.73 393.445 358.359C393.678 357.661 394.144 357.196 394.609 356.497C395.54 355.567 396.705 354.636 397.636 353.938C401.128 351.843 398.334 346.957 395.54 349.051Z" fill="#B2D464"/>
<path d="M252.364 441.433C252.364 443.993 251.898 446.32 250.967 448.181C249.803 450.508 247.94 451.672 245.612 451.672C244.914 451.672 243.75 451.439 242.12 450.741C242.12 450.974 242.12 451.207 242.12 451.207C242.12 452.137 241.655 452.603 240.491 452.603C239.792 452.603 239.094 452.37 238.628 451.672C238.395 451.439 238.163 450.508 238.163 448.88C237.93 447.716 237.93 446.553 237.93 445.854V445.622L238.628 420.955C239.094 420.257 239.559 420.025 240.258 420.025C240.491 420.025 240.491 420.025 240.723 420.025C241.189 420.025 241.655 420.257 242.12 420.955C242.586 421.654 242.819 422.119 242.819 422.817C242.819 423.981 242.819 425.842 242.586 427.936C242.353 430.264 242.12 432.125 242.12 432.823C243.051 431.892 243.983 431.194 245.38 431.194C247.009 431.194 248.406 431.66 249.803 432.823C250.967 433.987 251.898 435.383 252.364 437.012C252.364 438.408 252.364 439.804 252.364 441.433ZM248.406 441.2C248.406 437.245 247.475 435.383 245.845 435.383C244.448 435.383 243.517 436.314 242.586 438.408C242.12 439.804 241.655 441.433 241.655 443.295C241.655 447.018 242.819 448.88 244.914 448.88C247.242 448.647 248.406 446.087 248.406 441.2Z" fill="#00AEEF"/>
<path d="M270.29 434.685C270.057 436.081 269.824 437.477 269.591 439.106C269.359 440.735 269.126 442.131 269.126 443.527V455.395C269.126 457.489 268.427 459.118 267.263 460.282C266.099 461.445 264.237 461.911 262.142 461.911C260.745 461.911 259.115 461.445 257.485 460.747C255.39 459.817 254.459 458.886 254.459 457.722C254.459 457.257 254.692 457.024 254.925 456.791C255.157 456.559 255.623 456.326 256.089 456.326C256.321 456.326 257.02 456.791 257.951 457.49C258.882 458.188 260.046 458.653 261.443 458.653C263.073 458.653 264.237 457.955 264.702 456.791C265.168 455.861 265.401 454.697 265.401 452.835C265.401 452.137 265.401 451.672 265.401 451.207C264.47 451.905 263.306 452.137 262.142 452.137C260.046 452.137 258.184 451.439 257.02 449.81C255.856 448.414 255.39 446.553 255.39 444.458C255.39 444.226 255.623 440.502 255.856 433.521C256.787 433.056 257.485 433.056 257.951 433.056C258.417 433.056 259.348 433.289 260.512 434.219C259.814 436.081 259.348 439.339 259.348 444.691C259.348 447.949 260.279 449.81 261.909 449.81C263.073 449.81 264.237 448.647 264.702 446.553C265.168 445.156 265.401 443.527 265.401 441.899V436.546C265.401 436.546 265.401 436.081 265.168 435.15C266.332 434.685 267.263 434.219 267.729 434.219C268.66 433.754 269.359 433.987 270.29 434.685Z" fill="#00AEEF"/>
<path d="M300.321 424.911C300.321 425.377 300.088 425.842 299.856 426.308C299.623 426.773 299.157 426.773 298.692 426.773C298.459 426.773 297.993 426.54 297.295 426.308C296.596 426.075 295.898 425.842 295.432 425.842C294.268 425.842 293.104 425.842 292.406 425.842C291.94 425.842 291.707 425.842 291.707 425.842C291.707 425.842 291.707 426.308 291.475 426.773C291.242 427.471 291.242 428.635 291.009 430.031C290.543 433.987 290.078 438.408 290.078 443.527C290.078 447.018 290.543 449.112 291.242 450.509V451.672C290.776 451.905 290.311 452.137 289.845 452.137C287.982 452.137 286.818 451.207 286.12 449.345C285.887 448.414 285.654 446.785 285.654 444.226C285.654 441.433 285.654 439.106 285.887 437.477C285.887 436.779 286.12 435.15 286.353 432.358C286.586 430.264 286.818 428.635 286.818 427.238V426.075C286.353 426.075 285.654 426.308 284.49 426.308C283.559 426.54 282.628 426.54 282.162 426.54C280.067 426.54 279.136 425.842 279.136 424.679C279.136 424.213 279.369 423.981 279.601 423.748C280.067 423.05 282.395 422.584 286.353 422.119C289.612 421.886 292.173 421.654 294.035 421.654C295.432 421.654 296.596 421.886 297.76 422.119C299.623 423.05 300.321 423.748 300.321 424.911Z" fill="#00AEEF"/>
<path d="M316.619 452.137C316.153 452.603 315.222 453.068 314.524 453.068C313.825 453.068 313.36 452.603 312.661 451.905C312.661 449.345 312.661 447.251 312.661 445.855C312.661 439.339 311.73 436.081 309.868 436.081C308.005 436.081 307.074 438.641 307.074 443.993C307.074 444.226 307.074 444.691 307.074 445.156C307.074 445.622 307.074 446.087 307.074 446.32C307.074 446.785 307.074 447.483 307.307 448.414C307.54 449.345 307.54 450.043 307.54 450.509C307.54 450.974 307.307 451.207 306.841 451.439C306.376 451.672 305.91 451.905 305.677 451.905C304.979 451.905 304.28 451.672 303.815 450.974C303.349 450.276 303.116 449.81 303.116 448.88L303.349 423.515C303.349 423.515 303.349 423.283 303.349 423.05C303.349 422.817 303.349 422.817 303.349 422.817C303.349 421.654 303.815 421.188 305.212 421.188C305.677 421.188 306.376 421.421 307.074 421.886C307.772 422.352 308.238 422.817 308.238 423.515C308.238 424.213 308.005 425.144 307.772 426.308C307.54 427.471 307.307 428.402 307.307 429.1C307.307 430.031 307.307 431.194 307.307 433.056C308.005 432.591 308.471 432.591 308.936 432.591C310.1 432.591 311.264 432.823 312.661 433.521C314.291 434.219 315.455 435.383 316.153 437.012C316.619 438.175 316.852 439.804 316.852 442.131V452.137H316.619Z" fill="#00AEEF"/>
<path d="M333.147 447.483C333.147 448.88 332.216 450.043 330.121 450.974C328.491 451.672 326.862 451.905 325.232 451.905C320.809 451.905 318.48 449.345 318.48 444.226C318.48 442.131 318.946 439.804 320.11 437.245C321.274 433.987 322.904 432.591 324.766 432.591C326.396 432.591 328.026 433.289 329.888 434.685C331.75 436.081 332.682 437.477 332.682 439.106C332.682 440.968 331.75 442.597 330.121 443.76C328.724 444.691 326.862 445.389 324.766 445.389C324.301 445.389 323.602 445.156 322.904 444.691C322.904 447.483 323.835 448.88 325.232 448.88C326.396 448.88 327.793 448.414 328.957 447.716C330.121 447.018 331.052 446.553 331.285 446.553C332.682 446.553 333.147 446.785 333.147 447.483ZM328.491 439.339C328.491 438.641 328.258 437.943 327.793 437.245C327.327 436.546 326.862 436.314 326.163 436.314C325.232 436.314 324.533 436.779 323.835 437.477C323.369 438.175 323.137 439.106 323.137 440.037C323.137 440.502 323.369 440.968 323.602 441.433C324.068 441.666 324.533 441.899 324.999 441.899C327.327 441.899 328.491 441.2 328.491 439.339Z" fill="#00AEEF"/>
<path d="M346.884 436.314C346.884 436.546 346.884 436.779 346.884 437.245C346.186 438.175 345.72 438.641 345.022 438.641C344.556 438.641 343.858 438.408 343.625 437.71C343.625 436.314 343.159 435.848 342.228 435.848C341.762 435.848 341.064 437.245 340.366 440.037C340.133 441.2 339.9 443.062 339.9 445.156C339.9 447.251 339.9 448.414 340.133 448.88C340.366 449.345 340.366 449.81 340.366 450.043C340.366 450.508 340.133 450.974 339.667 451.207C339.201 451.439 338.736 451.672 338.27 451.672C336.641 451.672 335.942 450.974 335.942 449.578C335.942 449.345 335.942 449.345 335.942 448.88C335.942 448.647 335.942 448.414 335.942 448.414C335.942 447.018 335.942 444.691 335.709 441.899C335.477 439.106 335.477 436.779 335.477 435.383C335.477 433.987 336.175 433.521 337.805 433.521C338.736 433.521 339.434 433.754 339.667 434.452C340.365 433.521 341.297 433.056 342.461 433.056C343.159 433.056 343.858 433.289 344.556 433.521C345.022 433.754 345.487 434.219 346.186 434.918C346.884 435.616 346.884 435.848 346.884 436.314Z" fill="#00AEEF"/>
<path d="M362.947 443.993C362.947 447.716 362.714 450.508 362.714 451.905C362.482 452.836 362.016 453.301 360.852 453.301C359.222 453.301 358.524 452.37 358.757 450.974C357.36 451.672 355.73 451.905 354.1 451.905C352.704 451.905 351.074 451.439 349.677 450.741C348.047 449.81 347.116 448.647 347.116 447.251C347.116 445.854 348.047 444.691 349.91 443.527C351.54 442.364 353.169 441.899 354.566 441.899H358.291V440.968C358.291 437.943 357.36 436.314 355.497 436.314C353.169 436.314 352.005 437.477 352.005 439.572C352.005 440.27 351.54 440.735 350.841 440.735C350.376 440.735 349.91 440.502 349.211 440.037C348.746 439.572 348.513 439.106 348.513 438.641C348.513 437.012 348.979 435.616 350.376 434.685C351.54 433.754 352.936 433.056 354.566 433.056C360.386 432.823 362.947 436.546 362.947 443.993ZM358.524 445.622C358.524 445.156 358.058 444.691 357.127 444.691C353.402 444.691 351.772 445.622 351.772 447.251C351.772 448.181 352.471 448.647 354.1 448.647C355.032 448.647 355.963 448.414 356.894 447.716C358.058 447.251 358.524 446.553 358.524 445.622Z" fill="#00AEEF"/>
<path d="M385.53 447.018C385.53 448.88 384.599 450.276 382.504 451.207C380.874 451.905 379.012 452.37 377.149 452.37C375.287 452.37 373.192 451.905 370.631 451.207C367.604 450.043 365.975 448.88 365.975 447.483C365.975 447.018 366.207 446.553 366.44 446.087C366.906 445.622 367.371 445.622 367.837 445.622C368.535 445.622 369.234 445.854 369.932 446.553C371.096 447.483 371.795 447.949 371.795 448.181C372.726 448.647 374.589 449.112 377.382 449.112C379.71 449.112 380.874 448.647 380.874 447.483C380.874 446.553 379.71 445.389 377.615 443.76C375.985 442.829 374.588 441.666 372.959 440.735C370.864 439.339 369.467 438.175 368.536 437.012C367.371 435.383 366.673 433.521 366.673 431.66C366.673 429.1 367.371 426.773 369.001 424.911C370.631 422.817 372.726 421.654 375.287 421.654C377.382 421.654 379.245 422.352 380.641 423.515C382.038 424.679 382.97 426.308 383.435 428.402C383.435 429.333 383.668 430.496 383.901 432.125C383.901 432.591 384.134 433.056 384.134 433.056C384.134 434.219 383.901 434.918 383.668 435.616C383.202 436.546 382.504 437.012 381.573 437.012C381.107 437.012 380.641 436.779 380.176 436.314C379.71 435.848 379.477 435.383 379.477 434.918C379.477 434.452 379.477 433.987 379.71 433.289C379.943 432.591 379.943 431.892 379.943 431.66C379.943 427.704 378.546 425.842 375.985 425.842C374.588 425.842 373.424 426.54 372.26 427.704C371.329 428.867 370.864 430.264 370.864 431.892C370.864 433.987 372.028 436.081 374.588 437.943C376.917 439.572 379.245 440.968 381.573 442.597C384.366 443.76 385.53 445.389 385.53 447.018Z" fill="#00AEEF"/>
<path d="M402.99 440.968C402.99 443.993 402.524 446.553 401.36 448.414C399.963 451.207 398.101 452.37 395.54 452.37C394.143 452.37 392.979 451.905 391.815 451.207C391.815 451.439 391.815 451.905 391.815 452.603C391.815 453.301 391.815 453.766 391.815 453.999C391.815 456.791 392.048 458.886 392.746 460.515C392.979 461.213 393.212 461.678 393.212 461.678C393.212 462.609 392.513 463.074 391.349 463.074C390.418 463.074 389.72 462.842 389.487 462.609C389.254 462.376 388.788 461.678 388.555 460.515C388.323 459.351 388.09 458.653 388.09 457.955V447.483C388.09 446.553 388.09 445.156 388.323 443.527C388.323 441.666 388.555 440.27 388.555 439.572C388.555 438.873 388.555 437.943 388.555 436.779C388.555 435.383 388.555 434.219 388.555 433.754C388.555 431.194 389.254 430.031 390.884 430.031C391.349 430.031 391.582 430.264 392.048 430.496C392.513 430.729 392.513 431.194 392.513 431.427C392.513 432.125 392.513 433.289 392.28 434.918C393.444 433.289 394.841 432.591 396.471 432.591C398.566 432.591 400.196 433.521 401.36 435.15C402.524 436.779 402.99 438.641 402.99 440.968ZM399.032 440.735C399.032 437.477 398.333 436.081 396.937 436.081C396.238 436.081 395.54 436.546 394.608 437.71C392.746 439.804 391.815 442.829 391.582 446.785C391.815 447.018 392.513 447.483 393.212 448.647C393.91 449.345 394.608 449.81 395.074 449.81C397.868 449.578 399.032 446.553 399.032 440.735Z" fill="#00AEEF"/>
<path d="M420.451 443.993C420.451 447.716 420.218 450.508 420.218 451.905C419.985 452.836 419.52 453.301 418.356 453.301C416.726 453.301 416.028 452.37 416.261 450.974C414.864 451.672 413.234 451.905 411.604 451.905C410.208 451.905 408.578 451.439 407.181 450.741C405.551 449.81 404.62 448.647 404.62 447.251C404.62 445.854 405.551 444.691 407.414 443.527C409.043 442.364 410.673 441.899 412.07 441.899H415.795V440.968C415.795 437.943 414.864 436.314 413.001 436.314C410.673 436.314 409.509 437.477 409.509 439.572C409.509 440.27 409.043 440.735 408.345 440.735C407.879 440.735 407.414 440.502 406.715 440.037C406.25 439.572 406.017 439.106 406.017 438.641C406.017 437.012 406.483 435.616 407.879 434.685C409.043 433.754 410.44 433.056 412.07 433.056C417.89 432.823 420.451 436.546 420.451 443.993ZM416.261 445.622C416.261 445.156 415.795 444.691 414.864 444.691C411.139 444.691 409.509 445.622 409.509 447.251C409.509 448.181 410.207 448.647 411.837 448.647C412.768 448.647 413.7 448.414 414.631 447.716C415.562 447.251 416.261 446.553 416.261 445.622Z" fill="#00AEEF"/>
<path d="M439.54 451.207C439.074 451.905 438.609 452.137 437.91 452.137C437.445 452.137 436.513 451.905 435.582 451.207V450.741C435.582 450.043 435.582 449.112 435.582 447.949C435.582 446.785 435.582 445.855 435.582 445.156C435.582 438.873 434.651 435.848 432.788 435.848C432.323 435.848 431.624 436.314 430.926 437.012C428.831 439.572 427.9 442.597 427.9 446.087C427.9 446.553 427.9 447.251 428.132 448.182C428.365 449.112 428.365 449.81 428.365 450.276C428.365 450.741 428.132 450.974 427.9 451.207C427.434 451.439 427.201 451.672 426.735 451.672C424.873 451.672 424.175 450.508 424.175 448.414V439.339C424.175 439.106 424.175 438.873 424.175 438.408C424.175 437.943 424.175 437.71 424.175 437.477C424.175 437.245 424.175 436.546 423.942 435.848C423.942 435.15 423.709 434.685 423.709 434.452C423.709 433.987 423.942 433.521 424.407 433.056C424.873 432.591 425.339 432.358 425.804 432.358C426.503 432.358 427.201 432.823 427.667 433.521L427.434 435.383C428.598 433.754 429.762 432.823 431.392 432.823C432.323 432.823 433.487 433.056 434.651 433.987C435.815 434.685 436.513 435.383 437.212 436.314C438.376 438.641 439.074 441.433 439.074 445.156V451.207H439.54Z" fill="#00AEEF"/>
<path d="M447.922 434.685C447.922 435.15 447.922 435.848 447.689 437.012C447.457 437.943 447.457 438.641 447.457 439.339V448.414C447.457 448.88 447.689 449.81 447.922 450.974C447.457 451.672 446.991 451.905 446.525 451.905C444.663 451.905 443.732 450.974 443.499 449.112C443.266 445.622 443.033 443.062 443.033 441.433C443.033 438.641 443.033 436.081 443.499 434.219C443.499 433.987 443.499 433.987 443.499 433.754C443.499 433.289 443.964 433.056 444.663 433.056C445.361 433.056 446.06 433.289 446.758 433.521C447.457 433.521 447.922 433.987 447.922 434.685ZM448.388 428.402C448.388 429.1 448.155 429.565 447.689 430.031C447.224 430.496 446.758 430.729 446.06 430.729C445.361 430.729 444.663 430.496 443.964 430.031C443.266 429.565 443.033 428.867 443.033 428.169C443.033 427.471 443.266 427.006 443.732 426.54C444.197 426.075 444.663 425.842 445.361 425.842C446.06 425.842 446.758 426.075 447.457 426.54C448.155 427.006 448.388 427.704 448.388 428.402Z" fill="#00AEEF"/>
<path d="M463.753 447.018C463.753 448.414 463.287 449.578 461.89 450.509C460.493 451.672 458.864 452.137 456.768 452.137C455.837 452.137 454.906 451.905 453.742 451.672C450.25 450.276 448.62 449.345 448.62 448.414C448.62 447.251 449.551 446.553 451.414 446.553C451.647 446.553 451.879 446.553 452.345 446.553C452.345 447.483 453.043 448.181 454.44 448.647C455.604 449.112 456.768 449.345 457.7 449.112C458.631 449.112 458.864 448.647 458.864 448.181C458.864 448.181 458.864 447.949 458.864 447.716C458.864 447.483 458.864 447.483 458.864 447.251C458.864 447.018 458.398 447.018 457.234 446.553C456.07 446.087 455.372 445.854 455.139 445.854C451.879 443.993 450.25 441.433 450.25 438.641C450.25 437.012 450.715 435.383 451.647 433.987C452.811 432.358 453.975 431.66 455.604 431.66C456.768 431.66 458.165 432.125 459.795 433.056C461.425 433.987 462.356 434.918 462.589 436.081C462.821 436.779 462.821 437.477 462.821 437.943C462.821 438.408 462.821 438.873 462.589 439.339C462.356 439.804 462.356 440.27 462.123 440.735C461.657 441.2 460.959 441.2 460.493 441.2C460.261 441.2 459.795 440.968 459.096 440.735C458.398 440.27 458.165 440.037 458.165 439.804C458.165 439.804 458.398 439.339 458.631 438.641C458.864 438.175 458.864 437.943 458.864 437.71C458.864 435.848 458.165 435.15 456.768 435.15C455.837 435.15 455.372 435.616 454.906 436.779C454.673 437.71 454.44 438.408 454.44 439.339C454.44 440.502 455.372 441.666 457.001 442.597C458.398 443.295 460.028 443.993 461.657 444.691C462.821 445.389 463.753 446.32 463.753 447.018Z" fill="#00AEEF"/>
<path d="M480.05 452.137C479.584 452.603 478.653 453.068 477.954 453.068C477.256 453.068 476.79 452.603 476.092 451.905C476.092 449.345 476.092 447.251 476.092 445.855C476.092 439.339 475.161 436.081 473.298 436.081C471.436 436.081 470.505 438.641 470.505 443.993C470.505 444.226 470.505 444.691 470.505 445.156C470.505 445.622 470.505 446.087 470.505 446.32C470.505 446.785 470.505 447.483 470.737 448.414C470.97 449.345 470.97 450.043 470.97 450.509C470.97 450.974 470.737 451.207 470.272 451.439C469.806 451.672 469.341 451.905 469.108 451.905C468.409 451.905 467.711 451.672 467.245 450.974C466.78 450.276 466.547 449.81 466.547 448.88L466.78 423.515C466.78 423.515 466.78 423.283 466.78 423.05C466.78 422.817 466.78 422.817 466.78 422.817C466.78 421.654 467.245 421.188 468.642 421.188C469.108 421.188 469.806 421.421 470.505 421.886C471.203 422.352 471.669 422.817 471.669 423.515C471.669 424.213 471.436 425.144 471.203 426.308C470.97 427.471 470.737 428.402 470.737 429.1C470.737 430.031 470.737 431.194 470.737 433.056C471.436 432.591 471.901 432.591 472.367 432.591C473.531 432.591 474.695 432.823 476.092 433.521C477.722 434.219 478.886 435.383 479.584 437.012C480.05 438.175 480.283 439.804 480.283 442.131V452.137H480.05Z" fill="#00AEEF"/>
<path d="M503.563 433.289C503.563 433.987 503.563 434.452 503.33 434.918C502.166 441.666 498.907 444.924 493.785 444.924C490.991 444.924 488.663 444.226 486.568 442.829V443.76C486.568 445.622 486.801 447.018 487.034 447.716C487.499 448.647 487.965 449.345 487.965 449.578C487.965 450.043 487.732 450.741 487.266 451.207C486.801 451.672 486.335 451.905 485.637 451.905C484.24 451.905 483.542 451.439 483.076 450.508C482.843 450.043 482.61 448.88 482.61 447.483C482.61 446.553 482.61 445.389 482.61 443.993C482.61 443.527 482.61 442.829 482.843 441.666C483.076 440.735 483.076 439.804 483.076 439.339V436.314C483.076 435.383 483.076 434.219 483.309 432.358C483.542 430.729 483.542 429.333 483.542 428.635V424.679C483.542 424.679 483.309 423.748 483.076 422.352C483.774 421.654 484.473 421.421 485.171 421.421C485.87 421.421 486.568 421.654 487.034 422.352C487.499 422.817 487.732 423.515 487.732 424.446C487.732 424.679 487.732 424.911 487.732 425.144C489.595 422.584 492.155 421.421 494.949 421.421C497.743 421.421 499.838 422.352 501.468 424.446C502.865 426.308 503.563 428.635 503.563 431.427C503.563 431.66 503.563 431.892 503.563 432.358C503.563 432.823 503.563 433.056 503.563 433.289ZM499.605 432.591C499.605 430.496 499.372 428.867 498.674 427.471C497.743 425.61 496.579 424.679 494.716 424.679C492.388 424.679 490.526 426.075 488.896 428.867C487.499 431.194 486.801 433.754 486.801 436.081C486.801 440.037 488.896 442.131 492.854 442.131C494.949 442.131 496.579 441.2 497.743 439.339C498.208 438.175 498.907 436.314 499.372 433.521C499.605 432.823 499.605 432.591 499.605 432.591Z" fill="#00AEEF"/>
<path d="M511.478 450.276C511.478 450.741 511.245 451.207 510.779 451.672C510.314 452.137 509.848 452.137 509.382 452.137C507.52 452.137 506.589 449.81 506.589 444.924C506.589 442.829 506.589 439.572 506.589 435.15C506.589 430.729 506.589 427.471 506.589 425.377C506.589 425.144 506.589 424.446 506.356 423.748C506.356 423.05 506.123 422.584 506.123 422.352C507.054 421.654 507.753 421.421 508.451 421.421C509.15 421.421 509.615 421.654 510.314 422.119C511.012 422.584 511.245 423.05 511.245 423.748C511.245 423.981 511.245 424.446 511.012 424.911C510.779 425.61 510.779 426.075 510.546 426.075C510.081 427.937 510.081 430.496 510.081 433.754C510.081 439.106 510.081 441.666 510.081 441.899C510.081 445.622 510.546 448.181 511.012 449.578C511.478 449.578 511.478 450.043 511.478 450.276Z" fill="#00AEEF"/>
<path d="M529.172 443.993C529.172 447.716 529.172 450.508 528.706 451.905C528.473 452.836 528.008 453.301 526.844 453.301C525.214 453.301 524.516 452.37 524.748 450.974C523.352 451.672 521.722 451.905 520.092 451.905C518.695 451.905 517.066 451.439 515.669 450.741C514.039 449.81 513.341 448.647 513.341 447.251C513.341 445.854 514.272 444.691 516.135 443.527C517.764 442.364 519.394 441.899 520.791 441.899H524.516V440.968C524.516 437.943 523.584 436.314 521.722 436.314C519.394 436.314 518.23 437.477 518.23 439.572C518.23 440.27 517.764 440.735 517.066 440.735C516.6 440.735 516.134 440.502 515.436 440.037C514.97 439.572 514.738 439.106 514.738 438.641C514.738 437.012 515.203 435.616 516.6 434.685C517.764 433.754 519.161 433.056 520.791 433.056C526.378 432.823 529.172 436.546 529.172 443.993ZM524.748 445.622C524.748 445.156 524.283 444.691 523.352 444.691C519.627 444.691 517.997 445.622 517.997 447.251C517.997 448.181 518.695 448.647 520.325 448.647C521.256 448.647 522.188 448.414 523.119 447.716C524.283 447.251 524.748 446.553 524.748 445.622Z" fill="#00AEEF"/>
<path d="M547.331 434.685C547.098 436.081 546.865 437.477 546.633 439.106C546.4 440.735 546.167 442.131 546.167 443.527V455.395C546.167 457.489 545.468 459.118 544.304 460.282C543.14 461.445 541.278 461.911 539.183 461.911C537.786 461.911 536.156 461.445 534.527 460.747C532.431 459.817 531.5 458.886 531.5 457.722C531.5 457.257 531.733 457.024 531.966 456.791C532.198 456.559 532.664 456.326 533.13 456.326C533.362 456.326 534.061 456.791 534.992 457.49C535.923 458.188 537.087 458.653 538.484 458.653C540.114 458.653 541.278 457.955 541.744 456.791C542.209 455.861 542.442 454.697 542.442 452.835C542.442 452.137 542.442 451.672 542.442 451.207C541.511 451.905 540.347 452.137 539.183 452.137C537.087 452.137 535.225 451.439 534.061 449.81C532.897 448.414 532.431 446.553 532.431 444.458C532.431 444.226 532.664 440.502 532.897 433.521C533.828 433.056 534.527 433.056 534.992 433.056C535.458 433.056 536.389 433.289 537.553 434.219C536.855 436.081 536.622 439.339 536.622 444.691C536.622 447.949 537.553 449.81 539.183 449.81C540.347 449.81 541.511 448.647 541.976 446.553C542.442 445.156 542.675 443.527 542.675 441.899V436.546C542.675 436.546 542.675 436.081 542.442 435.15C543.606 434.685 544.537 434.219 545.003 434.219C545.934 433.754 546.633 433.987 547.331 434.685Z" fill="#00AEEF"/>
<path d="M621.364 213.619V219.902L627.417 213.852H631.607L625.554 219.669L631.84 228.745H627.65L623.226 221.996L621.364 223.858V228.745H618.104L618.337 213.852L621.364 213.619Z" fill="#00A651"/>
<path d="M643.945 228.977L641.617 218.739L639.057 228.977H635.797L632.072 213.852H635.332L637.427 224.091L640.221 214.085H643.247L645.575 224.323L648.136 214.085H651.395L647.205 228.977H643.945Z" fill="#00A651"/>
<path d="M651.861 216.877V214.085L664.2 214.317V217.11H659.777L659.544 229.21H656.285L656.517 217.11L651.861 216.877Z" fill="#00A651"/>
</svg>
