<svg width="214" height="237" viewBox="0 0 214 237" fill="none" xmlns="http://www.w3.org/2000/svg">
<path d="M25.3498 57.6791C34.9102 57.4063 43.0753 51.6789 50.6719 46.0606C49.8968 44.9697 49.1216 43.9333 48.3464 42.8424C35.3753 56.8063 23.6444 72.0249 13.2571 88.2798C10.3115 92.9163 7.46918 97.6073 4.73025 102.407C3.54166 104.535 6.12557 106.28 7.77926 104.862C22.6108 92.3708 36.0471 78.1887 49.38 64.0065C62.6612 49.9334 75.9424 35.7513 90.5156 23.151C98.629 16.1145 107.208 9.67797 116.251 4.05965C115.476 2.96872 114.701 1.93232 113.926 0.841381C97.8539 20.5873 81.782 40.3332 66.2787 60.5155C50.7753 80.7524 35.8404 101.426 22.094 123.026C14.394 135.135 7.05577 147.572 0.234284 160.227C-0.799274 162.191 1.8363 164.591 3.28328 162.682C15.841 146.099 28.4504 129.517 41.4733 113.317C54.4444 97.1164 67.8807 81.2978 82.0404 66.2975C89.9988 57.8427 98.2156 49.7153 106.742 41.8605C105.812 40.8787 104.934 39.9514 104.004 38.9696C92.4794 54.4063 80.9552 69.843 69.8961 85.6616C58.9404 101.371 48.3981 117.408 38.786 134.099C33.4115 143.481 28.2954 153.081 23.6444 162.9C22.7142 164.863 25.143 167.154 26.6934 165.354C39.3545 150.899 50.4652 134.972 61.2659 118.935C72.0149 102.953 82.6089 86.807 94.4948 71.7521C101.11 63.3519 108.189 55.279 115.786 47.8061C114.753 46.9879 113.771 46.1697 112.737 45.3515C98.9391 65.2065 85.2961 85.2252 72.2216 105.626C59.2505 125.972 46.8478 146.754 35.5303 168.191C29.1739 180.246 23.1793 192.519 17.5981 204.955C16.5128 207.355 19.5102 209.21 20.9571 207.028C36.0471 183.682 51.0854 160.336 66.382 137.154C81.6787 113.971 97.1304 90.898 112.996 68.1521C116.923 62.4792 120.747 56.6427 125.14 51.3517C128.964 46.7152 133.408 42.5151 138.99 40.4423C138.266 39.4605 137.543 38.4241 136.819 37.4422C123.383 56.2063 109.998 74.9704 97.1304 94.1708C84.2626 113.317 71.9632 132.899 60.8525 153.19C54.5995 164.645 48.7082 176.318 43.282 188.209C42.8686 189.137 42.9719 190.228 43.7988 190.828C44.5223 191.373 45.7108 191.428 46.331 190.664C54.7028 180.518 62.3511 169.773 69.5861 158.754C76.821 147.681 83.6941 136.335 90.5156 124.99C97.3371 113.644 104.107 102.298 111.187 91.1708C118.215 80.2069 125.553 69.4612 133.563 59.3155C141.573 49.1698 150.307 39.6241 159.867 31.0603C161.056 30.0239 162.245 28.933 163.485 27.9511C162.451 27.1329 161.469 26.3147 160.436 25.4965C152.839 39.3514 145.243 53.2608 137.594 67.1157C130.411 80.2069 123.228 93.3526 116.148 106.553C109.068 119.753 102.143 133.008 95.4767 146.427C88.8102 159.791 82.3505 173.318 76.3042 187.064C70.2579 200.81 64.5216 214.719 59.3538 228.847C58.682 230.592 58.0619 232.392 57.4417 234.138C56.6666 236.32 59.974 237.792 61.0075 235.72C70.9814 214.992 81.2136 194.373 91.7042 173.973C102.143 153.681 112.892 133.554 123.9 113.589C130.101 102.298 136.457 91.1162 142.814 79.9341C141.677 79.225 140.592 78.5705 139.455 77.8614C131.755 91.4435 124.21 105.135 116.871 118.881C113.151 125.808 109.481 132.735 105.864 139.717C102.35 146.481 98.7841 153.19 95.4767 160.009C91.9626 167.318 88.9653 175.064 88.8619 183.409C88.8102 185.482 91.4975 186.137 92.4794 184.446C101.006 169.882 109.481 155.263 117.802 140.536C126.122 125.917 134.339 111.244 142.452 96.4618C147.051 88.1162 151.651 79.716 156.147 71.3158C155.01 70.6067 153.924 69.9521 152.788 69.243C145.759 83.9706 138.783 98.6982 131.755 113.426C124.726 128.153 117.75 142.881 110.722 157.609C106.794 165.9 102.815 174.191 98.8874 182.482C100.024 183.191 101.11 183.846 102.247 184.555C109.947 168.354 117.75 152.209 125.708 136.172C133.667 120.081 141.677 104.098 149.894 88.1707C154.493 79.1705 159.144 70.2248 163.795 61.3337C162.658 60.6246 161.573 59.97 160.436 59.2609C151.082 77.425 142.09 95.7527 133.408 114.244C124.726 132.735 116.406 151.445 108.448 170.264C103.952 180.9 99.5592 191.591 95.27 202.337C94.4431 204.464 97.8539 205.992 98.8358 203.919C107.673 185.264 116.82 166.827 126.277 148.554C135.682 130.39 145.398 112.444 155.475 94.6618C161.159 84.5706 166.999 74.534 172.89 64.552C171.753 63.8429 170.668 63.1883 169.531 62.4792C161.676 81.1887 153.873 99.8982 146.173 118.662C138.473 137.481 130.979 156.354 123.796 175.336C119.765 186.028 115.838 196.773 112.014 207.519C111.238 209.646 114.649 211.228 115.579 209.101C123.228 191.1 130.824 173.155 138.783 155.318C146.69 137.481 154.958 119.808 163.743 102.462C168.704 92.6981 173.82 83.0979 179.195 73.6067C178.006 73.0613 176.818 72.5703 175.629 72.0249C169.583 88.9889 163.537 105.953 157.49 122.862C151.444 139.772 145.398 156.791 139.351 173.7C135.941 183.246 132.53 192.846 129.119 202.392C128.344 204.573 131.651 206.046 132.685 203.973C139.506 189.846 146.121 175.609 152.529 161.263C158.989 146.863 165.242 132.354 171.288 117.79C174.699 109.553 178.006 101.316 181.314 93.0254C182.141 90.898 178.626 89.3162 177.748 91.4435C170.823 108.462 163.898 125.481 157.232 142.608C150.669 159.572 144.416 176.7 138.731 193.991C135.527 203.864 132.478 213.792 129.739 223.774C129.429 224.81 130.101 226.01 131.083 226.283C132.168 226.61 133.047 225.901 133.46 224.865C140.437 206.81 147.413 188.755 154.338 170.7C161.314 152.645 168.291 134.59 175.216 116.535C179.143 106.335 183.071 96.1891 186.998 85.9888C185.758 85.607 184.518 85.2797 183.277 84.8979C176.869 103.335 170.461 121.771 164.312 140.317C158.214 158.754 152.322 177.3 147 196.064C144.002 206.646 141.16 217.283 138.524 227.974C137.904 230.538 141.418 231.52 142.245 229.065C151.599 202.064 160.953 175.064 170.358 148.063C173.045 140.372 175.681 132.681 178.368 124.99C178.73 123.953 177.955 122.753 177.024 122.481C175.939 122.153 175.009 122.862 174.647 123.899C168.084 142.227 162.038 160.718 156.508 179.427C154.958 184.773 153.408 190.119 151.961 195.464C151.341 197.646 154.545 199.173 155.526 197.046C166.947 170.918 178.316 144.79 189.737 118.662C192.941 111.353 196.094 104.044 199.298 96.7345C198.109 96.1891 196.92 95.6982 195.732 95.1527C190.926 112.553 186.378 130.008 182.244 147.627C181.055 152.645 179.867 157.663 178.73 162.736C178.213 165.027 181.055 166.282 182.296 164.318C187.515 155.7 192.735 147.081 197.954 138.463C196.765 137.917 195.577 137.426 194.388 136.881C190.357 149.59 186.378 162.3 182.347 175.009C181.624 177.246 184.776 178.555 185.913 176.591C189.892 169.664 193.871 162.682 197.799 155.754C196.61 155.427 195.37 155.045 194.182 154.718C193.51 160.391 192.838 166.118 192.166 171.791C191.959 173.591 194.388 174.464 195.473 173.264C198.006 170.373 200.538 167.482 203.122 164.645C202.037 164.154 200.9 163.663 199.814 163.172C200.021 165.136 200.176 167.1 200.383 169.064C200.538 170.482 201.52 171.245 202.812 171.027C205.602 170.591 206.843 167.809 207.876 165.409C208.186 164.7 208.703 163.172 209.53 162.9C209.737 162.845 209.53 162.954 209.84 163.009C210.46 163.118 209.84 163.227 209.943 163.118C209.995 163.063 209.995 162.627 210.098 162.463C208.341 164.372 211.08 167.263 212.837 165.354C214.233 163.882 214.026 161.754 212.734 160.281C211.442 158.809 209.478 158.372 207.773 159.245C206.171 160.063 205.189 161.754 204.517 163.445C203.949 164.809 203.432 166.827 201.83 167.045C202.657 167.7 203.484 168.354 204.259 169.009C204.052 167.045 203.897 165.082 203.69 163.118C203.535 161.482 201.623 160.281 200.383 161.645C197.851 164.536 195.318 167.427 192.735 170.264C193.82 170.754 194.957 171.245 196.042 171.736C196.714 166.063 197.386 160.336 198.057 154.663C198.316 152.536 195.37 152.045 194.44 153.627C190.461 160.554 186.482 167.536 182.554 174.464C183.743 175.009 184.931 175.5 186.12 176.046C190.151 163.336 194.13 150.627 198.161 137.917C198.884 135.626 195.784 134.426 194.595 136.335C189.376 144.954 184.156 153.572 178.937 162.191C180.125 162.736 181.314 163.227 182.502 163.772C186.482 146.154 190.822 128.59 195.422 111.135C196.765 106.171 198.109 101.153 199.504 96.1891C200.125 94.0072 196.92 92.4799 195.939 94.6072C184.518 120.735 173.149 146.863 161.728 172.991C158.524 180.3 155.371 187.609 152.167 194.919C153.356 195.464 154.545 195.955 155.733 196.501C160.901 177.682 166.637 159.027 172.89 140.59C174.699 135.354 176.508 130.117 178.368 124.881C177.128 124.499 175.888 124.172 174.647 123.79C165.294 150.79 155.94 177.791 146.535 204.792C143.847 212.483 141.212 220.174 138.524 227.865C139.765 228.247 141.005 228.574 142.245 228.956C146.896 209.974 152.219 191.155 157.955 172.5C163.692 153.9 169.841 135.463 176.146 117.08C179.712 106.662 183.329 96.2982 186.947 85.9343C187.308 84.8979 186.533 83.6979 185.603 83.4251C184.518 83.0979 183.639 83.807 183.226 84.8433C176.249 102.898 169.273 120.953 162.348 139.008C155.423 157.063 148.395 175.118 141.47 193.173C137.543 203.373 133.615 213.519 129.687 223.719C130.928 224.101 132.168 224.428 133.408 224.81C138.266 207.246 143.899 189.9 150.049 172.718C156.147 155.59 162.761 138.626 169.531 121.771C173.355 112.28 177.18 102.844 181.055 93.4072C179.867 92.8617 178.678 92.3708 177.49 91.8253C171.753 106.335 165.81 120.79 159.609 135.135C153.459 149.481 147.051 163.772 140.488 177.955C136.819 185.918 133.047 193.828 129.222 201.737C130.411 202.282 131.6 202.773 132.788 203.319C138.834 186.355 144.881 169.391 150.927 152.481C156.973 135.517 163.02 118.553 169.066 101.644C172.477 92.0981 175.888 82.4978 179.298 72.9522C180.073 70.7158 176.869 69.4612 175.733 71.3703C166.172 88.2798 157.335 105.626 149.015 123.19C140.643 140.808 132.788 158.645 125.036 176.591C120.696 186.682 116.406 196.773 112.117 206.864C113.306 207.41 114.494 207.901 115.683 208.446C122.401 189.409 129.532 170.591 136.871 151.827C144.261 133.063 151.909 114.353 159.661 95.7527C164.002 85.2797 168.394 74.8067 172.787 64.3883C173.769 62.0428 170.771 60.0246 169.428 62.3156C158.989 79.9887 148.808 97.88 138.99 115.935C129.222 133.881 119.765 151.99 110.67 170.318C105.502 180.737 100.386 191.209 95.425 201.682C96.6136 202.228 97.8022 202.719 98.9908 203.264C106.536 184.337 114.494 165.573 122.711 146.972C130.928 128.426 139.506 109.989 148.395 91.7708C153.408 81.516 158.524 71.3158 163.743 61.1155C164.932 58.8246 161.624 56.7518 160.384 59.0428C152.064 74.9158 143.899 90.8435 135.837 106.826C127.775 122.808 119.817 138.899 111.962 154.99C107.569 164.045 103.177 173.155 98.8358 182.264C97.6988 184.609 101.058 186.682 102.195 184.337C109.223 169.609 116.2 154.881 123.228 140.154C130.256 125.426 137.232 110.699 144.261 95.9709C148.188 87.6798 152.167 79.3887 156.095 71.0976C157.232 68.7521 153.976 66.7338 152.736 69.0248C144.674 83.9161 136.561 98.6982 128.292 113.48C120.075 128.153 111.807 142.827 103.383 157.391C98.6291 165.627 93.823 173.918 89.017 182.1C90.2055 182.427 91.4458 182.809 92.6344 183.137C92.7378 176.046 95.1666 169.391 98.1123 163.118C101.316 156.354 104.83 149.699 108.293 143.099C115.424 129.408 122.659 115.88 130.049 102.353C134.235 94.7709 138.421 87.1889 142.71 79.6614C144.002 77.3704 140.643 75.3522 139.351 77.5886C127.93 97.4982 116.82 117.517 105.967 137.754C95.2183 157.881 84.7277 178.118 74.4955 198.573C68.7075 210.137 63.0746 221.701 57.4934 233.32C58.682 233.865 59.8706 234.356 61.0592 234.901C66.072 220.828 71.6015 206.973 77.5445 193.337C83.4874 179.646 89.8438 166.173 96.4069 152.809C103.022 139.39 109.947 126.081 116.975 112.88C123.951 99.7346 131.083 86.6434 138.266 73.6067C145.759 59.9155 153.304 46.1697 160.798 32.4785C161.728 30.733 162.71 28.9875 163.64 27.242C164.828 25.1147 162.245 23.3692 160.591 24.7874C150.824 33.0785 141.883 42.4605 133.667 52.4426C125.398 62.5337 117.853 73.2249 110.722 84.1888C103.538 95.2072 96.717 106.553 89.8955 117.899C83.074 129.244 76.3042 140.645 69.1209 151.772C62.0411 162.791 54.5995 173.591 46.486 183.791C45.5041 185.046 44.4706 186.3 43.437 187.555C44.4706 188.373 45.4525 189.191 46.486 190.009C56.0981 168.845 67.2089 148.554 79.2498 128.808C91.2908 109.062 104.262 89.9162 117.491 71.043C124.933 60.4064 132.53 49.8244 140.075 39.2423C141.108 37.8241 139.403 35.6968 137.904 36.2422C127 40.2241 120.23 50.6426 113.719 59.9701C105.657 71.4249 97.6988 82.9888 89.8438 94.6072C74.082 117.844 58.682 141.299 43.3853 164.863C34.7551 178.118 26.1766 191.428 17.5981 204.737C18.735 205.446 19.8202 206.101 20.9571 206.81C30.8793 184.555 42.1968 163.063 54.3927 142.117C66.5887 121.171 79.6116 100.826 93.0478 80.8069C100.593 69.5157 108.293 58.3336 116.045 47.2061C117.388 45.2424 114.546 43.2242 112.996 44.7515C99.3525 58.1154 87.57 73.3885 76.5626 89.2071C65.5035 105.026 55.0646 121.39 43.7988 137.045C37.5457 145.772 30.9826 154.281 23.9028 162.3C24.9363 163.118 25.9182 163.936 26.9518 164.754C35.2202 147.408 44.729 130.772 55.0129 114.626C65.2968 98.48 76.3042 82.8251 87.57 67.4429C93.8747 58.8246 100.283 50.2062 106.691 41.6423C108.189 39.6241 105.864 37.0059 103.952 38.7514C88.8102 52.7153 74.5988 67.7157 61.0592 83.3706C47.4679 99.0255 34.4967 115.28 21.784 131.754C14.6524 141.026 7.57255 150.299 0.492674 159.627C1.52623 160.445 2.50811 161.263 3.54167 162.082C15.6343 139.554 29.329 118.062 43.9021 97.28C58.4753 76.4977 73.927 56.4791 89.7404 36.7331C98.629 25.6056 107.621 14.5326 116.613 3.51418C118.008 1.82324 116.251 -0.904114 114.287 0.295914C97.9055 10.4416 83.229 23.3692 69.431 37.115C55.633 50.8607 42.6102 65.4793 28.9155 79.3341C21.2155 87.1343 13.3088 94.7163 4.93698 101.753C5.97054 102.571 6.95241 103.389 7.98597 104.207C17.443 87.6252 28.2954 71.9158 40.4397 57.4063C43.8504 53.3153 47.3645 49.3334 50.982 45.4606C52.4807 43.8788 50.4652 40.8787 48.6565 42.2424C41.68 47.4243 34.0833 53.0426 25.2981 53.3153C22.8692 53.6972 22.8692 57.7882 25.3498 57.6791Z" fill="#FCD525"/>
</svg>
