<svg width="1301" height="242" viewBox="0 0 1301 242" fill="none" xmlns="http://www.w3.org/2000/svg">
<g clip-path="url(#clip0_325_772)">
<path d="M550.161 18.0835C550.161 23.2249 550.161 28.189 550.161 33.3304C550.161 45.918 550.161 58.6828 550.161 71.2703C550.161 87.7583 550.161 104.246 550.161 120.734C550.161 137.045 550.161 153.533 550.161 169.843C550.161 182.254 550.161 194.841 550.161 207.251C550.161 212.57 549.628 218.243 550.339 223.562C551.583 235.795 563.668 244.305 575.576 241.291C578.42 240.582 580.73 239.163 583.218 237.568C590.15 233.313 597.081 229.058 604.012 224.803C615.92 217.534 627.828 210.265 639.736 202.996C653.954 194.309 668.35 185.622 682.568 176.758C696.43 168.248 710.471 159.738 724.334 151.228C735.175 144.491 746.016 137.931 757.035 131.194C762.189 128.003 767.344 124.989 772.498 121.798C779.429 117.543 782.983 109.565 781.029 101.587C779.607 95.9136 775.519 91.4813 770.187 89.1766C763.611 86.1627 757.035 83.326 750.637 80.3121C738.196 74.6388 725.755 68.9656 713.137 63.4696C697.852 56.5553 682.745 49.641 667.461 42.904C652.532 36.167 637.781 29.43 622.852 22.693C611.655 17.7289 600.636 12.7648 589.439 7.62344C584.818 5.49597 580.375 3.3685 575.754 1.41831C563.668 -3.72308 550.517 5.14139 550.161 18.0835C549.983 23.7568 558.87 23.7568 559.048 18.0835C559.225 11.1692 565.979 7.09158 572.022 9.57363C573.799 10.2828 575.576 11.1692 577.176 11.8784C586.062 15.7788 594.771 19.8564 603.657 23.7568C617.164 29.7846 630.671 35.9897 644.179 42.0176C659.286 48.7546 674.392 55.6689 689.499 62.4059C703.362 68.611 717.225 74.8161 731.087 81.1985C740.507 85.4535 749.926 89.7084 759.346 93.9634C761.479 95.0271 763.611 95.9136 765.922 96.9773C770.543 99.1048 772.853 102.296 772.675 106.906C772.498 109.565 770.898 112.401 768.232 113.997C767.877 114.174 767.521 114.529 767.166 114.706C765.033 115.947 762.9 117.366 760.768 118.607C751.881 124.103 742.995 129.421 734.109 134.917C721.312 142.718 708.694 150.519 695.897 158.319C681.679 167.007 667.461 175.694 653.243 184.381C640.269 192.359 627.295 200.337 614.143 208.315C604.723 213.988 595.304 219.839 586.062 225.512C583.574 227.108 581.086 228.526 578.597 230.122C576.465 231.363 574.332 232.781 572.022 233.136C565.268 234.022 559.225 228.703 559.048 221.612C559.048 219.839 559.048 217.889 559.048 216.116C559.048 206.365 559.048 196.614 559.048 186.863C559.048 171.793 559.048 156.901 559.048 141.832C559.048 125.344 559.048 108.856 559.048 92.1905C559.048 77.6528 559.048 63.115 559.048 48.5773C559.048 39.7128 559.048 30.8484 559.048 21.9839C559.048 20.7429 559.048 19.5018 559.048 18.2608C559.048 12.4103 550.161 12.4103 550.161 18.0835Z" fill="#43A6D3"/>
<path d="M552.827 23.9342C556.915 23.9342 561.002 24.466 565.09 23.7569C566.867 23.4023 568.467 22.6931 570.066 21.984C570.244 21.8067 570.6 21.8067 570.777 21.6294C570.6 21.6294 570.6 21.4521 570.6 21.4521C570.422 21.0975 570.422 21.2748 570.777 21.6294C570.6 21.2748 570.6 21.4521 570.777 21.8067C570.777 21.4521 570.777 21.4521 570.777 21.984C570.777 23.225 570.955 21.6294 570.6 22.6931C570.422 23.225 569.889 24.1115 569 24.9979C566.69 27.6573 564.379 30.3166 564.379 34.0397C564.379 37.5855 568.111 39.3584 571.133 37.94C574.687 35.9899 578.242 34.3943 581.619 33.1532C583.929 32.2668 586.24 31.3803 588.728 30.8485C589.083 30.8485 590.505 30.4939 589.972 30.6712C589.439 30.6712 590.683 30.6712 590.861 30.6712C591.394 30.4939 589.972 30.4939 590.861 30.6712C590.15 30.4939 589.439 29.7847 588.906 28.721C588.906 28.0118 588.906 27.1254 588.906 26.4162C588.55 27.3027 587.128 28.1891 586.417 28.8983C585.173 29.962 583.929 31.203 582.507 32.2668C579.664 34.3943 576.642 36.1671 573.799 38.1173C570.955 40.0675 568.467 42.195 566.156 44.677C564.024 46.9818 562.069 49.1093 561.891 52.4778C561.713 54.7825 564.024 56.7327 566.334 56.7327C570.244 56.7327 573.266 55.4917 576.642 53.5415C580.019 51.5913 583.396 49.9957 586.951 48.5774C589.439 47.5137 591.749 46.2726 594.237 44.8543C595.304 44.3225 596.37 43.7906 597.436 43.2587C598.147 43.0814 598.858 42.9041 599.569 42.7269C599.214 42.7269 599.214 42.7269 599.747 42.7269C599.214 42.7269 599.391 42.7269 599.747 42.7269C598.681 41.6631 597.614 40.5994 596.726 39.7129C597.081 40.5994 596.726 39.5356 596.726 39.5356C596.726 39.5356 596.548 39.7129 596.726 39.5356C596.37 40.0675 596.015 40.5994 595.837 40.954C594.948 42.195 593.704 43.0814 592.816 44.3225C589.616 47.691 586.773 51.414 583.218 54.2507C579.664 57.2646 576.109 60.1012 572.732 63.4697C569.711 66.4836 566.512 69.6748 565.268 73.9298C564.201 77.4756 568.467 81.1986 571.844 78.8939C582.507 71.625 593.704 64.7107 605.434 58.5056C611.299 55.3144 617.342 52.1232 623.207 48.932C626.05 47.3364 628.894 45.9181 631.738 44.4997C633.337 43.6133 634.759 42.9041 636.181 42.0177C637.07 41.4858 637.958 40.7767 639.025 40.5994C637.958 38.1173 636.892 35.6353 635.825 32.9759C632.982 35.6353 629.783 37.7627 626.584 40.0675C623.207 42.5496 619.83 45.0316 616.631 47.691C609.877 52.8323 602.946 57.7964 596.192 62.9378C582.33 73.2206 569.356 84.9217 556.382 96.2682C552.827 99.2822 556.737 104.601 560.647 103.714C562.78 103.183 564.201 102.119 565.979 100.878C567.401 99.9913 568.822 99.1049 570.422 98.3957C573.621 96.6228 576.998 95.3818 580.375 93.9635C588.195 90.7723 595.837 87.4038 603.301 83.6807C610.588 79.9576 617.875 76.0573 625.162 72.6888C632.093 69.4975 638.669 65.0653 645.956 62.406C644.179 60.6331 642.224 58.6829 640.446 56.91C640.802 56.0236 640.802 56.3781 640.446 56.7327C641.157 56.2008 640.446 56.7327 640.091 57.0873C639.38 57.7964 638.669 58.3283 637.958 59.0375C636.536 60.2785 635.292 61.1649 633.693 62.2287C629.605 65.0653 625.695 68.4338 621.963 71.8023C610.766 81.3759 599.747 91.6587 589.083 102.296C586.951 104.424 584.64 106.551 582.33 108.679C580.019 110.806 577.886 113.288 577.886 116.657C577.886 120.202 581.619 121.798 584.64 120.557C591.394 117.366 597.436 112.756 603.657 108.679C610.233 104.246 616.809 99.814 623.385 95.2045C629.96 90.7723 636.359 86.1628 642.935 81.9078C649.155 78.0074 655.731 74.4617 662.129 70.7386C669.416 66.6609 676.525 62.406 683.279 57.4419C681.501 55.1371 679.724 52.8323 677.947 50.5276C653.598 70.2067 628.183 88.2902 604.545 108.679C597.614 114.529 590.861 120.557 584.107 126.585C586.24 128.712 588.372 130.84 590.327 132.79C593.882 129.244 589.261 123.039 584.996 125.876C582.507 127.471 580.197 129.776 577.886 131.903C575.398 134.208 571.133 137.754 571.311 141.477C571.488 145.023 574.865 146.796 578.064 145.377C607.389 131.903 635.47 116.125 663.906 101.055C667.994 98.9276 672.437 96.9774 676.347 94.4954C679.546 92.3679 682.568 90.4177 686.3 89.354C684.878 86.8719 683.456 84.3899 682.034 81.9078C657.33 101.41 630.671 118.075 605.256 136.513C597.97 141.832 590.505 147.328 583.041 152.469C578.42 155.66 582.507 162.929 587.484 160.092C604.901 150.342 622.14 140.236 639.202 129.953C655.553 120.202 672.082 110.274 688.077 99.9913C697.141 94.1408 705.85 87.9356 714.025 81.0214C717.402 78.1847 713.848 72.1569 709.76 73.5752C705.139 75.1708 700.518 77.121 696.43 79.7803C694.475 81.0214 692.52 82.2624 690.743 83.6807C688.433 85.4536 685.767 86.6946 683.279 88.1129C674.037 93.6089 664.617 99.1049 655.198 104.601C636.181 115.77 617.164 127.117 598.325 138.64C587.839 145.2 577.176 151.76 566.69 158.142C562.246 160.802 565.268 167.184 570.066 166.298C572.199 165.943 574.51 164.17 576.465 163.106C578.953 161.688 581.441 160.447 583.751 159.029C592.816 153.887 602.235 148.923 611.477 143.959C633.337 132.081 655.553 120.734 677.414 109.033C681.146 107.083 684.7 105.133 688.433 103.005C690.032 102.119 691.454 101.232 693.053 100.523C693.409 100.346 693.764 100.169 694.12 99.9913C693.231 100.346 694.475 99.814 694.653 99.814C694.831 99.814 695.186 99.814 695.364 99.6367C695.008 99.814 694.12 99.814 693.409 99.2822C693.053 96.9774 692.876 94.6726 692.52 92.3679C681.857 102.296 669.416 110.097 657.508 118.607C644.89 127.648 631.915 136.336 620.185 146.618C617.52 148.923 619.119 153.001 622.14 154.065C628.894 156.192 635.47 153.887 640.624 149.278C643.468 146.618 647.2 145.2 650.577 143.25C653.954 141.3 657.33 139.527 660.885 137.577C675.103 129.599 688.966 121.443 703.006 113.288C711.004 108.856 719.002 104.246 726.822 99.814C725.4 97.332 723.8 94.6726 722.378 92.1906C705.317 102.828 688.61 113.997 671.904 125.521C655.198 137.045 638.491 148.569 621.785 160.092C617.164 163.284 612.543 166.652 607.922 169.843C603.657 172.68 599.391 175.517 596.192 179.417C593.171 182.963 596.192 187.572 600.458 186.863C607.922 185.799 614.498 181.367 620.896 177.821C628.005 173.921 634.937 169.666 641.868 165.411C655.731 156.901 669.771 148.569 683.812 140.236C691.809 135.626 699.807 131.017 708.16 126.939C706.738 124.457 705.139 121.798 703.717 119.316C687.366 129.421 671.193 139.704 654.842 149.987C646.844 154.951 638.669 159.915 630.494 164.702C622.674 169.311 614.498 173.566 606.856 178.531C602.59 181.19 598.503 184.204 594.415 187.218C590.861 190.054 586.773 192.359 583.929 196.082C582.507 197.855 582.152 199.983 583.574 201.933C584.996 203.706 587.306 204.06 589.261 202.996C600.102 197.146 609.877 189.7 619.475 181.899C629.25 173.921 638.847 165.766 648.444 157.61C658.574 148.923 668.527 140.236 678.658 131.549C688.255 123.216 697.674 114.884 707.272 106.728C712.07 102.828 717.224 99.2822 722.201 95.5591C723.978 94.1408 725.933 92.7225 727.888 91.6587C728.243 91.4814 728.599 91.1269 729.132 90.9496C729.31 90.7723 730.554 90.2404 730.198 90.4177C730.554 90.2404 731.087 90.2404 731.62 90.0631C731.087 90.0631 731.087 90.0631 731.62 90.0631C731.265 90.0631 731.087 90.0631 730.909 89.8858C730.376 87.9356 729.843 85.8082 729.31 83.858C723.267 92.8997 714.381 99.814 706.028 106.551C696.608 113.997 687.189 121.621 677.591 129.067C668.349 136.336 658.93 143.25 649.333 149.987C639.735 156.547 630.316 163.106 620.363 168.78C615.031 171.794 609.344 174.63 603.657 176.758C597.614 179.062 591.394 181.19 585.529 184.027C582.33 185.622 582.863 191.473 586.595 192.182C592.282 193.246 597.436 191.827 601.88 188.104C602.946 187.218 603.835 186.154 605.079 185.268C606.323 184.558 607.567 183.849 608.811 183.14C611.832 181.367 614.854 179.594 617.875 177.821C629.25 171.084 640.802 164.347 652.354 157.788C675.103 144.846 698.385 133.144 720.957 120.202C727.177 116.657 733.397 112.579 739.796 109.21C745.305 106.196 751.17 104.246 755.791 99.9913C760.057 96.2682 753.836 89.8858 749.571 93.7862C745.838 97.1547 740.684 98.7503 736.241 101.055C730.909 103.892 725.755 107.26 720.601 110.274C709.582 116.657 698.563 122.684 687.366 128.535C664.973 140.413 642.935 152.824 621.074 165.766C614.854 169.489 608.633 173.212 602.413 176.758C600.813 177.644 599.391 178.531 597.97 179.772C597.081 180.658 596.192 181.544 595.126 182.254C593.349 183.495 591.216 184.027 589.083 183.672C589.439 186.331 589.794 188.991 590.15 191.827C595.304 189.168 600.813 187.395 606.145 185.445C611.477 183.317 616.809 181.013 621.785 178.176C632.093 172.68 641.513 166.12 650.932 159.383C671.015 145.377 690.032 130.131 709.227 115.061C719.357 107.083 729.843 98.9276 737.13 88.1129C738.374 86.34 737.663 82.9715 735.53 82.0851C730.732 80.1349 726.288 82.0851 722.378 84.9217C718.468 87.5811 714.558 90.4177 710.648 93.2543C699.807 101.055 690.388 109.92 680.435 118.429C659.996 136.158 639.558 153.71 618.764 171.084C608.1 179.949 597.259 188.813 584.818 195.373C586.595 197.678 588.372 199.983 590.15 202.287C592.46 199.273 595.481 197.323 598.503 195.018C602.057 192.359 605.434 189.7 609.166 187.395C616.809 182.431 624.806 178.176 632.626 173.566C648.977 163.993 664.973 154.065 680.968 143.782C689.854 138.109 698.918 132.435 707.983 126.762C712.781 123.748 708.516 116.657 703.539 119.139C674.748 133.322 648.266 151.583 620.363 167.539C616.631 169.666 612.899 171.794 609.166 173.744C605.612 175.694 602.057 177.467 597.792 177.999C599.214 180.481 600.636 182.963 602.057 185.445C604.901 182.254 608.278 179.772 611.832 177.467C615.92 174.63 619.83 171.794 623.918 168.957C632.271 163.106 640.624 157.256 648.977 151.583C665.328 140.236 681.679 128.889 698.208 117.898C707.627 111.692 717.047 105.487 726.644 99.6367C731.443 96.6228 727.177 89.1767 722.201 92.0133C695.364 107.26 668.883 122.862 641.69 137.754C639.735 138.818 637.425 139.704 635.825 141.122C634.581 142.363 633.515 143.605 631.915 144.491C629.427 146.087 627.117 146.264 624.273 145.377C624.984 147.859 625.517 150.342 626.228 152.824C637.78 142.718 650.577 134.208 663.018 125.344C675.103 116.834 687.722 108.678 698.741 98.573C701.051 96.4455 700.163 93.077 697.852 91.6587C694.831 89.5312 690.743 91.836 687.899 93.077C685.411 94.3181 683.101 95.7364 680.79 97.1547C670.127 103.183 659.285 108.679 648.444 114.352C625.873 126.23 603.301 138.286 580.908 150.696C578.597 151.937 576.287 153.355 573.976 154.596C572.555 155.483 570.955 156.192 569.533 157.079C569 157.433 568.467 157.61 567.934 157.965C567.756 158.142 567.578 158.142 567.401 158.32C566.867 158.674 568.645 157.965 567.934 158.142C569 160.802 570.244 163.461 571.311 166.298C608.455 143.25 645.778 120.911 683.279 98.573C688.433 95.5591 693.409 92.3679 698.385 89.1767C702.651 86.34 707.272 84.0353 712.248 82.2624C710.826 79.7803 709.404 77.2983 707.983 74.8162C693.764 86.6946 677.947 96.2682 662.129 105.842C645.423 115.947 628.894 126.053 612.01 135.981C602.413 141.654 592.816 147.15 583.041 152.646C584.462 155.128 586.062 157.788 587.484 160.27C600.813 150.873 613.61 141.122 626.939 131.903C639.913 122.862 653.065 113.997 666.039 104.778C673.504 99.4594 680.968 93.9635 688.077 88.1129C691.632 85.2763 687.722 79.603 683.812 80.6668C680.435 81.5532 677.058 82.9715 674.214 84.9217C672.615 85.9855 671.193 87.0492 669.416 87.9356C667.461 88.9994 665.506 90.0631 663.551 90.9496C656.264 94.8499 648.977 98.7503 641.513 102.651C627.295 110.451 613.076 118.075 598.503 125.344C590.15 129.599 581.796 133.676 573.266 137.577C575.576 138.818 577.709 140.059 580.019 141.477C580.019 140.945 580.019 142.718 579.664 142.895C579.841 142.895 580.019 142.363 580.019 142.186C580.197 142.009 580.73 141.3 580.019 142.009C580.197 141.654 580.552 141.477 580.73 141.122C581.974 139.881 583.218 138.64 584.462 137.399C585.706 136.336 586.951 135.272 588.195 134.208C588.55 133.854 588.906 133.499 589.439 133.322C590.15 132.79 589.794 133.144 589.261 133.499C587.484 131.194 585.706 128.89 583.929 126.585C579.841 130.662 586.062 136.69 590.15 132.79C602.057 122.153 613.965 111.692 626.228 101.587C638.314 91.836 650.577 82.4397 662.84 73.0433C669.771 67.5474 676.88 62.0514 683.634 56.3781C687.366 53.1869 682.212 46.4499 678.302 49.4638C666.572 58.3283 653.243 64.7107 640.624 72.3342C634.048 76.4118 627.65 80.8441 621.252 85.2763C614.498 89.8858 607.922 94.4954 601.169 98.9276C594.237 103.714 587.306 109.033 579.664 112.579C581.974 113.82 584.107 115.061 586.417 116.479C586.417 117.011 585.884 117.188 586.417 116.834C586.773 116.479 586.773 116.479 587.128 116.125C588.017 115.061 589.083 114.352 590.15 113.465C592.282 111.515 594.415 109.388 596.548 107.437C601.88 102.296 607.211 97.1547 612.721 92.0133C618.053 87.0492 623.562 82.0851 629.072 77.2983C630.316 76.2345 631.738 74.9935 632.982 73.9298C633.693 73.2206 634.581 72.6888 635.292 71.9796C635.648 71.625 636.003 71.4477 636.359 71.0932C636.359 71.0932 636.003 71.2704 636.181 71.0932C637.247 70.384 638.314 69.6748 639.202 68.9657C642.757 66.3063 647.733 63.2924 649.155 58.8602C650.221 55.8463 646.844 52.3005 643.645 53.3642C636.359 56.0236 629.783 60.2785 622.674 63.647C615.209 67.1928 607.745 71.0932 600.28 74.8162C593.171 78.5393 585.706 81.7305 578.242 84.9217C574.51 86.5173 570.777 87.9356 567.223 89.7085C565.623 90.595 564.024 91.4814 562.424 92.3679C561.002 93.2543 559.936 94.4954 558.159 94.8499C559.581 97.332 561.002 99.814 562.424 102.296C575.221 91.1269 588.017 79.603 601.702 69.4976C608.811 64.3562 615.742 59.2148 622.674 53.8961C625.873 51.414 628.894 49.1093 632.093 46.8045C635.47 44.4997 639.025 42.195 641.868 39.1811C644.356 36.699 642.757 31.0257 638.669 31.5576C636.892 31.7349 635.292 32.0895 633.515 32.9759C632.093 33.6851 630.849 34.7488 629.427 35.458C626.406 37.0536 623.562 38.6492 620.541 40.0675C614.32 43.2587 608.1 46.8045 601.88 49.9957C589.616 56.3781 577.886 63.647 566.512 71.4477C568.645 73.0433 570.777 74.8162 573.088 76.4118C573.799 73.9298 576.109 71.9796 577.886 70.384C580.375 67.9019 582.685 65.5972 585.351 63.4697C588.195 61.1649 591.038 58.8602 593.526 56.2008C595.481 54.0734 597.259 51.9459 599.214 49.8184C601.169 47.8682 603.124 45.7408 604.19 43.2587C605.612 40.0675 605.256 35.6353 601.346 34.3942C595.837 32.7986 590.15 36.8763 585.529 39.3584C582.152 41.1312 578.42 42.3723 575.043 44.1452C572.555 45.5635 569.711 47.8682 566.334 47.8682C567.756 49.2866 569.356 50.8822 570.777 52.3005C570.777 53.3642 570.244 53.5415 570.955 52.4778C571.133 52.1232 571.666 51.7686 571.844 51.414C572.732 50.3503 573.799 49.2866 574.687 48.4001C577.176 46.0953 580.019 44.3225 582.863 42.5496C585.884 40.5994 588.728 38.4719 591.394 35.9899C593.704 33.8624 596.726 31.5576 597.259 28.1891C597.97 22.5159 591.571 21.4521 587.484 22.1613C583.751 22.6931 580.019 24.2888 576.465 25.7071C573.088 27.1254 569.711 28.5437 566.512 30.3166C568.822 31.5576 570.955 32.7986 573.266 34.217C573.266 34.0397 573.443 33.6851 573.799 33.1532C574.154 32.6214 574.687 32.0895 575.221 31.5576C576.465 30.3166 577.709 28.8983 578.42 27.3027C580.019 23.9342 580.019 19.6792 577.886 16.488C574.865 12.2331 570.066 12.2331 565.623 14.1833C561.536 15.9562 557.092 15.247 552.827 15.0697C547.14 15.0697 547.14 23.9342 552.827 23.9342Z" fill="#43A6D3"/>
<path d="M586.772 189.522C584.107 191.295 581.441 193.245 579.308 195.727C577.353 198.032 574.687 201.401 575.576 204.769C576.997 210.442 584.64 209.556 589.083 209.201C602.59 208.138 614.853 202.11 626.939 196.437C633.159 193.423 639.735 190.763 645.956 187.927C652.887 184.913 659.64 181.544 666.572 178.53C679.724 172.857 692.875 167.184 705.849 160.801C712.781 157.433 719.534 153.887 725.755 149.455C728.954 147.15 732.153 144.668 735.708 142.895C738.729 141.3 742.106 140.59 744.949 138.64C746.549 137.576 747.615 135.626 746.904 133.676C743.883 123.925 730.909 129.244 724.689 131.903C717.402 135.094 710.648 138.995 704.072 143.604C690.387 153.001 677.235 162.929 662.84 171.084C648.266 179.417 633.337 187.217 618.408 194.486C614.32 196.437 610.055 198.564 605.789 200.337C601.702 202.11 597.436 203.528 593.348 205.301C589.083 207.074 584.817 209.201 580.552 211.152C576.82 212.924 572.554 213.811 570.955 218.066C569.711 221.08 573.443 224.626 576.464 223.562C581.974 221.612 586.417 218.243 591.393 215.229C596.725 211.861 602.057 208.67 607.389 205.301C618.052 198.564 628.538 191.827 639.202 184.913C649.688 178.176 659.463 170.907 670.126 164.524C680.79 158.319 691.809 153.001 702.295 146.618C708.16 143.072 713.492 138.995 719.001 134.917C721.312 133.144 723.622 131.549 726.288 130.13C728.954 128.535 731.442 126.762 733.042 124.102C736.241 119.316 728.421 114.883 725.399 119.67C724.333 121.443 722.378 122.152 720.601 123.216C718.29 124.634 715.98 126.23 713.847 127.826C709.226 131.371 704.783 134.74 699.984 137.754C689.676 143.959 679.013 149.455 668.527 155.305C658.041 161.156 648.266 168.425 638.313 174.985C628.183 181.544 617.875 188.104 607.567 194.664C601.879 198.387 596.014 201.933 590.149 205.478C584.995 208.67 580.019 212.747 574.154 214.875C575.931 216.648 577.886 218.598 579.663 220.371C579.486 220.548 579.308 220.725 579.308 220.902C578.775 221.434 578.775 221.612 579.13 221.434L579.486 221.257C580.197 221.08 580.907 220.725 581.618 220.371C583.573 219.484 585.528 218.598 587.483 217.711C590.86 216.116 594.237 214.343 597.792 212.924C604.901 210.088 612.01 207.251 618.941 204.06C633.159 197.146 647.2 190.054 661.062 182.253C667.816 178.53 674.57 174.63 681.145 170.375C687.544 166.297 693.764 161.688 699.984 157.256C707.449 151.937 714.736 146.618 722.911 142.541C727.177 140.236 730.376 138.817 734.819 137.399C735.708 137.045 736.596 136.867 737.663 136.69C737.84 136.69 738.196 136.69 738.374 136.513C738.018 136.513 737.663 136.513 738.196 136.513C738.551 136.513 739.084 136.513 739.44 136.513C740.506 136.513 738.907 136.513 739.618 136.513C740.151 136.513 740.684 137.045 739.618 136.513C740.151 136.867 738.907 135.804 739.44 136.335C739.795 136.69 738.907 135.449 739.084 135.981C739.262 136.335 738.729 134.917 738.907 135.626C739.618 134.031 740.329 132.258 740.862 130.662C738.551 132.258 735.885 132.967 733.397 134.031C730.554 135.272 727.888 137.222 725.399 138.995C720.245 142.541 715.091 145.909 709.582 148.923C698.207 154.951 686.477 160.27 674.747 165.411C662.484 170.73 650.221 176.403 637.958 181.722C632.271 184.204 626.406 186.686 620.718 189.345C615.564 191.827 610.232 194.309 604.723 196.259C598.68 198.387 592.46 199.982 585.884 199.982C584.817 199.982 583.573 199.982 582.507 199.982C581.441 199.982 582.685 199.805 582.862 200.16C585.884 204.946 583.573 204.237 584.817 202.819C585.884 201.755 586.595 200.337 587.839 199.273C588.905 198.209 590.149 197.323 591.571 196.437C593.526 195.018 594.415 192.536 593.171 190.409C591.571 189.168 588.727 188.104 586.772 189.522Z" fill="#43A6D3"/>
</g>
<path d="M59.0915 138.642C59.0915 143.978 55.9352 148.09 49.7981 150.976C44.8885 153.338 39.3651 154.563 33.3157 154.563C27.7923 154.563 21.3045 153.338 13.8523 150.889C4.64666 147.652 0 144.066 0 139.779C0 138.205 0.526037 136.892 1.75346 135.755C2.8932 134.618 4.29597 134.006 5.7864 134.006C8.15357 134.006 10.3454 134.968 12.3619 136.892C15.7811 139.779 17.6222 141.354 17.8853 141.616C20.9538 143.366 26.4772 144.241 34.4554 144.241C41.5569 144.241 45.0638 142.666 45.0638 139.429C45.0638 136.718 41.7323 132.956 35.0691 128.145C30.4225 125.171 25.7758 122.196 21.1291 119.222C15.1674 115.198 10.7838 111.437 8.15357 107.763C4.55899 103.039 2.71786 97.6153 2.71786 91.4919C2.71786 83.794 5.08502 76.8833 9.81935 70.8474C14.9044 64.1991 21.2168 60.875 28.7567 60.875C35.2445 60.875 40.6802 62.6245 45.2392 66.2111C49.7105 69.7102 52.516 74.6964 53.8311 81.0822C54.0941 83.5315 54.6202 87.2056 55.4092 91.9293C55.7599 93.329 55.9352 94.3787 55.9352 95.0785C55.9352 98.2277 55.4092 100.939 54.3571 103.039C53.042 106.013 50.9379 107.5 48.1324 107.5C46.5543 107.5 45.0638 106.8 43.5734 105.313C42.1706 103.826 41.3816 102.339 41.3816 100.765C41.3816 99.6273 41.6446 97.9652 42.1706 95.6908C42.6967 93.4164 42.9597 91.7544 42.9597 90.6172C42.9597 78.7203 39.0144 72.8593 31.1238 72.8593C26.7402 72.8593 23.0579 74.6964 20.0771 78.4579C17.0962 82.2194 15.6058 86.2433 15.6058 90.7046C15.6058 97.003 19.3757 103.126 26.9156 109.075C33.8417 113.711 40.7678 118.347 47.8693 122.984C55.3215 128.582 59.0915 133.743 59.0915 138.642Z" fill="#219653"/>
<path d="M129.931 97.1778C129.931 99.1023 129.756 100.852 129.493 102.339C126.074 122.546 116.517 132.606 100.736 132.606C92.6702 132.606 85.3933 130.594 78.9932 126.483V129.194C78.9056 135.055 79.4316 139.079 80.5713 141.266C82.2371 144.328 83.0262 146.077 83.0262 146.515C83.0262 148.264 82.3248 149.839 81.0097 151.064C79.6069 152.376 78.1165 152.988 76.3631 152.988C72.4178 152.988 69.6999 151.589 68.3848 148.789C67.5958 147.127 67.0697 144.065 66.8067 139.517C66.6314 136.542 66.5437 133.131 66.5437 129.282C66.5437 127.795 66.719 125.608 67.1574 122.634C67.5081 119.659 67.7711 117.385 67.7711 115.81V106.888C67.6834 104.263 67.8588 100.414 68.2972 95.2533C68.7355 90.0922 68.9985 86.3307 68.9985 83.8813V72.1594C68.9985 71.9845 68.5602 69.6226 67.7711 65.0738C70.0506 62.9743 72.1548 61.9246 74.1712 61.9246C76.5384 61.9246 78.3795 62.7994 79.7823 64.4614C81.1851 66.1235 81.8864 68.2229 81.8864 70.6723C81.8864 71.2846 81.8864 71.897 81.8864 72.5093C87.6728 64.8988 94.9497 61.0498 103.892 61.0498C112.221 61.0498 118.797 64.199 123.619 70.3224C127.915 75.9209 130.106 83.0066 130.106 91.5793C130.106 92.1916 130.106 93.1539 130.106 94.2911C129.931 95.6907 129.931 96.5655 129.931 97.1778ZM117.92 95.0784C117.92 89.0425 117.043 83.8813 115.202 79.595C112.66 73.8215 108.714 70.9347 103.454 70.9347C96.7031 70.9347 90.9167 75.0462 86.0947 83.269C81.7988 90.4421 79.6069 97.7027 79.6069 104.963C79.6069 117.123 85.744 123.246 98.0182 123.246C104.594 123.246 109.416 120.447 112.484 114.673C114.238 111.524 115.903 105.838 117.482 97.5277C117.832 95.7782 117.92 94.9909 117.92 95.0784Z" fill="#219653"/>
<path d="M208.135 128.32C208.135 132.519 206.206 134.706 202.436 134.706C202.875 136.718 203.839 139.429 205.33 142.841C205.242 144.765 204.453 146.34 202.962 147.565C201.472 148.789 199.719 149.402 197.702 149.402C196.124 149.402 194.283 148.964 192.179 148.002C191.039 145.728 190.425 143.016 190.425 139.867C190.425 139.079 190.425 137.942 190.513 136.455C190.601 134.968 190.601 133.918 190.601 133.131C190.601 133.743 189.198 134.006 186.305 134.006C181.395 134.006 175.521 134.268 168.77 134.706C159.126 135.23 153.866 136.018 153.077 136.98C152.2 137.942 151.674 142.578 151.411 150.976C150.271 152.638 148.781 153.513 147.027 153.513C145.186 153.513 143.257 152.726 141.416 151.239C139.487 149.752 138.523 148.09 138.523 146.34C138.523 145.728 139.312 143.278 140.89 138.992C142.644 132.781 145.449 123.509 149.482 110.999C161.23 78.8953 170.962 62.887 178.765 62.887C186.392 62.887 192.266 71.3722 196.387 88.3428C198.228 95.9533 199.982 107.588 201.56 123.334C203.839 123.858 205.242 124.296 205.943 124.646C207.434 125.433 208.135 126.658 208.135 128.32ZM189.724 123.334C185.866 92.8041 182.359 77.4956 179.291 77.4956C176.836 77.4956 172.54 84.6687 166.403 99.015C162.019 109.337 158.512 118.26 156.058 125.958C158.863 125.346 162.984 124.646 168.507 123.771C173.592 123.071 180.606 122.984 189.724 123.334Z" fill="#219653"/>
<path d="M286.164 65.4237C286.164 66.3859 285.813 67.6106 285.024 69.0977C284.06 71.0222 283.446 72.2469 283.271 72.6843C280.728 80.6447 279.413 87.2055 279.413 92.2791L279.063 129.982C278.975 133.831 278.098 137.767 276.432 141.791C274.241 146.865 271.523 149.402 268.279 149.402C263.457 149.402 258.722 145.378 253.9 137.33C250.481 131.381 246.974 123.158 243.555 112.661C241.539 105.838 239.434 99.0148 237.33 92.1916C235.489 107.063 234.612 117.035 234.612 122.109C234.612 133.306 235.314 139.779 236.629 141.441C237.944 143.103 238.645 144.328 238.645 145.115C238.645 146.777 237.769 148.264 236.015 149.489C234.262 150.801 232.508 151.414 230.755 151.414C228.3 151.414 226.283 148.877 224.705 143.628C223.478 139.604 222.864 135.93 222.864 132.606C222.864 131.119 222.864 128.932 222.952 125.958C223.04 123.071 223.127 120.797 223.127 119.31C223.127 115.723 223.566 110.387 224.442 103.301C225.319 96.2156 225.757 90.8795 225.757 87.2929V71.3721C225.757 71.1972 225.67 70.9347 225.582 70.5848C225.494 70.2349 225.407 69.9725 225.407 69.7975C225.407 68.048 226.634 66.6484 228.914 65.5112C230.842 64.5489 232.771 64.1115 234.7 64.1115C239.171 64.1115 242.328 65.5112 244.344 68.3979C244.87 69.3602 245.308 71.3721 245.747 74.4338C246.01 76.5333 246.273 78.7202 246.536 80.9071C247.588 87.118 250.394 97.0904 254.865 110.824C260.213 127.007 264.158 135.143 266.788 135.143C267.753 135.143 268.191 133.918 268.191 131.469C268.191 130.769 268.103 129.632 267.84 128.057C267.577 126.483 267.49 125.258 267.49 124.383L268.805 88.78C269.068 83.4439 270.032 78.1953 271.523 73.0342C273.802 65.7736 276.871 62.0996 280.728 62.0996C281.956 62.0996 283.622 62.8869 285.901 64.4614C286.076 64.7239 286.164 65.0738 286.164 65.4237Z" fill="#219653"/>
<path d="M314.658 69.7101C314.658 70.1474 314.219 71.1097 313.43 72.5968C313.08 73.2966 312.729 75.3086 312.378 78.5452C310.537 98.1401 309.66 115.373 309.66 130.069C309.66 133.918 310.011 137.067 310.712 139.429C311.326 141.441 312.554 144.24 314.57 147.652C314.658 147.827 314.658 148.089 314.658 148.439C314.658 150.276 312.466 151.239 308.17 151.239H306.942C302.471 151.151 299.753 147.565 298.789 140.479C297.561 131.819 296.948 119.922 296.948 104.701C296.948 101.114 297.035 95.6907 297.123 88.5176C297.211 81.3445 297.298 75.8334 297.298 72.1594C297.298 70.1474 298.351 68.223 300.455 66.3859C302.559 64.5489 304.575 63.6741 306.679 63.6741C308.258 63.6741 310.011 64.374 311.852 65.5986C313.781 66.9108 314.658 68.3104 314.658 69.7101Z" fill="#219653"/>
<path d="M381.64 138.642C381.64 143.978 378.484 148.089 372.346 150.976C367.437 153.338 361.913 154.563 355.864 154.563C350.341 154.563 343.853 153.338 336.401 150.889C327.195 147.74 322.548 144.065 322.548 139.867C322.548 138.292 323.074 136.98 324.302 135.843C325.442 134.705 326.844 134.093 328.335 134.093C330.702 134.093 332.894 135.055 334.91 136.98C338.329 139.867 340.171 141.441 340.434 141.704C343.502 143.453 349.026 144.328 357.004 144.328C364.105 144.328 367.612 142.753 367.612 139.517C367.612 136.805 364.281 133.043 357.617 128.232C352.971 125.258 348.324 122.284 343.677 119.31C337.716 115.286 333.332 111.524 330.702 107.85C327.107 103.126 325.266 97.7027 325.266 91.5793C325.266 83.8813 327.633 76.9706 332.368 70.9347C337.453 64.2865 343.765 60.9624 351.305 60.9624C357.793 60.9624 363.229 62.7119 367.787 66.2985C372.259 69.7975 375.064 74.7837 376.379 81.1695C376.642 83.6189 377.168 87.2929 377.958 92.0167C378.308 93.4163 378.484 94.466 378.484 95.1659C378.484 98.315 377.958 101.027 376.905 103.126C375.59 106.1 373.486 107.588 370.681 107.588C369.103 107.588 367.612 106.888 366.122 105.401C364.719 103.914 363.93 102.426 363.93 100.852C363.93 99.7147 364.193 98.0526 364.719 95.7782C365.245 93.5038 365.508 91.8417 365.508 90.7045C365.508 78.8077 361.563 72.9467 353.672 72.9467C349.289 72.9467 345.606 74.7837 342.625 78.5452C339.645 82.3067 338.154 86.3307 338.154 90.792C338.154 97.0903 341.924 103.214 349.464 109.162C356.478 113.973 363.404 118.61 370.418 123.246C377.87 128.582 381.64 133.743 381.64 138.642Z" fill="#219653"/>
<path d="M462.123 70.6723C462.123 71.4596 461.509 72.3344 460.282 73.2966C459.055 74.2589 458.353 74.9587 458.178 75.3961C455.898 79.6824 454.846 88.0802 455.022 100.764L455.197 105.838C455.46 105.751 455.723 105.751 456.074 105.751C457.389 105.751 458.616 106.538 459.844 108.025C461.071 109.512 461.597 110.999 461.597 112.311C461.597 113.361 460.72 114.148 459.142 114.586C457.827 114.848 456.512 115.111 455.197 115.373C455.285 119.484 455.372 123.596 455.46 127.795C455.635 133.131 456.161 137.067 457.213 139.692C457.915 141.879 458.266 143.366 458.266 144.065C458.266 145.815 457.564 147.39 456.337 148.877C455.022 150.364 453.444 151.064 451.778 151.064C448.446 151.064 446.254 149.314 445.202 145.815C445.027 145.115 444.589 142.054 443.975 136.63C443.8 134.705 443.712 132.431 443.712 129.719V124.296C443.624 120.709 443.361 117.822 443.01 115.548C437.925 115.723 431.876 116.423 424.862 117.735C418.813 118.872 412.763 120.009 406.889 121.147C407.24 122.284 407.415 127.007 407.415 135.318C407.415 141.966 408.38 146.34 410.396 148.439C410.659 148.877 410.835 149.314 410.835 149.751C410.835 152.026 409.081 153.163 405.574 153.163C402.33 153.163 399.788 152.113 397.947 150.189C396.807 148.964 395.755 139.867 394.615 122.896C392.949 122.546 391.634 121.584 390.67 119.922C389.705 118.26 389.267 116.51 389.267 114.673C389.267 113.624 389.793 112.924 391.021 112.486C392.16 112.049 393.212 111.699 394.352 111.349C394.44 110.212 394.615 108.2 394.878 105.138C395.141 102.601 395.229 100.589 395.229 99.1023C395.229 83.7064 396.018 73.909 397.771 69.7101C399.174 66.2985 401.629 64.5489 404.961 64.5489C407.065 64.5489 408.993 65.2487 410.922 66.5609C412.763 67.9605 413.64 69.6226 413.64 71.6346C413.64 72.6843 413.289 73.9964 412.588 75.571C411.624 77.6705 411.098 78.8951 411.01 79.2451C408.643 86.5931 407.503 95.3408 407.503 105.488C407.503 107.15 407.503 108.2 407.503 108.462C408.292 108.375 410.309 108.025 413.64 107.413C423.985 105.313 433.717 104.263 442.835 104.263C443.098 91.4044 443.449 83.094 443.887 79.3325C445.378 66.7358 448.359 60.4375 453.005 60.4375C455.723 60.4375 457.915 61.4872 459.668 63.4992C461.246 65.5986 462.123 67.9605 462.123 70.6723Z" fill="#219653"/>
<path d="M936.762 132.6C936.762 137.4 934.562 139.9 930.262 139.9C930.762 142.2 931.862 145.3 933.562 149.2C933.462 151.4 932.562 153.2 930.862 154.6C929.162 156 927.162 156.7 924.862 156.7C923.062 156.7 920.962 156.2 918.562 155.1C917.262 152.5 916.562 149.4 916.562 145.8C916.562 144.9 916.562 143.6 916.662 141.9C916.762 140.2 916.762 139 916.762 138.1C916.762 138.8 915.162 139.1 911.862 139.1C906.262 139.1 899.562 139.4 891.862 139.9C881.062 140.5 875.062 141.4 874.162 142.5C873.162 143.6 872.562 148.9 872.262 158.5C870.962 160.4 869.262 161.4 867.262 161.4C865.162 161.4 862.962 160.5 860.862 158.8C858.662 157.1 857.562 155.2 857.562 153.2C857.562 152.5 858.462 149.7 860.262 144.8C862.262 137.7 865.462 127.1 870.062 112.8C883.462 76.1 894.562 57.8 903.462 57.8C912.162 57.8 918.862 67.5 923.562 86.9C925.662 95.6 927.662 108.9 929.462 126.9C932.062 127.5 933.662 128 934.462 128.4C935.962 129.3 936.762 130.7 936.762 132.6ZM915.762 126.9C911.362 92 907.362 74.5 903.962 74.5C901.162 74.5 896.262 82.7 889.262 99.1C884.262 110.9 880.262 121.1 877.462 129.9C880.662 129.2 885.362 128.4 891.662 127.4C897.262 126.6 905.362 126.5 915.762 126.9Z" fill="#F26522"/>
<path d="M1023.26 134.5C1023.26 136.4 1022.76 138.7 1021.76 141.4C1019.26 148 1014.56 153.1 1007.66 156.9C1001.36 160.3 994.462 162 986.962 162C974.662 162 965.162 157.4 958.662 148.1C952.962 139.9 950.062 129.5 950.062 116.7C950.062 106.1 951.662 96.2 955.062 86.9C958.762 76.3 964.162 68 971.462 62C977.162 57.3 982.962 55 988.862 55C997.362 55 1003.76 58.7 1008.26 66.1C1011.86 72.1 1013.66 79.7 1013.66 88.7C1013.66 92.8 1012.56 98 1010.56 104.2C1008.06 111.8 1005.26 115.6 1002.16 115.6C998.662 115.6 996.062 113.4 994.262 109C995.262 108.3 996.662 107.2 998.462 105.6C1000.46 103.4 1001.46 99.1 1001.46 92.7C1001.46 86.5 1000.76 81.3 999.562 76.9C997.562 70.4 994.262 67.1 989.662 67.1C986.462 67.1 982.962 69.1 979.162 73.2C976.262 76.3 973.762 79.7 971.762 83.5C966.862 93.1 964.362 105 964.362 119.3C964.362 140.1 972.162 150.4 987.762 150.4C994.462 150.4 999.762 148.5 1003.66 144.7C1005.26 143 1007.56 139.5 1010.76 134.1C1012.86 130.2 1015.16 128.3 1017.56 128.3C1019.16 128.3 1020.56 128.9 1021.76 130.2C1022.66 131.6 1023.26 133 1023.26 134.5Z" fill="#F26522"/>
<path d="M1095.46 67.9C1095.46 69.6 1094.96 71.1 1093.86 72.3C1092.76 73.6 1091.46 74.2 1089.86 74.2C1088.96 74.2 1087.26 73.8 1084.86 72.9C1082.36 72.1 1080.36 71.6 1078.76 71.6C1074.46 71.6 1070.96 71.6 1068.36 71.6C1066.86 71.6 1066.06 71.7 1065.86 72C1065.66 72.3 1065.56 73.2 1065.36 74.9C1064.96 77.4 1064.36 81.2 1063.56 86.1C1061.66 99.7 1060.66 115 1060.66 132.1C1060.66 143.7 1062.06 151.7 1064.76 156V160C1062.86 161 1061.36 161.5 1060.26 161.5C1053.86 161.5 1049.66 158.4 1047.76 152.2C1046.86 149.2 1046.36 143.5 1046.36 135C1046.36 125.1 1046.56 117.4 1046.96 111.9C1047.06 109.5 1047.56 103.8 1048.56 94.7C1049.36 87.6 1049.76 81.9 1049.76 77.5V73.1C1048.36 73.2 1045.66 73.6 1041.66 74.2C1038.36 74.7 1035.66 75 1033.56 75C1026.66 75 1023.16 73 1023.16 68.9C1023.16 67.2 1023.66 66.2 1024.66 65.9C1026.16 63.7 1033.96 61.8 1048.26 60.2C1059.26 59 1068.16 58.4 1074.96 58.4C1079.76 58.4 1083.96 59 1087.56 60.2C1092.86 61.8 1095.46 64.4 1095.46 67.9Z" fill="#F26522"/>
<path d="M1125.46 65.6C1125.46 66.1 1124.96 67.2 1124.06 68.9C1123.66 69.7 1123.26 72 1122.86 75.7C1120.76 98.1 1119.76 117.8 1119.76 134.6C1119.76 139 1120.16 142.6 1120.96 145.3C1121.66 147.6 1123.06 150.8 1125.36 154.7C1125.46 154.9 1125.46 155.2 1125.46 155.6C1125.46 157.7 1122.96 158.8 1118.06 158.8H1116.66C1111.56 158.7 1108.46 154.6 1107.36 146.5C1105.96 136.6 1105.26 123 1105.26 105.6C1105.26 101.5 1105.36 95.2999 1105.46 87.0999C1105.56 78.8999 1105.66 72.6 1105.66 68.4C1105.66 66.1 1106.86 63.9 1109.26 61.8C1111.66 59.7 1113.96 58.7 1116.36 58.7C1118.16 58.7 1120.16 59.5 1122.26 60.9C1124.36 62.4 1125.46 64 1125.46 65.6Z" fill="#F26522"/>
<path d="M1217.26 108.4C1217.26 122.8 1213.66 135 1206.56 145C1198.66 156.3 1187.76 162 1174.06 162C1170.16 162 1165.96 161.2 1161.46 159.8C1151.46 156.6 1144.26 151.1 1140.06 143.2C1136.36 136.4 1134.46 127.3 1134.46 115.9C1134.46 101.1 1137.96 88.1 1145.06 76.8C1153.26 63.5 1164.36 56.8 1178.36 56.8C1190.66 56.8 1200.46 62.6 1207.76 74C1214.06 83.8 1217.26 95.3 1217.26 108.4ZM1202.86 107.1C1202.86 86.3 1196.16 73.9 1182.76 69.7C1181.36 69.3 1179.76 69.1 1177.96 69.1C1172.36 69.1 1166.76 71.6 1161.16 76.6C1152.26 84.7 1147.76 99.2 1147.76 120C1147.76 121.9 1148.16 124.6 1148.96 127.9C1150.66 135.6 1153.16 141.2 1156.56 144.6C1160.46 148.6 1166.16 150.6 1173.66 150.6C1183.86 150.6 1191.56 145.6 1196.76 135.7C1200.86 127.9 1202.86 118.4 1202.86 107.1Z" fill="#F26522"/>
<path d="M1300.96 60.6999C1300.96 61.7999 1300.56 63.1999 1299.66 64.8999C1298.56 67.0999 1297.86 68.4999 1297.66 68.9999C1294.76 78.0999 1293.26 85.5999 1293.26 91.3999L1292.86 134.5C1292.76 138.9 1291.76 143.4 1289.86 148C1287.36 153.8 1284.26 156.7 1280.56 156.7C1275.06 156.7 1269.66 152.1 1264.16 142.9C1260.26 136.1 1256.26 126.7 1252.36 114.7C1250.06 106.9 1247.66 99.0999 1245.26 91.2999C1243.16 108.3 1242.16 119.7 1242.16 125.5C1242.16 138.3 1242.96 145.7 1244.46 147.6C1245.96 149.5 1246.76 150.9 1246.76 151.8C1246.76 153.7 1245.76 155.4 1243.76 156.8C1241.76 158.3 1239.76 159 1237.76 159C1234.96 159 1232.66 156.1 1230.86 150.1C1229.46 145.5 1228.76 141.3 1228.76 137.5C1228.76 135.8 1228.76 133.3 1228.86 129.9C1228.96 126.6 1229.06 124 1229.06 122.3C1229.06 118.2 1229.56 112.1 1230.56 104C1231.56 95.8999 1232.06 89.7999 1232.06 85.6999V67.4999C1232.06 67.2999 1231.96 66.9999 1231.86 66.5999C1231.76 66.1999 1231.66 65.8999 1231.66 65.6999C1231.66 63.6999 1233.06 62.0999 1235.66 60.7999C1237.86 59.6999 1240.06 59.1999 1242.26 59.1999C1247.36 59.1999 1250.96 60.7999 1253.26 64.0999C1253.86 65.1999 1254.36 67.4999 1254.86 70.9999C1255.16 73.3999 1255.46 75.8999 1255.76 78.3999C1256.96 85.4999 1260.16 96.8999 1265.26 112.6C1271.36 131.1 1275.86 140.4 1278.86 140.4C1279.96 140.4 1280.46 139 1280.46 136.2C1280.46 135.4 1280.36 134.1 1280.06 132.3C1279.76 130.5 1279.66 129.1 1279.66 128.1L1281.16 87.3999C1281.46 81.2999 1282.56 75.2999 1284.26 69.3999C1286.86 61.0999 1290.36 56.8999 1294.76 56.8999C1296.16 56.8999 1298.06 57.7999 1300.66 59.5999C1300.86 59.8999 1300.96 60.2999 1300.96 60.6999Z" fill="#F26522"/>
<defs>
<clipPath id="clip0_325_772">
<rect width="233" height="242" fill="white" transform="translate(548.562)"/>
</clipPath>
</defs>
</svg>
