<svg width="137" height="83" viewBox="0 0 137 83" fill="none" xmlns="http://www.w3.org/2000/svg">
<path d="M3.39633 3.81614V44.2604C3.39633 45.367 3.34916 46.4935 3.39633 47.5902C3.42959 48.1845 3.59313 48.7642 3.87538 49.2883C4.15762 49.8124 4.55167 50.2681 5.02964 50.6232C5.50761 50.9783 6.05783 51.224 6.64135 51.3431C7.22487 51.4621 7.82743 51.4515 8.40641 51.3121C8.96586 51.1404 9.49582 50.8843 9.97795 50.5528L14.3748 47.8606L22.0066 43.181L31.1479 37.5809L40.0533 32.1221L47.0346 27.842L50.3987 25.8049C50.9866 25.4701 51.4678 24.9759 51.7867 24.3794C52.1056 23.7829 52.2492 23.1085 52.2009 22.4339C52.1526 21.7594 51.9144 21.1122 51.5138 20.5672C51.1132 20.0221 50.5665 19.6014 49.9369 19.3537L45.7561 17.463L37.7618 13.8503L28.0122 9.44111L18.5482 5.16345L11.3658 1.9155C10.4025 1.48873 9.43424 1.03715 8.47344 0.610372C7.93209 0.352636 7.33424 0.236136 6.73566 0.271741C6.13708 0.307345 5.55727 0.493894 5.05033 0.813984C4.54339 1.13407 4.12583 1.57728 3.8366 2.10225C3.54738 2.62722 3.39591 3.21685 3.39633 3.81614C3.39633 4.6151 4.63768 4.6151 4.63768 3.81614C4.64238 3.43289 4.7415 3.05671 4.92629 2.72087C5.11107 2.38502 5.37582 2.09987 5.69712 1.89062C6.01842 1.68137 6.38636 1.55448 6.76841 1.52117C7.15045 1.48786 7.53482 1.54915 7.88752 1.69964C8.24255 1.84851 8.59013 2.01724 8.94267 2.17604L14.5511 4.71434L23.2033 8.6223L32.9255 13.0191L41.8061 17.0337L47.9284 19.8003L49.3361 20.438L49.5198 20.5199C49.9642 20.7133 50.3416 21.0335 50.6048 21.4404C50.9289 21.9696 51.031 22.6053 50.8887 23.2094C50.7465 23.8134 50.3714 24.3369 49.845 24.666L49.634 24.795L48.2958 25.6163L42.675 29.0603L34.5094 34.0798L25.3657 39.675L16.9568 44.8286L10.9239 48.5281L9.31507 49.5206C8.85881 49.8501 8.33741 50.0785 7.78573 50.1905C7.31178 50.2466 6.83132 50.1829 6.38843 50.0051C5.94554 49.8274 5.5544 49.5413 5.2509 49.1732C4.84664 48.668 4.62995 48.0385 4.63768 47.3917C4.63768 47.0195 4.63768 46.6473 4.63768 46.2751V3.81614C4.63768 3.01966 3.39633 3.01718 3.39633 3.81614Z" fill="#B2D464"/>
<path d="M3.63961 4.76399C4.49862 4.76399 5.36012 4.87813 6.21416 4.71685C6.57513 4.61086 6.92711 4.47646 7.26683 4.31489C7.36834 4.26469 7.48397 4.25068 7.59454 4.27519C7.61847 4.282 7.64074 4.29367 7.65996 4.30947C7.67918 4.32526 7.69494 4.34484 7.70626 4.36699C7.78318 4.52065 7.8017 4.69697 7.7584 4.86324C7.71034 5.07295 7.60255 5.26426 7.44806 5.41408C6.97387 5.95251 6.41278 6.48845 6.42271 7.2626C6.42459 7.37095 6.4546 7.47695 6.50982 7.57021C6.56504 7.66348 6.64357 7.74079 6.7377 7.79458C6.83182 7.84838 6.93832 7.87679 7.04675 7.87705C7.15518 7.87731 7.26182 7.84941 7.3562 7.79607C7.66654 7.63479 7.98432 7.48343 8.29963 7.33704C8.84334 7.08891 9.20333 6.93011 9.74704 6.72417C10.2504 6.52098 10.7704 6.36159 11.3012 6.24777C11.3335 6.24777 11.5495 6.21055 11.3782 6.2304L11.5122 6.218C11.6066 6.218 11.6984 6.218 11.7928 6.218C11.6314 6.218 11.7009 6.19815 11.7605 6.218C11.9119 6.26762 11.6637 6.15845 11.7481 6.218C11.6964 6.16768 11.6535 6.10895 11.6215 6.04431V5.70686C11.4872 5.9484 11.3016 6.1576 11.0778 6.31973C10.8121 6.55545 10.5564 6.80109 10.2783 7.0244C9.69738 7.49336 9.03699 7.87547 8.43121 8.2948C7.83241 8.68165 7.28227 9.13899 6.79263 9.657C6.40037 10.0863 5.88893 10.5403 5.879 11.1681C5.88156 11.3318 5.94777 11.4881 6.06362 11.6039C6.17947 11.7197 6.33586 11.7858 6.49967 11.7884C7.27924 11.7884 7.91729 11.5006 8.57769 11.1209C9.33006 10.6995 10.1078 10.3249 10.9065 9.99941C11.4353 9.77362 11.9219 9.48579 12.4308 9.21782C12.6687 9.08568 12.918 8.97523 13.1756 8.88781C13.2452 8.86548 13.3172 8.84315 13.3891 8.82578C13.3891 8.82578 13.5878 8.79601 13.4934 8.80345C13.5562 8.79725 13.6194 8.79725 13.6821 8.80345C13.5754 8.80345 13.7144 8.81834 13.7467 8.83075L13.3122 8.39653C13.3274 8.42908 13.3391 8.46319 13.3469 8.49826C13.3469 8.42382 13.3469 8.42382 13.3469 8.49826C13.3842 8.33202 13.2973 8.60991 13.3221 8.54788C13.2584 8.66705 13.1862 8.78148 13.1061 8.8903C12.8917 9.15019 12.6638 9.39865 12.4234 9.63467C11.7481 10.322 11.1721 11.0713 10.4521 11.6991C9.66759 12.3715 8.85575 12.9868 8.13577 13.7312C7.52503 14.359 6.79263 15.009 6.55926 15.8849C6.42519 16.3812 7.00614 16.8948 7.47041 16.5846C8.35673 15.9891 9.2356 15.3812 10.1393 14.813C11.0902 14.215 12.0758 13.6692 13.049 13.1084C14.0222 12.5476 15.0079 12.0315 15.9985 11.508C16.9891 10.9845 17.9995 10.4212 19.0124 9.88031C19.5562 9.59497 20.1024 9.31459 20.6436 9.02428C20.9116 8.88338 21.1711 8.72679 21.4207 8.55533C21.612 8.41405 21.8356 8.32279 22.0711 8.28983L21.6342 7.23034C20.6808 8.15833 19.4891 8.83323 18.434 9.63715C17.282 10.513 16.1524 11.4137 14.9855 12.2772C13.8187 13.1407 12.6617 13.9495 11.5246 14.8403C10.3876 15.7311 9.34981 16.6119 8.29714 17.5275C7.0558 18.5895 5.85169 19.6688 4.62772 20.7357C4.13118 21.1724 4.67241 21.8895 5.2335 21.7729C5.53165 21.7108 5.81179 21.5818 6.05279 21.3958C6.30488 21.2012 6.57036 21.0246 6.84725 20.8672C7.39129 20.5619 7.95436 20.2917 8.533 20.0584C9.80166 19.5621 11.0579 19.0138 12.3042 18.453C14.7869 17.3315 17.1802 15.9718 19.6555 14.818C20.9465 14.2126 22.1382 13.4012 23.4887 12.9149L22.7141 12.1581C22.6868 12.2474 22.7141 12.0365 22.7141 12.1308C22.7027 12.1547 22.6885 12.1772 22.6719 12.1978V12.1978L22.585 12.2946C22.4462 12.4407 22.2987 12.5782 22.1431 12.7064C21.8129 12.9868 21.5398 13.1878 21.1724 13.4508C20.326 14.071 19.5115 14.7335 18.7319 15.4358C16.3402 17.53 14.0106 19.6953 11.7431 21.9317C11.2466 22.4131 10.7649 22.8795 10.2535 23.3336C9.80414 23.7306 9.26043 24.2492 9.28526 24.8993C9.28812 25.0073 9.31871 25.1127 9.3741 25.2055C9.42948 25.2982 9.50779 25.3752 9.60152 25.429C9.69525 25.4828 9.80124 25.5117 9.90933 25.5128C10.0174 25.5138 10.124 25.4871 10.2187 25.4352C11.6835 24.7653 12.977 23.7579 14.3053 22.8572C15.7171 21.8961 17.1239 20.9334 18.5258 19.969C19.9236 19.0113 21.299 18.0089 22.7464 17.1106C24.0672 16.2844 25.4327 15.5375 26.7858 14.7684C28.3449 13.914 29.8468 12.9591 31.2819 11.91L30.5371 10.9348C27.97 13.0761 25.3235 15.0884 22.6943 17.1206C20.0651 19.1527 17.4632 21.232 14.9458 23.413C13.4694 24.6933 12.0005 25.9869 10.539 27.2937L11.4204 28.1671C11.4991 28.0899 11.5554 27.9928 11.5834 27.8863C11.6113 27.7797 11.6099 27.6675 11.5793 27.5616C11.4452 27.2118 11.0306 26.9512 10.6681 27.1919C10.1614 27.5558 9.68481 27.9599 9.24305 28.4003C8.94294 28.6667 8.66249 28.9545 8.4039 29.2613C8.18294 29.5293 7.90736 29.8766 7.93715 30.2538C7.93974 30.3618 7.9702 30.4674 8.02559 30.5603C8.08098 30.6531 8.15941 30.7301 8.2533 30.7837C8.34719 30.8374 8.45336 30.8659 8.56151 30.8665C8.66967 30.8671 8.77615 30.8398 8.87065 30.7872C15.1444 27.9065 21.1376 24.5172 27.2103 21.2717C28.0644 20.8151 28.9606 20.4008 29.7898 19.902C30.1597 19.6787 30.4875 19.4058 30.8748 19.1999C31.2506 19.0084 31.646 18.8578 32.054 18.7507L31.4483 17.7136C26.1651 21.9143 20.4301 25.4972 14.9806 29.4672C13.4065 30.6061 11.8598 31.7599 10.2783 32.874C9.63532 33.3256 10.1964 34.3453 10.904 33.9459C14.5949 31.8517 18.2585 29.7087 21.8949 27.517C25.4203 25.398 28.9681 23.2989 32.419 21.0509C34.3305 19.831 36.1631 18.4918 37.9057 17.0412C38.3775 16.6442 37.8735 15.8006 37.3025 16.004C36.314 16.336 35.3642 16.7735 34.4697 17.3091C34.0178 17.5846 33.6057 17.9096 33.1663 18.2024C32.6896 18.5225 32.1732 18.7929 31.6767 19.0857L25.5543 22.7133C21.5249 25.0978 17.5055 27.4946 13.5207 29.9511C11.2714 31.3389 9.02706 32.7325 6.78767 34.132C6.65997 34.2095 6.56456 34.3305 6.51896 34.4727C6.47335 34.6149 6.48061 34.7688 6.5394 34.9061C6.59941 35.0428 6.70583 35.1538 6.83985 35.2197C6.97387 35.2855 7.12686 35.3019 7.27179 35.2659C7.4477 35.2136 7.61499 35.1359 7.76833 35.0351C8.0315 34.8962 8.29218 34.7523 8.55286 34.6084C9.08416 34.3139 9.61297 34.017 10.1393 33.7176C12.1255 32.5861 14.1687 31.5043 16.1896 30.4151C20.8869 27.8867 25.6239 25.4203 30.3211 22.9068C31.0808 22.4999 31.8256 22.0831 32.5555 21.6662C32.8907 21.4727 33.2284 21.2891 33.5784 21.1278L33.6877 21.0782C33.5734 21.1278 33.7373 21.0608 33.7472 21.0583L33.9583 20.9888C33.9781 20.9888 34.0005 20.9888 34.0203 20.9739C34.1321 20.9268 33.9036 20.9739 34.0054 20.9739C34.07 20.9739 34.0427 20.9888 33.931 20.9566C34.0253 20.9839 33.7919 20.8747 33.8689 20.9318L33.7423 19.9566C31.9299 21.6513 29.8792 23.0532 27.8409 24.4601C25.8026 25.8669 23.7395 27.3185 21.7236 28.8072C20.5393 29.6806 19.3749 30.5838 18.2676 31.5564C17.9002 31.879 18.1261 32.4571 18.5432 32.5936C19.9385 33.0452 21.2742 32.5266 22.2896 31.5192C22.5783 31.2667 22.9029 31.0584 23.2529 30.9014L24.4322 30.2538C25.1803 29.8402 25.9251 29.4267 26.6666 29.0132C29.6458 27.3259 32.6102 25.5717 35.6043 23.8745C37.2859 22.9168 38.9675 21.9623 40.6491 21.0112L40.021 19.9393C36.3714 22.1972 32.8212 24.599 29.2759 27.0331C25.6959 29.497 22.1158 31.9609 18.5581 34.457C17.5824 35.1443 16.6167 35.8465 15.6335 36.5214C14.7422 37.1318 13.8286 37.7372 13.1235 38.5659C13.0306 38.664 12.972 38.7895 12.9564 38.9236C12.9408 39.0577 12.969 39.1933 13.037 39.3101C13.1049 39.4268 13.2088 39.5184 13.3331 39.5713C13.4575 39.6241 13.5956 39.6352 13.7268 39.6031C15.3281 39.3674 16.7631 38.4022 18.146 37.6181C19.6505 36.7695 21.1252 35.8812 22.5999 34.9805C25.5643 33.1717 28.5361 31.3778 31.5376 29.6235C33.2159 28.6311 34.9141 27.6857 36.6594 26.8272L36.0338 25.7553C32.5804 27.9165 29.1592 30.1272 25.6983 32.2785C23.9803 33.3388 22.2524 34.3817 20.5145 35.4073C18.8089 36.3998 17.066 37.3427 15.3952 38.4022C14.4691 38.9878 13.5952 39.6279 12.7263 40.2954C11.9815 40.876 11.1274 41.3821 10.5365 42.1464C10.4332 42.2531 10.3716 42.3933 10.3628 42.5415C10.3541 42.6898 10.3989 42.8362 10.4891 42.9542C10.5793 43.0723 10.7088 43.1541 10.8542 43.1848C10.9995 43.2155 11.1511 43.193 11.2813 43.1215C13.5878 41.8958 15.6658 40.2904 17.6768 38.6404C19.7771 36.9167 21.8576 35.1699 23.9183 33.4C26.0881 31.5465 28.2381 29.6781 30.3956 27.8023C32.4438 26.0257 34.4598 24.202 36.5502 22.4726C37.578 21.6265 38.663 20.8797 39.733 20.0906C40.1312 19.7795 40.5456 19.4897 40.9744 19.2222C41.1573 19.1048 41.3541 19.0106 41.5603 18.9418L41.6844 18.9095C41.7961 18.8798 41.6695 18.9095 41.7316 18.9095C41.7936 18.9095 41.8259 18.9095 41.8731 18.9095C41.7614 18.9095 41.9178 18.9418 41.816 18.8947L41.5926 18.0461C40.3065 19.9889 38.4172 21.4975 36.6073 22.9267C34.5665 24.5395 32.5233 26.1771 30.4602 27.7899C28.474 29.3531 26.4423 30.8642 24.3651 32.3231C22.379 33.7275 20.3928 35.1393 18.2652 36.3403C17.1125 37.0027 15.9145 37.5831 14.6801 38.0771C13.3718 38.5908 12.0237 39.0076 10.7749 39.6577C10.323 39.8934 10.395 40.6973 10.9214 40.7916C11.4843 40.897 12.0645 40.8638 12.6117 40.6948C13.1589 40.5257 13.6567 40.226 14.062 39.8215C14.2585 39.6183 14.4785 39.4392 14.7174 39.288L15.6558 38.7322L17.4831 37.6528C19.8963 36.227 22.3219 34.8209 24.7599 33.4347C27.1979 32.0485 29.6516 30.6913 32.1211 29.363C34.5665 28.0529 37.0244 26.7701 39.4301 25.393C40.7385 24.6487 42.0121 23.8274 43.3255 23.0855C44.475 22.4404 45.7461 22.0359 46.7417 21.1427C47.3375 20.6067 46.4561 19.7308 45.8628 20.2643C45.0485 21.0087 43.9586 21.3561 42.9978 21.8548C41.8433 22.4528 40.7509 23.1897 39.6263 23.8398C37.2876 25.2045 34.9091 26.4823 32.5109 27.7552C27.682 30.3183 22.9252 33.0179 18.213 35.7869C16.8889 36.5661 15.5648 37.3476 14.2407 38.1317C13.9057 38.3123 13.5981 38.5395 13.3271 38.8066C13.1309 39.0163 12.9071 39.1983 12.6617 39.3475C12.2364 39.5983 11.7345 39.6865 11.2491 39.5957L11.398 40.7296C12.5028 40.1564 13.6896 39.7817 14.8465 39.3351C15.9808 38.895 17.0869 38.3854 18.1584 37.8092C20.3258 36.6455 22.3417 35.2411 24.3651 33.8392C28.6552 30.8418 32.7269 27.5641 36.8332 24.3211C38.9584 22.6438 41.173 20.9417 42.6874 18.6565C42.7691 18.514 42.7915 18.3452 42.7496 18.1864C42.7078 18.0276 42.6052 17.8917 42.464 17.8079C41.5404 17.3885 40.5871 17.9692 39.8348 18.4927C38.9609 19.1006 38.0969 19.7184 37.2379 20.3611C35.0705 22.0111 33.0695 23.8596 31.0113 25.6387C26.6443 29.4126 22.2921 33.1816 17.8754 36.8787C15.6062 38.7768 13.2898 40.6576 10.6756 42.0496L11.4204 43.0222C11.9169 42.3746 12.6096 41.928 13.2576 41.4417C14.0173 40.876 14.7472 40.3003 15.5491 39.7817C17.1802 38.7123 18.8958 37.7968 20.579 36.8043C24.0548 34.7771 27.4809 32.6258 30.8872 30.4647C32.8088 29.2464 34.7304 28.0231 36.6594 26.8148C37.3422 26.388 36.7463 25.393 36.0338 25.7429C32.9329 27.2688 29.9909 29.0926 27.0142 30.8443C24.0374 32.5961 21.1947 34.4248 18.2378 36.1269C17.4417 36.5867 16.639 37.0375 15.8296 37.4792C15.079 37.9296 14.253 38.2406 13.3916 38.3972L13.9974 39.4319C14.6106 38.7622 15.3112 38.1779 16.0804 37.695C16.9394 37.1095 17.7786 36.4991 18.6301 35.9011C20.4143 34.6423 22.2077 33.395 24.0101 32.1594C27.5281 29.7402 31.0337 27.2937 34.5789 24.9117C36.58 23.5768 38.5984 22.2667 40.6442 21.0012C41.3219 20.5819 40.7137 19.5323 40.016 19.9293C37.0865 21.5992 34.1345 23.2294 31.2298 24.9414C28.3879 26.6171 25.5204 28.2465 22.6273 29.8295C22.2114 30.0162 21.8276 30.2675 21.4902 30.5739C21.2275 30.8571 20.9227 31.0982 20.5865 31.2885C20.3251 31.428 20.0372 31.5109 19.7417 31.5318C19.4461 31.5528 19.1494 31.5113 18.8709 31.41L19.1465 32.4447C21.0706 30.7426 23.171 29.2787 25.2564 27.7899C27.2674 26.3582 29.3206 24.9836 31.3117 23.5222C32.471 22.6893 33.5786 21.7869 34.6286 20.8201C34.693 20.7524 34.7417 20.6713 34.771 20.5825C34.8004 20.4938 34.8097 20.3996 34.7983 20.3069C34.7869 20.2141 34.7551 20.125 34.7051 20.046C34.6552 19.967 34.5884 19.9001 34.5094 19.8499C33.9781 19.4529 33.0744 19.9814 32.5953 20.2271C32.1161 20.4727 31.6419 20.7779 31.1652 21.0509C28.8687 22.3634 26.4878 23.5321 24.1491 24.7727C19.3253 27.321 14.489 29.8593 9.72718 32.5241C9.25546 32.7871 8.78872 33.0551 8.317 33.3181C7.98681 33.5017 7.65909 33.6853 7.32393 33.864C7.21221 33.9235 7.10048 33.9856 6.98628 34.0426C6.94374 34.06 6.90229 34.0799 6.86215 34.1022C6.79015 34.1493 7.03593 34.0526 6.93911 34.0675L7.41827 35.2014C11.3633 32.7449 15.3058 30.286 19.2855 27.8842C23.2653 25.4824 27.3245 23.1053 31.3465 20.7233L33.0521 19.7135C33.5859 19.3959 34.0799 19.0411 34.5963 18.6986C35.5401 18.0723 36.5617 17.5718 37.6351 17.2099L37.0294 16.1727C34.0129 18.7086 30.624 20.7407 27.2724 22.7927C23.6799 24.9911 20.0726 27.177 16.4503 29.3109C14.4013 30.5151 12.3439 31.7028 10.2783 32.874L10.904 33.9459C13.7293 31.9609 16.4826 29.8692 19.3203 27.8991C22.096 25.9662 24.9163 24.068 27.6696 22.1004C29.2486 20.9673 30.8011 19.7978 32.3271 18.5919C32.8237 18.1875 32.28 17.4034 31.7238 17.5548C30.9526 17.7604 30.2221 18.0961 29.5639 18.5473C29.4125 18.654 29.2685 18.7706 29.1096 18.8624C28.9507 18.9542 28.7496 19.0535 28.5708 19.1477C28.1587 19.3661 27.7449 19.5853 27.3295 19.8053C25.7737 20.6324 24.2203 21.4677 22.6695 22.3113C19.6431 23.9564 16.6117 25.594 13.5381 27.1497C11.7953 28.0347 10.0309 28.8883 8.24501 29.7104L9.18595 30.2463C9.18595 30.1173 9.16112 30.4175 9.18595 30.2662C9.1636 30.3927 9.15367 30.3381 9.21077 30.2463C9.23808 30.2017 9.33987 30.0677 9.25546 30.1744C9.30263 30.1148 9.35229 30.0553 9.40194 29.9982C9.65918 29.7138 9.93186 29.4438 10.2187 29.1893C10.467 28.9412 10.7426 28.7229 11.0132 28.4971C11.1026 28.4226 11.192 28.3482 11.2838 28.2762C11.3136 28.2514 11.3484 28.2266 11.3782 28.1993C11.408 28.172 11.2292 28.306 11.2987 28.2613L10.3876 27.8892L10.5465 27.2862C9.96551 27.8395 10.8345 28.6931 11.4253 28.1646C13.9651 25.8794 16.5347 23.6065 19.1912 21.4454C21.7509 19.3537 24.3875 17.3836 26.9893 15.3589C28.479 14.2002 29.9512 13.029 31.3936 11.8182C31.9274 11.3691 31.205 10.4163 30.6488 10.843C28.1264 12.7461 25.2763 14.1158 22.5925 15.7484C21.1575 16.6243 19.7945 17.6019 18.4116 18.5522C17.0288 19.5026 15.5938 20.4827 14.1911 21.4429C12.7014 22.4528 11.2416 23.614 9.59807 24.3633L10.5341 24.8993C10.5341 24.7603 10.4769 24.9836 10.5341 24.8472C10.5192 24.8769 10.4894 24.9315 10.5514 24.8273C10.5984 24.7457 10.656 24.6706 10.7227 24.604C10.9078 24.4135 11.1043 24.2346 11.3111 24.068C11.7853 23.6611 12.2198 23.217 12.6642 22.7803C13.798 21.6538 14.9557 20.5488 16.1375 19.4653C17.2919 18.4009 18.4489 17.3414 19.6306 16.3067L20.5418 15.5152L20.9117 15.2026L21.1873 14.9693L21.2816 14.8924C21.4107 14.7857 21.4058 14.7907 21.2618 14.8924C21.299 14.8924 21.4256 14.7783 21.4554 14.7584C21.6019 14.6592 21.7459 14.5574 21.8899 14.4532C22.3095 14.153 22.7241 13.8453 23.1139 13.5054C23.4714 13.2401 23.7509 12.8836 23.9232 12.4732C23.9512 12.3675 23.9509 12.2562 23.9224 12.1506C23.8938 12.045 23.8381 11.9487 23.7607 11.8714C23.6833 11.794 23.587 11.7383 23.4813 11.7098C23.3757 11.6813 23.2644 11.6811 23.1585 11.709C21.9346 12.1506 20.8248 12.8206 19.6828 13.4161C18.4836 14.0389 17.2448 14.5847 16.0431 15.2001C14.8415 15.8154 13.6051 16.4854 12.3638 17.0635C11.1224 17.6416 9.91089 18.1503 8.67451 18.6689C7.99425 18.9542 7.314 19.2197 6.65857 19.5572C6.32588 19.7284 5.9932 19.907 5.66549 20.1105C5.33777 20.3139 5.22109 20.505 4.88344 20.5769L5.48673 21.6141C7.63675 19.7358 9.75697 17.8228 11.9864 16.0412C13.0838 15.1604 14.2209 14.3465 15.3654 13.5228C16.5099 12.699 17.637 11.7859 18.7691 10.9224C19.3973 10.4411 20.0328 9.97212 20.6833 9.52549C21.3292 9.10612 21.9373 8.63123 22.5006 8.10622C22.8557 7.76133 22.6148 6.98222 22.0612 7.04921C21.5343 7.10913 21.0324 7.30683 20.6063 7.62238C20.127 7.92396 19.6295 8.19576 19.1167 8.43623C18.0889 8.97466 17.0735 9.52797 16.0531 10.0763C14.0173 11.1755 11.979 12.2573 9.99531 13.4508C8.91533 14.0984 7.88253 14.8229 6.83484 15.5227L7.74847 16.2224C7.89246 15.6839 8.389 15.2448 8.77134 14.8577C9.2657 14.3418 9.78696 13.8523 10.333 13.3913C10.9406 12.9167 11.5209 12.4081 12.0708 11.8678C12.5177 11.4063 12.905 10.8902 13.3519 10.4287C13.7518 10.0625 14.0934 9.63745 14.3648 9.16819C14.6479 8.59255 14.6628 7.74644 13.8832 7.59757C12.7561 7.38418 11.691 8.26006 10.7426 8.72653C9.99779 9.09376 9.20829 9.36918 8.47093 9.75873C7.82295 10.0987 7.24696 10.5627 6.48478 10.5552L7.10545 11.1755C7.10545 11.2996 7.13773 11.1507 7.10545 11.1904C7.13524 11.1507 7.15759 11.1011 7.18738 11.0614C7.25506 10.9743 7.32802 10.8914 7.40586 10.8133C7.60695 10.5949 7.80309 10.3691 8.0166 10.1657C8.54131 9.70607 9.1054 9.29342 9.70235 8.93248C10.3671 8.51371 10.9972 8.04242 11.5867 7.52313C12.041 7.10876 12.6617 6.6671 12.8281 6.03439C12.9447 5.56543 12.55 5.15355 12.1304 5.02948C11.7849 4.95009 11.4258 4.95009 11.0802 5.02948C10.2819 5.19414 9.50477 5.44886 8.76389 5.78874C8.07867 6.07409 7.39593 6.37432 6.74049 6.72169L7.67399 7.25764C7.67399 7.02192 7.89246 6.77876 8.07618 6.57282C8.34012 6.31475 8.5696 6.02369 8.75892 5.70686C9.09409 5.05678 9.13381 4.19082 8.67451 3.59036C8.54529 3.42314 8.38193 3.28532 8.1953 3.18607C8.00866 3.08682 7.80303 3.0284 7.59206 3.01472C7.12531 2.98742 6.71815 3.20577 6.30354 3.3869C5.49915 3.73924 4.48869 3.52337 3.63961 3.51841C2.84018 3.51841 2.84018 4.75903 3.63961 4.75903V4.76399Z" fill="#B2D464"/>
<path d="M11.043 40.804C10.4594 41.1744 9.9318 41.6264 9.47645 42.1464C9.12142 42.5781 8.6224 43.2009 8.81357 43.8013C8.98984 44.3547 9.58072 44.4663 10.0872 44.4713C10.6976 44.4804 11.308 44.4498 11.9145 44.3795C14.7298 44.0247 17.2647 42.6798 19.8045 41.5037C21.1823 40.866 22.5876 40.2904 23.9729 39.6676C25.3582 39.0448 26.7759 38.3625 28.1935 37.7446C30.9418 36.5512 33.6877 35.3502 36.3864 34.0228C37.8417 33.3311 39.2404 32.5264 40.5697 31.616C41.2201 31.1219 41.9 30.6679 42.6055 30.2562C43.2262 29.9262 43.9362 29.7997 44.5122 29.3828C44.6279 29.3116 44.718 29.2054 44.7693 29.0796C44.8206 28.9538 44.8306 28.815 44.7977 28.6831C44.2615 26.8272 41.4933 28.0876 40.4058 28.5715C38.8446 29.279 37.3541 30.133 35.9544 31.1222C34.5343 32.1147 33.1464 33.137 31.7338 34.122C30.3211 35.1071 28.8861 35.9904 27.4065 36.8514C24.3279 38.628 21.1749 40.2755 17.9722 41.8412C17.0909 42.2729 16.212 42.7195 15.3083 43.1041C14.4046 43.4887 13.5357 43.8038 12.6617 44.1661C11.7431 44.5432 10.8593 44.9849 9.96057 45.4067C9.55837 45.5953 9.12887 45.8037 8.74653 45.9551C8.31703 46.1238 7.96697 46.3347 7.81552 46.7962C7.78697 46.9018 7.78675 47.013 7.81488 47.1187C7.843 47.2244 7.89849 47.3209 7.97575 47.3983C8.05301 47.4758 8.14932 47.5316 8.25499 47.56C8.36066 47.5885 8.47197 47.5886 8.57771 47.5604C9.74458 47.1436 10.7228 46.3992 11.768 45.7541C12.8951 45.0519 14.0297 44.3621 15.1544 43.6549C17.4062 42.2357 19.6381 40.7817 21.88 39.3475C24.1219 37.9134 26.1999 36.3576 28.4591 35.0177C30.7184 33.6779 33.0893 32.5365 35.3436 31.1817C36.5466 30.4454 37.707 29.6419 38.8194 28.7749C39.337 28.3659 39.8838 27.9952 40.4555 27.6658C41.0185 27.3901 41.5008 26.9739 41.8557 26.4575C42.2828 25.7801 41.2102 25.1548 40.7832 25.8297C40.5349 26.2317 40.1104 26.4376 39.7082 26.6609C39.2099 26.9509 38.7328 27.276 38.2807 27.6336C37.2876 28.3779 36.3367 29.1223 35.2865 29.7724C33.0794 31.1296 30.7655 32.3008 28.5063 33.5637C26.247 34.8267 24.2162 36.3626 22.0687 37.757C19.874 39.1838 17.6594 40.5857 15.4548 42C14.2134 42.794 12.9721 43.5656 11.7134 44.3373C10.5912 45.0271 9.50376 45.9203 8.25248 46.362L9.01715 47.1237C8.96501 47.28 8.90046 47.2056 9.01715 47.1833C8.96749 47.1833 9.13383 47.1312 9.12639 47.1336C9.29273 47.0592 9.46651 46.9972 9.62292 46.9227C10.0202 46.7441 10.4124 46.5605 10.8047 46.3744C11.5321 46.0295 12.2471 45.6672 12.9944 45.3596C14.556 44.7194 16.1226 44.1189 17.647 43.3746C20.7057 41.8858 23.7296 40.3425 26.6914 38.6801C28.1562 37.8563 29.6185 37.0226 31.0237 36.0971C32.429 35.1716 33.7373 34.2213 35.0805 33.261C36.5982 32.1247 38.1991 31.1037 39.8696 30.2066C40.703 29.7468 41.5837 29.3783 42.4963 29.1074C42.6949 29.0528 42.8935 29.0082 43.0946 28.9734C43.1914 28.9586 42.9407 28.9883 43.0946 28.9734H43.246C43.328 28.9734 43.4074 28.9734 43.4943 28.9734C43.5812 28.9734 43.611 29.0131 43.4571 28.9734C43.4944 28.9884 43.5337 28.9976 43.5738 29.0007C43.5961 29.0007 43.6309 29.0231 43.6532 29.0256C43.4943 28.9908 43.5688 28.9883 43.6284 29.0256C43.688 29.0628 43.7327 29.1049 43.5887 28.9908C43.611 29.0082 43.6855 29.1074 43.6185 29.0156C43.5514 28.9238 43.6185 29.0156 43.6185 29.0156C43.6656 29.1025 43.5663 28.8593 43.6185 29.0156L43.904 28.3134C43.4198 28.6658 42.8364 28.8097 42.2952 29.0578C41.7134 29.3392 41.1619 29.6793 40.6491 30.0726C39.5372 30.8706 38.3764 31.5983 37.1734 32.2512C35.9817 32.8864 34.7528 33.4546 33.5263 34.0228C32.2229 34.6282 30.9244 35.2411 29.6061 35.8093C26.9496 36.9556 24.3354 38.1888 21.6814 39.345C20.4202 39.8934 19.1639 40.4492 17.9176 41.0348C16.761 41.6051 15.5723 42.108 14.3574 42.5409C13.6655 42.7809 12.9558 42.9659 12.2347 43.0942C11.5968 43.1877 10.9529 43.2341 10.3081 43.2331C10.1939 43.2331 10.0797 43.2331 9.96554 43.2331C9.92419 43.2356 9.88274 43.2356 9.8414 43.2331C9.96802 43.2505 9.80168 43.2207 9.78678 43.2133C9.82651 43.2406 9.86871 43.248 9.90843 43.2803C9.94542 43.3094 9.97439 43.3475 9.99263 43.3909C10.0109 43.4343 10.0178 43.4816 10.0127 43.5284C10.0127 43.6376 10.0177 43.6475 10.0276 43.5582C10.0998 43.4524 10.1654 43.3422 10.2237 43.2282C10.6155 42.6895 11.1058 42.2298 11.6687 41.8734C12.3266 41.4293 11.7059 40.3524 11.043 40.804Z" fill="#B2D464"/>
<path d="M47.0942 5.57039V46.0146C47.0942 47.1212 47.047 48.2477 47.0942 49.3469C47.1275 49.9412 47.291 50.5209 47.5733 51.045C47.8555 51.5691 48.2495 52.0249 48.7275 52.3799C49.2055 52.735 49.7557 52.9807 50.3392 53.0998C50.9227 53.2188 51.5253 53.2082 52.1043 53.0688C52.6637 52.8971 53.1937 52.6411 53.6758 52.3095L58.0727 49.6248L65.707 44.9477L74.8482 39.345L83.7512 33.8863L90.735 29.6087C91.8522 28.9238 92.9686 28.239 94.0841 27.5542C94.6738 27.2209 95.1569 26.7273 95.4772 26.1307C95.7976 25.5341 95.9421 24.8589 95.894 24.1835C95.8459 23.5082 95.6072 22.8603 95.2056 22.315C94.8039 21.7697 94.2558 21.3495 93.6248 21.103L89.444 19.2123L81.4596 15.6045L71.7076 11.1954L62.2461 6.9177L55.0612 3.66976C54.0979 3.22561 53.1296 2.7914 52.1713 2.36214C51.6298 2.10432 51.0317 1.98783 50.4329 2.02355C49.8341 2.05927 49.2542 2.24604 48.7472 2.56642C48.2401 2.8868 47.8226 3.33034 47.5336 3.85565C47.2445 4.38095 47.0934 4.97089 47.0942 5.57039C47.0818 6.36935 48.3231 6.36935 48.3356 5.57039C48.3398 5.18693 48.4387 4.81045 48.6233 4.47428C48.8079 4.13811 49.0726 3.85262 49.394 3.64308C49.7153 3.43355 50.0834 3.30644 50.4657 3.27301C50.8479 3.23957 51.2325 3.30085 51.5854 3.45141C51.9404 3.60276 52.288 3.77149 52.6381 3.93029L58.2489 6.46363L66.9011 10.3766L76.6209 14.7708L85.504 18.788L91.6263 21.5545L93.034 22.1922L93.2177 22.2741C93.6628 22.4654 94.04 22.7862 94.3001 23.1946C94.6259 23.7232 94.7291 24.3592 94.5872 24.9635C94.4453 25.5679 94.0699 26.0916 93.5429 26.4203L93.3319 26.5493L91.9912 27.3706L86.3729 30.822L78.2048 35.8341L69.0636 41.4367L60.6522 46.5828L54.6192 50.2823L53.0129 51.2748C52.5562 51.603 52.0349 51.8305 51.4836 51.9423C51.0098 51.9991 50.5294 51.936 50.0864 51.7587C49.6435 51.5813 49.2522 51.2955 48.9488 50.9275C48.5488 50.4241 48.3341 49.7986 48.3405 49.1559C48.3405 48.7837 48.3405 48.4115 48.3405 48.0393V5.57039C48.3356 4.77143 47.0942 4.77143 47.0942 5.57039Z" fill="#F26522"/>
<path d="M47.3375 6.51823C48.1966 6.51823 49.0581 6.63237 49.9096 6.47108C50.2715 6.36554 50.6244 6.23112 50.9648 6.06912C51.0666 6.0201 51.1815 6.0053 51.2925 6.02694C51.3163 6.03407 51.3384 6.04615 51.3572 6.0624C51.376 6.07865 51.3912 6.0987 51.4017 6.12123C51.4808 6.27417 51.5003 6.45101 51.4563 6.61748C51.4076 6.82747 51.2989 7.01882 51.1435 7.16831C50.6693 7.70674 50.1082 8.24269 50.1182 9.01436C50.1196 9.12292 50.1493 9.22923 50.2044 9.32283C50.2594 9.41643 50.3379 9.4941 50.4321 9.54818C50.5263 9.60226 50.633 9.6309 50.7416 9.63127C50.8502 9.63164 50.9571 9.60374 51.0517 9.55031C51.362 9.38654 51.6773 9.23767 51.9951 9.09128C52.5363 8.84315 52.8988 8.68435 53.44 8.47841C53.9431 8.27448 54.4632 8.11507 54.9942 8.00201C55.0289 8.00201 55.2424 7.96479 55.0736 7.98464H55.2077C55.302 7.98464 55.3939 7.98464 55.4857 7.98464C55.3244 7.98464 55.3939 7.96479 55.4535 7.98464C55.6074 8.03427 55.3591 7.92509 55.4535 7.98464C55.401 7.93439 55.3574 7.87568 55.3244 7.81095V7.45862C55.1917 7.69986 55.0068 7.90841 54.7831 8.069C54.5175 8.30472 54.2593 8.55285 53.9837 8.77616C53.4028 9.24511 52.7424 9.62722 52.1341 10.0441C51.5362 10.4331 50.9862 10.8911 50.4955 11.4088C50.1033 11.838 49.5943 12.2921 49.5844 12.9174C49.5863 13.0813 49.6523 13.2379 49.7683 13.3538C49.8843 13.4698 50.041 13.5357 50.2051 13.5377C50.9846 13.5377 51.6227 13.2523 52.2831 12.8702C53.0386 12.45 53.8188 12.0755 54.6193 11.7487C55.1481 11.5229 55.6347 11.2375 56.1437 10.9696C56.382 10.8377 56.6311 10.7264 56.8885 10.6371C56.958 10.6148 57.03 10.5949 57.0995 10.5775C57.0995 10.5775 57.3006 10.5478 57.2062 10.5552C57.269 10.549 57.3322 10.549 57.3949 10.5552C57.2882 10.5552 57.4272 10.5701 57.4595 10.58L57.0027 10.1483C57.0179 10.1808 57.0296 10.2149 57.0374 10.25C57.0374 10.1756 57.025 10.1731 57.0374 10.25C57.0747 10.0838 56.9853 10.3642 57.0126 10.3021C56.9494 10.4208 56.8772 10.5344 56.7966 10.6421C56.582 10.9025 56.3532 11.151 56.1114 11.3864C55.4559 12.0787 54.8874 12.828 54.1575 13.4533C53.3755 14.1282 52.5636 14.7435 51.8411 15.4879C51.2329 16.1157 50.5005 16.7633 50.2646 17.6392C50.1331 18.1354 50.714 18.6515 51.1758 18.3413C52.0646 17.7458 52.941 17.1355 53.8472 16.5697C54.798 15.9718 55.7837 15.4259 56.7569 14.8651C57.7301 14.3044 58.7157 13.7883 59.7038 13.2622C60.6919 12.7362 61.7074 12.1655 62.7178 11.637C63.264 11.3517 63.8102 11.0713 64.3514 10.781C64.6195 10.6401 64.8789 10.4835 65.1285 10.312C65.3202 10.1711 65.5436 10.0791 65.779 10.0441L65.3395 8.98706C64.3862 9.91505 63.197 10.5899 62.1394 11.3939C60.9874 12.2697 59.8602 13.1779 58.6934 14.0339C57.5265 14.8899 56.3572 15.7038 55.2226 16.5921C54.088 17.4804 53.0453 18.3612 51.9827 19.2817C50.7537 20.3412 49.5397 21.4206 48.3157 22.49C47.8192 22.9267 48.3604 23.6438 48.919 23.5271C49.2176 23.464 49.4983 23.3352 49.7408 23.15C49.9919 22.954 50.2575 22.7774 50.5353 22.6215C51.0784 22.3161 51.6407 22.0459 52.2185 21.8126C53.4872 21.3164 54.7459 20.768 55.9922 20.2072C58.4749 19.0857 60.8682 17.726 63.3435 16.5722C64.6345 15.9668 65.8262 15.1529 67.1767 14.6691L66.4121 13.9074C66.3848 13.9942 66.4121 13.7858 66.4121 13.8801C66.4121 13.8801 66.3674 13.9471 66.3699 13.9471C66.2755 14.0538 66.4344 13.8726 66.3699 13.9471C66.3426 13.9793 66.3152 14.0116 66.2855 14.0414C66.1452 14.1877 65.9969 14.3261 65.8411 14.4557C65.5133 14.7336 65.2402 14.9346 64.8703 15.2001C64.0246 15.8202 63.2109 16.4827 62.4323 17.1851C60.0373 19.2826 57.7061 21.4495 55.4386 23.6859C54.942 24.1673 54.4629 24.6338 53.949 25.0878C53.4996 25.4848 52.9559 26.0034 52.9782 26.651C52.9804 26.7593 53.0105 26.8652 53.0658 26.9583C53.121 27.0515 53.1994 27.1288 53.2933 27.1828C53.3873 27.2367 53.4936 27.2655 53.602 27.2662C53.7103 27.2669 53.817 27.2396 53.9117 27.187C55.3765 26.5195 56.6725 25.5096 57.9982 24.6114C59.4134 23.6504 60.8252 22.6877 62.2337 21.7233C63.6315 20.763 65.0044 19.7631 66.4543 18.8624C67.7751 18.0386 69.1406 17.2918 70.4936 16.5226C72.0493 15.67 73.5471 14.716 74.9774 13.6667L74.2326 12.694C71.6878 14.8304 69.0412 16.8427 66.4121 18.8723C63.7829 20.902 61.181 22.9837 58.6636 25.1672C57.1839 26.4476 55.715 27.7395 54.2568 29.0429L55.1357 29.9188C55.2146 29.8423 55.2712 29.7457 55.2992 29.6395C55.3272 29.5332 55.3256 29.4213 55.2946 29.3159V29.3159C55.158 28.966 54.7459 28.7055 54.3834 28.9462C53.877 29.3105 53.3997 29.7137 52.9559 30.1521C52.657 30.4206 52.3766 30.7091 52.1167 31.0155C51.8983 31.2835 51.6202 31.6284 51.65 32.008C51.6533 32.1161 51.6843 32.2215 51.74 32.3142C51.7957 32.4069 51.8742 32.4838 51.968 32.5375C52.0619 32.5913 52.168 32.6201 52.2762 32.6212C52.3843 32.6223 52.491 32.5957 52.586 32.544C58.8498 29.6707 64.8529 26.2813 70.9256 23.0359C71.7797 22.5793 72.6635 22.1625 73.5026 21.6637C73.875 21.4429 74.2028 21.1675 74.5901 20.964C74.9644 20.7711 75.3591 20.6205 75.7669 20.5149L75.1636 19.4778C69.8804 23.676 64.1454 27.2589 58.6959 31.2314C57.1293 32.3703 55.5751 33.5216 53.9912 34.6381C53.3481 35.0897 53.9117 36.1095 54.6193 35.7076C58.3119 33.615 61.9755 31.4729 65.6102 29.2811C69.1356 27.1597 72.6809 25.063 76.1343 22.8125C78.0452 21.5927 79.8777 20.2544 81.6211 18.8053C82.0928 18.4059 81.5888 17.5647 81.0153 17.7682C80.0278 18.1006 79.0789 18.5382 78.185 19.0733C77.7332 19.3462 77.321 19.6738 76.8816 19.9666C76.4049 20.2866 75.8885 20.5571 75.392 20.8499L69.2498 24.4675C65.2229 26.852 61.2009 29.2464 57.2162 31.7053C54.9685 33.0931 52.725 34.4868 50.4856 35.8862C50.3579 35.9638 50.2625 36.0848 50.2169 36.227C50.1713 36.3692 50.1785 36.5231 50.2373 36.6603C50.2981 36.7964 50.4047 36.9068 50.5384 36.9726C50.6722 37.0383 50.8248 37.0551 50.9697 37.0201C51.1456 36.9679 51.3129 36.8901 51.4663 36.7894C51.7294 36.6504 51.9901 36.5065 52.2508 36.3626C52.7821 36.0673 53.3084 35.7696 53.8372 35.4718C55.8234 34.3404 57.8666 33.2586 59.8876 32.1693C64.5848 29.6384 69.3218 27.1746 74.019 24.6611C74.7788 24.2541 75.5211 23.8373 76.2659 23.4204C76.601 23.2269 76.9387 23.0433 77.2888 22.882L77.398 22.8324C77.2838 22.8795 77.4476 22.815 77.4576 22.8101C77.5271 22.7852 77.5966 22.7654 77.6661 22.7431C77.688 22.7387 77.7096 22.7329 77.7307 22.7257C77.8399 22.681 77.614 22.7257 77.7158 22.7257C77.8176 22.7257 77.7505 22.7431 77.6388 22.7083C77.7356 22.7381 77.4998 22.6289 77.5767 22.686L77.4526 21.7109C75.6378 23.4056 73.5895 24.8075 71.5513 26.2143C69.513 27.6212 67.4424 29.0851 65.4264 30.5714C64.2422 31.4473 63.0778 32.3504 61.9705 33.3231C61.6006 33.6456 61.829 34.2238 62.2436 34.3578C63.6414 34.8118 64.987 34.2932 65.9925 33.2834C66.2824 33.0325 66.6068 32.8245 66.9558 32.6655L68.1326 32.0179C68.8824 31.6061 69.6272 31.1925 70.367 30.7773C73.3586 29.0901 76.3131 27.3358 79.3047 25.6362C80.9863 24.6817 82.6671 23.7273 84.347 22.7728L83.7214 21.7034C80.0694 23.9614 76.5092 26.3632 72.9738 28.7973C69.3963 31.2612 65.8162 33.725 62.2585 36.2212C61.2828 36.906 60.3171 37.6107 59.3314 38.2856C58.4426 38.8935 57.529 39.5014 56.8239 40.3301C56.7322 40.4283 56.6745 40.5535 56.6595 40.6871C56.6445 40.8206 56.673 40.9555 56.7407 41.0716C56.8084 41.1877 56.9118 41.2789 57.0354 41.3317C57.1591 41.3845 57.2964 41.3961 57.4272 41.3648C59.0285 41.1315 60.4635 40.1639 61.8464 39.3798C63.336 38.5312 64.8256 37.6429 66.3004 36.7422C69.2647 34.9309 72.2365 33.137 75.238 31.3852C76.9188 30.3927 78.617 29.4474 80.3623 28.5889L79.7367 27.517C76.2833 29.6781 72.8596 31.8889 69.4012 34.0402C67.6882 35.1046 65.9652 36.1542 64.2248 37.174C62.4845 38.1938 60.7739 39.1118 59.1055 40.1713C58.1795 40.7569 57.3056 41.397 56.4366 42.0645C55.6794 42.6426 54.8378 43.1513 54.2469 43.9155C54.1455 44.0226 54.0856 44.1622 54.0779 44.3094C54.0702 44.4566 54.1152 44.6017 54.2049 44.7188C54.2945 44.8359 54.4229 44.9172 54.5671 44.9482C54.7113 44.9792 54.8618 44.958 54.9917 44.8881C57.2981 43.6649 59.3761 42.0595 61.3871 40.407C63.4842 38.685 65.5646 36.9391 67.6286 35.1691C69.796 33.3156 71.9485 31.4473 74.1035 29.5714C76.1542 27.7949 78.1701 25.9712 80.2605 24.2417C81.2884 23.3931 82.3733 22.6488 83.4433 21.8597C83.8415 21.5478 84.2559 21.2571 84.6847 20.9888C84.8673 20.8732 85.0632 20.7799 85.2681 20.7109L85.3947 20.6762C85.504 20.6489 85.3799 20.6762 85.4394 20.6762C85.499 20.6762 85.5363 20.6762 85.5809 20.6762C85.4692 20.6886 85.6281 20.7084 85.5238 20.6613L85.3029 19.8127C84.0168 21.7531 82.125 23.2641 80.3152 24.6933C78.2595 26.3161 76.2137 27.9512 74.1531 29.569C72.167 31.1321 70.1361 32.6432 68.0606 34.1022C66.0744 35.5066 64.0883 36.9159 61.9606 38.1193C60.8071 38.7818 59.6083 39.3622 58.3731 39.8562C57.0672 40.3698 55.7191 40.7867 54.4678 41.4367C54.0185 41.6725 54.0905 42.4764 54.6168 42.5707C55.1798 42.6748 55.7596 42.6409 56.3066 42.472C56.8536 42.303 57.3514 42.004 57.7574 41.6005C57.9524 41.3967 58.1717 41.2175 58.4104 41.067L59.3513 40.5112L61.1786 39.4319C63.5917 38.006 66.0173 36.6 68.4553 35.2138C70.8933 33.8276 73.3471 32.4704 75.8165 31.1421C78.262 29.832 80.7198 28.5492 83.1256 27.1721C84.4315 26.4277 85.7076 25.6064 87.0209 24.8645C88.1679 24.2194 89.4415 23.815 90.4371 22.9192C91.0305 22.3858 90.1516 21.5099 89.5582 22.0434C88.7439 22.7877 87.6515 23.1351 86.6932 23.6338C85.5387 24.2318 84.4439 24.9663 83.3217 25.6188C80.9805 26.986 78.6046 28.2638 76.2038 29.5342C71.3775 32.0998 66.6206 34.7994 61.9085 37.5685C60.5844 38.3476 59.2603 39.1292 57.9362 39.9133C57.6008 40.0944 57.2924 40.3216 57.02 40.5882C56.8238 40.7971 56.6 40.9782 56.3547 41.1266C55.9286 41.3753 55.4275 41.4633 54.942 41.3747L55.091 42.5086C56.1933 41.933 57.38 41.5608 58.5395 41.1142C59.6737 40.6747 60.779 40.1642 61.8489 39.5857C64.0188 38.4245 66.0347 37.0176 68.0556 35.6157C72.3457 32.6184 76.4173 29.3432 80.5212 26.1002C82.6489 24.4204 84.8634 22.7207 86.3754 20.4355C86.4586 20.2937 86.4821 20.1246 86.4407 19.9655C86.3992 19.8064 86.2963 19.6702 86.1544 19.5869C85.2309 19.1676 84.2775 19.7482 83.5253 20.2717C82.6514 20.8797 81.775 21.495 80.9284 22.1401C78.761 23.7877 76.7575 25.6387 74.7018 27.4177C70.3422 31.1669 65.99 34.9359 61.5708 38.6305C59.2992 40.5286 56.9828 42.4094 54.3586 43.8038L55.1034 44.7765C55.5999 44.1289 56.2926 43.6798 56.9406 43.1959C57.6978 42.6302 58.4302 42.0546 59.2321 41.536C60.8608 40.4666 62.5788 39.551 64.2621 38.5585C67.7502 36.5313 71.164 34.3801 74.5677 32.2189C76.4918 30.9982 78.4109 29.7749 80.3425 28.569C81.0252 28.1398 80.4294 27.1448 79.7168 27.4971C76.6135 29.0231 73.674 30.8468 70.6972 32.5986C67.7205 34.3503 64.8852 36.174 61.9283 37.8762C61.1289 38.336 60.3253 38.7868 59.5176 39.2284C58.7679 39.6784 57.9427 39.9887 57.0821 40.144L57.6854 41.1812C58.2995 40.5114 59.0009 39.9272 59.7709 39.4443C60.6274 38.8587 61.469 38.2483 62.3181 37.6504C64.1057 36.3932 65.8998 35.146 67.7006 33.9087C71.2161 31.482 74.7167 29.0305 78.2694 26.656C80.2556 25.3211 82.2864 24.0085 84.3321 22.7431C85.0099 22.3237 84.4041 21.2767 83.7065 21.6736C80.7769 23.341 77.825 24.9737 74.9203 26.6858C72.0768 28.3614 69.2092 29.9908 66.3177 31.5738C65.9011 31.7605 65.5165 32.0117 65.1782 32.3182C64.917 32.602 64.6129 32.8431 64.277 33.0328C64.0155 33.1723 63.7276 33.2551 63.4319 33.2756C63.1363 33.2961 62.8396 33.254 62.5614 33.1519L62.837 34.189C64.7611 32.4993 66.8614 31.0304 68.9444 29.5491C70.9579 28.1174 73.0111 26.7403 75.0022 25.2814C76.1621 24.4473 77.2714 23.545 78.324 22.5793C78.3896 22.5114 78.4391 22.4297 78.4688 22.3402C78.4986 22.2506 78.5079 22.1556 78.496 22.062C78.484 21.9684 78.4513 21.8787 78.4 21.7994C78.3488 21.7202 78.2804 21.6535 78.1999 21.6042C77.6686 21.2072 76.7649 21.7332 76.2857 21.9813C75.8066 22.2294 75.3324 22.5297 74.8532 22.8051C72.5592 24.1152 70.1783 25.2863 67.8396 26.527C63.0133 29.0752 58.1795 31.6135 53.4177 34.2784L52.005 35.0724C51.6773 35.256 51.3496 35.4396 51.0119 35.6182L50.6768 35.7944C50.6342 35.8126 50.5927 35.8333 50.5526 35.8564C50.4806 35.9036 50.7239 35.8068 50.6296 35.8192L51.1063 36.9531C55.0513 34.4967 58.9963 32.0378 62.9735 29.636C66.9508 27.2341 71.015 24.8596 75.0369 22.4776L76.7401 21.4677C77.2763 21.1501 77.7704 20.7953 78.2868 20.4529C79.2303 19.8276 80.2509 19.3272 81.3231 18.9641L80.7198 17.927C77.7083 20.4603 74.3219 22.4949 70.9678 24.5469C67.3778 26.7453 63.768 28.9313 60.1482 31.0627C58.1008 32.2652 56.0427 33.4538 53.9738 34.6282L54.6019 35.6976C57.4272 33.7126 60.1805 31.6234 63.0182 29.6533C65.8013 27.7204 68.6142 25.8297 71.3651 23.8522C72.944 22.7183 74.5032 21.5546 76.0251 20.3437C76.5216 19.9417 75.9779 19.1577 75.4218 19.309C74.65 19.5131 73.9192 19.8488 73.2618 20.3015C73.1079 20.4082 72.9639 20.5248 72.805 20.6166C72.6461 20.7084 72.4475 20.8077 72.2687 20.902L71.0274 21.557C69.4699 22.3841 67.9174 23.2203 66.3699 24.0656C63.3435 25.7106 60.3096 27.3458 57.236 28.904C55.4857 29.7898 53.7205 30.6409 51.9355 31.4671L52.8814 32.008C52.8814 31.8815 52.8591 32.1817 52.8814 32.0304C52.8591 32.1569 52.8491 32.1023 52.9087 32.008C52.936 31.9658 53.0378 31.8319 52.9534 31.9385C53.0006 31.879 53.0502 31.8194 53.0999 31.7624C53.3562 31.478 53.6281 31.208 53.9142 30.9535C54.1749 30.7054 54.4405 30.487 54.7087 30.2612L54.9793 30.0379C55.0115 30.0131 55.0438 29.9908 55.0736 29.9635C55.1034 29.9362 54.9271 30.0702 54.9967 30.023L54.0855 29.6533L54.2444 29.0504C53.6634 29.6037 54.5299 30.4572 55.1233 29.9263C57.6705 27.641 60.2401 25.3657 62.8966 23.2071C65.4538 21.1253 68.0904 19.1428 70.6947 17.1181C72.1843 15.9618 73.6566 14.7882 75.099 13.5774C75.6328 13.1307 74.9103 12.1779 74.3542 12.6047C71.8243 14.4979 68.9742 15.88 66.2879 17.5002C64.8529 18.3736 63.4924 19.3562 62.1096 20.3065C60.7267 21.2568 59.2892 22.2369 57.889 23.1971C56.3994 24.207 54.942 25.3657 53.2985 26.1176L54.232 26.651C54.232 26.5146 54.1774 26.7379 54.232 26.6014C54.2171 26.6312 54.1873 26.6858 54.2494 26.5791C54.2953 26.4981 54.3521 26.4238 54.4182 26.3582C54.6048 26.1638 54.8021 25.9799 55.0091 25.8074C55.4833 25.403 55.9177 24.9588 56.3621 24.5196C57.4992 23.4014 58.6578 22.3006 59.8379 21.2171C60.9924 20.1551 62.1493 19.0932 63.3311 18.061C63.6315 17.7955 63.9368 17.53 64.2422 17.2694L64.6096 16.9568L64.8877 16.7236L64.9796 16.6467C65.1111 16.54 65.1037 16.5424 64.9622 16.6467C64.9994 16.6467 65.126 16.5325 65.1558 16.5127C65.2998 16.4109 65.4463 16.3117 65.5903 16.2075C66.0074 15.9072 66.4245 15.5971 66.8143 15.2596C67.1709 14.994 67.4496 14.6375 67.6211 14.2274C67.6497 14.1219 67.6499 14.0106 67.6218 13.9049C67.5937 13.7992 67.5382 13.7028 67.4609 13.6253C67.3837 13.5478 67.2874 13.4921 67.1817 13.4636C67.076 13.4352 66.9647 13.435 66.859 13.4632C65.635 13.9049 64.5252 14.5723 63.3832 15.1703C62.1865 15.7931 60.9477 16.339 59.7436 16.9543C58.5395 17.5697 57.3229 18.2272 56.0841 18.8078C54.8452 19.3884 53.6312 19.8921 52.3923 20.4132C51.7145 20.6985 51.0343 20.9615 50.3788 21.3015C50.0462 21.4727 49.711 21.6513 49.3858 21.8523C49.0605 22.0533 48.9414 22.2493 48.6012 22.3188L49.207 23.3559C51.357 21.4801 53.4772 19.5671 55.7067 17.7831C56.8041 16.9047 57.9411 16.0909 59.0832 15.2646C60.2252 14.4384 61.3573 13.5277 62.4894 12.6667C63.1175 12.1854 63.7506 11.7164 64.4036 11.2698C65.0486 10.8492 65.6566 10.3744 66.2209 9.85054C66.5759 9.50564 66.3351 8.72653 65.7815 8.79105C65.2512 8.8516 64.7462 9.05009 64.3167 9.36669C63.8327 9.66688 63.3302 9.93622 62.8122 10.1731C61.7843 10.7115 60.7664 11.2624 59.746 11.8132C57.7127 12.9099 55.6744 13.9942 53.6908 15.1852C52.6108 15.8353 51.578 16.5573 50.5303 17.2595L51.4414 17.9592C51.5879 17.4183 52.0845 16.9816 52.4643 16.5945C52.962 16.0808 53.4866 15.5938 54.0358 15.1356C54.6429 14.6603 55.2231 14.1517 55.7737 13.6121C56.2231 13.1481 56.6104 12.6345 57.0573 12.1705C57.4601 11.8073 57.8051 11.3848 58.0802 10.9175C58.3632 10.3443 58.3781 9.4982 57.596 9.34932C56.4689 9.13594 55.4063 10.0093 54.4554 10.4758C53.7106 10.843 52.9236 11.1209 52.1862 11.5105C51.5383 11.8504 50.9623 12.3144 50.2001 12.3045L50.8208 12.9248C50.8208 13.0513 50.853 12.9025 50.8208 12.9422C50.8506 12.9 50.8729 12.8528 50.9027 12.8107C50.9703 12.7235 51.0432 12.6406 51.1212 12.5625C51.3198 12.3467 51.5184 12.1209 51.7319 11.9174C52.2507 11.4644 52.8081 11.0576 53.3978 10.7016C54.0621 10.2831 54.6922 9.81265 55.2822 9.29474C55.7365 8.87789 56.3572 8.43623 56.5235 7.80599C56.6427 7.33704 56.2479 6.92515 55.8259 6.80109C55.4812 6.72173 55.1229 6.72173 54.7782 6.80109C53.9794 6.96423 53.2021 7.219 52.4618 7.56035C51.7766 7.84569 51.0939 8.14592 50.4384 8.49082L51.3719 9.02676C51.3719 8.79353 51.5879 8.55037 51.7741 8.34442C52.0394 8.08563 52.2712 7.79473 52.4643 7.47847C52.7995 6.82838 52.8392 5.96243 52.3774 5.36197C52.2485 5.19505 52.0855 5.05741 51.8993 4.95817C51.7131 4.85893 51.508 4.80035 51.2974 4.78632C50.8307 4.75903 50.421 4.97738 50.0089 5.15851C49.2045 5.50836 48.1941 5.29498 47.345 5.29001C46.5456 5.29001 46.5456 6.53063 47.345 6.53063L47.3375 6.51823Z" fill="#F26522"/>
<path d="M54.7384 42.5558C54.156 42.9278 53.6294 43.3806 53.1743 43.9006C52.8193 44.3323 52.3203 44.9526 52.5114 45.5556C52.6852 46.1064 53.2786 46.2206 53.7851 46.2255C54.3955 46.2334 55.0058 46.2027 55.6123 46.1337C58.4277 45.7789 60.9625 44.4341 63.5023 43.258C64.8802 42.6178 66.2854 42.0446 67.6683 41.4218C69.0511 40.799 70.4737 40.1142 71.8889 39.4989C74.6372 38.3054 77.3806 37.102 80.0817 35.777C81.5384 35.0855 82.938 34.2798 84.2676 33.3677C84.9172 32.8726 85.5971 32.4185 86.3034 32.008C86.924 31.6805 87.6341 31.5539 88.2101 31.1371C88.3255 31.0655 88.4153 30.9593 88.4666 30.8336C88.5179 30.7079 88.5281 30.5692 88.4956 30.4374C87.9593 28.5814 85.1911 29.8419 84.1037 30.3257C82.5419 31.0337 81.0506 31.8878 79.6498 32.8764C78.2321 33.8689 76.8418 34.8912 75.4292 35.8738C74.0165 36.8564 72.5815 37.7446 71.1019 38.6031C68.0208 40.3797 64.8703 42.0273 61.6676 43.5929C60.7863 44.0247 59.9074 44.4713 59.0037 44.8534C58.1 45.2355 57.231 45.5506 56.3497 45.9129C55.4683 46.2751 54.5497 46.7317 53.651 47.1535C53.2488 47.3421 52.8168 47.5505 52.437 47.6994C52.0075 47.8706 51.6574 48.079 51.5035 48.543C51.4755 48.6488 51.4758 48.76 51.5043 48.8656C51.5328 48.9712 51.5886 49.0675 51.666 49.1448C51.7434 49.2222 51.8397 49.2779 51.9454 49.3064C52.051 49.3349 52.1623 49.3352 52.2681 49.3072C53.44 48.8929 54.4182 48.151 55.4634 47.5009C56.5905 46.8012 57.7251 46.1114 58.8498 45.4042C61.1016 43.9825 63.3335 42.5309 65.5754 41.0968C67.8172 39.6626 69.8953 38.1044 72.1545 36.767C74.4138 35.4296 76.7822 34.2858 79.039 32.931C80.2387 32.1928 81.3958 31.3876 82.5049 30.5193C83.0233 30.1121 83.57 29.7423 84.141 29.4126C84.7052 29.1368 85.1885 28.7196 85.5437 28.2018C85.9707 27.5244 84.8957 26.9016 84.4711 27.5765C84.2229 27.9785 83.7959 28.1819 83.3937 28.4077C82.8965 28.6983 82.4203 29.0233 81.9686 29.3804C80.9755 30.1247 80.0247 30.8691 78.9745 31.5192C76.7674 32.8764 74.4535 34.0451 72.1942 35.3105C69.935 36.576 67.9017 38.1069 65.7566 39.5038C63.5594 40.9305 61.3474 42.3324 59.1427 43.7468C57.9014 44.5408 56.66 45.3124 55.3988 46.0841C54.2791 46.7739 53.1917 47.6646 51.9404 48.1063L52.7026 48.8705C52.6505 49.0268 52.5884 48.9524 52.7026 48.9301C52.6505 48.9301 52.8193 48.8755 52.8119 48.8804C52.9782 48.806 53.152 48.744 53.3084 48.6695C53.7023 48.4909 54.0962 48.3081 54.4902 48.1212C55.2151 47.7763 55.9326 47.4116 56.6774 47.1064C58.2415 46.4637 59.8081 45.8657 61.33 45.1214C64.3886 43.6326 67.4126 42.0893 70.3769 40.4269C71.8417 39.6031 73.304 38.7669 74.7067 37.8439C76.1094 36.9209 77.4228 35.9656 78.7634 35.0078C80.283 33.8721 81.8846 32.8504 83.555 31.9509C84.389 31.493 85.2696 31.1253 86.1817 30.8542C86.3787 30.7993 86.5784 30.7546 86.7801 30.7202C86.8769 30.7054 86.6261 30.7202 86.7801 30.7202H86.9315C87.0134 30.7202 87.0929 30.7202 87.1798 30.7202C87.2667 30.7202 87.2989 30.7575 87.145 30.7202C87.1823 30.7352 87.2216 30.7444 87.2617 30.7475C87.284 30.7475 87.3188 30.7674 87.3387 30.7723C87.1823 30.7376 87.2567 30.7326 87.3163 30.7723C87.3759 30.812 87.4206 30.8493 87.2741 30.7376C87.2965 30.755 87.3734 30.8542 87.3064 30.7599C87.2394 30.6657 87.3064 30.7599 87.3064 30.7748C87.3536 30.8617 87.2567 30.616 87.3064 30.7748L87.5919 30.0726C87.1078 30.4225 86.5219 30.5689 85.9806 30.817C85.3995 31.0987 84.8481 31.4379 84.3346 31.8294C83.223 32.6286 82.0621 33.357 80.8588 34.0104C79.6671 34.6456 78.4382 35.2138 77.2118 35.782C75.9083 36.3874 74.6099 36.9978 73.2891 37.5685C70.6326 38.7074 68.0258 39.948 65.3668 41.0918C64.1031 41.6427 62.8469 42.196 61.6031 42.784C60.4458 43.3548 59.2562 43.8577 58.0404 44.2901C57.3486 44.5276 56.6398 44.7126 55.9202 44.8435C55.2823 44.9369 54.6383 44.9833 53.9936 44.9824C53.8794 44.9824 53.7652 44.9824 53.651 44.9824C53.6088 44.9849 53.5666 44.9849 53.5244 44.9824C53.6535 44.9998 53.4847 44.97 53.4723 44.9601C53.512 44.9899 53.5542 44.9948 53.5939 45.0296C53.631 45.0585 53.6599 45.0966 53.6777 45.1401C53.6956 45.1836 53.7018 45.231 53.6957 45.2777C53.6957 45.3869 53.6957 45.3968 53.7131 45.3075C53.7602 45.2653 53.8471 45.0593 53.9092 44.9775C54.3042 44.4392 54.7989 43.9818 55.3665 43.6301C56.022 43.1835 55.4038 42.1091 54.7384 42.5582V42.5558Z" fill="#F26522"/>
<path d="M86.6956 4.89054V45.3348C86.6956 46.4414 86.6485 47.5679 86.6956 48.6646C86.7289 49.2589 86.8924 49.8386 87.1747 50.3627C87.4569 50.8868 87.851 51.3425 88.329 51.6976C88.8069 52.0527 89.3571 52.2984 89.9407 52.4175C90.5242 52.5365 91.1267 52.5259 91.7057 52.3865C92.2652 52.2148 92.7951 51.9587 93.2773 51.6272L97.6741 48.935L105.306 44.2554L114.452 38.6602L123.358 33.2015L130.341 28.9238C131.459 28.239 132.576 27.5542 133.693 26.8694C134.282 26.5352 134.764 26.0412 135.083 25.4446C135.403 24.848 135.547 24.1731 135.499 23.4982C135.45 22.8232 135.212 22.1757 134.81 21.6306C134.409 21.0855 133.862 20.6652 133.231 20.4181L129.045 18.5349L121.061 14.9247L111.312 10.5155L101.848 6.23785L94.6651 2.98991C93.7018 2.55569 92.741 2.11155 91.7728 1.68477C91.2314 1.42704 90.6336 1.31054 90.035 1.34614C89.4364 1.38175 88.8566 1.5683 88.3496 1.88839C87.8427 2.20848 87.4251 2.65168 87.1359 3.17665C86.8467 3.70162 86.6952 4.29125 86.6956 4.89054C86.6956 5.6895 87.937 5.6895 87.937 4.89054C87.9417 4.50729 88.0408 4.13111 88.2256 3.79527C88.4104 3.45943 88.6751 3.17427 88.9964 2.96502C89.3177 2.75577 89.6857 2.62888 90.0677 2.59557C90.4498 2.56226 90.8341 2.62356 91.1868 2.77404C91.5419 2.92291 91.8894 3.09164 92.242 3.25044L97.8504 5.78627L106.508 9.6967L116.225 14.0935L125.105 18.1131L131.228 20.8797L132.635 21.5173L132.824 21.5868C133.269 21.7803 133.646 22.1005 133.909 22.5074C134.233 23.0366 134.335 23.6723 134.193 24.2763C134.051 24.8803 133.676 25.4038 133.149 25.733L132.938 25.862L131.6 26.6833L125.979 30.1272L117.801 35.1393L108.67 40.7345L100.256 45.903L94.2182 49.6025L92.6094 50.595C92.1536 50.9248 91.632 51.1525 91.0801 51.2625C90.6063 51.3195 90.1258 51.2565 89.6828 51.0791C89.2398 50.9018 88.8486 50.6158 88.5453 50.2476C88.1449 49.7444 87.9302 49.1188 87.937 48.476C87.937 48.1038 87.937 47.7316 87.937 47.3595V4.89054C87.937 4.09406 86.6956 4.09158 86.6956 4.89054Z" fill="#43A6D3"/>
<path d="M86.939 5.83837C87.798 5.83837 88.6595 5.95251 89.5135 5.79123C89.8745 5.68524 90.2265 5.55083 90.5662 5.38926C90.6677 5.33907 90.7833 5.32506 90.8939 5.34956C90.9176 5.35677 90.9397 5.36859 90.9589 5.38434C90.9781 5.4001 90.9939 5.41948 91.0056 5.44137C91.0825 5.59503 91.1011 5.77135 91.0577 5.93762C91.0117 6.14971 90.9047 6.34374 90.7499 6.4959C90.2757 7.03433 89.7146 7.57028 89.7245 8.34442C89.7271 8.45249 89.7576 8.55805 89.813 8.65089C89.8684 8.74374 89.9468 8.82071 90.0407 8.87437C90.1346 8.92803 90.2408 8.95654 90.3489 8.95716C90.4571 8.95778 90.5635 8.93047 90.658 8.87789C90.9684 8.71661 91.2862 8.56525 91.6015 8.41886C92.1452 8.17074 92.5052 8.01194 93.0489 7.80599C93.5522 7.6028 94.0722 7.44341 94.603 7.3296C94.6353 7.3296 94.8513 7.29238 94.68 7.31223L94.8141 7.29982C94.9084 7.29982 95.0003 7.29982 95.0946 7.29982C94.9332 7.29982 95.0027 7.27997 95.0623 7.29982C95.2138 7.34945 94.9655 7.24027 95.0623 7.29982C95.0106 7.2495 94.9678 7.19077 94.9357 7.12613V6.77876C94.8015 7.0203 94.6159 7.2295 94.392 7.39163C94.1264 7.62734 93.8706 7.87299 93.5926 8.0963C93.0116 8.56525 92.3512 8.94736 91.7455 9.36669C91.1467 9.75355 90.5965 10.2109 90.1069 10.7289C89.7146 11.1582 89.2032 11.6122 89.1933 12.24C89.1958 12.4037 89.262 12.56 89.3779 12.6758C89.4937 12.7915 89.6501 12.8577 89.8139 12.8603C90.5935 12.8603 91.2315 12.5725 91.8919 12.1928C92.6443 11.7713 93.4221 11.3968 94.2207 11.0713C94.7495 10.8455 95.2361 10.5577 95.7451 10.2897C95.9829 10.1576 96.2322 10.0471 96.4899 9.95971C96.5599 9.93529 96.6312 9.91458 96.7034 9.89768C96.7034 9.89768 96.902 9.8679 96.8077 9.87535C96.8704 9.86915 96.9336 9.86915 96.9964 9.87535C96.8896 9.87535 97.0286 9.89024 97.0609 9.90264L96.6264 9.46843C96.6417 9.50098 96.6533 9.53509 96.6612 9.57016C96.6612 9.49572 96.6488 9.49572 96.6612 9.57016C96.6984 9.40391 96.6115 9.68181 96.6364 9.61978C96.5727 9.73894 96.5005 9.85338 96.4204 9.96219C96.206 10.2221 95.9781 10.4705 95.7376 10.7066C95.0797 11.3988 94.5112 12.1482 93.7837 12.7759C92.9992 13.4483 92.1874 14.0637 91.4674 14.8081C90.8567 15.4358 90.1243 16.0859 89.8909 16.9593C89.7568 17.4555 90.3378 17.9716 90.802 17.6615C91.6884 17.066 92.5672 16.4556 93.4709 15.8899C94.4218 15.2919 95.4074 14.746 96.3806 14.1853C97.3539 13.6245 98.3147 13.1059 99.3077 12.5824C100.301 12.0588 101.309 11.4832 102.322 10.9547C102.865 10.6693 103.412 10.389 103.953 10.0987C104.221 9.95776 104.48 9.80117 104.73 9.62971C104.921 9.48843 105.145 9.39717 105.38 9.36421L104.943 8.30472C103.99 9.23271 102.798 9.9076 101.743 10.7115C100.591 11.5874 99.4617 12.4955 98.2948 13.3516C97.1279 14.2076 95.9636 15.0239 94.8339 15.9147C93.7043 16.8055 92.6591 17.6863 91.6064 18.6019C90.3651 19.6638 89.161 20.7432 87.937 21.8101C87.4405 22.2468 87.9817 22.9639 88.5428 22.8473C88.8409 22.7852 89.1211 22.6562 89.3621 22.4701C89.6142 22.2756 89.8796 22.099 90.1565 21.9416C90.7006 21.6363 91.2636 21.3661 91.8423 21.1327C93.101 20.6266 94.3424 20.0981 95.5837 19.5274C98.0664 18.4059 100.46 17.0461 102.935 15.8924C104.226 15.2869 105.418 14.4756 106.768 13.9892L106.011 13.2275C105.984 13.3168 106.011 13.1059 106.011 13.2002C106 13.2241 105.985 13.2466 105.969 13.2672V13.2672C105.939 13.2995 105.912 13.3317 105.882 13.3615C105.743 13.5084 105.596 13.6468 105.44 13.7759C105.11 14.0562 104.837 14.2572 104.469 14.5202C103.623 15.1404 102.808 15.803 102.029 16.5052C99.6437 18.6027 97.315 20.7696 95.0425 23.0061C94.5459 23.4874 94.0643 23.9539 93.5529 24.408C93.1035 24.805 92.5598 25.3236 92.5846 25.9736C92.5875 26.0816 92.6181 26.1871 92.6734 26.2798C92.7288 26.3726 92.8071 26.4496 92.9009 26.5034C92.9946 26.5572 93.1006 26.5861 93.2087 26.5871C93.3168 26.5882 93.4233 26.5615 93.5181 26.5096C94.9829 25.8397 96.2764 24.8323 97.6046 23.9316C99.0164 22.9705 100.427 22.0078 101.838 21.0434C103.235 20.0857 104.611 19.0832 106.046 18.185C107.364 17.3687 108.742 16.6243 110.083 15.8427C111.638 14.9896 113.137 14.0364 114.569 12.9893L113.824 12.0142C111.277 14.1505 108.633 16.1628 106.001 18.1925C103.369 20.2221 100.763 22.3064 98.2451 24.4874C96.7671 25.7677 95.2982 27.0596 93.8384 28.3631L94.7172 29.2414C94.7959 29.1643 94.8523 29.0672 94.8802 28.9606C94.9082 28.854 94.9068 28.7419 94.8761 28.636C94.7421 28.2862 94.3275 28.0256 93.965 28.2663C93.4582 28.6302 92.9817 29.0343 92.5399 29.4747C92.2398 29.7411 91.9594 30.0288 91.7008 30.3357C91.4798 30.6036 91.2042 30.951 91.234 31.3282C91.2369 31.4361 91.2675 31.5416 91.3229 31.6344C91.3782 31.7271 91.4566 31.8041 91.5503 31.8579C91.644 31.9117 91.75 31.9406 91.8581 31.9417C91.9662 31.9427 92.0727 31.916 92.1675 31.8641C98.4313 28.9908 104.434 25.6015 110.507 22.356C111.361 21.8994 112.257 21.4851 113.087 20.9863C113.457 20.763 113.784 20.4901 114.172 20.2842C114.547 20.0927 114.943 19.9421 115.351 19.8351L114.745 18.7979C109.462 22.9986 103.727 26.5815 98.2774 30.5515C96.7133 31.6904 95.1567 32.8442 93.5752 33.9583C92.9322 34.4099 93.4933 35.4296 94.2008 35.0277C97.8934 32.9352 101.557 30.793 105.192 28.6013C108.717 26.4798 112.265 24.3832 115.716 22.1352C117.629 20.9114 119.462 19.568 121.205 18.1131C121.677 17.7161 121.173 16.8724 120.602 17.0759C119.613 17.4079 118.664 17.8454 117.769 18.381C117.317 18.6565 116.905 18.9815 116.466 19.2743C115.989 19.5944 115.473 19.8648 114.976 20.1576L108.854 23.7877C104.824 26.1721 100.797 28.569 96.825 31.0155C94.5757 32.4017 92.3314 33.7953 90.092 35.1964C89.9643 35.274 89.8689 35.395 89.8233 35.5372C89.7777 35.6794 89.7849 35.8333 89.8437 35.9706C89.9041 36.1098 90.0125 36.2228 90.1492 36.2888C90.2859 36.3549 90.4418 36.3696 90.5885 36.3303C90.7644 36.2781 90.9317 36.2004 91.0851 36.0996C91.3482 35.9606 91.6089 35.8167 91.8696 35.6728C92.4009 35.3784 92.9297 35.0814 93.456 34.782C95.4546 33.6506 97.4854 32.5688 99.5064 31.4795C104.204 28.9511 108.941 26.4848 113.638 23.9713C114.398 23.5644 115.142 23.1475 115.885 22.7183C116.22 22.5247 116.557 22.3411 116.908 22.1798L117.017 22.1302C116.903 22.1798 117.066 22.1128 117.076 22.1103L117.287 22.0409C117.307 22.0409 117.33 22.0409 117.349 22.026C117.461 21.9788 117.233 22.026 117.335 22.026C117.436 22.026 117.372 22.0409 117.26 22.0086C117.354 22.0359 117.121 21.9267 117.198 21.9838L117.071 21.0087C115.259 22.7034 113.208 24.1053 111.17 25.5121C109.132 26.919 107.039 28.3928 105.018 29.8816C103.834 30.755 102.669 31.6582 101.562 32.6308C101.195 32.9534 101.421 33.5315 101.838 33.668C103.233 34.1196 104.569 33.601 105.584 32.5911C105.873 32.3402 106.198 32.1329 106.547 31.9758L107.727 31.3282C108.473 30.913 109.218 30.4994 109.961 30.0875C112.953 28.4003 115.905 26.6461 118.899 24.9489C120.58 23.9845 122.262 23.0292 123.943 22.0831L123.315 21.0112C119.666 23.2691 116.116 25.6709 112.57 28.105C108.99 30.5689 105.41 33.0328 101.852 35.5289C100.877 36.2162 99.911 36.9184 98.9279 37.5933C98.0366 38.2037 97.123 38.8091 96.4179 39.6378C96.325 39.7359 96.2664 39.8614 96.2508 39.9955C96.2352 40.1296 96.2634 40.2652 96.3313 40.382C96.3992 40.4987 96.5031 40.5903 96.6275 40.6432C96.7518 40.696 96.89 40.7071 97.0212 40.675C98.6225 40.4269 100.058 39.4741 101.44 38.69C102.945 37.8414 104.42 36.9531 105.894 36.0524C108.859 34.2436 111.83 32.4497 114.832 30.6954C116.51 29.7029 118.208 28.7576 119.954 27.8991L119.328 26.8272C115.875 28.9883 112.454 31.1991 108.993 33.3504C107.28 34.4156 105.554 35.4611 103.816 36.4867C102.111 37.4792 100.368 38.422 98.697 39.4815C97.771 40.0671 96.897 40.7072 96.0281 41.3747C95.2833 41.9553 94.4292 42.4615 93.8384 43.2257C93.735 43.3324 93.6734 43.4726 93.6647 43.6208C93.656 43.7691 93.7008 43.9155 93.7909 44.0336C93.8811 44.1516 94.0106 44.2334 94.156 44.2641C94.3014 44.2948 94.453 44.2723 94.5832 44.2008C96.8896 42.9751 98.9676 41.3697 100.979 39.7197C103.079 37.9961 105.159 36.2493 107.22 34.4793C109.39 32.6258 111.54 30.7575 113.697 28.8817C115.746 27.1051 117.762 25.2814 119.852 23.5519C120.88 22.7058 121.965 21.959 123.035 21.17C123.433 20.8589 123.847 20.569 124.276 20.3015C124.464 20.1811 124.667 20.0852 124.879 20.0162L125.004 19.9839C125.115 19.9541 124.989 19.9839 125.051 19.9839C125.113 19.9839 125.145 19.9839 125.192 19.9839C125.078 19.9839 125.237 20.0162 125.135 19.969L124.912 19.1205C123.626 21.0633 121.736 22.5719 119.926 24.0011C117.871 25.6238 115.825 27.2614 113.764 28.8767C111.778 30.4399 109.747 31.9509 107.669 33.4099C105.683 34.8143 103.697 36.2261 101.569 37.427C100.417 38.0895 99.2188 38.6699 97.9845 39.1639C96.6761 39.6775 95.328 40.0944 94.0792 40.7445C93.6273 40.9926 93.6993 41.7841 94.2257 41.8784C94.7886 41.9838 95.3688 41.9506 95.916 41.7815C96.4633 41.6125 96.961 41.3127 97.3663 40.9082C97.5628 40.705 97.7828 40.526 98.0217 40.3748L98.9602 39.819L100.787 38.7396C103.201 37.3137 105.626 35.9077 108.064 34.5215C110.502 33.1353 112.956 31.7781 115.425 30.4498C117.871 29.1397 120.329 27.8569 122.734 26.4798C124.043 25.7354 125.316 24.9141 126.63 24.1723C127.779 23.5271 129.05 23.1227 130.046 22.227C130.642 21.6935 129.76 20.8176 129.167 21.3511C128.353 22.0955 127.263 22.4428 126.302 22.9416C125.148 23.5395 124.068 24.274 122.931 24.9266C120.592 26.2912 118.213 27.5691 115.815 28.842C110.986 31.4051 106.229 34.1047 101.517 36.8737C100.193 37.6528 98.8691 38.4344 97.545 39.2185C97.21 39.399 96.9024 39.6263 96.6314 39.8934C96.4343 40.1024 96.2096 40.2835 95.9636 40.4318C95.5382 40.6826 95.0363 40.7708 94.5509 40.68L94.6999 41.8139C95.8047 41.2407 96.9914 40.866 98.1483 40.4194C99.2826 39.9793 100.389 39.4697 101.46 38.8935C103.628 37.7298 105.644 36.3254 107.667 34.9235C111.957 31.9261 116.029 28.6484 120.135 25.4054C122.26 23.7256 124.475 22.026 125.989 19.7408C126.071 19.5983 126.093 19.4295 126.051 19.2707C126.01 19.112 125.907 18.976 125.766 18.8922C124.842 18.4728 123.889 19.0535 123.137 19.577C122.263 20.1849 121.386 20.8003 120.54 21.4454C118.372 23.0929 116.371 24.9439 114.313 26.723C109.954 30.492 105.601 34.261 101.182 37.958C98.913 39.8537 96.5966 41.737 93.97 43.1289L94.7148 44.1016C95.2113 43.454 95.904 43.0074 96.5519 42.521C97.3117 41.9553 98.0416 41.3797 98.8435 40.8611C100.475 39.7917 102.19 38.8761 103.873 37.8836C107.362 35.8564 110.775 33.7052 114.182 31.544C116.103 30.3257 118.025 29.1025 119.954 27.8941C120.637 27.4673 120.041 26.4724 119.328 26.8222C116.227 28.3482 113.285 30.1719 110.309 31.9237C107.332 33.6754 104.494 35.4991 101.542 37.2013C100.744 37.6595 99.9417 38.1102 99.1339 38.5535C98.3833 39.0039 97.5573 39.315 96.6959 39.4716L97.3017 40.5063C97.9149 39.8365 98.6155 39.2523 99.3847 38.7694C100.244 38.1838 101.083 37.5734 101.934 36.9755C103.72 35.7183 105.514 34.4711 107.314 33.2338C110.832 30.8071 114.331 28.3556 117.883 25.9811C119.879 24.6511 121.9 23.341 123.943 22.0831C124.621 21.6612 124.013 20.6142 123.315 21.0112C120.386 22.6711 117.431 24.3162 114.529 26.0158C111.686 27.6915 108.818 29.3208 105.927 30.9039C105.511 31.0906 105.127 31.3418 104.79 31.6482C104.527 31.9315 104.222 32.1725 103.886 32.3628C103.624 32.5023 103.337 32.5853 103.041 32.6062C102.745 32.6272 102.449 32.5857 102.17 32.4844L102.446 33.5191C104.37 31.8294 106.47 30.363 108.556 28.8792C110.567 27.4475 112.62 26.0704 114.611 24.6114C115.771 23.7746 116.878 22.8681 117.928 21.897C117.993 21.8287 118.042 21.7468 118.071 21.6572C118.1 21.5677 118.109 21.4727 118.097 21.3792C118.085 21.2858 118.052 21.1962 118.001 21.1171C117.95 21.0379 117.882 20.9712 117.801 20.9218C117.27 20.5248 116.366 21.0533 115.887 21.299C115.408 21.5446 114.934 21.8498 114.457 22.1228C112.161 23.4353 109.78 24.604 107.441 25.8446C102.617 28.3928 97.7809 30.9312 93.0191 33.596C92.5474 33.859 92.0806 34.127 91.6089 34.39C91.2787 34.5736 90.951 34.7572 90.6158 34.9359C90.5041 34.9954 90.3924 35.0575 90.2782 35.1145C90.2356 35.1319 90.1942 35.1517 90.1541 35.1741C90.0821 35.2212 90.3278 35.1245 90.231 35.1393L90.7102 36.2733C94.6552 33.8168 98.5977 31.3579 102.577 28.9536C106.557 26.5493 110.616 24.1772 114.638 21.7952L116.344 20.7854C116.878 20.4678 117.372 20.1129 117.888 19.7705C118.832 19.1442 119.854 18.6437 120.927 18.2818L120.321 17.2446C117.31 19.7854 113.918 21.82 110.567 23.872C106.974 26.0704 103.367 28.2564 99.7447 30.3878C97.6973 31.5936 95.64 32.7822 93.5727 33.9533L94.1984 35.0227C97.0237 33.0377 99.777 30.9485 102.615 28.9784C105.403 27.0455 108.216 25.1499 110.976 23.1748C112.555 22.04 114.108 20.8706 115.634 19.6663C116.13 19.2619 115.587 18.4778 115.031 18.6292C114.259 18.8348 113.529 19.1704 112.871 19.6217C112.719 19.7284 112.575 19.845 112.416 19.9368C112.257 20.0286 112.056 20.1278 111.878 20.2221L110.636 20.8772C109.08 21.7043 107.527 22.5404 105.976 23.3857C102.95 25.0308 99.9185 26.6684 96.8449 28.2241C95.0921 29.1124 93.3253 29.9676 91.5444 30.7897L92.4778 31.3232C92.4654 31.1967 92.453 31.4969 92.4778 31.3455C92.4555 31.4721 92.4456 31.4175 92.5027 31.3257C92.53 31.281 92.6318 31.147 92.5474 31.2537C92.5945 31.1942 92.6442 31.1346 92.6938 31.0776C92.9511 30.7932 93.2238 30.5231 93.5107 30.2687C93.7589 30.0205 94.0345 29.8022 94.3051 29.5764C94.3945 29.502 94.4839 29.4275 94.5757 29.3556C94.6055 29.3283 94.6403 29.3059 94.6701 29.2787C94.6999 29.2514 94.5211 29.3853 94.5906 29.3407L93.6795 28.9685L93.8384 28.3656C93.2574 28.9189 94.1264 29.7724 94.7172 29.2439C97.2645 26.9562 99.8341 24.6809 102.491 22.5222C105.05 20.4405 107.687 18.4604 110.289 16.4333C111.778 15.277 113.251 14.1059 114.693 12.895C115.227 12.4459 114.504 11.4931 113.948 11.9199C111.433 13.8205 108.583 15.1926 105.897 16.8253C104.464 17.6962 103.101 18.6788 101.718 19.6291C100.336 20.5794 98.9006 21.5595 97.4979 22.5198C96.0082 23.5296 94.5484 24.6908 92.9049 25.4402L93.8409 25.9761C93.8409 25.8372 93.7838 26.0605 93.8409 25.924C93.826 25.9538 93.7962 26.0084 93.8582 25.9042C93.9052 25.8225 93.9628 25.7474 94.0295 25.6809C94.2143 25.4854 94.4117 25.3022 94.6204 25.1325C95.0946 24.7256 95.5291 24.2814 95.9735 23.8447C97.1089 22.7232 98.2675 21.6215 99.4493 20.5397C100.604 19.4777 101.761 18.4183 102.942 17.3836L103.854 16.5921L104.223 16.2794L104.499 16.0462L104.593 15.9693C104.722 15.8626 104.718 15.8675 104.574 15.9693C104.611 15.9693 104.737 15.8551 104.767 15.8353C104.914 15.736 105.058 15.6343 105.202 15.5301C105.621 15.2299 106.036 14.9222 106.426 14.5823C106.783 14.317 107.063 13.9604 107.235 13.5501C107.263 13.4443 107.263 13.3331 107.234 13.2275C107.206 13.1219 107.15 13.0256 107.072 12.9482C106.995 12.8709 106.899 12.8152 106.793 12.7867C106.687 12.7582 106.576 12.7579 106.47 12.7858C105.246 13.2275 104.137 13.8974 102.995 14.4929C101.795 15.1157 100.557 15.6616 99.3549 16.2769C98.1533 16.8923 96.9343 17.5523 95.6929 18.1304C94.4516 18.7086 93.24 19.2172 92.0037 19.7358C91.3234 20.0211 90.6431 20.2866 89.9877 20.6241C89.655 20.7953 89.3223 20.9739 88.9946 21.1749C88.6669 21.3759 88.5502 21.5719 88.2126 21.6439L88.8159 22.6786C90.9659 20.8027 93.0861 18.8897 95.3156 17.1082C96.4129 16.2273 97.55 15.4135 98.692 14.5897C99.8341 13.7659 100.966 12.8528 102.098 11.9894C102.726 11.508 103.362 11.0391 104.012 10.5924C104.651 10.1745 105.253 9.70211 105.81 9.1806C106.165 8.83571 105.924 8.0566 105.37 8.12359C104.841 8.18224 104.336 8.38 103.908 8.69676C103.429 8.99495 102.931 9.26343 102.419 9.50068C101.391 10.0391 100.375 10.5924 99.3549 11.1408C97.3191 12.24 95.2808 13.3218 93.2971 14.5153C92.2172 15.1629 91.1844 15.8874 90.1367 16.5871L91.0503 17.2868C91.1943 16.7484 91.6908 16.3092 92.0732 15.9221C92.5675 15.4062 93.0888 14.9167 93.6348 14.4557C94.2425 13.9812 94.8227 13.4725 95.3727 12.9322C95.8196 12.4707 96.2069 11.9546 96.6537 11.4906C97.0542 11.1259 97.3958 10.7016 97.6667 10.2326C97.9497 9.657 97.9646 8.8109 97.185 8.66202C96.0579 8.44864 94.9928 9.32451 94.0444 9.79099C93.2996 10.1557 92.5101 10.4336 91.7728 10.8232C91.1248 11.1631 90.5488 11.6271 89.7866 11.6197L90.4073 12.24C90.4073 12.364 90.4396 12.2152 90.4073 12.2549C90.4371 12.2152 90.4594 12.1655 90.4892 12.1258C90.5569 12.0387 90.6299 11.9559 90.7077 11.8777C90.9088 11.6594 91.1049 11.4336 91.3184 11.2301C91.8376 10.7783 92.395 10.3724 92.9843 10.0168C93.6491 9.59801 94.2792 9.12672 94.8687 8.60743C95.323 8.19059 95.9437 7.75141 96.11 7.11869C96.2267 6.64974 95.832 6.23785 95.4124 6.12619C95.0668 6.0468 94.7078 6.0468 94.3622 6.12619C93.5638 6.29085 92.7867 6.54557 92.0459 6.88545C91.3606 7.1708 90.6779 7.47103 90.0225 7.8184L90.956 8.35435C90.956 8.10622 91.1744 7.87547 91.3582 7.66953C91.6241 7.41138 91.8561 7.12038 92.0483 6.80357C92.3835 6.15349 92.4232 5.28753 91.9639 4.68707C91.8347 4.51985 91.6714 4.38203 91.4847 4.28278C91.2981 4.18353 91.0924 4.12511 90.8815 4.11143C90.4147 4.08413 90.0076 4.30248 89.593 4.48361C88.7886 4.83595 87.7781 4.62008 86.929 4.61512C86.1296 4.61512 86.1296 5.85574 86.929 5.85574L86.939 5.83837Z" fill="#43A6D3"/>
<path d="M94.3423 41.8784C93.7587 42.2487 93.2311 42.7008 92.7758 43.2207C92.4207 43.6525 91.9217 44.2752 92.1129 44.8757C92.2892 45.429 92.88 45.5407 93.3865 45.5456C93.9969 45.5548 94.6073 45.5241 95.2138 45.4538C98.0291 45.099 100.564 43.7542 103.104 42.5781C104.482 41.9404 105.887 41.3648 107.272 40.742C108.658 40.1192 110.075 39.4368 111.493 38.819C114.241 37.6255 116.987 36.4246 119.686 35.0971C121.141 34.4055 122.54 33.6007 123.869 32.6903C124.519 32.1963 125.199 31.7422 125.905 31.3306C126.526 31.0006 127.236 30.8741 127.812 30.4572C127.926 30.3884 128.016 30.2856 128.069 30.1633C128.122 30.041 128.135 29.9052 128.107 29.7749C127.571 27.9189 124.803 29.1794 123.715 29.6632C122.154 30.3707 120.663 31.2248 119.264 32.2139C117.844 33.2064 116.456 34.2287 115.043 35.2138C113.63 36.1988 112.195 37.0821 110.716 37.9431C107.637 39.7197 104.484 41.3672 101.281 42.9329C100.4 43.3646 99.5212 43.8113 98.6175 44.1958C97.7138 44.5804 96.8449 44.8931 95.966 45.2529C95.0474 45.63 94.1636 46.0717 93.2649 46.4935C92.8627 46.6821 92.4332 46.8905 92.0508 47.0418C91.6213 47.2106 91.2712 47.4215 91.1198 47.883C91.0921 47.9885 91.0924 48.0994 91.1208 48.2047C91.1492 48.31 91.2047 48.4061 91.2818 48.4834C91.3588 48.5606 91.4548 48.6164 91.5601 48.6451C91.6654 48.6739 91.7763 48.6746 91.882 48.6472C93.0538 48.2328 94.032 47.4934 95.0772 46.8433C96.2044 46.1411 97.339 45.4514 98.4636 44.7442C100.715 43.3249 102.947 41.8709 105.189 40.4368C107.431 39.0026 109.509 37.4444 111.768 36.107C114.028 34.7696 116.399 33.6258 118.653 32.271C119.856 31.5347 121.017 30.7303 122.129 29.8617C122.647 29.4543 123.194 29.0844 123.765 28.7551C124.328 28.4794 124.81 28.0632 125.165 27.5467C125.592 26.8669 124.519 26.2441 124.092 26.919C123.844 27.3209 123.42 27.5269 123.017 27.7502C122.519 28.0402 122.042 28.3652 121.59 28.7228C120.609 29.4672 119.646 30.2116 118.596 30.8617C116.389 32.2189 114.075 33.3876 111.816 34.653C109.556 35.9184 107.501 37.4345 105.358 38.8314C103.163 40.2581 100.949 41.66 98.7442 43.0743C97.5028 43.8683 96.2615 44.64 95.0027 45.4117C93.8806 46.1014 92.7931 46.9947 91.5419 47.4363L92.3065 48.1981C92.2544 48.3544 92.1898 48.28 92.3065 48.2576C92.2569 48.2576 92.4232 48.2055 92.4158 48.208C92.5821 48.1336 92.7559 48.0715 92.9123 47.9971C93.3095 47.8185 93.7018 47.6348 94.0941 47.4488C94.8215 47.1039 95.5365 46.7416 96.2838 46.4339C97.8454 45.7938 99.412 45.1933 100.936 44.4489C103.995 42.9602 107.019 41.4169 109.981 39.7544C111.446 38.9307 112.908 38.097 114.313 37.1715C115.718 36.246 117.027 35.2956 118.37 34.3354C119.888 33.1991 121.488 32.1781 123.159 31.281C123.992 30.8212 124.873 30.4527 125.786 30.1818C125.984 30.1272 126.183 30.0825 126.384 30.0478C126.481 30.0329 126.23 30.0602 126.384 30.0478H126.535C126.617 30.0478 126.697 30.0478 126.784 30.0478C126.871 30.0478 126.9 30.0875 126.746 30.0478C126.784 30.0628 126.823 30.072 126.863 30.0751C126.886 30.0751 126.92 30.095 126.943 30.0999C126.784 30.0652 126.858 30.0627 126.918 30.0999C126.977 30.1371 127.022 30.1793 126.878 30.0652C126.9 30.0825 126.975 30.1818 126.908 30.09C126.841 29.9982 126.908 30.09 126.908 30.1024C126.955 30.1892 126.856 29.9461 126.908 30.1024L127.193 29.4002C126.709 29.7525 126.123 29.8965 125.585 30.1446C125.003 30.426 124.451 30.7661 123.939 31.1594C122.827 31.9574 121.666 32.685 120.463 33.3379C119.271 33.9731 118.042 34.5413 116.816 35.1095C115.512 35.715 114.214 36.3254 112.896 36.896C110.239 38.0424 107.625 39.2755 104.971 40.4293C103.71 40.9802 102.453 41.536 101.207 42.1215C100.05 42.6919 98.8616 43.1947 97.6468 43.6276C96.9549 43.8677 96.2452 44.0527 95.5241 44.181C94.8862 44.2745 94.2423 44.3209 93.5975 44.3199C93.4833 44.3199 93.3691 44.3199 93.2549 44.3199H93.1308C93.2574 44.3373 93.0911 44.3199 93.0762 44.3001C93.1159 44.3274 93.1581 44.3348 93.1978 44.3671C93.2348 44.3962 93.2638 44.4343 93.282 44.4777C93.3003 44.5211 93.3072 44.5684 93.3021 44.6152C93.3021 44.7244 93.3071 44.7343 93.317 44.645C93.3892 44.5392 93.4547 44.429 93.5131 44.3149C93.9093 43.7778 94.4038 43.3206 94.9705 42.9676C95.6284 42.5235 95.0077 41.4466 94.3448 41.8982L94.3423 41.8784Z" fill="#43A6D3"/>
<path d="M13.2799 64.0508C13.2846 64.2807 13.2041 64.5043 13.054 64.6785C12.9867 64.7638 12.9005 64.8323 12.8024 64.8788C12.7042 64.9253 12.5966 64.9484 12.4879 64.9465C12.2424 64.9192 12.0018 64.8583 11.7729 64.7654C11.4965 64.6589 11.2048 64.5977 10.9089 64.5842H9.43421C9.22069 64.5842 9.10152 64.6016 9.08166 64.6363C9.03952 64.7716 9.0145 64.9117 9.00718 65.0532C8.95008 65.408 8.86319 65.944 8.75891 66.6536C8.47268 68.8268 8.33664 71.0171 8.35175 73.209C8.35175 74.8632 8.54375 75.9946 8.92774 76.6034V77.179C8.7329 77.2972 8.51401 77.3701 8.2872 77.3924C7.37522 77.3924 6.78434 76.9516 6.51456 76.0699C6.38711 75.6431 6.32339 74.8243 6.32339 73.6135C6.32339 72.2041 6.35153 71.1082 6.4078 70.3258C6.4227 69.9859 6.49966 69.1671 6.64366 67.8719C6.7449 67.0567 6.80209 66.2367 6.81496 65.4155V64.7976C6.61304 64.8125 6.22574 64.8621 5.65306 64.9465C5.26971 65.0102 4.8822 65.0459 4.49364 65.0532C3.50057 65.0532 3.00403 64.7629 3.00403 64.1773C3.00403 63.9292 3.07603 63.7927 3.21754 63.7505C3.43105 63.4379 4.54909 63.1674 6.57166 62.9392C7.83348 62.7904 9.1022 62.7076 10.3727 62.6911C10.9804 62.6769 11.5865 62.7607 12.1677 62.9392C12.91 63.1823 13.2799 63.552 13.2799 64.0508Z" fill="black"/>
<path d="M21.2668 77.3725C21.1257 77.509 20.9583 77.6153 20.7747 77.6848C20.5912 77.7543 20.3953 77.7857 20.1992 77.777C19.9013 77.777 19.5934 77.5909 19.2806 77.2212V74.3181C19.2806 71.1603 18.8255 69.5806 17.9151 69.5789C16.975 69.5789 16.505 70.8527 16.505 73.4001V74.6407C16.5162 74.9671 16.5518 75.2922 16.6117 75.6133C16.6703 75.9338 16.706 76.258 16.7185 76.5835C16.7093 76.6875 16.674 76.7875 16.6158 76.8743C16.5577 76.961 16.4786 77.0317 16.3858 77.0797C16.2108 77.2151 15.9986 77.2939 15.7775 77.3055C15.603 77.3061 15.4307 77.2668 15.2736 77.1907C15.1166 77.1145 14.979 77.0036 14.8713 76.8664C14.6306 76.5995 14.4971 76.253 14.4965 75.8937L14.5809 63.5371V63.2146C14.5809 62.7034 14.8664 62.4454 15.4374 62.4454C15.7844 62.4723 16.1151 62.6038 16.3858 62.8225C16.7433 63.0706 16.9196 63.3188 16.9196 63.5843C16.8986 64.0537 16.8312 64.52 16.7185 64.9762C16.6041 65.4331 16.5359 65.9002 16.5149 66.3707C16.5149 66.7702 16.5149 67.4054 16.5571 68.2763C16.7922 68.1178 17.064 68.0221 17.3466 67.9984C17.9732 68.0141 18.5906 68.1523 19.1639 68.4053C19.5561 68.5623 19.9123 68.7972 20.211 69.0957C20.5097 69.3943 20.7447 69.7503 20.9018 70.1422C21.1764 70.9394 21.2993 71.781 21.2643 72.6234L21.2668 77.3725Z" fill="black"/>
<path d="M29.3628 75.1518C29.3628 75.8648 28.8787 76.4197 27.9104 76.8167C27.1591 77.1288 26.3531 77.2882 25.5394 77.2857C23.3464 77.2857 22.2499 76.0401 22.2499 73.549C22.2818 72.3743 22.5345 71.2161 22.9947 70.1348C23.6071 68.5964 24.3519 67.828 25.2291 67.8297C26.0136 67.8297 26.8553 68.1771 27.7615 68.8743C28.6676 69.5715 29.117 70.2985 29.117 71.0528C29.1213 71.5029 29.007 71.9462 28.7856 72.3381C28.5642 72.7301 28.2435 73.057 27.8558 73.2859C27.0697 73.7969 26.1466 74.0565 25.2092 74.0303C24.8655 73.9814 24.5367 73.8578 24.246 73.668C24.3022 75.0211 24.7011 75.6969 25.4426 75.6952C26.0962 75.6888 26.7357 75.5043 27.2922 75.1618C27.8955 74.8069 28.2853 74.6283 28.4541 74.6283C29.0475 74.6382 29.3628 74.8094 29.3628 75.1518ZM27.0365 71.1173C27.0348 70.756 26.9269 70.4031 26.7262 70.1025C26.6442 69.9566 26.5249 69.8352 26.3805 69.7506C26.2361 69.666 26.0718 69.6213 25.9044 69.6211C25.6834 69.6156 25.4652 69.6704 25.2731 69.7797C25.081 69.8891 24.9225 70.0487 24.8145 70.2415C24.5942 70.6235 24.4834 71.0587 24.4942 71.4994C24.4896 71.6234 24.5121 71.7469 24.5601 71.8613C24.6081 71.9758 24.6806 72.0783 24.7723 72.1619C24.966 72.3333 25.219 72.4223 25.4774 72.4101C26.5151 72.4175 27.0365 71.9858 27.0365 71.1173V71.1173Z" fill="black"/>
<path d="M36.071 69.6857C36.0657 69.8427 36.0516 69.9992 36.0288 70.1546C35.7284 70.5814 35.4156 70.7973 35.0879 70.7973C34.9371 70.7862 34.7915 70.7372 34.6647 70.6547C34.538 70.5723 34.4342 70.4592 34.3629 70.3258C34.3331 69.6857 34.1047 69.3656 33.6777 69.3656C33.4294 69.3656 33.1092 70.043 32.7393 71.3928C32.5464 72.211 32.4629 73.0512 32.491 73.8914C32.491 74.9012 32.5357 75.5141 32.63 75.7275C32.7098 75.904 32.7634 76.0913 32.7889 76.2833C32.7894 76.4009 32.7595 76.5165 32.702 76.6191C32.6446 76.7217 32.5617 76.8077 32.4612 76.8689C32.2477 77.019 31.9923 77.098 31.7313 77.0947C30.9691 77.0947 30.5892 76.7374 30.5892 76.0277C30.5942 75.9259 30.6117 75.8251 30.6414 75.7275C30.6711 75.6375 30.6895 75.5441 30.696 75.4496C30.696 74.7251 30.6604 73.6499 30.5892 72.224C30.5181 70.7981 30.4825 69.727 30.4825 69.0108C30.4825 68.3706 30.8665 68.0505 31.6345 68.0505C32.0913 68.0505 32.4041 68.1845 32.5754 68.455C32.7378 68.2532 32.9424 68.0894 33.1749 67.9749C33.4073 67.8605 33.662 67.7982 33.921 67.7925C34.2712 67.7927 34.6147 67.8888 34.9141 68.0704C35.2099 68.2659 35.4633 68.5191 35.6589 68.8148C35.8776 69.0592 36.0207 69.3617 36.071 69.6857V69.6857Z" fill="black"/>
<path d="M43.9437 73.4001C43.9702 74.6975 43.9138 75.9954 43.7748 77.2857C43.702 77.7273 43.4024 77.9482 42.8761 77.9482C42.0783 77.9482 41.7225 77.5495 41.8085 76.7522C41.1165 77.0899 40.3566 77.2656 39.5865 77.2658C38.8454 77.2651 38.1169 77.0737 37.4713 76.71C36.6752 76.2684 36.2771 75.706 36.2771 75.0228C36.2771 74.3396 36.7323 73.7135 37.6426 73.1445C38.3275 72.6646 39.1356 72.3908 39.9713 72.3555H41.7862V71.8468C41.8011 70.3581 41.36 69.6137 40.4629 69.6137C39.3374 69.6137 38.7747 70.1356 38.7747 71.1794C38.7747 71.5317 38.5761 71.7079 38.1764 71.7079C37.8926 71.6899 37.6243 71.5721 37.4191 71.3754C37.3058 71.2968 37.2115 71.1938 37.1432 71.074C37.0749 70.9542 37.0343 70.8206 37.0244 70.6831C37.0133 70.3129 37.084 69.9448 37.2317 69.6051C37.3793 69.2654 37.6001 68.9625 37.8784 68.718C38.4381 68.2084 39.1722 67.9331 39.9291 67.9488C42.6055 67.9537 43.9437 69.7708 43.9437 73.4001ZM41.7862 74.1693C41.7862 73.8839 41.5727 73.7425 41.1457 73.7425C39.3647 73.7425 38.4751 74.1626 38.4768 75.0029C38.4768 75.457 38.8665 75.6853 39.6511 75.6853C40.1368 75.6845 40.6119 75.5432 41.019 75.2784C41.5222 74.9806 41.7738 74.6109 41.7738 74.1693H41.7862Z" fill="black"/>
<path d="M54.9967 74.9335C54.9967 75.8036 54.491 76.4735 53.4797 76.9433C52.6457 77.3366 51.7329 77.5343 50.8108 77.5214C49.7316 77.4861 48.6644 77.2827 47.6479 76.9185C46.1583 76.4049 45.4135 75.8094 45.4135 75.1245C45.4154 74.876 45.5152 74.6382 45.6914 74.4626C45.8675 74.2871 46.1057 74.1879 46.3544 74.1866C46.7584 74.1953 47.1424 74.364 47.422 74.6556C47.9756 75.1245 48.276 75.3801 48.3182 75.4248C48.8147 75.7076 49.7118 75.8499 51.0094 75.8515C52.168 75.8515 52.7473 75.5877 52.7473 75.06C52.7473 74.6217 52.2061 74.0096 51.1236 73.2239L48.8594 71.7724C48.0602 71.27 47.3461 70.6434 46.7442 69.9164C46.1644 69.1566 45.8566 68.2243 45.8703 67.2689C45.8582 66.0525 46.2649 64.869 47.0222 63.9168C47.8498 62.8349 48.8752 62.294 50.0983 62.294C51.0623 62.2639 52.0068 62.5701 52.7697 63.16C53.5147 63.769 54.0089 64.6312 54.1575 65.5817C54.1997 65.9811 54.2866 66.5742 54.4058 67.3533C54.4536 67.5208 54.4827 67.693 54.4927 67.8669C54.5071 68.3141 54.4223 68.759 54.2444 69.1695C54.1744 69.3807 54.0395 69.5644 53.859 69.6945C53.6785 69.8245 53.4615 69.8944 53.2389 69.8941C53.0973 69.889 52.9583 69.8551 52.8302 69.7945C52.7021 69.734 52.5878 69.6479 52.4941 69.5417C52.3885 69.4475 52.3029 69.3331 52.2423 69.2053C52.1817 69.0774 52.1475 68.9387 52.1416 68.7974C52.1548 68.5181 52.1981 68.2411 52.2707 67.9711C52.3419 67.7017 52.3852 67.4256 52.3998 67.1473C52.3898 65.2252 51.746 64.2641 50.4682 64.2641C50.1185 64.2631 49.7736 64.3449 49.4616 64.5027C49.1496 64.6606 48.8794 64.89 48.6732 65.1723C48.2055 65.7339 47.949 66.4414 47.9483 67.1721C47.9483 68.1961 48.5607 69.1935 49.7855 70.1645C50.9093 70.9221 52.0414 71.6781 53.1818 72.4324C54.3917 73.3008 54.9967 74.1345 54.9967 74.9335Z" fill="black"/>
<path d="M63.4775 71.956C63.5158 73.2309 63.2521 74.4968 62.7079 75.6506C62.0673 76.9573 61.0991 77.6116 59.8031 77.6132C59.1533 77.6297 58.5181 77.4181 58.0081 77.0152V78.298C58.0081 79.6627 58.1654 80.7379 58.4799 81.5236C58.5804 81.7112 58.6524 81.9128 58.6934 82.1216C58.6934 82.6063 58.4087 82.8478 57.8393 82.8462C57.5018 82.8705 57.165 82.7889 56.876 82.6129C56.7196 82.5112 56.5632 82.1564 56.4068 81.5435C56.2981 81.1381 56.234 80.7221 56.2156 80.3029V75.1518C56.2156 74.6829 56.2429 74.0402 56.3001 73.2289C56.3563 72.3191 56.3919 71.6864 56.4068 71.3307C56.4217 70.9734 56.4217 70.5045 56.4068 69.9214V68.4822C56.4068 67.2747 56.8016 66.6701 57.5911 66.6685C57.7922 66.6698 57.9864 66.7418 58.1397 66.8719C58.2157 66.9267 58.2778 66.9986 58.3209 67.0818C58.3641 67.165 58.387 67.2571 58.388 67.3508C58.388 67.6659 58.3532 68.2341 58.2812 69.0604C58.8374 68.2763 59.5069 67.8843 60.2897 67.8843C60.7726 67.8659 61.2518 67.9748 61.6793 68.1999C62.1067 68.4251 62.4675 68.7586 62.7253 69.1671C63.2534 69.9989 63.5158 70.9716 63.4775 71.956V71.956ZM61.5708 71.7575C61.5708 70.2191 61.2398 69.4499 60.5777 69.4499C60.293 69.4499 59.9206 69.7278 59.4605 70.2836C58.5717 71.3506 58.0843 72.8236 57.9982 74.7027C58.3212 74.9576 58.6041 75.2596 58.8374 75.5984C59.1535 75.9822 59.4688 76.1749 59.7833 76.1766C60.975 76.1749 61.5708 74.7019 61.5708 71.7575Z" fill="black"/>
<path d="M72.0875 73.4001C72.1136 74.6976 72.0564 75.9955 71.9162 77.2857C71.8434 77.7273 71.5438 77.9482 71.0175 77.9482C70.2197 77.9482 69.8638 77.5495 69.9499 76.7522C69.2579 77.0899 68.498 77.2656 67.7279 77.2658C66.9868 77.2651 66.2583 77.0737 65.6126 76.71C64.8165 76.2684 64.4185 75.706 64.4185 75.0228C64.4185 74.3396 64.8736 73.7135 65.7839 73.1445C66.4691 72.665 67.2771 72.3912 68.1127 72.3555H69.9276V71.8468C69.9425 70.3581 69.5014 69.6137 68.6043 69.6137C67.4804 69.6137 66.9177 70.1356 66.9161 71.1794C66.9161 71.5317 66.7174 71.7079 66.3177 71.7079C66.0339 71.6899 65.7657 71.5721 65.5605 71.3754C65.4471 71.2968 65.3528 71.1938 65.2845 71.074C65.2162 70.9542 65.1756 70.8206 65.1658 70.6831C65.1546 70.3129 65.2254 69.9448 65.373 69.6051C65.5206 69.2654 65.7415 68.9625 66.0198 68.718C66.5795 68.2084 67.3136 67.9331 68.0705 67.9488C70.7469 67.9537 72.0859 69.7708 72.0875 73.4001ZM69.9276 74.1693C69.9276 73.8839 69.714 73.7425 69.287 73.7425C67.5078 73.7425 66.6181 74.1626 66.6181 75.0029C66.6181 75.4578 67.0096 75.6853 67.7924 75.6853C68.2782 75.6845 68.7533 75.5432 69.1604 75.2784C69.6718 74.9806 69.9276 74.6109 69.9276 74.1693Z" fill="black"/>
<path d="M81.4001 76.8813C81.3238 77.0261 81.2106 77.1482 81.072 77.2353C80.9334 77.3224 80.7742 77.3715 80.6106 77.3775C80.187 77.3172 79.78 77.1721 79.4139 76.9507V76.7026C79.4139 76.39 79.4139 75.9285 79.4338 75.3156C79.4536 74.7027 79.4561 74.2561 79.4561 73.9708C79.4561 70.9271 79.0026 69.4044 78.0956 69.4028C77.8473 69.4028 77.5519 69.6013 77.2267 70.0008C76.218 71.2438 75.6847 72.805 75.7221 74.405C75.7373 74.7673 75.7838 75.1276 75.8612 75.4818C75.9387 75.8369 75.9852 76.1981 76.0002 76.5612C76.0006 76.6608 75.9752 76.7589 75.9265 76.8458C75.8777 76.9328 75.8074 77.0057 75.7221 77.0574C75.5472 77.1814 75.3382 77.2481 75.1238 77.2485C74.2698 77.2485 73.8427 76.7076 73.8427 75.6258V71.1595C73.8476 70.9935 73.8617 70.8278 73.885 70.6633C73.9093 70.4989 73.9234 70.3332 73.9272 70.167C73.9194 69.9175 73.8946 69.6688 73.8527 69.4226C73.8115 69.1831 73.7866 68.941 73.7782 68.6981C73.7892 68.5663 73.8306 68.4388 73.8991 68.3256C73.9676 68.2124 74.0613 68.1166 74.1729 68.0456C74.3716 67.8667 74.6239 67.7585 74.8904 67.7379C75.079 67.7548 75.2619 67.811 75.4274 67.9029C75.5929 67.9948 75.7372 68.1203 75.8512 68.2713L75.7867 69.1249C76.313 68.2846 76.961 67.8644 77.7306 67.8644C78.2954 67.8851 78.8431 68.063 79.3121 68.378C79.8043 68.6585 80.2216 69.0535 80.5286 69.5293C81.1129 70.6112 81.405 72.0346 81.405 73.7996L81.4001 76.8813Z" fill="black"/>
<path d="M85.5015 68.8098C85.485 69.1781 85.4276 69.5434 85.3301 69.899C85.2329 70.2547 85.1754 70.62 85.1588 70.9883V75.3851C85.1869 75.8215 85.2703 76.2525 85.4071 76.6679C85.1911 76.9954 84.9553 77.1641 84.6946 77.1641C83.7909 77.1641 83.2943 76.7158 83.205 75.8193C83.0634 74.1519 82.9914 72.9013 82.9914 72.0602C82.9799 70.8768 83.0371 69.6937 83.1628 68.517V68.3036C83.1628 68.0555 83.3589 67.919 83.7561 67.919C84.1191 67.9215 84.4782 67.994 84.8137 68.1324C85.2755 68.2837 85.5015 68.512 85.5015 68.8098ZM85.6926 65.8323C85.6971 65.9759 85.6708 66.1188 85.6155 66.2514C85.5603 66.3841 85.4774 66.5034 85.3723 66.6015C85.1584 66.8003 84.8749 66.9072 84.5829 66.8992C84.2027 66.8958 83.8356 66.7598 83.5451 66.5146C83.3968 66.4072 83.276 66.2662 83.1927 66.1032C83.1095 65.9402 83.066 65.7598 83.0659 65.5767C83.0616 65.4322 83.0889 65.2885 83.1459 65.1556C83.203 65.0228 83.2884 64.904 83.3961 64.8075C83.6217 64.6063 83.9157 64.4989 84.2179 64.5073C84.5937 64.5046 84.9578 64.6377 85.2433 64.882C85.3853 64.9938 85.4997 65.1368 85.5776 65.2998C85.6555 65.4629 85.6949 65.6417 85.6926 65.8224V65.8323Z" fill="black"/>
<path d="M93.2128 74.8739C93.2098 75.2109 93.1314 75.543 92.9832 75.8457C92.8349 76.1484 92.6207 76.4141 92.3562 76.6232C91.7306 77.1641 90.8906 77.4346 89.8363 77.4346C89.3314 77.4404 88.8303 77.3468 88.3616 77.1592C86.6535 76.5157 85.7994 75.9955 85.7994 75.5985C85.7994 74.9732 86.248 74.6605 87.1451 74.6605C87.2811 74.661 87.417 74.6684 87.5522 74.6829C87.5944 75.1097 87.9346 75.4496 88.5776 75.7052C89.081 75.9258 89.6305 76.0211 90.1789 75.9831C90.591 75.9549 90.7971 75.8061 90.7971 75.5364C90.7941 75.4709 90.7832 75.4059 90.7648 75.3429C90.7474 75.2764 90.7374 75.2081 90.735 75.1394C90.735 75.0898 90.4644 74.9806 89.9232 74.8094C89.31 74.6258 88.9674 74.5191 88.8978 74.4893C87.2742 73.5217 86.4623 72.3547 86.4623 70.9883C86.4583 70.1725 86.7044 69.375 87.1674 68.7031C87.6937 67.9372 88.3483 67.5534 89.1312 67.5518C89.7147 67.5518 90.3726 67.7801 91.1298 68.2341C91.887 68.6882 92.3364 69.182 92.5077 69.708C92.6089 70.0041 92.6666 70.3134 92.679 70.6261C92.6847 70.8443 92.6484 71.0616 92.5722 71.2662L92.324 71.9064C92.0884 72.0803 91.8049 72.1774 91.5121 72.1843C91.2578 72.1452 91.0144 72.054 90.7971 71.9163C90.4619 71.7401 90.3006 71.5863 90.3006 71.4573C90.3576 71.2623 90.4411 71.0762 90.5488 70.904C90.6353 70.7609 90.6864 70.5993 90.6978 70.4325C90.6978 69.579 90.3651 69.1522 89.7047 69.1522C89.3042 69.1522 88.998 69.4086 88.7861 69.9214C88.6275 70.3295 88.5475 70.7639 88.5503 71.2017C88.5503 71.7724 88.9566 72.2843 89.7693 72.7376C90.5141 73.0676 91.2589 73.4001 92.0037 73.7425C92.8097 74.113 93.2128 74.4902 93.2128 74.8739Z" fill="black"/>
<path d="M101.2 77.3725C101.059 77.509 100.891 77.6153 100.708 77.6848C100.524 77.7543 100.328 77.7857 100.132 77.777C99.8341 77.777 99.5262 77.5909 99.2134 77.2212V74.3181C99.2134 71.1603 98.7582 69.5806 97.8479 69.5789C96.9062 69.5789 96.4361 70.8527 96.4378 73.4001V74.6407C96.449 74.9671 96.4846 75.2922 96.5445 75.6133C96.6031 75.9338 96.6388 76.258 96.6513 76.5835C96.6421 76.6875 96.6068 76.7875 96.5486 76.8743C96.4905 76.961 96.4113 77.0317 96.3186 77.0797C96.1433 77.2147 95.9313 77.2934 95.7103 77.3055C95.5358 77.3061 95.3635 77.2668 95.2064 77.1907C95.0494 77.1145 94.9118 77.0036 94.8041 76.8664C94.5634 76.5995 94.4299 76.253 94.4293 75.8937L94.5137 63.5371V63.2146C94.5137 62.7034 94.7992 62.4454 95.3702 62.4454C95.7135 62.4736 96.0404 62.6041 96.3087 62.82C96.6662 63.0682 96.8424 63.3163 96.8424 63.5818C96.8214 64.0513 96.7541 64.5175 96.6413 64.9738C96.5269 65.4306 96.4587 65.8978 96.4378 66.3682C96.4378 66.7677 96.4502 67.4029 96.48 68.2738C96.7151 68.1153 96.9869 68.0197 97.2695 67.9959C97.896 68.0116 98.5134 68.1498 99.0868 68.4028C99.4812 68.5584 99.8398 68.7927 100.141 69.0913C100.442 69.3899 100.679 69.7466 100.837 70.1397C101.112 70.937 101.235 71.7785 101.2 72.6209V77.3725Z" fill="black"/>
<path d="M112.692 68.1919C112.695 68.4703 112.674 68.7484 112.63 69.0232C112.074 72.3116 110.514 73.9559 107.95 73.9559C106.704 73.9763 105.479 73.6312 104.427 72.9634V73.41C104.412 74.3653 104.497 75.0178 104.675 75.3751C104.843 75.643 104.979 75.9294 105.08 76.2287C105.081 76.369 105.052 76.508 104.995 76.6363C104.938 76.7646 104.854 76.8794 104.75 76.9731C104.651 77.0741 104.534 77.1545 104.404 77.2094C104.274 77.2644 104.134 77.2929 103.993 77.2931C103.352 77.2931 102.915 77.0649 102.689 76.6108C102.522 76.1228 102.438 75.6104 102.441 75.0948C102.411 74.6117 102.396 74.0568 102.396 73.4298C102.406 73.0651 102.439 72.7014 102.493 72.3406C102.548 71.9732 102.58 71.6028 102.59 71.2315V69.7725C102.583 69.1412 102.611 68.51 102.674 67.8818C102.746 67.0506 102.781 66.4328 102.781 66.0358V64.1128C102.781 64.0855 102.717 63.7009 102.59 62.9615C102.858 62.6661 103.228 62.4826 103.625 62.4479C103.799 62.4413 103.972 62.4755 104.13 62.5479C104.289 62.6203 104.428 62.7288 104.536 62.8647C104.765 63.1525 104.885 63.512 104.874 63.8796V64.1773C105.814 62.94 107.003 62.3213 108.442 62.3213C109.059 62.2974 109.672 62.4227 110.23 62.6867C110.788 62.9506 111.274 63.3454 111.647 63.8374C112.344 64.7472 112.692 65.8993 112.692 67.2937V68.1919ZM110.748 67.8495C110.77 66.9885 110.618 66.1319 110.301 65.3311C109.887 64.3899 109.253 63.9201 108.399 63.9217C107.302 63.9217 106.362 64.5908 105.579 65.9291C104.914 66.9847 104.553 68.2027 104.534 69.4499C104.534 71.4349 105.527 72.4274 107.513 72.4274C107.998 72.4511 108.479 72.3324 108.897 72.0859C109.314 71.8394 109.651 71.4759 109.864 71.0404C110.147 70.5293 110.418 69.5972 110.676 68.2441C110.728 67.9637 110.748 67.8371 110.748 67.8495V67.8495Z" fill="black"/>
<path d="M116.602 76.4545C116.603 76.5792 116.575 76.7023 116.521 76.8149C116.467 76.9274 116.389 77.0264 116.292 77.1046C116.095 77.2798 115.84 77.3753 115.577 77.3725C114.681 77.3725 114.233 76.1981 114.231 73.8492C114.231 72.7823 114.242 71.181 114.264 69.0455C114.285 66.91 114.296 65.3088 114.296 64.2418C114.289 63.9926 114.267 63.7441 114.231 63.4974C114.196 63.2565 114.174 63.0138 114.167 62.7704C114.635 62.4578 115.005 62.3015 115.276 62.3015C115.602 62.3054 115.917 62.4142 116.175 62.6116C116.306 62.6958 116.413 62.8111 116.487 62.9471C116.562 63.0832 116.601 63.2356 116.602 63.3907C116.597 63.5805 116.561 63.7682 116.495 63.9465C116.396 64.2865 116.339 64.4726 116.324 64.4999C116.109 65.7409 116.016 66.9999 116.046 68.2589V72.2289C116.087 74.0237 116.237 75.2759 116.495 75.9855C116.556 76.135 116.592 76.2934 116.602 76.4545Z" fill="black"/>
<path d="M125.21 73.4001C125.236 74.6976 125.18 75.9954 125.041 77.2857C124.97 77.7274 124.67 77.9482 124.142 77.9482C123.346 77.9482 122.99 77.5495 123.075 76.7522C122.379 77.0918 121.614 77.2675 120.84 77.2658C120.099 77.2651 119.371 77.0737 118.725 76.7101C117.929 76.2684 117.531 75.706 117.531 75.0228C117.531 74.3396 117.986 73.7135 118.896 73.1445C119.581 72.6646 120.389 72.3908 121.225 72.3555H123.04V71.8468C123.055 70.3581 122.614 69.6137 121.717 69.6137C120.591 69.6137 120.028 70.1356 120.028 71.1794C120.028 71.5317 119.83 71.7079 119.43 71.7079C119.146 71.6899 118.878 71.5721 118.673 71.3754C118.559 71.2968 118.465 71.1938 118.397 71.074C118.328 70.9542 118.288 70.8207 118.278 70.6831C118.27 70.314 118.344 69.9478 118.494 69.6103C118.643 69.2728 118.866 68.9724 119.144 68.7304C119.704 68.2209 120.438 67.9455 121.195 67.9612C123.872 67.9579 125.21 69.7709 125.21 73.4001ZM123.052 74.1693C123.052 73.8839 122.839 73.7425 122.412 73.7425C120.631 73.7425 119.741 74.1626 119.743 75.003C119.743 75.457 120.133 75.6853 120.917 75.6853C121.403 75.6843 121.878 75.5429 122.285 75.2784C122.796 74.9806 123.052 74.6109 123.052 74.1693Z" fill="black"/>
<path d="M134.182 68.8321C134.053 69.5442 133.934 70.2489 133.82 70.9461C133.689 71.6435 133.617 72.3507 133.606 73.0602V78.8663C133.606 79.9183 133.303 80.7222 132.697 81.278C132.092 81.8338 131.264 82.1117 130.215 82.1117C129.432 82.089 128.661 81.9075 127.951 81.5783C126.967 81.1647 126.476 80.6685 126.476 80.0895C126.476 79.9933 126.499 79.8985 126.542 79.8125C126.585 79.7264 126.647 79.6514 126.724 79.5933C126.875 79.4631 127.068 79.391 127.268 79.3898C127.397 79.3898 127.703 79.5825 128.186 79.9679C128.658 80.3475 129.247 80.551 129.852 80.5436C130.652 80.5436 131.186 80.2516 131.456 79.6677C131.655 79.2707 131.754 78.6281 131.754 77.7472C131.754 77.4197 131.754 77.1492 131.734 76.9359C131.266 77.2475 130.715 77.4109 130.153 77.4048C129.676 77.4292 129.201 77.3371 128.769 77.1364C128.336 76.9358 127.959 76.6328 127.67 76.2535C127.111 75.4738 126.828 74.5299 126.866 73.5713C126.866 73.4572 126.938 71.664 127.082 68.192C127.401 68.0335 127.749 67.939 128.104 67.9141C128.389 67.9141 128.81 68.0853 129.366 68.4277C129.023 69.2812 128.853 70.9883 128.854 73.549C128.854 75.1866 129.268 76.0054 130.096 76.0054C130.706 76.0054 131.178 75.4918 131.506 74.467C131.748 73.7227 131.87 72.9446 131.868 72.1619V69.5591C131.868 69.5715 131.846 69.3383 131.804 68.8545C132.205 68.6253 132.648 68.4801 133.107 68.4277C133.497 68.4573 133.87 68.5976 134.182 68.8321V68.8321Z" fill="black"/>
</svg>
