<svg width="162" height="245" viewBox="0 0 162 245" fill="none" xmlns="http://www.w3.org/2000/svg">
<path d="M33.935 217.35C31.8817 217.35 30.1317 216.965 28.685 216.195C27.2617 215.425 26.165 214.34 25.395 212.94C24.6483 211.54 24.2283 209.895 24.135 208.005C24.1117 206.978 24.1 205.893 24.1 204.75C24.1 203.583 24.1117 202.475 24.135 201.425C24.2283 199.535 24.6483 197.902 25.395 196.525C26.165 195.148 27.2733 194.075 28.72 193.305C30.1667 192.535 31.905 192.15 33.935 192.15C35.5917 192.15 37.0267 192.383 38.24 192.85C39.4533 193.317 40.445 193.912 41.215 194.635C42.0083 195.335 42.5917 196.07 42.965 196.84C43.3617 197.61 43.5717 198.287 43.595 198.87C43.6183 199.08 43.56 199.255 43.42 199.395C43.28 199.512 43.0933 199.57 42.86 199.57H40.795C40.5617 199.57 40.3867 199.523 40.27 199.43C40.1767 199.337 40.0833 199.173 39.99 198.94C39.78 198.333 39.43 197.738 38.94 197.155C38.4733 196.572 37.8317 196.093 37.015 195.72C36.2217 195.323 35.195 195.125 33.935 195.125C32.0917 195.125 30.5983 195.627 29.455 196.63C28.335 197.633 27.7283 199.29 27.635 201.6C27.565 203.677 27.565 205.753 27.635 207.83C27.7283 210.163 28.3467 211.843 29.49 212.87C30.6333 213.873 32.1267 214.375 33.97 214.375C35.2067 214.375 36.3033 214.153 37.26 213.71C38.24 213.243 39.01 212.532 39.57 211.575C40.13 210.618 40.41 209.405 40.41 207.935V206.465H35.16C34.9267 206.465 34.7283 206.395 34.565 206.255C34.425 206.092 34.355 205.882 34.355 205.625V204.505C34.355 204.248 34.425 204.05 34.565 203.91C34.7283 203.747 34.9267 203.665 35.16 203.665H43.07C43.3267 203.665 43.525 203.747 43.665 203.91C43.805 204.05 43.875 204.248 43.875 204.505V207.865C43.875 209.778 43.4783 211.447 42.685 212.87C41.915 214.293 40.7833 215.402 39.29 216.195C37.7967 216.965 36.0117 217.35 33.935 217.35ZM46.7447 217C46.5581 217 46.3947 216.93 46.2547 216.79C46.1147 216.65 46.0447 216.487 46.0447 216.3C46.0447 216.183 46.0564 216.055 46.0797 215.915L54.7597 193.27C54.8531 193.037 54.9814 192.85 55.1447 192.71C55.3081 192.57 55.5531 192.5 55.8797 192.5H58.2597C58.5631 192.5 58.7964 192.57 58.9597 192.71C59.1464 192.85 59.2864 193.037 59.3797 193.27L68.0247 215.915C68.0714 216.055 68.0947 216.183 68.0947 216.3C68.0947 216.487 68.0247 216.65 67.8847 216.79C67.7447 216.93 67.5814 217 67.3947 217H65.6097C65.3297 217 65.1197 216.93 64.9797 216.79C64.8631 216.65 64.7814 216.522 64.7347 216.405L62.8097 211.435H51.3297L49.4047 216.405C49.3814 216.522 49.2997 216.65 49.1597 216.79C49.0197 216.93 48.8097 217 48.5297 217H46.7447ZM52.3447 208.425H61.7947L57.0697 196L52.3447 208.425ZM72.642 217C72.4087 217 72.2103 216.93 72.047 216.79C71.907 216.627 71.837 216.428 71.837 216.195V193.34C71.837 193.083 71.907 192.885 72.047 192.745C72.2103 192.582 72.4087 192.5 72.642 192.5H74.392C74.672 192.5 74.882 192.57 75.022 192.71C75.162 192.85 75.2437 192.967 75.267 193.06L82.687 207.2L90.142 193.06C90.1887 192.967 90.2703 192.85 90.387 192.71C90.527 192.57 90.737 192.5 91.017 192.5H92.732C92.9887 192.5 93.187 192.582 93.327 192.745C93.4903 192.885 93.572 193.083 93.572 193.34V216.195C93.572 216.428 93.4903 216.627 93.327 216.79C93.187 216.93 92.9887 217 92.732 217H91.017C90.7837 217 90.5853 216.93 90.422 216.79C90.282 216.627 90.212 216.428 90.212 216.195V198.975L84.367 210.385C84.2737 210.618 84.1337 210.805 83.947 210.945C83.7603 211.062 83.527 211.12 83.247 211.12H82.162C81.8587 211.12 81.6137 211.062 81.427 210.945C81.2637 210.805 81.1237 210.618 81.007 210.385L75.162 198.975V216.195C75.162 216.428 75.0803 216.627 74.917 216.79C74.777 216.93 74.5903 217 74.357 217H72.642ZM100.43 217C100.173 217 99.9751 216.93 99.8351 216.79C99.6951 216.627 99.6251 216.428 99.6251 216.195V193.34C99.6251 193.083 99.6951 192.885 99.8351 192.745C99.9751 192.582 100.173 192.5 100.43 192.5H114.885C115.142 192.5 115.34 192.582 115.48 192.745C115.62 192.885 115.69 193.083 115.69 193.34V194.67C115.69 194.927 115.62 195.125 115.48 195.265C115.34 195.405 115.142 195.475 114.885 195.475H102.985V203.14H114.115C114.372 203.14 114.57 203.222 114.71 203.385C114.85 203.525 114.92 203.723 114.92 203.98V205.275C114.92 205.508 114.85 205.707 114.71 205.87C114.57 206.01 114.372 206.08 114.115 206.08H102.985V214.025H115.165C115.422 214.025 115.62 214.095 115.76 214.235C115.9 214.375 115.97 214.573 115.97 214.83V216.195C115.97 216.428 115.9 216.627 115.76 216.79C115.62 216.93 115.422 217 115.165 217H100.43ZM128.726 217.35C126.696 217.35 124.992 217.047 123.616 216.44C122.239 215.81 121.177 215.005 120.431 214.025C119.707 213.022 119.322 211.96 119.276 210.84C119.276 210.653 119.346 210.49 119.486 210.35C119.649 210.187 119.836 210.105 120.046 210.105H121.831C122.111 210.105 122.321 210.175 122.461 210.315C122.601 210.455 122.694 210.618 122.741 210.805C122.857 211.365 123.137 211.925 123.581 212.485C124.047 213.022 124.689 213.477 125.506 213.85C126.346 214.2 127.419 214.375 128.726 214.375C130.732 214.375 132.202 214.025 133.136 213.325C134.092 212.602 134.571 211.645 134.571 210.455C134.571 209.638 134.314 208.985 133.801 208.495C133.311 207.982 132.552 207.527 131.526 207.13C130.499 206.733 129.169 206.302 127.536 205.835C125.832 205.345 124.421 204.808 123.301 204.225C122.181 203.642 121.341 202.918 120.781 202.055C120.244 201.192 119.976 200.095 119.976 198.765C119.976 197.505 120.314 196.385 120.991 195.405C121.667 194.402 122.636 193.608 123.896 193.025C125.179 192.442 126.731 192.15 128.551 192.15C129.997 192.15 131.257 192.348 132.331 192.745C133.427 193.118 134.337 193.632 135.061 194.285C135.784 194.915 136.332 195.603 136.706 196.35C137.079 197.073 137.277 197.785 137.301 198.485C137.301 198.648 137.242 198.812 137.126 198.975C137.009 199.115 136.822 199.185 136.566 199.185H134.711C134.547 199.185 134.372 199.138 134.186 199.045C134.022 198.952 133.894 198.777 133.801 198.52C133.661 197.563 133.124 196.758 132.191 196.105C131.257 195.452 130.044 195.125 128.551 195.125C127.034 195.125 125.797 195.417 124.841 196C123.907 196.583 123.441 197.493 123.441 198.73C123.441 199.523 123.662 200.188 124.106 200.725C124.549 201.238 125.249 201.693 126.206 202.09C127.162 202.487 128.411 202.907 129.951 203.35C131.817 203.863 133.346 204.412 134.536 204.995C135.726 205.555 136.601 206.267 137.161 207.13C137.744 207.97 138.036 209.055 138.036 210.385C138.036 211.855 137.651 213.115 136.881 214.165C136.111 215.192 135.026 215.985 133.626 216.545C132.249 217.082 130.616 217.35 128.726 217.35Z" fill="black"/>
<circle cx="81" cy="81" r="81" fill="#43A6D3"/>
</svg>
