<svg width="391" height="458" viewBox="0 0 391 458" fill="none" xmlns="http://www.w3.org/2000/svg">
<rect x="0.5" y="54.7414" width="390" height="402.584" rx="29.5" fill="#FEE2C1" stroke="black"/>
<rect y="0.174713" width="242" height="56" rx="15" fill="#333333"/>
<path d="M25.0227 35.3949C23.9669 35.3949 23.0578 35.1558 22.2955 34.6776C21.5379 34.1946 20.9555 33.5294 20.5483 32.6818C20.1411 31.8343 19.9375 30.8636 19.9375 29.7699C19.9375 28.6619 20.1458 27.6842 20.5625 26.8366C20.9792 25.9844 21.5663 25.3191 22.3239 24.8409C23.0814 24.3627 23.974 24.1236 25.0014 24.1236C25.83 24.1236 26.5687 24.2775 27.2173 24.5852C27.866 24.8883 28.3892 25.3144 28.7869 25.8636C29.1894 26.4129 29.4285 27.0544 29.5043 27.7883H27.4375C27.3239 27.277 27.0634 26.8366 26.6562 26.4673C26.2538 26.098 25.714 25.9133 25.0369 25.9133C24.4451 25.9133 23.9266 26.0696 23.4815 26.3821C23.0412 26.6899 22.6979 27.1302 22.4517 27.7031C22.2055 28.2713 22.0824 28.9437 22.0824 29.7202C22.0824 30.5156 22.2031 31.2022 22.4446 31.7798C22.6861 32.3575 23.027 32.8049 23.4673 33.1222C23.9124 33.4394 24.4356 33.598 25.0369 33.598C25.4394 33.598 25.804 33.5246 26.1307 33.3778C26.4621 33.2263 26.7391 33.0109 26.9616 32.7315C27.1889 32.4522 27.3475 32.116 27.4375 31.723H29.5043C29.4285 32.4285 29.1989 33.0582 28.8153 33.6122C28.4318 34.1662 27.9181 34.6018 27.2741 34.919C26.6349 35.2363 25.8845 35.3949 25.0227 35.3949ZM36.3704 35.3949C35.3477 35.3949 34.4551 35.1605 33.6928 34.6918C32.9305 34.223 32.3387 33.5672 31.9173 32.7244C31.4959 31.8816 31.2852 30.8968 31.2852 29.7699C31.2852 28.6383 31.4959 27.6487 31.9173 26.8011C32.3387 25.9536 32.9305 25.2955 33.6928 24.8267C34.4551 24.358 35.3477 24.1236 36.3704 24.1236C37.3931 24.1236 38.2856 24.358 39.0479 24.8267C39.8103 25.2955 40.4021 25.9536 40.8235 26.8011C41.2449 27.6487 41.4556 28.6383 41.4556 29.7699C41.4556 30.8968 41.2449 31.8816 40.8235 32.7244C40.4021 33.5672 39.8103 34.223 39.0479 34.6918C38.2856 35.1605 37.3931 35.3949 36.3704 35.3949ZM36.3775 33.6122C37.0404 33.6122 37.5896 33.437 38.0252 33.0866C38.4608 32.7363 38.7828 32.2699 38.9911 31.6875C39.2042 31.1051 39.3107 30.4635 39.3107 29.7628C39.3107 29.0668 39.2042 28.4276 38.9911 27.8452C38.7828 27.258 38.4608 26.7869 38.0252 26.4318C37.5896 26.0767 37.0404 25.8991 36.3775 25.8991C35.7099 25.8991 35.1559 26.0767 34.7156 26.4318C34.2799 26.7869 33.9556 27.258 33.7425 27.8452C33.5342 28.4276 33.43 29.0668 33.43 29.7628C33.43 30.4635 33.5342 31.1051 33.7425 31.6875C33.9556 32.2699 34.2799 32.7363 34.7156 33.0866C35.1559 33.437 35.7099 33.6122 36.3775 33.6122ZM43.826 35.1747V24.2656H45.8643V26.0412H45.9993C46.2266 25.4399 46.5982 24.9711 47.1143 24.6349C47.6304 24.294 48.2483 24.1236 48.968 24.1236C49.6972 24.1236 50.308 24.294 50.8004 24.6349C51.2976 24.9758 51.6645 25.4446 51.9013 26.0412H52.0149C52.2753 25.4588 52.6896 24.9948 53.2578 24.6491C53.826 24.2988 54.5031 24.1236 55.2891 24.1236C56.2786 24.1236 57.0859 24.4337 57.7109 25.054C58.3407 25.6742 58.6555 26.6094 58.6555 27.8594V35.1747H56.532V28.0582C56.532 27.3196 56.3307 26.7846 55.9283 26.4531C55.5258 26.1217 55.0452 25.956 54.4865 25.956C53.7952 25.956 53.2578 26.169 52.8743 26.5952C52.4908 27.0166 52.299 27.5587 52.299 28.2216V35.1747H50.1825V27.9233C50.1825 27.3314 49.9979 26.8556 49.6286 26.4957C49.2592 26.1359 48.7786 25.956 48.1868 25.956C47.7843 25.956 47.4126 26.0625 47.0717 26.2756C46.7356 26.4839 46.4633 26.7751 46.255 27.1491C46.0514 27.5232 45.9496 27.9564 45.9496 28.4489V35.1747H43.826ZM61.5018 35.1747V24.2656H63.5401V26.0412H63.6751C63.9023 25.4399 64.274 24.9711 64.7901 24.6349C65.3062 24.294 65.9241 24.1236 66.6438 24.1236C67.373 24.1236 67.9838 24.294 68.4762 24.6349C68.9734 24.9758 69.3403 25.4446 69.5771 26.0412H69.6907C69.9511 25.4588 70.3654 24.9948 70.9336 24.6491C71.5018 24.2988 72.1789 24.1236 72.9648 24.1236C73.9544 24.1236 74.7617 24.4337 75.3867 25.054C76.0165 25.6742 76.3313 26.6094 76.3313 27.8594V35.1747H74.2077V28.0582C74.2077 27.3196 74.0065 26.7846 73.604 26.4531C73.2016 26.1217 72.721 25.956 72.1623 25.956C71.471 25.956 70.9336 26.169 70.5501 26.5952C70.1665 27.0166 69.9748 27.5587 69.9748 28.2216V35.1747H67.8583V27.9233C67.8583 27.3314 67.6737 26.8556 67.3043 26.4957C66.935 26.1359 66.4544 25.956 65.8626 25.956C65.4601 25.956 65.0884 26.0625 64.7475 26.2756C64.4113 26.4839 64.1391 26.7751 63.9308 27.1491C63.7272 27.5232 63.6254 27.9564 63.6254 28.4489V35.1747H61.5018ZM86.0881 30.6506V24.2656H88.2188V35.1747H86.1307V33.2855H86.017C85.7661 33.8679 85.3636 34.3532 84.8097 34.7415C84.2604 35.125 83.5762 35.3168 82.7571 35.3168C82.0563 35.3168 81.4361 35.1629 80.8963 34.8551C80.3613 34.5426 79.9399 34.081 79.6321 33.4702C79.3291 32.8594 79.1776 32.1042 79.1776 31.2045V24.2656H81.3011V30.9489C81.3011 31.6922 81.5071 32.2841 81.919 32.7244C82.331 33.1648 82.866 33.3849 83.5241 33.3849C83.9219 33.3849 84.3172 33.2855 84.7102 33.0866C85.108 32.8878 85.437 32.5871 85.6974 32.1847C85.9626 31.7822 86.0928 31.2708 86.0881 30.6506ZM93.1957 28.6974V35.1747H91.0721V24.2656H93.1104V26.0412H93.2454C93.4963 25.4635 93.8893 24.9995 94.4244 24.6491C94.9641 24.2988 95.6436 24.1236 96.4627 24.1236C97.2061 24.1236 97.8571 24.2798 98.4158 24.5923C98.9746 24.9001 99.4078 25.3594 99.7156 25.9702C100.023 26.581 100.177 27.3362 100.177 28.2358V35.1747H98.0536V28.4915C98.0536 27.7008 97.8477 27.0829 97.4357 26.6378C97.0238 26.188 96.458 25.9631 95.7383 25.9631C95.2459 25.9631 94.8079 26.0696 94.4244 26.2827C94.0456 26.4957 93.7449 26.8082 93.5224 27.2202C93.3046 27.6274 93.1957 28.1198 93.1957 28.6974ZM103.025 35.1747V24.2656H105.149V35.1747H103.025ZM104.098 22.5824C103.728 22.5824 103.411 22.4593 103.146 22.2131C102.886 21.9621 102.755 21.6638 102.755 21.3182C102.755 20.9678 102.886 20.6695 103.146 20.4233C103.411 20.1723 103.728 20.0469 104.098 20.0469C104.467 20.0469 104.782 20.1723 105.042 20.4233C105.307 20.6695 105.44 20.9678 105.44 21.3182C105.44 21.6638 105.307 21.9621 105.042 22.2131C104.782 22.4593 104.467 22.5824 104.098 22.5824ZM113.098 24.2656V25.9702H107.139V24.2656H113.098ZM108.737 21.652H110.861V31.9716C110.861 32.3835 110.922 32.6937 111.045 32.902C111.169 33.1056 111.327 33.2453 111.521 33.321C111.72 33.392 111.936 33.4276 112.168 33.4276C112.338 33.4276 112.487 33.4157 112.615 33.392C112.743 33.3684 112.842 33.3494 112.913 33.3352L113.297 35.0895C113.174 35.1368 112.999 35.1842 112.771 35.2315C112.544 35.2836 112.26 35.312 111.919 35.3168C111.36 35.3262 110.839 35.2268 110.357 35.0185C109.874 34.8101 109.483 34.4882 109.185 34.0526C108.886 33.6169 108.737 33.0701 108.737 32.4119V21.652ZM116.789 39.2656C116.472 39.2656 116.183 39.2396 115.923 39.1875C115.663 39.1401 115.468 39.0881 115.341 39.0312L115.852 37.2912C116.24 37.3954 116.586 37.4403 116.889 37.4261C117.192 37.4119 117.459 37.2983 117.691 37.0852C117.928 36.8722 118.136 36.5241 118.316 36.0412L118.579 35.3168L114.588 24.2656H116.86L119.623 32.7315H119.737L122.5 24.2656H124.779L120.284 36.6307C120.075 37.1989 119.81 37.6794 119.488 38.0724C119.166 38.4702 118.783 38.7685 118.338 38.9673C117.893 39.1662 117.377 39.2656 116.789 39.2656ZM132.068 39.2656V24.2656H134.142V26.0341H134.32C134.443 25.8068 134.62 25.544 134.852 25.2457C135.084 24.9474 135.406 24.687 135.818 24.4645C136.23 24.2372 136.775 24.1236 137.452 24.1236C138.332 24.1236 139.118 24.3461 139.81 24.7912C140.501 25.2363 141.043 25.8778 141.436 26.7159C141.834 27.554 142.033 28.5625 142.033 29.7415C142.033 30.9205 141.836 31.9313 141.443 32.7741C141.05 33.6122 140.51 34.2585 139.824 34.7131C139.137 35.1629 138.354 35.3878 137.473 35.3878C136.81 35.3878 136.268 35.2765 135.847 35.054C135.43 34.8314 135.103 34.571 134.866 34.2727C134.63 33.9744 134.447 33.7093 134.32 33.4773H134.192V39.2656H132.068ZM134.149 29.7202C134.149 30.4872 134.26 31.1596 134.483 31.7372C134.705 32.3149 135.027 32.767 135.449 33.0937C135.87 33.4157 136.386 33.5767 136.997 33.5767C137.632 33.5767 138.162 33.4086 138.588 33.0724C139.014 32.7315 139.336 32.2699 139.554 31.6875C139.777 31.1051 139.888 30.4493 139.888 29.7202C139.888 29.0005 139.779 28.3542 139.561 27.7812C139.348 27.2083 139.026 26.7562 138.595 26.4247C138.169 26.0933 137.636 25.9276 136.997 25.9276C136.382 25.9276 135.861 26.0862 135.435 26.4034C135.013 26.7206 134.694 27.1633 134.476 27.7315C134.258 28.2997 134.149 28.9626 134.149 29.7202ZM144.412 35.1747V24.2656H146.464V25.9986H146.578C146.777 25.4115 147.127 24.9498 147.629 24.6136C148.136 24.2727 148.709 24.1023 149.348 24.1023C149.481 24.1023 149.637 24.107 149.817 24.1165C150.001 24.1259 150.146 24.1378 150.25 24.152V26.1832C150.165 26.1596 150.013 26.1335 149.795 26.1051C149.578 26.072 149.36 26.0554 149.142 26.0554C148.64 26.0554 148.193 26.1619 147.8 26.375C147.411 26.5833 147.104 26.8745 146.876 27.2486C146.649 27.6179 146.536 28.0393 146.536 28.5128V35.1747H144.412ZM156.292 35.3949C155.27 35.3949 154.377 35.1605 153.615 34.6918C152.852 34.223 152.261 33.5672 151.839 32.7244C151.418 31.8816 151.207 30.8968 151.207 29.7699C151.207 28.6383 151.418 27.6487 151.839 26.8011C152.261 25.9536 152.852 25.2955 153.615 24.8267C154.377 24.358 155.27 24.1236 156.292 24.1236C157.315 24.1236 158.208 24.358 158.97 24.8267C159.732 25.2955 160.324 25.9536 160.745 26.8011C161.167 27.6487 161.377 28.6383 161.377 29.7699C161.377 30.8968 161.167 31.8816 160.745 32.7244C160.324 33.5672 159.732 34.223 158.97 34.6918C158.208 35.1605 157.315 35.3949 156.292 35.3949ZM156.299 33.6122C156.962 33.6122 157.511 33.437 157.947 33.0866C158.383 32.7363 158.705 32.2699 158.913 31.6875C159.126 31.1051 159.233 30.4635 159.233 29.7628C159.233 29.0668 159.126 28.4276 158.913 27.8452C158.705 27.258 158.383 26.7869 157.947 26.4318C157.511 26.0767 156.962 25.8991 156.299 25.8991C155.632 25.8991 155.078 26.0767 154.637 26.4318C154.202 26.7869 153.877 27.258 153.664 27.8452C153.456 28.4276 153.352 29.0668 153.352 29.7628C153.352 30.4635 153.456 31.1051 153.664 31.6875C153.877 32.2699 154.202 32.7363 154.637 33.0866C155.078 33.437 155.632 33.6122 156.299 33.6122ZM168.322 39.4929C167.455 39.4929 166.71 39.3793 166.085 39.152C165.464 38.9247 164.958 38.6241 164.565 38.25C164.172 37.8759 163.878 37.4664 163.684 37.0213L165.509 36.2685C165.637 36.4768 165.808 36.697 166.021 36.929C166.238 37.1657 166.532 37.3669 166.901 37.5327C167.275 37.6984 167.756 37.7812 168.343 37.7812C169.148 37.7812 169.813 37.5848 170.339 37.1918C170.864 36.8035 171.127 36.1832 171.127 35.331V33.1861H170.992C170.864 33.4181 170.68 33.6761 170.438 33.9602C170.201 34.2443 169.875 34.4905 169.458 34.6989C169.041 34.9072 168.499 35.0114 167.832 35.0114C166.97 35.0114 166.193 34.8101 165.502 34.4077C164.816 34.0005 164.271 33.4015 163.869 32.6108C163.471 31.8153 163.272 30.8376 163.272 29.6776C163.272 28.5175 163.469 27.5232 163.862 26.6946C164.259 25.866 164.804 25.2315 165.495 24.7912C166.186 24.3461 166.97 24.1236 167.846 24.1236C168.523 24.1236 169.07 24.2372 169.487 24.4645C169.903 24.687 170.228 24.9474 170.46 25.2457C170.696 25.544 170.879 25.8068 171.006 26.0341H171.163V24.2656H173.244V35.4162C173.244 36.3537 173.026 37.1231 172.59 37.7244C172.155 38.3258 171.565 38.7708 170.822 39.0597C170.083 39.3485 169.25 39.4929 168.322 39.4929ZM168.3 33.25C168.911 33.25 169.427 33.108 169.849 32.8239C170.275 32.535 170.597 32.1231 170.815 31.5881C171.037 31.0483 171.148 30.402 171.148 29.6491C171.148 28.9152 171.04 28.2689 170.822 27.7102C170.604 27.1515 170.284 26.7159 169.863 26.4034C169.442 26.0862 168.921 25.9276 168.3 25.9276C167.661 25.9276 167.129 26.0933 166.702 26.4247C166.276 26.7514 165.954 27.1965 165.737 27.7599C165.523 28.3234 165.417 28.9531 165.417 29.6491C165.417 30.3641 165.526 30.9915 165.744 31.5312C165.961 32.071 166.283 32.4924 166.71 32.7955C167.14 33.0985 167.671 33.25 168.3 33.25ZM176.092 35.1747V24.2656H178.144V25.9986H178.258C178.457 25.4115 178.807 24.9498 179.309 24.6136C179.816 24.2727 180.388 24.1023 181.028 24.1023C181.16 24.1023 181.317 24.107 181.496 24.1165C181.681 24.1259 181.826 24.1378 181.93 24.152V26.1832C181.844 26.1596 181.693 26.1335 181.475 26.1051C181.257 26.072 181.04 26.0554 180.822 26.0554C180.32 26.0554 179.872 26.1619 179.479 26.375C179.091 26.5833 178.783 26.8745 178.556 27.2486C178.329 27.6179 178.215 28.0393 178.215 28.5128V35.1747H176.092ZM186.844 35.4162C186.153 35.4162 185.528 35.2883 184.969 35.0327C184.411 34.7723 183.968 34.3958 183.641 33.9034C183.319 33.411 183.158 32.8073 183.158 32.0923C183.158 31.4768 183.277 30.9702 183.513 30.5724C183.75 30.1747 184.07 29.8598 184.472 29.6278C184.875 29.3958 185.325 29.2206 185.822 29.1023C186.319 28.9839 186.826 28.8939 187.342 28.8324C187.995 28.7566 188.525 28.6951 188.933 28.6477C189.34 28.5956 189.636 28.5128 189.82 28.3991C190.005 28.2855 190.097 28.1008 190.097 27.8452V27.7955C190.097 27.1752 189.922 26.6946 189.572 26.3537C189.226 26.0128 188.71 25.8423 188.023 25.8423C187.308 25.8423 186.745 26.0009 186.333 26.3182C185.926 26.6307 185.644 26.9787 185.488 27.3622L183.492 26.9077C183.729 26.2448 184.075 25.7098 184.529 25.3026C184.988 24.8906 185.516 24.5923 186.113 24.4077C186.71 24.2183 187.337 24.1236 187.995 24.1236C188.431 24.1236 188.892 24.1757 189.38 24.2798C189.872 24.3793 190.332 24.5639 190.758 24.8338C191.189 25.1037 191.541 25.4896 191.816 25.9915C192.091 26.4886 192.228 27.1349 192.228 27.9304V35.1747H190.154V33.6832H190.069C189.932 33.9579 189.726 34.2277 189.451 34.4929C189.176 34.758 188.824 34.9782 188.393 35.1534C187.962 35.3286 187.446 35.4162 186.844 35.4162ZM187.306 33.7116C187.893 33.7116 188.395 33.5956 188.812 33.3636C189.233 33.1316 189.553 32.8286 189.771 32.4545C189.993 32.0758 190.104 31.6709 190.104 31.2401V29.8338C190.029 29.9096 189.882 29.9806 189.664 30.0469C189.451 30.1084 189.207 30.1629 188.933 30.2102C188.658 30.2528 188.39 30.2931 188.13 30.331C187.87 30.3641 187.652 30.3925 187.477 30.4162C187.065 30.4683 186.688 30.5559 186.347 30.679C186.011 30.8021 185.741 30.9796 185.538 31.2116C185.339 31.4389 185.239 31.7419 185.239 32.1207C185.239 32.6463 185.433 33.044 185.822 33.3139C186.21 33.5791 186.705 33.7116 187.306 33.7116ZM195.056 35.1747V24.2656H197.095V26.0412H197.23C197.457 25.4399 197.829 24.9711 198.345 24.6349C198.861 24.294 199.479 24.1236 200.199 24.1236C200.928 24.1236 201.538 24.294 202.031 24.6349C202.528 24.9758 202.895 25.4446 203.132 26.0412H203.245C203.506 25.4588 203.92 24.9948 204.488 24.6491C205.056 24.2988 205.734 24.1236 206.52 24.1236C207.509 24.1236 208.316 24.4337 208.941 25.054C209.571 25.6742 209.886 26.6094 209.886 27.8594V35.1747H207.762V28.0582C207.762 27.3196 207.561 26.7846 207.159 26.4531C206.756 26.1217 206.276 25.956 205.717 25.956C205.026 25.956 204.488 26.169 204.105 26.5952C203.721 27.0166 203.529 27.5587 203.529 28.2216V35.1747H201.413V27.9233C201.413 27.3314 201.228 26.8556 200.859 26.4957C200.49 26.1359 200.009 25.956 199.417 25.956C199.015 25.956 198.643 26.0625 198.302 26.2756C197.966 26.4839 197.694 26.7751 197.485 27.1491C197.282 27.5232 197.18 27.9564 197.18 28.4489V35.1747H195.056ZM220.907 26.929L218.982 27.2699C218.902 27.0237 218.774 26.7893 218.599 26.5668C218.428 26.3442 218.196 26.1619 217.903 26.0199C217.609 25.8778 217.242 25.8068 216.802 25.8068C216.201 25.8068 215.699 25.9418 215.296 26.2116C214.894 26.4768 214.692 26.8201 214.692 27.2415C214.692 27.6061 214.827 27.8996 215.097 28.1222C215.367 28.3447 215.803 28.527 216.404 28.669L218.137 29.0668C219.141 29.2988 219.889 29.6562 220.381 30.1392C220.874 30.6222 221.12 31.2495 221.12 32.0213C221.12 32.6747 220.931 33.2571 220.552 33.7685C220.178 34.2751 219.655 34.6728 218.982 34.9616C218.315 35.2505 217.54 35.3949 216.66 35.3949C215.438 35.3949 214.442 35.1345 213.67 34.6136C212.898 34.0881 212.424 33.3423 212.249 32.3764L214.302 32.0639C214.43 32.599 214.692 33.0038 215.09 33.2784C215.488 33.5483 216.006 33.6832 216.646 33.6832C217.342 33.6832 217.898 33.5388 218.315 33.25C218.731 32.9564 218.94 32.599 218.94 32.1776C218.94 31.8366 218.812 31.5502 218.556 31.3182C218.305 31.0862 217.919 30.911 217.398 30.7926L215.552 30.3878C214.534 30.1558 213.781 29.7865 213.293 29.2798C212.81 28.7732 212.569 28.1316 212.569 27.3551C212.569 26.7112 212.749 26.1477 213.109 25.6648C213.469 25.1818 213.966 24.8054 214.6 24.5355C215.235 24.2609 215.961 24.1236 216.781 24.1236C217.96 24.1236 218.888 24.3793 219.565 24.8906C220.242 25.3973 220.689 26.0767 220.907 26.929Z" fill="white"/>
<path d="M261.832 169.858L306.541 215.912H340.707L295.51 169.37L261.832 169.858Z" fill="#047379"/>
<path d="M261.831 169.858L261.636 205.472L273.35 215.815L308.591 215.912L261.831 169.858Z" fill="#79BC43"/>
<path d="M341 216.01H307.126V250.161H341V216.01Z" fill="#B2D464"/>
<path d="M316.693 241.379C315.619 240.501 315.131 239.135 315.131 237.281C315.131 236.598 315.229 235.915 315.326 235.232C315.619 233.573 316.01 232.11 316.303 230.646C316.888 228.109 317.962 226.255 319.426 224.987C320.891 223.718 322.745 223.133 324.991 223.133C326.845 223.133 328.31 223.621 329.383 224.499C330.457 225.475 330.945 226.841 330.945 228.597C330.945 229.28 330.848 229.963 330.75 230.548C330.457 232.207 330.164 233.671 329.774 235.134C329.188 237.671 328.114 239.525 326.65 240.794C325.186 242.062 323.331 242.647 321.183 242.647C319.231 242.843 317.767 242.355 316.693 241.379ZM325.479 239.72C326.65 238.745 327.529 237.183 328.017 235.134C328.407 233.768 328.7 232.305 328.993 230.841C329.091 230.158 329.188 229.475 329.188 228.792C329.188 227.426 328.798 226.353 328.114 225.767C327.431 225.084 326.357 224.792 324.991 224.792C323.233 224.792 321.769 225.279 320.598 226.255C319.426 227.231 318.548 228.792 318.06 230.841C317.669 232.207 317.376 233.671 317.084 235.134C316.986 235.817 316.888 236.5 316.888 237.183C316.888 238.549 317.279 239.623 317.962 240.208C318.645 240.891 319.719 241.184 321.183 241.184C322.843 241.184 324.307 240.696 325.479 239.72Z" fill="white"/>
<path d="M308.2 215.912L296.096 203.618L262.222 203.423L274.327 215.912H308.2Z" fill="#FFF200"/>
<path d="M116.966 193.178V228.304L139.418 249.966L139.711 215.62L116.966 193.178Z" fill="#C73292"/>
<path d="M172.804 215.815L139.223 215.62L117.259 193.275L150.644 193.373L172.804 215.815Z" fill="#82CFCD"/>
<path d="M172.804 215.62H139.223V249.966H172.804V215.62Z" fill="#92278F"/>
<path d="M140.004 215.62H105.642V249.966H140.004V215.62Z" fill="#E03F2F"/>
<path d="M206.384 215.62H172.804V249.868H206.384V215.62Z" fill="#F26522"/>
<path d="M240.648 215.717H206.482V249.868H240.648V215.717Z" fill="#CA2E92"/>
<path d="M274.522 215.717H240.648V249.868H274.522V215.717Z" fill="#43A6D3"/>
<path d="M161.773 169.663L206.482 215.717H240.648L195.451 169.175L161.773 169.663Z" fill="#FFF200"/>
<path d="M274.522 215.717L262.222 203.423H228.739L240.648 215.717H274.522Z" fill="#92278F"/>
<path d="M161.773 169.663L161.578 205.179L172.804 215.62L206.482 215.717L161.773 169.663Z" fill="#CCA1CB"/>
<path d="M114.33 240.794C114.233 240.696 114.233 240.598 114.233 240.501V240.403L118.04 222.547C118.04 222.352 118.138 222.255 118.333 222.059C118.43 221.962 118.626 221.864 118.821 221.864H125.166C126.826 221.864 128.095 222.157 129.071 222.84C129.949 223.523 130.437 224.499 130.437 225.865C130.437 226.353 130.34 226.841 130.242 227.328C129.949 228.792 129.364 229.963 128.387 230.841C127.411 231.719 126.338 232.305 124.971 232.597L127.802 240.111V240.208C127.802 240.306 127.802 240.306 127.802 240.403C127.802 240.501 127.704 240.696 127.607 240.794C127.509 240.891 127.314 240.989 127.216 240.989H126.923C126.63 240.989 126.435 240.891 126.338 240.794C126.24 240.696 126.142 240.501 126.045 240.208L123.214 232.89H117.552L115.99 240.403C115.99 240.598 115.892 240.696 115.697 240.794C115.502 240.891 115.404 240.989 115.209 240.989H114.721C114.526 240.989 114.33 240.891 114.33 240.794ZM123.018 231.231C126.142 231.231 127.997 229.963 128.583 227.328C128.68 226.938 128.68 226.548 128.68 226.255C128.68 224.401 127.314 223.425 124.678 223.425H119.602L117.942 231.231H123.018Z" fill="white"/>
<path d="M186.958 242.257C186.861 242.16 186.861 242.062 186.861 241.964V241.867L188.227 235.134L183.835 224.206C183.835 224.108 183.737 224.011 183.737 224.011C183.737 223.816 183.835 223.718 183.932 223.523C184.03 223.425 184.225 223.328 184.42 223.328H184.908C185.201 223.328 185.299 223.425 185.494 223.718L189.301 233.28L197.111 223.718C197.306 223.425 197.599 223.328 197.794 223.328H198.673C198.965 223.328 199.161 223.425 199.161 223.718C199.161 223.913 199.063 224.108 198.868 224.304L189.887 235.232L188.423 241.964C188.423 242.16 188.325 242.257 188.13 242.355C187.935 242.452 187.837 242.55 187.642 242.55H187.154C187.251 242.355 187.056 242.355 186.958 242.257Z" fill="white"/>
<path d="M214.877 242.16C214.78 242.062 214.78 241.965 214.78 241.867V241.769L218.587 223.913C218.587 223.718 218.684 223.621 218.879 223.426C218.977 223.328 219.172 223.23 219.368 223.23H230.008C230.203 223.23 230.301 223.328 230.398 223.426C230.496 223.523 230.496 223.621 230.496 223.718C230.496 223.816 230.496 223.816 230.496 223.913L230.398 224.304C230.398 224.499 230.301 224.596 230.106 224.694C230.008 224.792 229.813 224.889 229.617 224.889H220.051L218.587 231.817H227.567C227.763 231.817 227.86 231.914 227.958 232.012C228.056 232.11 228.056 232.207 228.056 232.305C228.056 232.402 228.056 232.402 228.056 232.5L227.958 232.89C227.958 233.085 227.86 233.183 227.665 233.28C227.567 233.378 227.372 233.476 227.177 233.476H218.196L216.634 240.696H226.396C226.591 240.696 226.689 240.794 226.787 240.891C226.884 240.989 226.884 241.086 226.884 241.184C226.884 241.281 226.884 241.281 226.884 241.379L226.787 241.769C226.787 241.965 226.689 242.062 226.494 242.16C226.396 242.257 226.201 242.355 226.006 242.355H215.17C215.072 242.257 214.975 242.257 214.877 242.16Z" fill="white"/>
<path d="M249.434 240.696C248.458 239.72 247.97 238.354 247.97 236.598C247.97 236.012 248.067 235.427 248.165 234.744C248.36 233.476 248.751 231.817 249.239 229.865C249.824 227.621 250.801 225.767 252.167 224.499C253.534 223.133 255.486 222.547 257.829 222.547C259.293 222.547 260.465 222.743 261.441 223.23C262.417 223.718 263.1 224.304 263.491 225.084C263.881 225.865 264.174 226.645 264.174 227.524C264.174 227.816 264.174 228.109 264.077 228.499C263.979 228.89 263.881 229.085 263.589 229.085H263.003C262.808 229.085 262.71 229.085 262.612 228.987C262.515 228.89 262.417 228.792 262.515 228.597C262.515 228.499 262.515 228.207 262.515 227.914C262.515 225.572 261.051 224.304 258.024 224.304C256.267 224.304 254.803 224.792 253.632 225.767C252.46 226.743 251.582 228.207 251.093 230.256C250.703 231.719 250.41 233.28 250.117 234.842C250.02 235.622 249.922 236.305 249.922 236.696C249.922 239.428 251.386 240.696 254.217 240.696C255.779 240.696 257.146 240.403 258.22 239.72C259.293 239.037 260.172 237.964 260.855 236.403C260.953 236.012 261.246 235.817 261.539 235.817H262.124C262.32 235.817 262.417 235.817 262.515 235.915C262.612 236.012 262.612 236.11 262.612 236.208C262.612 236.305 262.612 236.305 262.612 236.403C262.124 238.062 261.246 239.428 259.879 240.598C258.61 241.769 256.755 242.355 254.217 242.355C251.972 242.16 250.41 241.672 249.434 240.696Z" fill="white"/>
<path d="M50 193.08V228.109L72.3546 249.77L72.745 215.424L50 193.08Z" fill="#F3B21C"/>
<path d="M105.838 215.62L72.2569 215.424L50.2928 193.08L83.6783 193.275L105.838 215.62Z" fill="#B2D464"/>
<path d="M105.838 215.522H72.2569V249.868H105.838V215.522Z" fill="#4BBFAA"/>
<path d="M81.5308 240.696C81.4331 240.598 81.4331 240.501 81.4331 240.403V240.306L85.2402 222.45C85.2402 222.255 85.3379 222.157 85.5331 221.962C85.6307 221.864 85.826 221.767 86.0212 221.767H92.5616C94.3187 221.767 95.5878 222.157 96.564 222.84C97.5401 223.523 97.9306 224.596 97.9306 225.962C97.9306 226.45 97.833 226.938 97.7354 227.426C97.3449 229.28 96.4663 230.646 95.2949 231.622C94.0259 232.597 92.464 233.085 90.414 233.085H84.7522L83.1903 240.208C83.1903 240.403 83.0926 240.501 82.8974 240.598C82.7022 240.696 82.6046 240.794 82.4093 240.794H81.9212C81.726 240.794 81.6284 240.794 81.5308 240.696ZM90.2188 231.329C91.6831 231.329 92.9521 230.939 94.0259 230.256C95.0021 229.573 95.6854 228.597 95.9782 227.328C96.0759 226.645 96.1735 226.158 96.1735 225.865C96.1735 224.987 95.8806 224.304 95.2949 223.913C94.7092 223.523 93.733 223.328 92.2688 223.328H86.7045L84.9474 231.329H90.2188Z" fill="white"/>
<path d="M308.2 215.912H274.327V250.063H308.2V215.912Z" fill="#E03F2F"/>
<path d="M286.626 241.769C286.529 241.672 286.529 241.574 286.529 241.477V241.379L290.141 224.499H284.772C284.577 224.499 284.479 224.401 284.381 224.304C284.284 224.206 284.284 224.109 284.284 224.011V223.913L284.381 223.523C284.381 223.328 284.479 223.23 284.674 223.035C284.772 222.938 284.967 222.84 285.162 222.84H297.657C297.853 222.84 297.95 222.938 298.048 223.035C298.145 223.133 298.145 223.23 298.145 223.328C298.145 223.426 298.145 223.426 298.145 223.523L297.95 223.816C297.95 224.011 297.853 224.109 297.657 224.206C297.56 224.304 297.364 224.401 297.169 224.401H291.8L288.188 241.281C288.188 241.477 288.091 241.574 287.896 241.672C287.7 241.769 287.603 241.867 287.407 241.867H286.919C286.822 241.867 286.724 241.867 286.626 241.769Z" fill="white"/>
<path d="M148.887 241.086C147.814 240.208 147.325 238.842 147.325 236.988C147.325 236.305 147.423 235.622 147.521 234.939C147.814 233.28 148.204 231.817 148.497 230.353C149.083 227.816 150.156 225.962 151.621 224.694C153.085 223.426 154.94 222.84 157.185 222.84C159.04 222.84 160.504 223.328 161.578 224.206C162.651 225.182 163.14 226.548 163.14 228.304C163.14 228.987 163.042 229.67 162.944 230.256C162.651 231.914 162.359 233.378 161.968 234.842C161.382 237.379 160.309 239.232 158.844 240.501C157.38 241.769 155.525 242.355 153.378 242.355C151.425 242.452 149.961 241.964 148.887 241.086ZM157.673 239.33C158.844 238.354 159.723 236.793 160.211 234.744C160.601 233.378 160.894 231.914 161.187 230.451C161.285 229.768 161.382 229.085 161.382 228.402C161.382 227.036 160.992 225.962 160.309 225.377C159.625 224.694 158.552 224.401 157.185 224.401C155.428 224.401 153.963 224.889 152.792 225.865C151.621 226.841 150.742 228.402 150.254 230.451C149.863 231.817 149.571 233.28 149.278 234.744C149.18 235.427 149.083 236.11 149.083 236.793C149.083 238.159 149.473 239.232 150.156 239.818C150.84 240.501 151.913 240.794 153.378 240.794C155.037 240.794 156.502 240.306 157.673 239.33Z" fill="white"/>
<path d="M122.14 266.846C125.947 266.846 129.168 267.431 131.804 268.504C134.44 269.578 136.587 271.041 138.344 272.895C140.004 274.749 141.273 276.798 141.956 279.14C142.737 281.482 143.128 283.823 143.128 286.36C143.128 288.8 142.737 291.141 141.956 293.581C141.175 295.923 140.004 297.972 138.344 299.825C136.685 301.679 134.537 303.045 131.804 304.216C129.168 305.29 125.947 305.875 122.14 305.875H108.083V327.634H94.8067V267.041H122.14V266.846ZM118.43 295.435C119.992 295.435 121.456 295.337 122.823 295.142C124.19 294.947 125.459 294.459 126.533 293.873C127.606 293.19 128.485 292.312 129.168 291.141C129.852 289.971 130.144 288.409 130.144 286.458C130.144 284.506 129.852 282.945 129.168 281.774C128.485 280.603 127.606 279.628 126.533 279.042C125.459 278.359 124.19 277.969 122.823 277.774C121.359 277.579 119.895 277.481 118.43 277.481H108.083V295.63H118.43V295.435Z" fill="#00A651"/>
<path d="M164.701 266.846V316.218H194.28V327.439H151.425V266.846H164.701Z" fill="#00A651"/>
<path d="M266.029 266.846H280.965L295.119 290.751L309.176 266.846H324.014L301.464 304.216V327.439H288.091V303.826L266.029 266.846Z" fill="#00A651"/>
<path d="M206.287 270.749C206.287 275.432 206.287 280.213 206.287 284.897C206.287 293.581 206.287 302.265 206.287 310.949C206.287 314.169 206.287 317.389 206.287 320.609C206.287 322.17 206.091 324.121 206.58 325.585C207.458 328.219 210.387 329.781 213.12 329C213.803 328.805 214.389 328.414 214.975 328.122C216.83 326.951 218.684 325.878 220.539 324.707C227.47 320.413 234.401 316.218 241.429 311.925C247.872 307.924 254.315 304.021 260.758 300.021C261.929 299.24 263.198 298.557 264.467 297.776C267.786 295.63 267.396 290.849 263.784 289.288C258.708 286.946 253.632 284.702 248.458 282.36C240.551 278.75 232.644 275.237 224.737 271.627C221.906 270.358 218.977 268.992 216.146 267.724C214.78 267.138 213.12 266.163 211.656 265.967C208.727 265.675 206.384 267.919 206.287 270.749C206.189 272.212 208.532 272.212 208.63 270.749C208.727 268.895 210.387 267.919 212.046 268.504C212.534 268.7 213.12 268.992 213.608 269.187C215.951 270.261 218.294 271.334 220.637 272.407C228.056 275.725 235.475 279.14 242.894 282.457C248.848 285.189 254.901 287.922 260.855 290.556C262.417 291.239 264.76 292.02 264.272 294.264C263.979 295.727 262.124 296.508 260.953 297.191C255.291 300.704 249.629 304.119 243.967 307.631C236.939 311.925 229.91 316.218 222.882 320.511C220.441 321.975 218.099 323.438 215.658 324.902C214.584 325.585 213.12 326.756 211.851 326.853C209.996 327.048 208.63 325.487 208.532 323.731C208.532 323.146 208.532 322.658 208.532 322.072C208.532 319.438 208.532 316.803 208.532 314.169C208.532 305.973 208.532 297.776 208.532 289.58C208.532 283.531 208.532 277.481 208.532 271.529C208.532 271.236 208.532 270.944 208.532 270.553C208.63 269.187 206.287 269.187 206.287 270.749Z" fill="#B2D464"/>
<path d="M206.97 272.31C207.946 272.31 208.825 272.407 209.801 272.31C209.996 272.31 211.656 271.724 211.656 271.724C211.949 272.017 210.972 272.895 210.777 273.09C210.289 273.676 210.094 274.164 209.996 274.944C209.899 275.822 211.07 276.31 211.753 275.92C212.534 275.53 213.413 275.139 214.291 274.749C214.877 274.554 215.463 274.359 216.049 274.164C216.146 274.164 216.634 274.066 216.732 274.066C216.927 273.871 216.732 274.261 216.537 273.871C216.537 273.481 216.537 273.09 216.537 272.7C215.756 274.261 213.706 275.139 212.339 276.115C211.265 276.896 209.703 278.067 209.411 279.433C209.313 280.116 209.703 280.896 210.484 280.896C212.339 280.799 213.706 279.725 215.365 278.945C216.049 278.652 216.732 278.359 217.415 277.969C217.903 277.676 218.684 277.091 219.27 277.286C218.977 276.993 218.684 276.701 218.489 276.505C218.587 276.701 217.22 277.969 217.025 278.164C216.244 279.042 215.463 279.92 214.487 280.603C212.925 281.872 210.875 283.433 210.191 285.385C209.899 286.36 211.07 287.238 211.851 286.653C214.682 284.799 217.513 282.945 220.539 281.384C222.101 280.603 223.565 279.725 225.127 278.945C225.908 278.554 226.689 278.067 227.47 277.676C228.251 277.286 228.934 276.701 229.813 276.505C229.422 275.822 229.032 275.237 228.641 274.554C227.177 275.92 225.322 276.993 223.76 278.262C221.906 279.628 220.051 280.994 218.196 282.36C214.584 284.994 211.265 288.019 207.849 291.044C206.97 291.824 207.946 293.288 209.02 292.995C209.801 292.8 210.387 292.312 211.07 291.922C211.949 291.434 212.925 291.044 213.803 290.654C215.853 289.775 217.903 288.995 219.856 287.921C221.808 286.946 223.663 285.97 225.615 284.994C227.568 284.116 229.422 282.945 231.375 282.165C230.887 281.677 230.398 281.189 229.91 280.701C230.008 280.408 229.618 280.896 229.52 280.994C229.227 281.189 229.032 281.384 228.739 281.579C228.348 281.872 227.958 282.165 227.568 282.457C225.615 283.823 223.956 285.58 222.199 287.141C220.344 288.8 218.587 290.556 216.732 292.312C215.56 293.483 213.706 294.654 213.511 296.313C213.413 297.289 214.584 297.679 215.268 297.289C217.513 296.215 219.563 294.654 221.613 293.19C223.858 291.629 226.103 290.068 228.446 288.507C232.546 285.677 237.036 283.726 241.039 280.701C240.551 280.116 240.063 279.53 239.672 278.847C235.67 282.262 231.375 285.385 227.275 288.605C223.175 291.824 219.172 295.337 215.268 298.85C215.658 298.752 216.049 298.655 216.439 298.557C215.463 298.362 214.584 299.435 213.901 300.021C213.12 300.704 212.046 301.582 211.949 302.753C211.949 303.728 212.925 304.119 213.706 303.728C218.587 301.484 223.272 299.045 227.958 296.508C230.301 295.239 232.644 293.971 234.889 292.703C236.06 292.117 237.232 291.434 238.403 290.849C239.575 290.263 240.551 289.483 241.82 289.092C241.429 288.409 241.039 287.824 240.648 287.141C236.548 290.361 232.253 293.386 227.86 296.313C223.468 299.338 219.172 302.557 214.877 305.582C213.706 306.46 214.682 308.314 216.049 307.631C221.906 304.314 227.763 300.899 233.522 297.386C238.891 294.166 244.358 291.044 249.141 286.946C250.02 286.165 249.044 284.604 247.97 284.994C244.748 286.068 242.015 288.214 239.184 289.873C235.963 291.727 232.741 293.678 229.618 295.532C223.272 299.338 216.927 303.241 210.68 307.143C209.606 307.826 210.289 309.68 211.558 309.29C213.022 308.9 214.487 307.729 215.853 306.948C219.465 304.899 223.175 302.948 226.884 300.996C230.496 299.045 234.206 297.093 237.817 295.142C239.184 294.361 240.648 293.678 241.917 292.898C242.308 292.703 242.698 292.41 243.089 292.215C243.284 292.117 243.577 292.02 243.772 291.922C244.163 291.727 244.26 292.02 243.675 291.727C243.577 291.141 243.479 290.556 243.479 289.873C240.648 292.507 237.329 294.556 234.108 296.898C230.887 299.24 227.568 301.484 224.541 304.119C223.858 304.704 224.249 305.777 225.029 306.07C225.908 306.363 226.884 306.363 227.763 306.07C228.934 305.68 229.618 304.802 230.691 304.216C233.034 302.753 235.475 301.582 237.817 300.216C242.698 297.484 247.482 294.654 252.363 291.922C251.972 291.239 251.582 290.556 251.191 289.873C245.432 293.483 239.867 297.289 234.206 301.191C231.375 303.143 228.641 304.997 225.81 306.948C224.444 307.924 222.979 308.9 221.613 309.973C220.441 310.851 219.172 311.632 218.196 312.705C217.415 313.583 218.196 314.852 219.368 314.657C221.808 314.266 224.151 312.608 226.201 311.437C228.544 310.071 230.887 308.607 233.229 307.143C237.817 304.314 242.503 301.484 247.384 299.045C246.994 298.362 246.603 297.679 246.213 296.996C240.746 300.411 235.377 303.924 229.813 307.241C227.079 308.9 224.346 310.363 221.71 312.022C220.441 312.803 219.27 313.583 218.099 314.461C217.025 315.242 215.853 316.023 214.975 317.096C214.194 318.072 215.17 319.535 216.341 318.95C219.856 317.096 222.882 314.559 225.908 312.022C229.129 309.29 232.448 306.558 235.572 303.728C238.794 300.899 242.015 298.167 245.236 295.337C246.896 293.971 248.458 292.507 250.313 291.337C250.996 290.849 252.655 289.19 253.534 289.483C253.339 288.897 253.046 288.312 252.851 287.824C250.703 290.946 247.482 293.19 244.553 295.532C241.429 297.972 238.403 300.508 235.182 302.85C232.156 305.094 229.032 307.339 225.81 309.29C224.249 310.266 222.491 311.144 220.832 311.925C218.977 312.705 217.122 313.291 215.365 314.169C214.487 314.559 214.682 316.12 215.658 316.315C217.513 316.608 218.684 316.023 220.051 314.852C221.613 313.486 223.76 312.608 225.518 311.534C229.422 309.29 233.327 306.948 237.329 304.802C241.234 302.655 245.236 300.606 249.239 298.362C251.191 297.289 253.046 296.215 254.901 295.044C256.56 294.069 258.317 293.483 259.782 292.215C260.953 291.239 259.293 289.58 258.122 290.556C256.755 291.727 254.803 292.312 253.241 293.288C251.484 294.361 249.727 295.337 247.97 296.41C244.358 298.459 240.551 300.313 236.939 302.362C233.229 304.411 229.618 306.46 226.006 308.607C224.249 309.583 222.589 310.656 220.832 311.632C219.953 312.12 219.075 312.608 218.391 313.291C217.806 313.876 217.122 314.266 216.244 314.169C216.341 314.852 216.439 315.535 216.537 316.315C218.391 315.34 220.441 314.754 222.394 313.974C224.151 313.193 225.81 312.315 227.372 311.339C230.691 309.29 233.913 306.948 237.134 304.607C240.356 302.167 243.479 299.728 246.603 297.191C249.629 294.849 252.753 292.507 254.901 289.288C255.389 288.604 254.901 287.824 254.217 287.629C252.851 287.141 251.484 288.117 250.41 288.897C248.946 289.971 247.579 290.946 246.115 292.02C242.601 294.849 239.282 297.972 235.865 300.899C232.448 303.924 228.934 306.851 225.518 309.778C222.296 312.51 219.075 315.242 215.268 317.291C215.756 317.877 216.244 318.462 216.634 319.145C217.415 318.169 218.489 317.584 219.368 316.803C220.637 315.827 221.906 315.047 223.175 314.169C225.908 312.51 228.641 311.046 231.277 309.388C236.646 306.168 241.917 302.655 247.286 299.338C248.555 298.557 247.482 296.703 246.115 297.289C241.429 299.63 236.841 302.46 232.351 305.192C230.106 306.558 227.958 307.924 225.713 309.192C223.565 310.461 221.125 312.217 218.587 312.705C218.977 313.388 219.368 313.974 219.758 314.657C220.832 313.486 222.101 312.705 223.37 311.827C224.639 310.949 226.006 309.973 227.275 309.095C230.008 307.143 232.839 305.192 235.67 303.338C241.136 299.533 246.603 295.825 252.265 292.312C253.534 291.532 252.363 289.58 251.094 290.263C246.701 292.8 242.21 295.337 237.817 297.874C235.67 299.142 233.522 300.313 231.277 301.582C230.203 302.167 229.129 302.655 228.251 303.436C227.372 304.216 226.689 304.607 225.518 304.216C225.713 304.899 225.81 305.485 226.006 306.168C231.96 300.996 239.086 297.386 244.944 292.02C245.432 291.532 245.334 290.556 244.748 290.166C243.089 289.288 240.453 291.532 238.989 292.312C235.182 294.361 231.277 296.41 227.372 298.459C223.565 300.508 219.758 302.557 215.951 304.607C214.975 305.192 213.901 305.777 212.925 306.265C212.437 306.558 211.949 306.851 211.461 307.046C211.265 307.143 210.387 307.534 210.777 307.436C211.07 308.119 211.363 308.802 211.656 309.583C217.806 305.777 223.956 301.874 230.203 298.264C233.229 296.41 236.353 294.654 239.379 292.8C240.844 291.922 242.405 291.141 243.87 290.166C245.334 289.19 246.798 288.312 248.458 287.629C248.067 286.946 247.677 286.36 247.286 285.677C242.503 289.678 237.036 292.8 231.765 296.02C226.103 299.435 220.441 302.85 214.682 306.07C215.072 306.753 215.463 307.436 215.853 308.119C220.344 304.997 224.737 301.679 229.227 298.557C233.62 295.532 237.915 292.605 242.113 289.288C243.089 288.507 242.015 287.043 240.941 287.336C239.77 287.726 238.794 288.214 237.817 288.897C236.744 289.58 235.475 290.166 234.303 290.751C231.863 292.117 229.422 293.386 226.884 294.752C222.003 297.386 217.22 299.923 212.144 302.167C212.73 302.46 213.315 302.85 213.901 303.143C213.901 303.631 213.803 303.338 213.901 303.241C213.999 303.143 214.096 302.948 214.194 302.85C214.487 302.557 214.78 302.265 215.072 301.972C215.365 301.777 215.56 301.484 215.853 301.289C215.951 301.191 216.537 300.704 216.244 300.996C215.951 300.996 215.658 301.094 215.365 301.094C216.439 301.289 217.122 300.216 217.903 299.533C218.977 298.655 219.953 297.679 221.027 296.801C223.175 294.947 225.322 293.093 227.568 291.337C231.96 287.824 236.548 284.506 240.844 280.896C241.82 280.018 240.453 278.262 239.477 279.042C235.475 281.97 230.984 284.019 226.884 286.848C224.737 288.409 222.491 289.873 220.246 291.337C218.099 292.8 216.049 294.459 213.706 295.532C214.291 295.825 214.877 296.215 215.463 296.508C215.463 296.215 216.927 295.239 217.22 294.947C218.099 294.069 218.977 293.19 219.856 292.312C221.613 290.654 223.37 288.995 225.225 287.336C226.494 286.165 227.763 284.994 229.227 284.019C230.203 283.336 231.375 282.555 231.863 281.384C232.156 280.603 231.179 279.628 230.398 279.92C228.544 280.603 226.884 281.677 225.127 282.457C223.175 283.433 221.125 284.409 219.172 285.385C217.22 286.458 215.17 287.336 213.022 288.214C212.144 288.604 211.265 288.897 210.387 289.385C209.606 289.775 208.825 290.556 208.044 290.751C208.434 291.434 208.825 292.02 209.215 292.703C212.632 289.678 216.049 286.555 219.758 283.921C221.613 282.653 223.37 281.286 225.127 279.92C226.689 278.652 228.446 277.676 229.91 276.31C230.789 275.432 229.813 274.164 228.739 274.359C227.177 274.652 225.713 275.822 224.346 276.505C222.687 277.384 221.027 278.359 219.27 279.237C216.146 280.896 213.12 282.75 210.191 284.702C210.777 285.092 211.363 285.58 211.851 285.97C212.241 284.897 213.511 283.921 214.291 283.238C215.268 282.36 216.341 281.579 217.22 280.603C218.294 279.433 220.539 277.676 220.051 275.822C219.953 275.432 219.66 275.139 219.27 275.042C217.708 274.652 216.439 275.627 215.17 276.31C214.389 276.701 213.608 276.993 212.827 277.384C211.851 277.871 210.972 278.652 209.899 278.652C210.289 279.14 210.68 279.628 210.972 280.116C211.168 279.335 212.534 278.457 213.12 277.969C214.096 277.286 215.17 276.701 216.049 275.92C217.122 275.042 219.172 272.895 217.025 272.017C215.853 271.529 214.389 272.115 213.315 272.602C212.144 272.993 211.07 273.481 209.996 274.066C210.582 274.359 211.168 274.749 211.753 275.042C211.753 274.652 212.437 274.164 212.632 273.871C212.925 273.578 213.12 273.188 213.218 272.798C213.51 271.919 213.413 270.944 212.827 270.261C212.241 269.578 211.265 269.285 210.387 269.578C209.703 269.773 209.313 270.066 208.532 270.163C207.751 270.163 207.068 270.163 206.287 270.163C205.506 269.968 205.506 272.212 206.97 272.31Z" fill="#B2D464"/>
<path d="M215.853 315.535C214.682 316.315 213.218 317.486 212.925 318.95C212.73 320.413 214.096 320.804 215.17 320.804C218.684 320.804 221.808 319.535 224.932 318.072C231.96 314.754 239.184 311.827 246.213 308.51C248.165 307.631 250.117 306.656 251.874 305.387C252.655 304.802 253.534 304.216 254.315 303.728C255.193 303.143 256.267 302.948 257.146 302.362C257.536 302.07 257.829 301.582 257.634 301.094C256.853 298.85 254.12 299.728 252.46 300.411C250.508 301.191 248.653 302.265 246.896 303.436C243.382 305.875 239.965 308.51 236.158 310.656C232.156 312.998 228.056 315.144 223.956 317.096C221.71 318.169 219.368 319.047 217.025 320.121C215.951 320.609 214.975 321.096 213.901 321.584C213.12 321.975 212.144 322.17 211.753 322.95C211.363 323.731 212.046 324.999 213.022 324.609C214.78 323.926 216.244 322.853 217.903 321.877C219.758 320.706 221.515 319.633 223.37 318.462C226.884 316.12 230.398 313.974 233.913 311.632C237.427 309.29 241.136 307.339 244.846 305.29C246.603 304.216 248.36 303.143 250.02 301.875C251.386 300.899 253.046 300.216 254.022 298.752C254.901 297.484 252.851 296.41 251.972 297.581C251.484 298.264 250.508 298.655 249.824 299.045C249.141 299.533 248.458 300.021 247.775 300.606C246.213 301.777 244.553 302.753 242.796 303.728C239.282 305.68 235.67 307.631 232.351 309.876C229.032 312.12 225.713 314.169 222.394 316.315C220.734 317.389 219.075 318.462 217.318 319.535C215.756 320.511 214.194 321.779 212.437 322.463C212.827 323.048 213.315 323.633 213.706 324.121C213.803 323.829 215.072 323.536 215.365 323.341C216.341 322.853 217.22 322.365 218.196 321.975C219.953 321.194 221.808 320.609 223.468 319.73C227.177 317.974 230.789 316.12 234.303 314.169C237.72 312.315 240.941 310.266 244.065 308.022C246.115 306.558 248.067 304.997 250.313 303.826C251.289 303.241 252.363 302.753 253.436 302.362C253.924 302.167 254.413 301.972 254.901 301.972C255.486 301.875 255.291 302.167 255.193 301.679C255.389 301.289 255.584 300.801 255.682 300.411C254.901 300.899 253.924 301.191 253.046 301.679C252.167 302.167 251.386 302.753 250.605 303.338C248.848 304.509 247.091 305.485 245.139 306.363C241.332 308.217 237.525 309.778 233.717 311.534C230.008 313.291 226.298 314.949 222.589 316.608C220.832 317.389 218.977 318.169 217.025 318.462C216.341 318.56 215.17 318.364 214.584 318.56C214.096 318.462 214.291 318.755 214.975 319.438C215.072 319.145 215.268 318.95 215.463 318.657C215.853 318.267 216.341 317.877 216.732 317.584C218.196 316.706 217.025 314.657 215.853 315.535Z" fill="#B2D464"/>
<path d="M155.818 354.271C155.818 355.345 155.623 356.32 155.232 357.101C154.744 358.077 153.963 358.565 152.987 358.565C152.694 358.565 152.206 358.467 151.523 358.174C151.523 358.272 151.523 358.369 151.523 358.369C151.523 358.76 151.328 358.955 150.84 358.955C150.547 358.955 150.254 358.857 150.059 358.565C149.961 358.467 149.863 358.077 149.863 357.394C149.766 356.906 149.766 356.418 149.766 356.125V356.028L150.059 345.685C150.254 345.392 150.449 345.295 150.742 345.295C150.84 345.295 150.84 345.295 150.937 345.295C151.132 345.295 151.328 345.392 151.523 345.685C151.718 345.978 151.816 346.173 151.816 346.465C151.816 346.953 151.816 347.734 151.718 348.612C151.62 349.588 151.523 350.368 151.523 350.661C151.913 350.271 152.304 349.978 152.89 349.978C153.573 349.978 154.159 350.173 154.744 350.661C155.232 351.149 155.623 351.734 155.818 352.417C155.818 353.003 155.818 353.588 155.818 354.271ZM154.159 354.174C154.159 352.515 153.768 351.734 153.085 351.734C152.499 351.734 152.109 352.125 151.718 353.003C151.523 353.588 151.328 354.271 151.328 355.052C151.328 356.613 151.816 357.394 152.694 357.394C153.67 357.296 154.159 356.223 154.159 354.174Z" fill="#00AEEF"/>
<path d="M163.335 351.442C163.237 352.027 163.139 352.613 163.042 353.296C162.944 353.979 162.847 354.564 162.847 355.15V360.126C162.847 361.004 162.554 361.687 162.066 362.175C161.578 362.663 160.797 362.858 159.918 362.858C159.332 362.858 158.649 362.663 157.966 362.37C157.087 361.98 156.697 361.589 156.697 361.102C156.697 360.906 156.794 360.809 156.892 360.711C156.989 360.614 157.185 360.516 157.38 360.516C157.478 360.516 157.77 360.711 158.161 361.004C158.551 361.297 159.039 361.492 159.625 361.492C160.309 361.492 160.797 361.199 160.992 360.711C161.187 360.321 161.285 359.833 161.285 359.052C161.285 358.76 161.285 358.565 161.285 358.369C160.894 358.662 160.406 358.76 159.918 358.76C159.039 358.76 158.259 358.467 157.77 357.784C157.282 357.199 157.087 356.418 157.087 355.54C157.087 355.442 157.185 353.881 157.282 350.954C157.673 350.759 157.966 350.759 158.161 350.759C158.356 350.759 158.747 350.856 159.235 351.247C158.942 352.027 158.747 353.393 158.747 355.637C158.747 357.003 159.137 357.784 159.82 357.784C160.309 357.784 160.797 357.296 160.992 356.418C161.187 355.833 161.285 355.15 161.285 354.467V352.222C161.285 352.222 161.285 352.027 161.187 351.637C161.675 351.442 162.066 351.247 162.261 351.247C162.651 351.051 162.944 351.149 163.335 351.442Z" fill="#00AEEF"/>
<path d="M175.927 347.344C175.927 347.539 175.83 347.734 175.732 347.929C175.635 348.124 175.439 348.124 175.244 348.124C175.146 348.124 174.951 348.027 174.658 347.929C174.366 347.832 174.073 347.734 173.877 347.734C173.389 347.734 172.901 347.734 172.608 347.734C172.413 347.734 172.316 347.734 172.316 347.734C172.316 347.734 172.316 347.929 172.218 348.124C172.12 348.417 172.12 348.905 172.023 349.49C171.827 351.149 171.632 353.003 171.632 355.15C171.632 356.613 171.827 357.491 172.12 358.077V358.565C171.925 358.662 171.73 358.76 171.535 358.76C170.754 358.76 170.266 358.369 169.973 357.589C169.875 357.199 169.777 356.516 169.777 355.442C169.777 354.271 169.777 353.296 169.875 352.613C169.875 352.32 169.973 351.637 170.07 350.466C170.168 349.588 170.266 348.905 170.266 348.319V347.832C170.07 347.832 169.777 347.929 169.289 347.929C168.899 348.027 168.508 348.027 168.313 348.027C167.435 348.027 167.044 347.734 167.044 347.246C167.044 347.051 167.142 346.953 167.239 346.856C167.435 346.563 168.411 346.368 170.07 346.173C171.437 346.075 172.511 345.978 173.292 345.978C173.877 345.978 174.366 346.075 174.854 346.173C175.635 346.563 175.927 346.856 175.927 347.344Z" fill="#00AEEF"/>
<path d="M182.761 358.76C182.565 358.955 182.175 359.15 181.882 359.15C181.589 359.15 181.394 358.955 181.101 358.662C181.101 357.589 181.101 356.711 181.101 356.125C181.101 353.393 180.711 352.027 179.93 352.027C179.149 352.027 178.758 353.101 178.758 355.345C178.758 355.442 178.758 355.637 178.758 355.833C178.758 356.028 178.758 356.223 178.758 356.32C178.758 356.516 178.758 356.808 178.856 357.199C178.954 357.589 178.954 357.882 178.954 358.077C178.954 358.272 178.856 358.37 178.661 358.467C178.465 358.565 178.27 358.662 178.173 358.662C177.88 358.662 177.587 358.565 177.392 358.272C177.196 357.979 177.099 357.784 177.099 357.394L177.196 346.758C177.196 346.758 177.196 346.661 177.196 346.563C177.196 346.466 177.196 346.466 177.196 346.466C177.196 345.978 177.392 345.783 177.977 345.783C178.173 345.783 178.465 345.88 178.758 346.075C179.051 346.27 179.246 346.466 179.246 346.758C179.246 347.051 179.149 347.441 179.051 347.929C178.954 348.417 178.856 348.807 178.856 349.1C178.856 349.49 178.856 349.978 178.856 350.759C179.149 350.564 179.344 350.564 179.539 350.564C180.027 350.564 180.515 350.661 181.101 350.954C181.784 351.247 182.273 351.735 182.565 352.418C182.761 352.905 182.858 353.588 182.858 354.564V358.76H182.761Z" fill="#00AEEF"/>
<path d="M189.692 356.808C189.692 357.394 189.301 357.882 188.423 358.272C187.739 358.565 187.056 358.662 186.373 358.662C184.518 358.662 183.542 357.589 183.542 355.442C183.542 354.564 183.737 353.588 184.225 352.515C184.713 351.149 185.396 350.564 186.177 350.564C186.861 350.564 187.544 350.856 188.325 351.442C189.106 352.027 189.496 352.613 189.496 353.296C189.496 354.076 189.106 354.759 188.423 355.247C187.837 355.637 187.056 355.93 186.177 355.93C185.982 355.93 185.689 355.833 185.396 355.637C185.396 356.808 185.787 357.394 186.373 357.394C186.861 357.394 187.446 357.199 187.934 356.906C188.423 356.613 188.813 356.418 188.911 356.418C189.496 356.418 189.692 356.516 189.692 356.808ZM187.739 353.393C187.739 353.101 187.642 352.808 187.446 352.515C187.251 352.222 187.056 352.125 186.763 352.125C186.373 352.125 186.08 352.32 185.787 352.613C185.592 352.905 185.494 353.296 185.494 353.686C185.494 353.881 185.592 354.076 185.689 354.271C185.884 354.369 186.08 354.467 186.275 354.467C187.251 354.467 187.739 354.174 187.739 353.393Z" fill="#00AEEF"/>
<path d="M195.451 352.125C195.451 352.222 195.451 352.32 195.451 352.515C195.158 352.905 194.963 353.1 194.67 353.1C194.475 353.1 194.182 353.003 194.084 352.71C194.084 352.125 193.889 351.93 193.499 351.93C193.303 351.93 193.011 352.515 192.718 353.686C192.62 354.174 192.523 354.954 192.523 355.833C192.523 356.711 192.523 357.199 192.62 357.394C192.718 357.589 192.718 357.784 192.718 357.882C192.718 358.077 192.62 358.272 192.425 358.369C192.23 358.467 192.034 358.565 191.839 358.565C191.156 358.565 190.863 358.272 190.863 357.686C190.863 357.589 190.863 357.589 190.863 357.394C190.863 357.296 190.863 357.199 190.863 357.199C190.863 356.613 190.863 355.637 190.765 354.467C190.668 353.296 190.668 352.32 190.668 351.734C190.668 351.149 190.961 350.954 191.644 350.954C192.034 350.954 192.327 351.051 192.425 351.344C192.718 350.954 193.108 350.759 193.596 350.759C193.889 350.759 194.182 350.856 194.475 350.954C194.67 351.051 194.865 351.247 195.158 351.539C195.451 351.832 195.451 351.93 195.451 352.125Z" fill="#00AEEF"/>
<path d="M202.187 355.345C202.187 356.906 202.089 358.077 202.089 358.662C201.991 359.052 201.796 359.248 201.308 359.248C200.625 359.248 200.332 358.857 200.43 358.272C199.844 358.565 199.161 358.662 198.477 358.662C197.892 358.662 197.208 358.467 196.622 358.174C195.939 357.784 195.549 357.296 195.549 356.711C195.549 356.125 195.939 355.637 196.72 355.15C197.403 354.662 198.087 354.467 198.672 354.467H200.234V354.076C200.234 352.808 199.844 352.125 199.063 352.125C198.087 352.125 197.599 352.613 197.599 353.491C197.599 353.784 197.403 353.979 197.111 353.979C196.915 353.979 196.72 353.881 196.427 353.686C196.232 353.491 196.134 353.296 196.134 353.101C196.134 352.418 196.33 351.832 196.915 351.442C197.403 351.051 197.989 350.759 198.672 350.759C201.113 350.661 202.187 352.222 202.187 355.345ZM200.332 356.028C200.332 355.833 200.137 355.637 199.746 355.637C198.184 355.637 197.501 356.028 197.501 356.711C197.501 357.101 197.794 357.296 198.477 357.296C198.868 357.296 199.258 357.199 199.649 356.906C200.137 356.711 200.332 356.418 200.332 356.028Z" fill="#00AEEF"/>
<path d="M211.656 356.613C211.656 357.394 211.265 357.979 210.387 358.369C209.703 358.662 208.922 358.857 208.141 358.857C207.36 358.857 206.482 358.662 205.408 358.369C204.139 357.882 203.456 357.394 203.456 356.808C203.456 356.613 203.553 356.418 203.651 356.223C203.846 356.028 204.041 356.028 204.237 356.028C204.53 356.028 204.822 356.125 205.115 356.418C205.603 356.808 205.896 357.003 205.896 357.101C206.287 357.296 207.068 357.491 208.239 357.491C209.215 357.491 209.703 357.296 209.703 356.808C209.703 356.418 209.215 355.93 208.337 355.247C207.653 354.857 207.068 354.369 206.384 353.979C205.506 353.393 204.92 352.905 204.53 352.418C204.041 351.734 203.749 350.954 203.749 350.173C203.749 349.1 204.041 348.124 204.725 347.344C205.408 346.466 206.287 345.978 207.36 345.978C208.239 345.978 209.02 346.27 209.606 346.758C210.191 347.246 210.582 347.929 210.777 348.807C210.777 349.198 210.875 349.685 210.972 350.368C210.972 350.564 211.07 350.759 211.07 350.759C211.07 351.247 210.972 351.539 210.875 351.832C210.679 352.222 210.387 352.418 209.996 352.418C209.801 352.418 209.606 352.32 209.41 352.125C209.215 351.93 209.118 351.734 209.118 351.539C209.118 351.344 209.118 351.149 209.215 350.856C209.313 350.564 209.313 350.271 209.313 350.173C209.313 348.515 208.727 347.734 207.653 347.734C207.068 347.734 206.58 348.027 206.091 348.515C205.701 349.002 205.506 349.588 205.506 350.271C205.506 351.149 205.994 352.027 207.068 352.808C208.044 353.491 209.02 354.076 209.996 354.759C211.168 355.247 211.656 355.93 211.656 356.613Z" fill="#00AEEF"/>
<path d="M218.977 354.076C218.977 355.345 218.782 356.418 218.294 357.199C217.708 358.369 216.927 358.857 215.853 358.857C215.268 358.857 214.779 358.662 214.291 358.369C214.291 358.467 214.291 358.662 214.291 358.955C214.291 359.248 214.291 359.443 214.291 359.54C214.291 360.711 214.389 361.589 214.682 362.272C214.779 362.565 214.877 362.76 214.877 362.76C214.877 363.151 214.584 363.346 214.096 363.346C213.706 363.346 213.413 363.248 213.315 363.151C213.218 363.053 213.022 362.76 212.925 362.272C212.827 361.785 212.729 361.492 212.729 361.199V356.808C212.729 356.418 212.729 355.833 212.827 355.15C212.827 354.369 212.925 353.784 212.925 353.491C212.925 353.198 212.925 352.808 212.925 352.32C212.925 351.734 212.925 351.247 212.925 351.051C212.925 349.978 213.218 349.49 213.901 349.49C214.096 349.49 214.194 349.588 214.389 349.685C214.584 349.783 214.584 349.978 214.584 350.076C214.584 350.368 214.584 350.856 214.487 351.539C214.975 350.856 215.56 350.564 216.244 350.564C217.122 350.564 217.806 350.954 218.294 351.637C218.782 352.32 218.977 353.101 218.977 354.076ZM217.317 353.979C217.317 352.613 217.025 352.027 216.439 352.027C216.146 352.027 215.853 352.222 215.463 352.71C214.682 353.588 214.291 354.857 214.194 356.516C214.291 356.613 214.584 356.808 214.877 357.296C215.17 357.589 215.463 357.784 215.658 357.784C216.829 357.686 217.317 356.418 217.317 353.979Z" fill="#00AEEF"/>
<path d="M226.298 355.345C226.298 356.906 226.201 358.077 226.201 358.662C226.103 359.052 225.908 359.248 225.42 359.248C224.737 359.248 224.444 358.857 224.541 358.272C223.956 358.565 223.272 358.662 222.589 358.662C222.003 358.662 221.32 358.467 220.734 358.174C220.051 357.784 219.66 357.296 219.66 356.711C219.66 356.125 220.051 355.637 220.832 355.15C221.515 354.662 222.198 354.467 222.784 354.467H224.346V354.076C224.346 352.808 223.956 352.125 223.175 352.125C222.198 352.125 221.71 352.613 221.71 353.491C221.71 353.784 221.515 353.979 221.222 353.979C221.027 353.979 220.832 353.881 220.539 353.686C220.344 353.491 220.246 353.296 220.246 353.101C220.246 352.418 220.441 351.832 221.027 351.442C221.515 351.051 222.101 350.759 222.784 350.759C225.225 350.661 226.298 352.222 226.298 355.345ZM224.541 356.028C224.541 355.833 224.346 355.637 223.956 355.637C222.394 355.637 221.71 356.028 221.71 356.711C221.71 357.101 222.003 357.296 222.687 357.296C223.077 357.296 223.467 357.199 223.858 356.906C224.248 356.711 224.541 356.418 224.541 356.028Z" fill="#00AEEF"/>
<path d="M234.303 358.37C234.108 358.662 233.913 358.76 233.62 358.76C233.425 358.76 233.034 358.662 232.644 358.37V358.174C232.644 357.882 232.644 357.491 232.644 357.004C232.644 356.516 232.644 356.125 232.644 355.833C232.644 353.198 232.253 351.93 231.472 351.93C231.277 351.93 230.984 352.125 230.691 352.418C229.813 353.491 229.422 354.759 229.422 356.223C229.422 356.418 229.422 356.711 229.52 357.101C229.617 357.491 229.617 357.784 229.617 357.979C229.617 358.174 229.52 358.272 229.422 358.37C229.227 358.467 229.129 358.565 228.934 358.565C228.153 358.565 227.86 358.077 227.86 357.199V353.393C227.86 353.296 227.86 353.198 227.86 353.003C227.86 352.808 227.86 352.71 227.86 352.613C227.86 352.515 227.86 352.222 227.763 351.93C227.763 351.637 227.665 351.442 227.665 351.344C227.665 351.149 227.763 350.954 227.958 350.759C228.153 350.564 228.348 350.466 228.544 350.466C228.836 350.466 229.129 350.661 229.325 350.954L229.227 351.735C229.715 351.052 230.203 350.661 230.886 350.661C231.277 350.661 231.765 350.759 232.253 351.149C232.741 351.442 233.034 351.735 233.327 352.125C233.815 353.101 234.108 354.271 234.108 355.833V358.37H234.303Z" fill="#00AEEF"/>
<path d="M237.817 351.442C237.817 351.637 237.817 351.93 237.72 352.417C237.622 352.808 237.622 353.1 237.622 353.393V357.199C237.622 357.394 237.72 357.784 237.817 358.272C237.622 358.565 237.427 358.662 237.232 358.662C236.451 358.662 236.06 358.272 235.963 357.491C235.865 356.028 235.767 354.954 235.767 354.271C235.767 353.1 235.767 352.027 235.963 351.247C235.963 351.149 235.963 351.149 235.963 351.051C235.963 350.856 236.158 350.759 236.451 350.759C236.744 350.759 237.036 350.856 237.329 350.954C237.622 350.954 237.817 351.149 237.817 351.442ZM238.013 348.807C238.013 349.1 237.915 349.295 237.72 349.49C237.525 349.685 237.329 349.783 237.036 349.783C236.744 349.783 236.451 349.685 236.158 349.49C235.865 349.295 235.767 349.002 235.767 348.71C235.767 348.417 235.865 348.222 236.06 348.027C236.255 347.832 236.451 347.734 236.744 347.734C237.036 347.734 237.329 347.832 237.622 348.027C237.915 348.222 238.013 348.515 238.013 348.807Z" fill="#00AEEF"/>
<path d="M244.455 356.613C244.455 357.199 244.26 357.686 243.674 358.077C243.089 358.565 242.405 358.76 241.527 358.76C241.136 358.76 240.746 358.662 240.258 358.565C238.794 357.979 238.11 357.589 238.11 357.199C238.11 356.711 238.501 356.418 239.282 356.418C239.379 356.418 239.477 356.418 239.672 356.418C239.672 356.808 239.965 357.101 240.551 357.296C241.039 357.491 241.527 357.589 241.917 357.491C242.308 357.491 242.405 357.296 242.405 357.101C242.405 357.101 242.405 357.003 242.405 356.906C242.405 356.808 242.405 356.808 242.405 356.711C242.405 356.613 242.21 356.613 241.722 356.418C241.234 356.223 240.941 356.125 240.844 356.125C239.477 355.345 238.794 354.271 238.794 353.101C238.794 352.418 238.989 351.735 239.379 351.149C239.867 350.466 240.355 350.173 241.039 350.173C241.527 350.173 242.113 350.368 242.796 350.759C243.479 351.149 243.87 351.539 243.967 352.027C244.065 352.32 244.065 352.613 244.065 352.808C244.065 353.003 244.065 353.198 243.967 353.393C243.87 353.588 243.87 353.784 243.772 353.979C243.577 354.174 243.284 354.174 243.089 354.174C242.991 354.174 242.796 354.076 242.503 353.979C242.21 353.784 242.113 353.686 242.113 353.588C242.113 353.588 242.21 353.393 242.308 353.101C242.405 352.905 242.405 352.808 242.405 352.71C242.405 351.93 242.113 351.637 241.527 351.637C241.136 351.637 240.941 351.832 240.746 352.32C240.648 352.71 240.551 353.003 240.551 353.393C240.551 353.881 240.941 354.369 241.624 354.759C242.21 355.052 242.894 355.345 243.577 355.637C244.065 355.93 244.455 356.32 244.455 356.613Z" fill="#00AEEF"/>
<path d="M251.289 358.76C251.093 358.955 250.703 359.15 250.41 359.15C250.117 359.15 249.922 358.955 249.629 358.662C249.629 357.589 249.629 356.711 249.629 356.125C249.629 353.393 249.239 352.027 248.458 352.027C247.677 352.027 247.286 353.101 247.286 355.345C247.286 355.442 247.286 355.637 247.286 355.833C247.286 356.028 247.286 356.223 247.286 356.32C247.286 356.516 247.286 356.808 247.384 357.199C247.482 357.589 247.482 357.882 247.482 358.077C247.482 358.272 247.384 358.37 247.189 358.467C246.994 358.565 246.798 358.662 246.701 358.662C246.408 358.662 246.115 358.565 245.92 358.272C245.724 357.979 245.627 357.784 245.627 357.394L245.724 346.758C245.724 346.758 245.724 346.661 245.724 346.563C245.724 346.466 245.724 346.466 245.724 346.466C245.724 345.978 245.92 345.783 246.505 345.783C246.701 345.783 246.994 345.88 247.286 346.075C247.579 346.27 247.774 346.466 247.774 346.758C247.774 347.051 247.677 347.441 247.579 347.929C247.482 348.417 247.384 348.807 247.384 349.1C247.384 349.49 247.384 349.978 247.384 350.759C247.677 350.564 247.872 350.564 248.067 350.564C248.555 350.564 249.043 350.661 249.629 350.954C250.313 351.247 250.801 351.735 251.093 352.418C251.289 352.905 251.386 353.588 251.386 354.564V358.76H251.289Z" fill="#00AEEF"/>
<path d="M261.148 350.856C261.148 351.149 261.148 351.344 261.051 351.539C260.562 354.369 259.196 355.735 257.048 355.735C255.877 355.735 254.901 355.442 254.022 354.857V355.247C254.022 356.028 254.12 356.613 254.217 356.906C254.412 357.296 254.608 357.589 254.608 357.686C254.608 357.882 254.51 358.174 254.315 358.369C254.12 358.565 253.924 358.662 253.632 358.662C253.046 358.662 252.753 358.467 252.558 358.077C252.46 357.882 252.362 357.394 252.362 356.808C252.362 356.418 252.362 355.93 252.362 355.345C252.362 355.15 252.362 354.857 252.46 354.369C252.558 353.979 252.558 353.588 252.558 353.393V352.125C252.558 351.735 252.558 351.247 252.655 350.466C252.753 349.783 252.753 349.198 252.753 348.905V347.246C252.753 347.246 252.655 346.856 252.558 346.27C252.851 345.978 253.143 345.88 253.436 345.88C253.729 345.88 254.022 345.978 254.217 346.27C254.412 346.466 254.51 346.758 254.51 347.149C254.51 347.246 254.51 347.344 254.51 347.441C255.291 346.368 256.365 345.88 257.536 345.88C258.708 345.88 259.586 346.27 260.27 347.149C260.855 347.929 261.148 348.905 261.148 350.076C261.148 350.173 261.148 350.271 261.148 350.466C261.148 350.661 261.148 350.759 261.148 350.856ZM259.489 350.564C259.489 349.685 259.391 349.002 259.098 348.417C258.708 347.636 258.22 347.246 257.439 347.246C256.462 347.246 255.682 347.832 254.998 349.002C254.412 349.978 254.12 351.051 254.12 352.027C254.12 353.686 254.998 354.564 256.658 354.564C257.536 354.564 258.22 354.174 258.708 353.393C258.903 352.905 259.196 352.125 259.391 350.954C259.489 350.661 259.489 350.564 259.489 350.564Z" fill="#00AEEF"/>
<path d="M264.467 357.979C264.467 358.174 264.37 358.37 264.174 358.565C263.979 358.76 263.784 358.76 263.589 358.76C262.808 358.76 262.417 357.784 262.417 355.735C262.417 354.857 262.417 353.491 262.417 351.637C262.417 349.783 262.417 348.417 262.417 347.539C262.417 347.441 262.417 347.149 262.32 346.856C262.32 346.563 262.222 346.368 262.222 346.27C262.612 345.978 262.905 345.88 263.198 345.88C263.491 345.88 263.686 345.978 263.979 346.173C264.272 346.368 264.37 346.563 264.37 346.856C264.37 346.953 264.37 347.149 264.272 347.344C264.174 347.636 264.174 347.832 264.077 347.832C263.881 348.612 263.881 349.685 263.881 351.052C263.881 353.296 263.881 354.369 263.881 354.467C263.881 356.028 264.077 357.101 264.272 357.686C264.467 357.686 264.467 357.882 264.467 357.979Z" fill="#00AEEF"/>
<path d="M271.886 355.345C271.886 356.906 271.886 358.077 271.691 358.662C271.593 359.052 271.398 359.248 270.91 359.248C270.227 359.248 269.934 358.857 270.031 358.272C269.446 358.565 268.762 358.662 268.079 358.662C267.493 358.662 266.81 358.467 266.224 358.174C265.541 357.784 265.248 357.296 265.248 356.711C265.248 356.125 265.639 355.637 266.42 355.15C267.103 354.662 267.786 354.467 268.372 354.467H269.934V354.076C269.934 352.808 269.543 352.125 268.762 352.125C267.786 352.125 267.298 352.613 267.298 353.491C267.298 353.784 267.103 353.979 266.81 353.979C266.615 353.979 266.419 353.881 266.127 353.686C265.931 353.491 265.834 353.296 265.834 353.101C265.834 352.418 266.029 351.832 266.615 351.442C267.103 351.051 267.689 350.759 268.372 350.759C270.715 350.661 271.886 352.222 271.886 355.345ZM270.031 356.028C270.031 355.833 269.836 355.637 269.446 355.637C267.884 355.637 267.2 356.028 267.2 356.711C267.2 357.101 267.493 357.296 268.177 357.296C268.567 357.296 268.958 357.199 269.348 356.906C269.836 356.711 270.031 356.418 270.031 356.028Z" fill="#00AEEF"/>
<path d="M279.5 351.442C279.403 352.027 279.305 352.613 279.208 353.296C279.11 353.979 279.012 354.564 279.012 355.15V360.126C279.012 361.004 278.719 361.687 278.231 362.175C277.743 362.663 276.962 362.858 276.084 362.858C275.498 362.858 274.815 362.663 274.131 362.37C273.253 361.98 272.862 361.589 272.862 361.102C272.862 360.906 272.96 360.809 273.058 360.711C273.155 360.614 273.35 360.516 273.546 360.516C273.643 360.516 273.936 360.711 274.327 361.004C274.717 361.297 275.205 361.492 275.791 361.492C276.474 361.492 276.962 361.199 277.158 360.711C277.353 360.321 277.45 359.833 277.45 359.052C277.45 358.76 277.45 358.565 277.45 358.369C277.06 358.662 276.572 358.76 276.084 358.76C275.205 358.76 274.424 358.467 273.936 357.784C273.448 357.199 273.253 356.418 273.253 355.54C273.253 355.442 273.35 353.881 273.448 350.954C273.838 350.759 274.131 350.759 274.327 350.759C274.522 350.759 274.912 350.856 275.4 351.247C275.108 352.027 275.01 353.393 275.01 355.637C275.01 357.003 275.4 357.784 276.084 357.784C276.572 357.784 277.06 357.296 277.255 356.418C277.45 355.833 277.548 355.15 277.548 354.467V352.222C277.548 352.222 277.548 352.027 277.45 351.637C277.938 351.442 278.329 351.247 278.524 351.247C278.915 351.051 279.208 351.149 279.5 351.442Z" fill="#00AEEF"/>
<path d="M310.543 258.747V261.382L313.081 258.845H314.838L312.3 261.284L314.936 265.089H313.179L311.324 262.26L310.543 263.04V265.089H309.176L309.274 258.845L310.543 258.747Z" fill="#00A651"/>
<path d="M320.012 265.187L319.036 260.894L317.962 265.187H316.595L315.033 258.845H316.4L317.279 263.138L318.45 258.942H319.719L320.695 263.235L321.769 258.942H323.136L321.379 265.187H320.012Z" fill="#00A651"/>
<path d="M323.331 260.113V258.942L328.505 259.04V260.211H326.65L326.552 265.284H325.186L325.283 260.211L323.331 260.113Z" fill="#00A651"/>
</svg>
