<svg width="196" height="239" viewBox="0 0 196 239" fill="none" xmlns="http://www.w3.org/2000/svg">
<path d="M40.92 211.35C38.89 211.35 37.1867 211.047 35.81 210.44C34.4333 209.81 33.3717 209.005 32.625 208.025C31.9017 207.022 31.5167 205.96 31.47 204.84C31.47 204.653 31.54 204.49 31.68 204.35C31.8433 204.187 32.03 204.105 32.24 204.105H34.025C34.305 204.105 34.515 204.175 34.655 204.315C34.795 204.455 34.8883 204.618 34.935 204.805C35.0517 205.365 35.3317 205.925 35.775 206.485C36.2417 207.022 36.8833 207.477 37.7 207.85C38.54 208.2 39.6133 208.375 40.92 208.375C42.9267 208.375 44.3967 208.025 45.33 207.325C46.2867 206.602 46.765 205.645 46.765 204.455C46.765 203.638 46.5083 202.985 45.995 202.495C45.505 201.982 44.7467 201.527 43.72 201.13C42.6933 200.733 41.3633 200.302 39.73 199.835C38.0267 199.345 36.615 198.808 35.495 198.225C34.375 197.642 33.535 196.918 32.975 196.055C32.4383 195.192 32.17 194.095 32.17 192.765C32.17 191.505 32.5083 190.385 33.185 189.405C33.8617 188.402 34.83 187.608 36.09 187.025C37.3733 186.442 38.925 186.15 40.745 186.15C42.1917 186.15 43.4517 186.348 44.525 186.745C45.6217 187.118 46.5317 187.632 47.255 188.285C47.9783 188.915 48.5267 189.603 48.9 190.35C49.2733 191.073 49.4717 191.785 49.495 192.485C49.495 192.648 49.4367 192.812 49.32 192.975C49.2033 193.115 49.0167 193.185 48.76 193.185H46.905C46.7417 193.185 46.5667 193.138 46.38 193.045C46.2167 192.952 46.0883 192.777 45.995 192.52C45.855 191.563 45.3183 190.758 44.385 190.105C43.4517 189.452 42.2383 189.125 40.745 189.125C39.2283 189.125 37.9917 189.417 37.035 190C36.1017 190.583 35.635 191.493 35.635 192.73C35.635 193.523 35.8567 194.188 36.3 194.725C36.7433 195.238 37.4433 195.693 38.4 196.09C39.3567 196.487 40.605 196.907 42.145 197.35C44.0117 197.863 45.54 198.412 46.73 198.995C47.92 199.555 48.795 200.267 49.355 201.13C49.9383 201.97 50.23 203.055 50.23 204.385C50.23 205.855 49.845 207.115 49.075 208.165C48.305 209.192 47.22 209.985 45.82 210.545C44.4433 211.082 42.81 211.35 40.92 211.35ZM63.6025 211.35C61.6191 211.35 59.9158 211.012 58.4925 210.335C57.0691 209.635 55.9725 208.573 55.2025 207.15C54.4325 205.703 54.0008 203.895 53.9075 201.725C53.8841 200.698 53.8725 199.718 53.8725 198.785C53.8725 197.828 53.8841 196.837 53.9075 195.81C54.0008 193.663 54.4441 191.878 55.2375 190.455C56.0541 189.008 57.1741 187.935 58.5975 187.235C60.0441 186.512 61.7125 186.15 63.6025 186.15C65.5158 186.15 67.1841 186.512 68.6075 187.235C70.0541 187.935 71.1858 189.008 72.0025 190.455C72.8191 191.878 73.2625 193.663 73.3325 195.81C73.3791 196.837 73.4025 197.828 73.4025 198.785C73.4025 199.718 73.3791 200.698 73.3325 201.725C73.2625 203.895 72.8308 205.703 72.0375 207.15C71.2675 208.573 70.1708 209.635 68.7475 210.335C67.3241 211.012 65.6091 211.35 63.6025 211.35ZM63.6025 208.375C65.3991 208.375 66.8575 207.838 67.9775 206.765C69.1208 205.692 69.7391 203.953 69.8325 201.55C69.8791 200.5 69.9025 199.567 69.9025 198.75C69.9025 197.91 69.8791 196.977 69.8325 195.95C69.7858 194.34 69.4825 193.033 68.9225 192.03C68.3858 191.027 67.6625 190.292 66.7525 189.825C65.8425 189.358 64.7925 189.125 63.6025 189.125C62.4591 189.125 61.4325 189.358 60.5225 189.825C59.6125 190.292 58.8775 191.027 58.3175 192.03C57.7808 193.033 57.4775 194.34 57.4075 195.95C57.3841 196.977 57.3725 197.91 57.3725 198.75C57.3725 199.567 57.3841 200.5 57.4075 201.55C57.5008 203.953 58.1191 205.692 59.2625 206.765C60.4058 207.838 61.8525 208.375 63.6025 208.375ZM87.744 211.35C85.784 211.35 84.0923 211 82.669 210.3C81.269 209.6 80.184 208.538 79.414 207.115C78.6673 205.668 78.294 203.813 78.294 201.55V187.34C78.294 187.083 78.364 186.885 78.504 186.745C78.644 186.582 78.8423 186.5 79.099 186.5H80.884C81.1407 186.5 81.339 186.582 81.479 186.745C81.6423 186.885 81.724 187.083 81.724 187.34V201.62C81.724 203.907 82.2607 205.598 83.334 206.695C84.4073 207.792 85.8773 208.34 87.744 208.34C89.5873 208.34 91.0457 207.792 92.119 206.695C93.2157 205.598 93.764 203.907 93.764 201.62V187.34C93.764 187.083 93.834 186.885 93.974 186.745C94.1373 186.582 94.3357 186.5 94.569 186.5H96.389C96.6223 186.5 96.809 186.582 96.949 186.745C97.1123 186.885 97.194 187.083 97.194 187.34V201.55C97.194 203.813 96.809 205.668 96.039 207.115C95.2923 208.538 94.219 209.6 92.819 210.3C91.419 211 89.7273 211.35 87.744 211.35ZM103.85 211C103.593 211 103.395 210.93 103.255 210.79C103.115 210.627 103.045 210.428 103.045 210.195V187.34C103.045 187.083 103.115 186.885 103.255 186.745C103.395 186.582 103.593 186.5 103.85 186.5H105.46C105.74 186.5 105.95 186.57 106.09 186.71C106.23 186.827 106.312 186.92 106.335 186.99L117.955 204.84V187.34C117.955 187.083 118.025 186.885 118.165 186.745C118.305 186.582 118.503 186.5 118.76 186.5H120.44C120.697 186.5 120.895 186.582 121.035 186.745C121.198 186.885 121.28 187.083 121.28 187.34V210.16C121.28 210.393 121.198 210.592 121.035 210.755C120.895 210.918 120.708 211 120.475 211H118.795C118.538 211 118.34 210.93 118.2 210.79C118.083 210.65 118.002 210.557 117.955 210.51L106.37 192.835V210.195C106.37 210.428 106.288 210.627 106.125 210.79C105.985 210.93 105.787 211 105.53 211H103.85ZM128.152 211C127.895 211 127.697 210.93 127.557 210.79C127.417 210.627 127.347 210.428 127.347 210.195V187.34C127.347 187.083 127.417 186.885 127.557 186.745C127.697 186.582 127.895 186.5 128.152 186.5H136.097C138.5 186.5 140.437 186.862 141.907 187.585C143.377 188.308 144.45 189.382 145.127 190.805C145.803 192.205 146.153 193.932 146.177 195.985C146.2 197.035 146.212 197.957 146.212 198.75C146.212 199.543 146.2 200.453 146.177 201.48C146.13 203.627 145.768 205.412 145.092 206.835C144.438 208.235 143.388 209.285 141.942 209.985C140.518 210.662 138.628 211 136.272 211H128.152ZM130.777 208.025H136.097C137.707 208.025 138.99 207.803 139.947 207.36C140.903 206.917 141.592 206.205 142.012 205.225C142.455 204.245 142.688 202.95 142.712 201.34C142.758 200.64 142.782 200.033 142.782 199.52C142.782 198.983 142.782 198.458 142.782 197.945C142.782 197.408 142.758 196.802 142.712 196.125C142.665 193.862 142.128 192.193 141.102 191.12C140.075 190.023 138.348 189.475 135.922 189.475H130.777V208.025ZM159.353 211.35C157.323 211.35 155.619 211.047 154.243 210.44C152.866 209.81 151.804 209.005 151.058 208.025C150.334 207.022 149.949 205.96 149.903 204.84C149.903 204.653 149.973 204.49 150.113 204.35C150.276 204.187 150.463 204.105 150.673 204.105H152.458C152.738 204.105 152.948 204.175 153.088 204.315C153.228 204.455 153.321 204.618 153.368 204.805C153.484 205.365 153.764 205.925 154.208 206.485C154.674 207.022 155.316 207.477 156.133 207.85C156.973 208.2 158.046 208.375 159.353 208.375C161.359 208.375 162.829 208.025 163.763 207.325C164.719 206.602 165.198 205.645 165.198 204.455C165.198 203.638 164.941 202.985 164.428 202.495C163.938 201.982 163.179 201.527 162.153 201.13C161.126 200.733 159.796 200.302 158.163 199.835C156.459 199.345 155.048 198.808 153.928 198.225C152.808 197.642 151.968 196.918 151.408 196.055C150.871 195.192 150.603 194.095 150.603 192.765C150.603 191.505 150.941 190.385 151.618 189.405C152.294 188.402 153.263 187.608 154.523 187.025C155.806 186.442 157.358 186.15 159.178 186.15C160.624 186.15 161.884 186.348 162.958 186.745C164.054 187.118 164.964 187.632 165.688 188.285C166.411 188.915 166.959 189.603 167.333 190.35C167.706 191.073 167.904 191.785 167.928 192.485C167.928 192.648 167.869 192.812 167.753 192.975C167.636 193.115 167.449 193.185 167.193 193.185H165.338C165.174 193.185 164.999 193.138 164.813 193.045C164.649 192.952 164.521 192.777 164.428 192.52C164.288 191.563 163.751 190.758 162.818 190.105C161.884 189.452 160.671 189.125 159.178 189.125C157.661 189.125 156.424 189.417 155.468 190C154.534 190.583 154.068 191.493 154.068 192.73C154.068 193.523 154.289 194.188 154.733 194.725C155.176 195.238 155.876 195.693 156.833 196.09C157.789 196.487 159.038 196.907 160.578 197.35C162.444 197.863 163.973 198.412 165.163 198.995C166.353 199.555 167.228 200.267 167.788 201.13C168.371 201.97 168.663 203.055 168.663 204.385C168.663 205.855 168.278 207.115 167.508 208.165C166.738 209.192 165.653 209.985 164.253 210.545C162.876 211.082 161.243 211.35 159.353 211.35Z" fill="black"/>
<path d="M98 0L182.87 149.25H13.1295L98 0Z" fill="#274A9A"/>
</svg>
