<svg width="327" height="251" viewBox="0 0 327 251" fill="none" xmlns="http://www.w3.org/2000/svg">
<g clip-path="url(#clip0_325_773)">
<path d="M113.693 78.8462C113.693 81.0769 113.693 83.2308 113.693 85.4615C113.693 90.9231 113.693 96.4615 113.693 101.923C113.693 109.077 113.693 116.231 113.693 123.385C113.693 130.462 113.693 137.615 113.693 144.692C113.693 150.077 113.693 155.538 113.693 160.923C113.693 163.231 113.462 165.692 113.77 168C114.31 173.308 119.548 177 124.71 175.692C125.943 175.385 126.944 174.769 128.023 174.077C131.027 172.231 134.032 170.385 137.037 168.538C142.198 165.385 147.36 162.231 152.522 159.077C158.685 155.308 164.925 151.538 171.088 147.692C177.098 144 183.184 140.308 189.193 136.615C193.892 133.692 198.592 130.846 203.368 127.923C205.603 126.538 207.837 125.231 210.071 123.846C213.075 122 214.616 118.538 213.769 115.077C213.153 112.615 211.381 110.692 209.069 109.692C206.219 108.385 203.368 107.154 200.595 105.846C195.202 103.385 189.809 100.923 184.339 98.5385C177.714 95.5385 171.165 92.5385 164.54 89.6154C158.069 86.6923 151.674 83.7692 145.203 80.8462C140.349 78.6923 135.573 76.5385 130.719 74.3077C128.716 73.3846 126.79 72.4615 124.787 71.6154C119.548 69.3846 113.847 73.2308 113.693 78.8462C113.616 81.3077 117.468 81.3077 117.545 78.8462C117.622 75.8462 120.55 74.0769 123.169 75.1539C123.94 75.4615 124.71 75.8462 125.403 76.1539C129.255 77.8462 133.03 79.6154 136.882 81.3077C142.738 83.9231 148.593 86.6154 154.448 89.2308C160.996 92.1539 167.545 95.1539 174.093 98.0769C180.102 100.769 186.111 103.462 192.12 106.231C196.204 108.077 200.287 109.923 204.37 111.769C205.294 112.231 206.219 112.615 207.22 113.077C209.223 114 210.225 115.385 210.148 117.385C210.071 118.538 209.378 119.769 208.222 120.462C208.068 120.538 207.914 120.692 207.76 120.769C206.835 121.308 205.911 121.923 204.986 122.462C201.134 124.846 197.282 127.154 193.43 129.538C187.883 132.923 182.413 136.308 176.866 139.692C170.703 143.462 164.54 147.231 158.377 151C152.753 154.462 147.129 157.923 141.428 161.385C137.345 163.846 133.262 166.385 129.255 168.846C128.177 169.538 127.098 170.154 126.02 170.846C125.095 171.385 124.171 172 123.169 172.154C120.242 172.538 117.622 170.231 117.545 167.154C117.545 166.385 117.545 165.538 117.545 164.769C117.545 160.538 117.545 156.308 117.545 152.077C117.545 145.538 117.545 139.077 117.545 132.538C117.545 125.385 117.545 118.231 117.545 111C117.545 104.692 117.545 98.3846 117.545 92.0769C117.545 88.2308 117.545 84.3846 117.545 80.5385C117.545 80 117.545 79.4615 117.545 78.9231C117.545 76.3846 113.693 76.3846 113.693 78.8462Z" fill="#43A6D3"/>
<path d="M114.849 81.3846C116.621 81.3846 118.393 81.6154 120.165 81.3077C120.935 81.1538 121.629 80.8462 122.322 80.5385C122.399 80.4615 122.553 80.4615 122.63 80.3846C122.553 80.3846 122.553 80.3077 122.553 80.3077C122.476 80.1538 122.476 80.2308 122.63 80.3846C122.553 80.2308 122.553 80.3077 122.63 80.4615C122.63 80.3077 122.63 80.3077 122.63 80.5385C122.63 81.0769 122.707 80.3846 122.553 80.8462C122.476 81.0769 122.245 81.4615 121.86 81.8462C120.858 83 119.857 84.1538 119.857 85.7692C119.857 87.3077 121.474 88.0769 122.784 87.4615C124.325 86.6154 125.866 85.9231 127.33 85.3846C128.331 85 129.333 84.6154 130.411 84.3846C130.565 84.3846 131.182 84.2308 130.95 84.3077C130.719 84.3077 131.259 84.3077 131.336 84.3077C131.567 84.2308 130.95 84.2308 131.336 84.3077C131.027 84.2308 130.719 83.9231 130.488 83.4615C130.488 83.1538 130.488 82.7692 130.488 82.4615C130.334 82.8462 129.718 83.2308 129.41 83.5385C128.87 84 128.331 84.5385 127.715 85C126.482 85.9231 125.172 86.6923 123.94 87.5385C122.707 88.3846 121.629 89.3077 120.627 90.3846C119.703 91.3846 118.855 92.3077 118.778 93.7692C118.701 94.7692 119.703 95.6154 120.704 95.6154C122.399 95.6154 123.709 95.0769 125.172 94.2308C126.636 93.3846 128.1 92.6923 129.641 92.0769C130.719 91.6154 131.721 91.0769 132.799 90.4615C133.262 90.2308 133.724 90 134.186 89.7692C134.494 89.6923 134.802 89.6154 135.111 89.5385C134.957 89.5385 134.957 89.5385 135.188 89.5385C134.957 89.5385 135.034 89.5385 135.188 89.5385C134.725 89.0769 134.263 88.6154 133.878 88.2308C134.032 88.6154 133.878 88.1538 133.878 88.1538C133.878 88.1538 133.801 88.2308 133.878 88.1538C133.724 88.3846 133.57 88.6154 133.493 88.7692C133.108 89.3077 132.568 89.6923 132.183 90.2308C130.796 91.6923 129.564 93.3077 128.023 94.5385C126.482 95.8462 124.941 97.0769 123.477 98.5385C122.168 99.8462 120.781 101.231 120.242 103.077C119.78 104.615 121.629 106.231 123.092 105.231C127.715 102.077 132.568 99.0769 137.653 96.3846C140.195 95 142.815 93.6154 145.357 92.2308C146.59 91.5385 147.822 90.9231 149.055 90.3077C149.748 89.9231 150.365 89.6154 150.981 89.2308C151.366 89 151.751 88.6923 152.214 88.6154C151.751 87.5385 151.289 86.4615 150.827 85.3077C149.594 86.4615 148.207 87.3846 146.821 88.3846C145.357 89.4615 143.893 90.5385 142.506 91.6923C139.579 93.9231 136.574 96.0769 133.647 98.3077C127.638 102.769 122.014 107.846 116.39 112.769C114.849 114.077 116.544 116.385 118.239 116C119.163 115.769 119.78 115.308 120.55 114.769C121.166 114.385 121.783 114 122.476 113.692C123.863 112.923 125.326 112.385 126.79 111.769C130.18 110.385 133.493 108.923 136.728 107.308C139.887 105.692 143.046 104 146.204 102.538C149.209 101.154 152.059 99.2308 155.218 98.0769C154.448 97.3077 153.6 96.4615 152.83 95.6923C152.984 95.3077 152.984 95.4615 152.83 95.6154C153.138 95.3846 152.83 95.6154 152.676 95.7692C152.368 96.0769 152.059 96.3077 151.751 96.6154C151.135 97.1538 150.596 97.5385 149.902 98C148.13 99.2308 146.436 100.692 144.818 102.154C139.964 106.308 135.188 110.769 130.565 115.385C129.641 116.308 128.639 117.231 127.638 118.154C126.636 119.077 125.712 120.154 125.712 121.615C125.712 123.154 127.33 123.846 128.639 123.308C131.567 121.923 134.186 119.923 136.883 118.154C139.733 116.231 142.584 114.308 145.434 112.308C148.285 110.385 151.058 108.385 153.908 106.538C156.605 104.846 159.455 103.308 162.229 101.692C165.387 99.9231 168.469 98.0769 171.397 95.9231C170.626 94.9231 169.856 93.9231 169.085 92.9231C158.531 101.462 147.514 109.308 137.268 118.154C134.263 120.692 131.336 123.308 128.408 125.923C129.333 126.846 130.257 127.769 131.104 128.615C132.645 127.077 130.642 124.385 128.793 125.615C127.715 126.308 126.713 127.308 125.712 128.231C124.633 129.231 122.784 130.769 122.861 132.385C122.938 133.923 124.402 134.692 125.789 134.077C138.5 128.231 150.673 121.385 162.999 114.846C164.771 113.923 166.697 113.077 168.392 112C169.779 111.077 171.088 110.231 172.706 109.769C172.09 108.692 171.474 107.615 170.857 106.538C160.149 115 148.593 122.231 137.576 130.231C134.417 132.538 131.182 134.923 127.946 137.154C125.943 138.538 127.715 141.692 129.872 140.462C137.422 136.231 144.895 131.846 152.291 127.385C159.378 123.154 166.543 118.846 173.477 114.385C177.406 111.846 181.181 109.154 184.725 106.154C186.188 104.923 184.648 102.308 182.876 102.923C180.873 103.615 178.87 104.462 177.098 105.615C176.25 106.154 175.403 106.692 174.632 107.308C173.631 108.077 172.475 108.615 171.397 109.231C167.391 111.615 163.307 114 159.224 116.385C150.981 121.231 142.738 126.154 134.571 131.154C130.026 134 125.404 136.846 120.858 139.615C118.932 140.769 120.242 143.538 122.322 143.154C123.246 143 124.248 142.231 125.095 141.769C126.174 141.154 127.252 140.615 128.254 140C132.183 137.769 136.266 135.615 140.272 133.462C149.748 128.308 159.378 123.385 168.854 118.308C170.472 117.462 172.013 116.615 173.631 115.692C174.324 115.308 174.94 114.923 175.634 114.615C175.788 114.538 175.942 114.462 176.096 114.385C175.711 114.538 176.25 114.308 176.327 114.308C176.404 114.308 176.558 114.308 176.635 114.231C176.481 114.308 176.096 114.308 175.788 114.077C175.634 113.077 175.557 112.077 175.403 111.077C170.78 115.385 165.387 118.769 160.226 122.462C154.756 126.385 149.132 130.154 144.047 134.615C142.892 135.615 143.585 137.385 144.895 137.846C147.822 138.769 150.673 137.769 152.907 135.769C154.14 134.615 155.757 134 157.221 133.154C158.685 132.308 160.149 131.538 161.69 130.692C167.853 127.231 173.862 123.692 179.948 120.154C183.415 118.231 186.882 116.231 190.272 114.308C189.655 113.231 188.962 112.077 188.346 111C180.95 115.615 173.708 120.462 166.466 125.462C159.224 130.462 151.982 135.462 144.741 140.462C142.738 141.846 140.735 143.308 138.731 144.692C136.883 145.923 135.034 147.154 133.647 148.846C132.337 150.385 133.647 152.385 135.496 152.077C138.731 151.615 141.582 149.692 144.355 148.154C147.437 146.462 150.442 144.615 153.446 142.769C159.455 139.077 165.542 135.462 171.628 131.846C175.095 129.846 178.561 127.846 182.182 126.077C181.566 125 180.873 123.846 180.256 122.769C173.169 127.154 166.158 131.615 159.07 136.077C155.603 138.231 152.059 140.385 148.516 142.462C145.126 144.462 141.582 146.308 138.269 148.462C136.42 149.615 134.648 150.923 132.876 152.231C131.336 153.462 129.564 154.462 128.331 156.077C127.715 156.846 127.561 157.769 128.177 158.615C128.793 159.385 129.795 159.538 130.642 159.077C135.342 156.538 139.579 153.308 143.739 149.923C147.976 146.462 152.137 142.923 156.297 139.385C160.688 135.615 165.002 131.846 169.394 128.077C173.554 124.462 177.637 120.846 181.797 117.308C183.877 115.615 186.111 114.077 188.268 112.462C189.039 111.846 189.886 111.231 190.734 110.769C190.888 110.692 191.042 110.538 191.273 110.462C191.35 110.385 191.889 110.154 191.735 110.231C191.889 110.154 192.12 110.154 192.352 110.077C192.12 110.077 192.12 110.077 192.352 110.077C192.198 110.077 192.12 110.077 192.043 110C191.812 109.154 191.581 108.231 191.35 107.385C188.731 111.308 184.879 114.308 181.258 117.231C177.175 120.462 173.092 123.769 168.931 127C164.925 130.154 160.842 133.154 156.682 136.077C152.522 138.923 148.439 141.769 144.124 144.231C141.813 145.538 139.348 146.769 136.883 147.692C134.263 148.692 131.567 149.615 129.024 150.846C127.638 151.538 127.869 154.077 129.487 154.385C131.952 154.846 134.186 154.231 136.112 152.615C136.574 152.231 136.96 151.769 137.499 151.385C138.038 151.077 138.577 150.769 139.117 150.462C140.426 149.692 141.736 148.923 143.046 148.154C147.976 145.231 152.984 142.308 157.992 139.462C167.853 133.846 177.945 128.769 187.729 123.154C190.426 121.615 193.122 119.846 195.895 118.385C198.284 117.077 200.826 116.231 202.829 114.385C204.678 112.769 201.982 110 200.133 111.692C198.515 113.154 196.281 113.846 194.355 114.846C192.043 116.077 189.809 117.538 187.575 118.846C182.799 121.615 178.022 124.231 173.169 126.769C163.461 131.923 153.908 137.308 144.432 142.923C141.736 144.538 139.04 146.154 136.343 147.692C135.65 148.077 135.034 148.462 134.417 149C134.032 149.385 133.647 149.769 133.185 150.077C132.414 150.615 131.49 150.846 130.565 150.692C130.719 151.846 130.873 153 131.027 154.231C133.262 153.077 135.65 152.308 137.961 151.462C140.272 150.538 142.584 149.538 144.741 148.308C149.209 145.923 153.292 143.077 157.375 140.154C166.081 134.077 174.324 127.462 182.645 120.923C187.036 117.462 191.581 113.923 194.74 109.231C195.279 108.462 194.971 107 194.047 106.615C191.966 105.769 190.04 106.615 188.346 107.846C186.651 109 184.956 110.231 183.261 111.462C178.561 114.846 174.478 118.692 170.164 122.385C161.304 130.077 152.445 137.692 143.431 145.231C138.809 149.077 134.109 152.923 128.716 155.769C129.487 156.769 130.257 157.769 131.027 158.769C132.029 157.462 133.339 156.615 134.648 155.615C136.189 154.462 137.653 153.308 139.271 152.308C142.584 150.154 146.05 148.308 149.44 146.308C156.528 142.154 163.461 137.846 170.395 133.385C174.247 130.923 178.176 128.462 182.105 126C184.185 124.692 182.336 121.615 180.179 122.692C167.699 128.846 156.22 136.769 144.124 143.692C142.506 144.615 140.889 145.538 139.271 146.385C137.73 147.231 136.189 148 134.34 148.231C134.957 149.308 135.573 150.385 136.189 151.462C137.422 150.077 138.886 149 140.426 148C142.198 146.769 143.893 145.538 145.665 144.308C149.286 141.769 152.907 139.231 156.528 136.769C163.616 131.846 170.703 126.923 177.868 122.154C181.951 119.462 186.034 116.769 190.194 114.231C192.275 112.923 190.426 109.692 188.268 110.923C176.635 117.538 165.156 124.308 153.369 130.769C152.522 131.231 151.52 131.615 150.827 132.231C150.288 132.769 149.825 133.308 149.132 133.692C148.053 134.385 147.052 134.462 145.819 134.077C146.127 135.154 146.358 136.231 146.667 137.308C151.674 132.923 157.221 129.231 162.614 125.385C167.853 121.692 173.323 118.154 178.099 113.769C179.101 112.846 178.715 111.385 177.714 110.769C176.404 109.846 174.632 110.846 173.4 111.385C172.321 111.923 171.32 112.538 170.318 113.154C165.696 115.769 160.996 118.154 156.297 120.615C146.513 125.769 136.728 131 127.021 136.385C126.02 136.923 125.018 137.538 124.017 138.077C123.4 138.462 122.707 138.769 122.091 139.154C121.86 139.308 121.629 139.385 121.397 139.538C121.32 139.615 121.243 139.615 121.166 139.692C120.935 139.846 121.706 139.538 121.397 139.615C121.86 140.769 122.399 141.923 122.861 143.154C138.963 133.154 155.141 123.462 171.397 113.769C173.631 112.462 175.788 111.077 177.945 109.692C179.794 108.462 181.797 107.462 183.954 106.692C183.338 105.615 182.722 104.538 182.105 103.462C175.942 108.615 169.085 112.769 162.229 116.923C154.987 121.308 147.822 125.692 140.503 130C136.343 132.462 132.183 134.846 127.946 137.231C128.562 138.308 129.256 139.462 129.872 140.538C135.65 136.462 141.197 132.231 146.975 128.231C152.599 124.308 158.3 120.462 163.924 116.462C167.159 114.154 170.395 111.769 173.477 109.231C175.018 108 173.323 105.538 171.628 106C170.164 106.385 168.7 107 167.468 107.846C166.774 108.308 166.158 108.769 165.387 109.154C164.54 109.615 163.693 110.077 162.845 110.462C159.686 112.154 156.528 113.846 153.292 115.538C147.129 118.923 140.966 122.231 134.648 125.385C131.027 127.231 127.407 129 123.709 130.692C124.71 131.231 125.635 131.769 126.636 132.385C126.636 132.154 126.636 132.923 126.482 133C126.559 133 126.636 132.769 126.636 132.692C126.713 132.615 126.944 132.308 126.636 132.615C126.713 132.462 126.867 132.385 126.944 132.231C127.484 131.692 128.023 131.154 128.562 130.615C129.101 130.154 129.641 129.692 130.18 129.231C130.334 129.077 130.488 128.923 130.719 128.846C131.027 128.615 130.873 128.769 130.642 128.923C129.872 127.923 129.101 126.923 128.331 125.923C126.559 127.692 129.256 130.308 131.027 128.615C136.189 124 141.351 119.462 146.667 115.077C151.905 110.846 157.221 106.769 162.537 102.692C165.542 100.308 168.623 97.9231 171.551 95.4615C173.169 94.0769 170.934 91.1538 169.239 92.4615C164.155 96.3077 158.377 99.0769 152.907 102.385C150.056 104.154 147.283 106.077 144.51 108C141.582 110 138.731 112 135.804 113.923C132.799 116 129.795 118.308 126.482 119.846C127.484 120.385 128.408 120.923 129.41 121.538C129.41 121.769 129.178 121.846 129.41 121.692C129.564 121.538 129.564 121.538 129.718 121.385C130.103 120.923 130.565 120.615 131.027 120.231C131.952 119.385 132.876 118.462 133.801 117.615C136.112 115.385 138.423 113.154 140.812 110.923C143.123 108.769 145.511 106.615 147.899 104.538C148.439 104.077 149.055 103.538 149.594 103.077C149.902 102.769 150.288 102.538 150.596 102.231C150.75 102.077 150.904 102 151.058 101.846C151.058 101.846 150.904 101.923 150.981 101.846C151.443 101.538 151.905 101.231 152.291 100.923C153.831 99.7692 155.989 98.4615 156.605 96.5385C157.067 95.2308 155.603 93.6923 154.217 94.1538C151.058 95.3077 148.207 97.1538 145.126 98.6154C141.89 100.154 138.654 101.846 135.419 103.462C132.337 105.077 129.101 106.462 125.866 107.846C124.248 108.538 122.63 109.154 121.089 109.923C120.396 110.308 119.703 110.692 119.009 111.077C118.393 111.462 117.931 112 117.16 112.154C117.777 113.231 118.393 114.308 119.009 115.385C124.556 110.538 130.103 105.538 136.035 101.154C139.117 98.9231 142.121 96.6923 145.126 94.3846C146.513 93.3077 147.822 92.3077 149.209 91.3077C150.673 90.3077 152.214 89.3077 153.446 88C154.525 86.9231 153.831 84.4615 152.059 84.6923C151.289 84.7692 150.596 84.9231 149.825 85.3077C149.209 85.6154 148.67 86.0769 148.053 86.3846C146.744 87.0769 145.511 87.7692 144.201 88.3846C141.505 89.7692 138.809 91.3077 136.112 92.6923C130.796 95.4615 125.712 98.6154 120.781 102C121.706 102.692 122.63 103.462 123.632 104.154C123.94 103.077 124.941 102.231 125.712 101.538C126.79 100.462 127.792 99.4615 128.947 98.5385C130.18 97.5385 131.413 96.5385 132.491 95.3846C133.339 94.4615 134.109 93.5385 134.957 92.6154C135.804 91.7692 136.651 90.8462 137.114 89.7692C137.73 88.3846 137.576 86.4615 135.881 85.9231C133.493 85.2308 131.027 87 129.024 88.0769C127.561 88.8462 125.943 89.3846 124.479 90.1538C123.4 90.7692 122.168 91.7692 120.704 91.7692C121.32 92.3846 122.014 93.0769 122.63 93.6923C122.63 94.1538 122.399 94.2308 122.707 93.7692C122.784 93.6154 123.015 93.4615 123.092 93.3077C123.477 92.8462 123.94 92.3846 124.325 92C125.404 91 126.636 90.2308 127.869 89.4615C129.178 88.6154 130.411 87.6923 131.567 86.6154C132.568 85.6923 133.878 84.6923 134.109 83.2308C134.417 80.7692 131.644 80.3077 129.872 80.6154C128.254 80.8462 126.636 81.5385 125.095 82.1538C123.632 82.7692 122.168 83.3846 120.781 84.1538C121.783 84.6923 122.707 85.2308 123.709 85.8462C123.709 85.7692 123.786 85.6154 123.94 85.3846C124.094 85.1538 124.325 84.9231 124.556 84.6923C125.095 84.1538 125.635 83.5385 125.943 82.8462C126.636 81.3846 126.636 79.5385 125.712 78.1538C124.402 76.3077 122.322 76.3077 120.396 77.1538C118.624 77.9231 116.698 77.6154 114.849 77.5385C112.384 77.5385 112.384 81.3846 114.849 81.3846Z" fill="#43A6D3"/>
<path d="M129.564 153.231C128.408 154 127.253 154.846 126.328 155.923C125.481 156.923 124.325 158.385 124.71 159.846C125.326 162.308 128.639 161.923 130.565 161.769C136.42 161.308 141.736 158.692 146.975 156.231C149.671 154.923 152.522 153.769 155.218 152.538C158.223 151.231 161.15 149.769 164.155 148.462C169.856 146 175.557 143.538 181.181 140.769C184.185 139.308 187.113 137.769 189.809 135.846C191.196 134.846 192.583 133.769 194.124 133C195.433 132.308 196.897 132 198.13 131.154C198.823 130.692 199.285 129.846 198.977 129C197.667 124.769 192.044 127.077 189.347 128.231C186.188 129.615 183.261 131.308 180.41 133.308C174.478 137.385 168.777 141.692 162.537 145.231C156.22 148.846 149.748 152.231 143.277 155.385C141.505 156.231 139.656 157.154 137.807 157.923C136.035 158.692 134.186 159.308 132.414 160.077C130.565 160.846 128.716 161.769 126.867 162.615C125.249 163.385 123.4 163.769 122.707 165.615C122.168 166.923 123.786 168.462 125.095 168C127.484 167.154 129.41 165.692 131.567 164.385C133.878 162.923 136.189 161.538 138.5 160.077C143.123 157.154 147.668 154.231 152.291 151.231C156.836 148.308 161.073 145.154 165.696 142.385C170.318 139.692 175.095 137.385 179.64 134.615C182.182 133.077 184.494 131.308 186.882 129.538C187.883 128.769 188.885 128.077 190.04 127.462C191.196 126.769 192.275 126 192.968 124.846C194.355 122.769 190.965 120.846 189.655 122.923C189.193 123.692 188.346 124 187.575 124.462C186.574 125.077 185.572 125.769 184.648 126.462C182.645 128 180.719 129.462 178.638 130.769C174.17 133.462 169.548 135.846 165.002 138.385C160.457 140.923 156.22 144.077 151.905 146.923C147.514 149.769 143.046 152.615 138.577 155.462C136.112 157.077 133.57 158.615 131.027 160.154C128.793 161.538 126.636 163.308 124.094 164.231C124.864 165 125.712 165.846 126.482 166.615C126.405 166.692 126.328 166.769 126.328 166.846C126.097 167.077 126.097 167.154 126.251 167.077L126.405 167C126.713 166.923 127.021 166.769 127.33 166.615C128.177 166.231 129.024 165.846 129.872 165.462C131.336 164.769 132.799 164 134.34 163.385C137.422 162.154 140.503 160.923 143.508 159.538C149.671 156.538 155.757 153.462 161.767 150.077C164.694 148.462 167.622 146.769 170.472 144.923C173.246 143.154 175.942 141.154 178.638 139.231C181.874 136.923 185.033 134.615 188.577 132.846C190.426 131.846 191.812 131.231 193.738 130.615C194.124 130.462 194.509 130.385 194.971 130.308C195.048 130.308 195.202 130.308 195.279 130.231C195.125 130.231 194.971 130.231 195.202 130.231C195.356 130.231 195.587 130.231 195.741 130.231C196.204 130.231 195.51 130.231 195.818 130.231C196.05 130.231 196.281 130.462 195.818 130.231C196.05 130.385 195.51 129.923 195.741 130.154C195.896 130.308 195.51 129.769 195.587 130C195.664 130.154 195.433 129.538 195.51 129.846C195.818 129.154 196.127 128.385 196.358 127.692C195.356 128.385 194.201 128.692 193.122 129.154C191.889 129.692 190.734 130.538 189.655 131.308C187.421 132.846 185.187 134.308 182.799 135.615C177.868 138.231 172.783 140.538 167.699 142.769C162.383 145.077 157.067 147.538 151.751 149.846C149.286 150.923 146.744 152 144.278 153.154C142.044 154.231 139.733 155.308 137.345 156.154C134.725 157.077 132.029 157.769 129.179 157.769C128.716 157.769 128.177 157.769 127.715 157.769C127.253 157.769 127.792 157.692 127.869 157.846C129.179 159.923 128.177 159.615 128.716 159C129.179 158.538 129.487 157.923 130.026 157.462C130.488 157 131.027 156.615 131.644 156.231C132.491 155.615 132.876 154.538 132.337 153.615C131.644 153.077 130.411 152.615 129.564 153.231Z" fill="#43A6D3"/>
</g>
<path d="M26.3674 34.8959C26.3674 37.2769 24.9591 39.1115 22.2206 40.3996C20.0299 41.4535 17.5653 42 14.8659 42C12.4013 42 9.50636 41.4535 6.18109 40.3606C2.0734 38.9164 0 37.316 0 35.4033C0 34.7007 0.234725 34.1152 0.782417 33.6078C1.29099 33.1004 1.91692 32.8271 2.58198 32.8271C3.63824 32.8271 4.61626 33.2565 5.51604 34.1152C7.04175 35.4033 7.86329 36.1059 7.98065 36.223C9.34988 37.0037 11.8145 37.3941 15.3745 37.3941C18.5433 37.3941 20.1081 36.6914 20.1081 35.2472C20.1081 34.0372 18.6215 32.3587 15.6483 30.2119C13.5749 28.8848 11.5015 27.5576 9.42812 26.2305C6.76791 24.4349 4.81186 22.7565 3.63824 21.1171C2.03428 19.0093 1.21275 16.5892 1.21275 13.8569C1.21275 10.4219 2.26901 7.33828 4.38153 4.64497C6.65054 1.67843 9.46724 0.19516 12.8316 0.19516C15.7266 0.19516 18.1521 0.975829 20.1864 2.5762C22.1815 4.13754 23.4334 6.36245 24.0202 9.21189C24.1376 10.3048 24.3723 11.9442 24.7244 14.052C24.8809 14.6766 24.9591 15.145 24.9591 15.4572C24.9591 16.8624 24.7244 18.0725 24.2549 19.0093C23.6681 20.3364 22.7292 21 21.4773 21C20.7732 21 20.1081 20.6877 19.4431 20.0242C18.8171 19.3606 18.465 18.697 18.465 17.9944C18.465 17.487 18.5824 16.7453 18.8171 15.7305C19.0518 14.7156 19.1692 13.974 19.1692 13.4665C19.1692 8.15799 17.4088 5.54274 13.8879 5.54274C11.9319 5.54274 10.2888 6.36245 8.95867 8.04089C7.62856 9.71932 6.96351 11.5149 6.96351 13.5056C6.96351 16.316 8.64571 19.0483 12.0101 21.7026C15.1006 23.7714 18.1912 25.8401 21.36 27.9089C24.6852 30.4071 26.3674 32.71 26.3674 34.8959Z" fill="#219653"/>
<path d="M57.977 16.3941C57.977 17.2528 57.8987 18.0335 57.7814 18.697C56.2557 27.7138 51.9915 32.2026 44.9498 32.2026C41.3506 32.2026 38.1036 31.3049 35.2478 29.4703V30.6803C35.2087 33.2956 35.4434 35.0911 35.952 36.0669C36.6953 37.4331 37.0473 38.2138 37.0473 38.4089C37.0473 39.1896 36.7344 39.8922 36.1476 40.4387C35.5216 41.0242 34.8566 41.2974 34.0742 41.2974C32.3137 41.2974 31.101 40.6729 30.5142 39.4238C30.1621 38.6822 29.9274 37.316 29.81 35.2863C29.7317 33.9591 29.6926 32.4368 29.6926 30.7194C29.6926 30.0558 29.7709 29.0799 29.9665 27.7528C30.123 26.4257 30.2403 25.4108 30.2403 24.7082V20.7268C30.2012 19.5558 30.2794 17.8383 30.475 15.5353C30.6706 13.2324 30.788 11.5539 30.788 10.461V5.2305C30.788 5.15244 30.5924 4.09853 30.2403 2.06879C31.2575 1.13199 32.1964 0.663589 33.0961 0.663589C34.1524 0.663589 34.9739 1.05392 35.5999 1.79556C36.2258 2.53719 36.5388 3.474 36.5388 4.56694C36.5388 4.84017 36.5388 5.1134 36.5388 5.38664C39.1207 1.99073 42.3678 0.273254 46.3581 0.273254C50.0746 0.273254 53.0086 1.67846 55.1603 4.4108C57.0772 6.90894 58.0552 10.0707 58.0552 13.8959C58.0552 14.1692 58.0552 14.5985 58.0552 15.106C57.977 15.7305 57.977 16.1208 57.977 16.3941ZM52.6174 15.4573C52.6174 12.764 52.2262 10.461 51.4047 8.54835C50.2702 5.97214 48.5097 4.68404 46.1625 4.68404C43.1502 4.68404 40.5682 6.51861 38.4166 10.1878C36.4997 13.3885 35.5216 16.6283 35.5216 19.8681C35.5216 25.2937 38.2601 28.026 43.737 28.026C46.6711 28.026 48.8227 26.777 50.1919 24.2008C50.9744 22.7956 51.7177 20.2584 52.4218 16.5502C52.5783 15.7695 52.6174 15.4182 52.6174 15.4573Z" fill="#219653"/>
<path d="M92.873 30.29C92.873 32.1636 92.0123 33.1394 90.3301 33.1394C90.5257 34.0372 90.9561 35.2472 91.6211 36.7695C91.582 37.6283 91.2299 38.3309 90.5649 38.8773C89.8998 39.4238 89.1174 39.6971 88.2176 39.6971C87.5134 39.6971 86.6919 39.5019 85.753 39.0725C85.2444 38.0576 84.9706 36.8476 84.9706 35.4424C84.9706 35.0911 84.9706 34.5837 85.0097 33.9201C85.0488 33.2565 85.0488 32.7881 85.0488 32.4368C85.0488 32.7101 84.4229 32.8272 83.1319 32.8272C80.9411 32.8272 78.32 32.9443 75.3077 33.1394C71.0044 33.3736 68.6572 33.7249 68.3051 34.1543C67.9139 34.5837 67.6792 36.6524 67.5618 40.3997C67.0532 41.1413 66.3882 41.5316 65.6058 41.5316C64.7842 41.5316 63.9236 41.1803 63.102 40.5168C62.2414 39.8532 61.811 39.1115 61.811 38.3309C61.811 38.0576 62.1631 36.9647 62.8673 35.0521C63.6497 32.2807 64.9016 28.1431 66.7011 22.5614C71.9433 8.23608 76.2857 1.09296 79.7675 1.09296C83.171 1.09296 85.7921 4.8792 87.6308 12.4517C88.4523 15.8476 89.2347 21.0391 89.9389 28.0651C90.9561 28.2993 91.582 28.4944 91.895 28.6506C92.56 29.0019 92.873 29.5484 92.873 30.29ZM84.6576 28.0651C82.9363 14.4424 81.3715 7.61155 80.0022 7.61155C78.9068 7.61155 76.9899 10.8123 74.2515 17.2138C72.2954 21.8197 70.7306 25.8011 69.6352 29.2361C70.8871 28.9629 72.7257 28.6506 75.1904 28.2602C77.4594 27.948 80.589 27.9089 84.6576 28.0651Z" fill="#219653"/>
<path d="M127.69 2.22491C127.69 2.65428 127.534 3.20075 127.182 3.86431C126.751 4.72305 126.478 5.26952 126.399 5.46469C125.265 9.01673 124.678 11.9442 124.678 14.2082L124.522 31.0316C124.482 32.7491 124.091 34.5056 123.348 36.3011C122.37 38.5651 121.157 39.697 119.71 39.697C117.558 39.697 115.445 37.9015 113.294 34.3104C111.768 31.6561 110.203 27.987 108.678 23.303C107.778 20.2584 106.839 17.2138 105.9 14.1691C105.078 20.8048 104.687 25.2546 104.687 27.5186C104.687 32.5149 105 35.4033 105.587 36.145C106.174 36.8866 106.487 37.4331 106.487 37.7844C106.487 38.526 106.096 39.1896 105.313 39.7361C104.531 40.3216 103.748 40.5948 102.966 40.5948C101.871 40.5948 100.971 39.4628 100.267 37.1208C99.7189 35.3253 99.4451 33.6859 99.4451 32.2026C99.4451 31.539 99.4451 30.5632 99.4842 29.2361C99.5233 27.948 99.5624 26.9331 99.5624 26.2695C99.5624 24.6691 99.758 22.2881 100.149 19.1264C100.54 15.9647 100.736 13.5836 100.736 11.9833V4.87918C100.736 4.80112 100.697 4.68402 100.658 4.52788C100.619 4.37175 100.58 4.25465 100.58 4.17658C100.58 3.39591 101.127 2.77138 102.144 2.26394C103.005 1.83458 103.866 1.63941 104.726 1.63941C106.722 1.63941 108.13 2.26394 109.03 3.55205C109.264 3.98142 109.46 4.87918 109.656 6.24536C109.773 7.18216 109.89 8.158 110.008 9.13383C110.477 11.9052 111.729 16.355 113.724 22.4833C116.111 29.7045 117.871 33.3346 119.045 33.3346C119.475 33.3346 119.671 32.7881 119.671 31.6952C119.671 31.3829 119.631 30.8755 119.514 30.1729C119.397 29.4703 119.358 28.9238 119.358 28.5335L119.944 12.6468C120.062 10.2658 120.492 7.92379 121.157 5.62082C122.174 2.38104 123.544 0.741638 125.265 0.741638C125.813 0.741638 126.556 1.09294 127.573 1.79554C127.651 1.91264 127.69 2.06878 127.69 2.22491Z" fill="#219653"/>
<path d="M140.405 4.13755C140.405 4.33272 140.209 4.76209 139.857 5.42566C139.7 5.73793 139.544 6.63569 139.387 8.07993C138.566 16.8234 138.175 24.513 138.175 31.0706C138.175 32.7881 138.331 34.1933 138.644 35.2472C138.918 36.145 139.466 37.3941 140.365 38.9164C140.405 38.9944 140.405 39.1115 140.405 39.2677C140.405 40.0874 139.427 40.5167 137.51 40.5167H136.962C134.967 40.4777 133.754 38.8773 133.324 35.7156C132.776 31.8513 132.502 26.5428 132.502 19.7509C132.502 18.1506 132.541 15.7305 132.58 12.5297C132.62 9.329 132.659 6.8699 132.659 5.23049C132.659 4.33272 133.128 3.47398 134.067 2.65428C135.006 1.83458 135.906 1.44424 136.845 1.44424C137.549 1.44424 138.331 1.75651 139.153 2.30298C140.013 2.88848 140.405 3.51302 140.405 4.13755Z" fill="#219653"/>
<path d="M170.293 34.8959C170.293 37.2769 168.885 39.1115 166.146 40.3996C163.955 41.4535 161.491 42 158.791 42C156.327 42 153.432 41.4535 150.107 40.3606C145.999 38.9554 143.926 37.316 143.926 35.4424C143.926 34.7398 144.16 34.1543 144.708 33.6468C145.217 33.1394 145.842 32.8662 146.508 32.8662C147.564 32.8662 148.542 33.2955 149.442 34.1543C150.967 35.4424 151.789 36.145 151.906 36.2621C153.275 37.0427 155.74 37.4331 159.3 37.4331C162.469 37.4331 164.034 36.7305 164.034 35.2862C164.034 34.0762 162.547 32.3978 159.574 30.2509C157.5 28.9238 155.427 27.5966 153.354 26.2695C150.693 24.474 148.737 22.7955 147.564 21.1561C145.96 19.0483 145.138 16.6282 145.138 13.8959C145.138 10.461 146.195 7.37731 148.307 4.68401C150.576 1.71746 153.393 0.234192 156.757 0.234192C159.652 0.234192 162.078 1.01486 164.112 2.61523C166.107 4.17657 167.359 6.40148 167.946 9.25092C168.063 10.3439 168.298 11.9833 168.65 14.0911C168.806 14.7156 168.885 15.184 168.885 15.4963C168.885 16.9015 168.65 18.1115 168.18 19.0483C167.594 20.3755 166.655 21.039 165.403 21.039C164.699 21.039 164.034 20.7268 163.369 20.0632C162.743 19.3996 162.391 18.7361 162.391 18.0334C162.391 17.526 162.508 16.7844 162.743 15.7695C162.977 14.7546 163.095 14.013 163.095 13.5056C163.095 8.19702 161.334 5.58178 157.813 5.58178C155.857 5.58178 154.214 6.40148 152.884 8.07992C151.554 9.75836 150.889 11.5539 150.889 13.5446C150.889 16.355 152.571 19.0874 155.936 21.7416C159.065 23.8885 162.156 25.9572 165.286 28.026C168.611 30.4071 170.293 32.71 170.293 34.8959Z" fill="#219653"/>
<path d="M206.206 4.56692C206.206 4.91822 205.932 5.30855 205.384 5.73792C204.837 6.16729 204.524 6.47955 204.445 6.67472C203.428 8.58736 202.959 12.3346 203.037 17.9944L203.115 20.2584C203.233 20.2193 203.35 20.2193 203.507 20.2193C204.093 20.2193 204.641 20.5706 205.189 21.2342C205.736 21.8978 205.971 22.5613 205.971 23.1468C205.971 23.6152 205.58 23.9665 204.876 24.1617C204.289 24.2788 203.702 24.3959 203.115 24.513C203.155 26.3476 203.194 28.1822 203.233 30.0558C203.311 32.4368 203.546 34.1933 204.015 35.3643C204.328 36.3402 204.485 37.0037 204.485 37.316C204.485 38.0967 204.172 38.7993 203.624 39.4628C203.037 40.1264 202.333 40.4387 201.59 40.4387C200.103 40.4387 199.125 39.658 198.656 38.0967C198.577 37.7844 198.382 36.4182 198.108 33.9981C198.03 33.1394 197.991 32.1245 197.991 30.9145V28.4944C197.951 26.8941 197.834 25.6059 197.678 24.5911C195.409 24.6691 192.709 24.9814 189.58 25.5669C186.88 26.0744 184.181 26.5818 181.56 27.0892C181.716 27.5967 181.795 29.7045 181.795 33.4126C181.795 36.3792 182.225 38.3309 183.125 39.2677C183.242 39.4628 183.32 39.658 183.32 39.8532C183.32 40.868 182.538 41.3755 180.973 41.3755C179.526 41.3755 178.391 40.9071 177.569 40.0483C177.061 39.5019 176.591 35.4424 176.083 27.8699C175.34 27.7138 174.753 27.2844 174.322 26.5428C173.892 25.8011 173.697 25.0204 173.697 24.2007C173.697 23.7323 173.931 23.4201 174.479 23.2249C174.988 23.0297 175.457 22.8736 175.966 22.7175C176.005 22.21 176.083 21.3123 176.2 19.9461C176.318 18.8141 176.357 17.9164 176.357 17.2528C176.357 10.3829 176.709 6.01115 177.491 4.13755C178.117 2.61524 179.213 1.83457 180.699 1.83457C181.638 1.83457 182.499 2.14684 183.359 2.73234C184.181 3.35688 184.572 4.09851 184.572 4.99628C184.572 5.46468 184.416 6.05019 184.103 6.75279C183.672 7.68959 183.438 8.23606 183.398 8.39219C182.342 11.671 181.834 15.5744 181.834 20.1022C181.834 20.8439 181.834 21.3123 181.834 21.4294C182.186 21.3903 183.086 21.2342 184.572 20.961C189.188 20.0242 193.531 19.5558 197.599 19.5558C197.717 13.8178 197.873 10.1097 198.069 8.43123C198.734 2.81041 200.064 0 202.137 0C203.35 0 204.328 0.468402 205.111 1.36617C205.815 2.30297 206.206 3.35688 206.206 4.56692Z" fill="#219653"/>
<path d="M173.402 237.727C173.402 239.751 172.474 240.806 170.661 240.806C170.871 241.776 171.335 243.083 172.052 244.728C172.01 245.656 171.631 246.415 170.914 247.005C170.197 247.596 169.353 247.891 168.383 247.891C167.624 247.891 166.738 247.68 165.726 247.216C165.178 246.12 164.883 244.812 164.883 243.294C164.883 242.914 164.883 242.366 164.925 241.649C164.967 240.932 164.967 240.426 164.967 240.047C164.967 240.342 164.292 240.468 162.901 240.468C160.539 240.468 157.713 240.595 154.466 240.806C149.911 241.059 147.38 241.438 147.001 241.902C146.579 242.366 146.326 244.601 146.2 248.65C145.651 249.451 144.934 249.873 144.091 249.873C143.205 249.873 142.277 249.494 141.392 248.777C140.464 248.06 140 247.258 140 246.415C140 246.12 140.38 244.939 141.139 242.872C141.982 239.878 143.332 235.408 145.272 229.377C150.923 213.899 155.604 206.181 159.358 206.181C163.027 206.181 165.853 210.272 167.835 218.454C168.721 222.123 169.564 227.732 170.323 235.323C171.42 235.576 172.094 235.787 172.432 235.956C173.064 236.335 173.402 236.926 173.402 237.727ZM164.545 235.323C162.69 220.604 161.003 213.224 159.569 213.224C158.388 213.224 156.321 216.682 153.369 223.599C151.26 228.575 149.574 232.877 148.393 236.588C149.742 236.293 151.724 235.956 154.381 235.534C156.743 235.197 160.159 235.154 164.545 235.323Z" fill="#F26522"/>
<path d="M209.882 238.528C209.882 239.33 209.672 240.3 209.25 241.438C208.195 244.222 206.213 246.373 203.303 247.975C200.646 249.409 197.736 250.126 194.573 250.126C189.386 250.126 185.379 248.186 182.638 244.264C180.234 240.806 179.011 236.42 179.011 231.021C179.011 226.551 179.686 222.376 181.12 218.454C182.68 213.983 184.958 210.483 188.036 207.952C190.44 205.97 192.886 205 195.375 205C198.959 205 201.658 206.56 203.556 209.681C205.075 212.212 205.834 215.417 205.834 219.213C205.834 220.942 205.37 223.135 204.526 225.75C203.472 228.955 202.291 230.557 200.984 230.557C199.508 230.557 198.411 229.63 197.652 227.774C198.074 227.479 198.664 227.015 199.423 226.34C200.267 225.412 200.688 223.599 200.688 220.9C200.688 218.285 200.393 216.092 199.887 214.236C199.044 211.495 197.652 210.103 195.712 210.103C194.362 210.103 192.886 210.947 191.284 212.676C190.061 213.983 189.006 215.417 188.163 217.02C186.096 221.068 185.042 226.087 185.042 232.118C185.042 240.89 188.331 245.234 194.911 245.234C197.736 245.234 199.972 244.433 201.616 242.83C202.291 242.113 203.261 240.637 204.611 238.36C205.496 236.715 206.466 235.914 207.478 235.914C208.153 235.914 208.744 236.167 209.25 236.715C209.629 237.305 209.882 237.896 209.882 238.528Z" fill="#F26522"/>
<path d="M240.332 210.44C240.332 211.157 240.121 211.79 239.657 212.296C239.193 212.844 238.645 213.097 237.97 213.097C237.591 213.097 236.874 212.929 235.862 212.549C234.807 212.212 233.964 212.001 233.289 212.001C231.476 212.001 230 212.001 228.903 212.001C228.27 212.001 227.933 212.043 227.849 212.17C227.764 212.296 227.722 212.676 227.638 213.393C227.469 214.447 227.216 216.05 226.879 218.116C226.077 223.852 225.656 230.304 225.656 237.516C225.656 242.408 226.246 245.782 227.385 247.596V249.283C226.583 249.705 225.951 249.915 225.487 249.915C222.788 249.915 221.016 248.608 220.215 245.993C219.836 244.728 219.625 242.324 219.625 238.739C219.625 234.564 219.709 231.317 219.878 228.997C219.92 227.985 220.131 225.581 220.553 221.743C220.89 218.749 221.059 216.345 221.059 214.489V212.634C220.468 212.676 219.33 212.844 217.643 213.097C216.251 213.308 215.112 213.435 214.226 213.435C211.316 213.435 209.84 212.591 209.84 210.862C209.84 210.145 210.051 209.723 210.473 209.597C211.106 208.669 214.395 207.868 220.426 207.193C225.065 206.687 228.819 206.434 231.687 206.434C233.711 206.434 235.482 206.687 237 207.193C239.236 207.868 240.332 208.964 240.332 210.44Z" fill="#F26522"/>
<path d="M252.984 209.47C252.984 209.681 252.774 210.145 252.394 210.862C252.225 211.2 252.057 212.17 251.888 213.73C251.002 223.177 250.581 231.485 250.581 238.571C250.581 240.426 250.749 241.944 251.087 243.083C251.382 244.053 251.972 245.403 252.942 247.048C252.984 247.132 252.984 247.258 252.984 247.427C252.984 248.313 251.93 248.777 249.864 248.777H249.273C247.122 248.735 245.815 247.005 245.351 243.589C244.761 239.414 244.465 233.678 244.465 226.34C244.465 224.611 244.508 221.996 244.55 218.538C244.592 215.08 244.634 212.423 244.634 210.651C244.634 209.681 245.14 208.753 246.152 207.868C247.164 206.982 248.134 206.56 249.147 206.56C249.906 206.56 250.749 206.898 251.635 207.488C252.521 208.121 252.984 208.796 252.984 209.47Z" fill="#F26522"/>
<path d="M291.7 227.521C291.7 233.594 290.182 238.739 287.188 242.957C283.856 247.722 279.259 250.126 273.481 250.126C271.836 250.126 270.065 249.789 268.167 249.198C263.95 247.849 260.913 245.529 259.142 242.198C257.581 239.33 256.78 235.492 256.78 230.684C256.78 224.442 258.256 218.96 261.25 214.194C264.709 208.585 269.39 205.759 275.294 205.759C280.482 205.759 284.615 208.205 287.694 213.013C290.351 217.146 291.7 221.996 291.7 227.521ZM285.627 226.973C285.627 218.2 282.801 212.971 277.15 211.2C276.56 211.031 275.885 210.947 275.126 210.947C272.764 210.947 270.402 212.001 268.041 214.11C264.287 217.526 262.389 223.641 262.389 232.413C262.389 233.214 262.558 234.353 262.895 235.745C263.612 238.992 264.667 241.354 266.101 242.788C267.745 244.475 270.149 245.318 273.312 245.318C277.614 245.318 280.861 243.21 283.054 239.034C284.784 235.745 285.627 231.738 285.627 226.973Z" fill="#F26522"/>
<path d="M327 207.404C327 207.868 326.831 208.458 326.452 209.175C325.988 210.103 325.693 210.694 325.608 210.904C324.385 214.742 323.753 217.905 323.753 220.351L323.584 238.528C323.542 240.384 323.12 242.282 322.319 244.222C321.264 246.668 319.957 247.891 318.396 247.891C316.077 247.891 313.799 245.951 311.48 242.071C309.835 239.203 308.148 235.239 306.503 230.178C305.533 226.888 304.521 223.599 303.509 220.309C302.623 227.479 302.202 232.287 302.202 234.733C302.202 240.131 302.539 243.252 303.172 244.053C303.804 244.855 304.142 245.445 304.142 245.825C304.142 246.626 303.72 247.343 302.876 247.933C302.033 248.566 301.189 248.861 300.346 248.861C299.165 248.861 298.195 247.638 297.436 245.108C296.846 243.168 296.55 241.396 296.55 239.794C296.55 239.077 296.55 238.022 296.592 236.588C296.635 235.197 296.677 234.1 296.677 233.383C296.677 231.654 296.888 229.081 297.309 225.665C297.731 222.249 297.942 219.677 297.942 217.947V210.272C297.942 210.187 297.9 210.061 297.858 209.892C297.816 209.723 297.773 209.597 297.773 209.513C297.773 208.669 298.364 207.994 299.46 207.446C300.388 206.982 301.316 206.771 302.244 206.771C304.395 206.771 305.913 207.446 306.883 208.838C307.136 209.302 307.347 210.272 307.558 211.748C307.684 212.76 307.811 213.814 307.937 214.869C308.443 217.863 309.793 222.671 311.944 229.292C314.516 237.094 316.414 241.017 317.679 241.017C318.143 241.017 318.354 240.426 318.354 239.245C318.354 238.908 318.312 238.36 318.186 237.601C318.059 236.841 318.017 236.251 318.017 235.829L318.65 218.664C318.776 216.092 319.24 213.561 319.957 211.073C321.053 207.573 322.53 205.801 324.385 205.801C324.976 205.801 325.777 206.181 326.873 206.94C326.958 207.067 327 207.235 327 207.404Z" fill="#F26522"/>
<defs>
<clipPath id="clip0_325_773">
<rect width="101" height="105" fill="white" transform="translate(113 71)"/>
</clipPath>
</defs>
</svg>
